<?xml version="1.0" encoding="utf-8"?>
<!-- Generator: Adobe Illustrator 16.0.0, SVG Export Plug-In . SVG Version: 6.00 Build 0)  -->
<!DOCTYPE svg PUBLIC "-//W3C//DTD SVG 1.1//EN" "http://www.w3.org/Graphics/SVG/1.1/DTD/svg11.dtd">
<svg version="1.1" id="Layer_1" xmlns="http://www.w3.org/2000/svg" xmlns:xlink="http://www.w3.org/1999/xlink" x="0px" y="0px"
	 width="64px" height="64px" viewBox="0 0 64 64" enable-background="new 0 0 64 64" xml:space="preserve">
<path fill-rule="evenodd" clip-rule="evenodd" fill="#D3DBE2" d="M32,0c17.672,0,32,14.327,32,32c0,17.673-14.328,32-32,32
	C14.326,64,0,49.673,0,32C0,14.327,14.326,0,32,0z"/>
<g>
	<defs>
		<circle id="SVGID_1_" cx="32" cy="32" r="32"/>
	</defs>
	<clipPath id="SVGID_2_">
		<use xlink:href="#SVGID_1_"  overflow="visible"/>
	</clipPath>
	<g clip-path="url(#SVGID_2_)">
		<g>
			<path fill="#95A1AC" d="M27,28c0-1.104-0.896-2-2-2s-2,0.896-2,2s0.896,2,2,2S27,29.104,27,28z M39,26c-1.104,0-2,0.896-2,2
				s0.896,2,2,2s2-0.896,2-2S40.104,26,39,26z M37,36H27c-0.552,0-1,0.447-1,1s0.448,1,1,1h10c0.553,0,1-0.447,1-1S37.553,36,37,36z
				 M50.861,26.479C50.941,26.335,51,26.177,51,26v-7.277c0.596-0.347,1-0.984,1-1.723c0-1.104-0.896-2-2-2s-2,0.896-2,2
				c0,0.738,0.404,1.376,1,1.723V26h-2v-2c0-2.209-1.791-4-4-4H21c-2.209,0-4,1.791-4,4v2h-2v-7.277c0.595-0.347,1-0.984,1-1.723
				c0-1.104-0.896-2-2-2s-2,0.896-2,2c0,0.738,0.405,1.376,1,1.723V26c0,0.177,0.059,0.335,0.139,0.479
				C11.873,27.15,11,28.467,11,30v4c0,2.209,1.791,4,4,4h2v2c0,2.209,1.791,4,4,4h6v3h-3c-2.209,0-4,1.791-4,4v16
				c0,2.209,1.791,4,4,4h16c2.209,0,4-1.791,4-4V51c0-2.209-1.791-4-4-4h-3v-3h6c2.209,0,4-1.791,4-4v-2h2c2.209,0,4-1.791,4-4v-4
				C53,28.467,52.127,27.15,50.861,26.479z M35,47h-6v-3h6V47z M45,40c0,1.104-0.896,2-2,2H21c-1.104,0-2-0.896-2-2V24
				c0-1.104,0.896-2,2-2h22c1.104,0,2,0.896,2,2V40z"/>
		</g>
	</g>
</g>
</svg>
