<?xml version="1.0" encoding="UTF-8" standalone="no"?>
<!-- Generator: Adobe Illustrator 16.0.0, SVG Export Plug-In . SVG Version: 6.00 Build 0)  -->

<svg
   xmlns:dc="http://purl.org/dc/elements/1.1/"
   xmlns:cc="http://creativecommons.org/ns#"
   xmlns:rdf="http://www.w3.org/1999/02/22-rdf-syntax-ns#"
   xmlns:svg="http://www.w3.org/2000/svg"
   xmlns="http://www.w3.org/2000/svg"
   xmlns:sodipodi="http://sodipodi.sourceforge.net/DTD/sodipodi-0.dtd"
   xmlns:inkscape="http://www.inkscape.org/namespaces/inkscape"
   version="1.1"
   id="Layer_1"
   x="0px"
   y="0px"
   width="40px"
   height="40px"
   viewBox="0 0 40 40"
   enable-background="new 0 0 40 40"
   xml:space="preserve"
   inkscape:version="0.91 r13725"
   sodipodi:docname="CheckBox.svg"><metadata
     id="metadata4152"><rdf:RDF><cc:Work
         rdf:about=""><dc:format>image/svg+xml</dc:format><dc:type
           rdf:resource="http://purl.org/dc/dcmitype/StillImage" /></cc:Work></rdf:RDF></metadata><defs
     id="defs4150" /><sodipodi:namedview
     pagecolor="#ffffff"
     bordercolor="#666666"
     borderopacity="1"
     objecttolerance="10"
     gridtolerance="10"
     guidetolerance="10"
     inkscape:pageopacity="0"
     inkscape:pageshadow="2"
     inkscape:window-width="742"
     inkscape:window-height="480"
     id="namedview4148"
     showgrid="false"
     inkscape:zoom="5.9"
     inkscape:cx="20"
     inkscape:cy="20"
     inkscape:window-x="2175"
     inkscape:window-y="209"
     inkscape:window-maximized="0"
     inkscape:current-layer="Layer_1" /><g
     id="g4142"
     style="fill:#000000"><g
       id="g4144"
       style="fill:#000000"><path
         fill="#438CEF"
         d="M31,33c0,0.553-0.447,1-1,1H4c-0.552,0-1-0.447-1-1V7c0-0.553,0.448-1,1-1h26c0.553,0,1,0.447,1,1v4h2V6    c0-1.104-0.896-2-2-2H3C1.896,4,1,4.896,1,6v28c0,1.104,0.896,2,2,2h28c1.104,0,2-0.896,2-2V23h-2V33z M38.714,9.287    c-0.389-0.389-1.017-0.389-1.405,0L22,24.596l-9.309-9.309c-0.389-0.389-1.018-0.389-1.404,0c-0.389,0.387-0.389,1.016,0,1.404    l9.956,9.956c0.018,0.021,0.024,0.047,0.044,0.066c0.197,0.196,0.456,0.292,0.714,0.288c0.258,0.004,0.517-0.092,0.714-0.288    c0.02-0.02,0.026-0.046,0.044-0.066l15.955-15.956C39.102,10.303,39.102,9.674,38.714,9.287z"
         id="path4146"
         style="fill:#000000" /></g></g></svg>