<?xml version="1.0" encoding="UTF-8" standalone="no"?>
<!-- Generator: Adobe Illustrator 16.0.0, SVG Export Plug-In . SVG Version: 6.00 Build 0)  -->

<svg
   xmlns:dc="http://purl.org/dc/elements/1.1/"
   xmlns:cc="http://creativecommons.org/ns#"
   xmlns:rdf="http://www.w3.org/1999/02/22-rdf-syntax-ns#"
   xmlns:svg="http://www.w3.org/2000/svg"
   xmlns="http://www.w3.org/2000/svg"
   xmlns:sodipodi="http://sodipodi.sourceforge.net/DTD/sodipodi-0.dtd"
   xmlns:inkscape="http://www.inkscape.org/namespaces/inkscape"
   version="1.1"
   id="Layer_1"
   x="0px"
   y="0px"
   width="40px"
   height="40px"
   viewBox="0 0 40 40"
   enable-background="new 0 0 40 40"
   xml:space="preserve"
   inkscape:version="0.91 r13725"
   sodipodi:docname="Content.svg"><metadata
     id="metadata5254"><rdf:RDF><cc:Work
         rdf:about=""><dc:format>image/svg+xml</dc:format><dc:type
           rdf:resource="http://purl.org/dc/dcmitype/StillImage" /></cc:Work></rdf:RDF></metadata><defs
     id="defs5252" /><sodipodi:namedview
     pagecolor="#ffffff"
     bordercolor="#666666"
     borderopacity="1"
     objecttolerance="10"
     gridtolerance="10"
     guidetolerance="10"
     inkscape:pageopacity="0"
     inkscape:pageshadow="2"
     inkscape:window-width="742"
     inkscape:window-height="405"
     id="namedview5250"
     showgrid="false"
     inkscape:zoom="2.95"
     inkscape:cx="24.613618"
     inkscape:cy="16.457566"
     inkscape:window-x="2302"
     inkscape:window-y="172"
     inkscape:window-maximized="0"
     inkscape:current-layer="Layer_1" /><g
     id="g5246"
     style="fill:#000000"><path
       id="path5248"
       d="m 16,17 -6,0 0,2 6,0 0,-2 z m 0,-4 -6,0 0,2 6,0 0,-2 z m -6,14 16,0 0,-2 -16,0 0,2 z m 6,-18 -6,0 0,2 6,0 0,-2 z M 34,7 32,7 32,5 C 32,3.896 31.104,3 30,3 L 6,3 C 4.896,3 4,3.896 4,5 l 0,26 c 0,1.104 0.896,2 2,2 l 2,0 0,2 c 0,1.104 0.896,2 2,2 l 24,0 c 1.104,0 2,-0.896 2,-2 L 36,9 C 36,7.896 35.104,7 34,7 Z M 7,31 C 6.447,31 6,30.553 6,30 L 6,6 C 6,5.448 6.447,5 7,5 l 22,0 c 0.553,0 1,0.448 1,1 l 0,24 c 0,0.553 -0.447,1 -1,1 L 7,31 Z m 27,3 c 0,0.553 -0.447,1 -1,1 l -22,0 c -0.553,0 -1,-0.447 -1,-1 l 0,-1 20,0 c 1.104,0 2,-0.896 2,-2 l 0,-22 1,0 c 0.553,0 1,0.448 1,1 l 0,24 z M 24,9 20,9 c -1.104,0 -2,0.896 -2,2 l 0,6 c 0,1.104 0.896,2 2,2 l 4,0 c 1.104,0 2,-0.896 2,-2 l 0,-6 C 26,9.896 25.104,9 24,9 Z m 0,8 -4,0 0,-6 4,0 0,6 z m -14,6 16,0 0,-2 -16,0 0,2 z"
       inkscape:connector-curvature="0"
       style="clip-rule:evenodd;fill:#000000;fill-rule:evenodd" /></g></svg>