<?xml version="1.0" encoding="UTF-8" standalone="no"?>
<!-- Generator: Adobe Illustrator 16.0.0, SVG Export Plug-In . SVG Version: 6.00 Build 0)  -->

<svg
   xmlns:dc="http://purl.org/dc/elements/1.1/"
   xmlns:cc="http://creativecommons.org/ns#"
   xmlns:rdf="http://www.w3.org/1999/02/22-rdf-syntax-ns#"
   xmlns:svg="http://www.w3.org/2000/svg"
   xmlns="http://www.w3.org/2000/svg"
   xmlns:sodipodi="http://sodipodi.sourceforge.net/DTD/sodipodi-0.dtd"
   xmlns:inkscape="http://www.inkscape.org/namespaces/inkscape"
   version="1.1"
   id="Layer_1"
   x="0px"
   y="0px"
   width="40px"
   height="40px"
   viewBox="0 0 40 40"
   enable-background="new 0 0 40 40"
   xml:space="preserve"
   inkscape:version="0.91 r13725"
   sodipodi:docname="control-Markdown.svg"><metadata
     id="metadata37"><rdf:RDF><cc:Work
         rdf:about=""><dc:format>image/svg+xml</dc:format><dc:type
           rdf:resource="http://purl.org/dc/dcmitype/StillImage" /><dc:title></dc:title></cc:Work></rdf:RDF></metadata><defs
     id="defs35" /><sodipodi:namedview
     pagecolor="#ffffff"
     bordercolor="#666666"
     borderopacity="1"
     objecttolerance="10"
     gridtolerance="10"
     guidetolerance="10"
     inkscape:pageopacity="0"
     inkscape:pageshadow="2"
     inkscape:window-width="1920"
     inkscape:window-height="1017"
     id="namedview33"
     showgrid="false"
     inkscape:zoom="5.9"
     inkscape:cx="-10.223134"
     inkscape:cy="9.6004962"
     inkscape:window-x="1912"
     inkscape:window-y="-8"
     inkscape:window-maximized="1"
     inkscape:current-layer="Layer_1" /><g
     transform="scale(0.99077863,1.0093072)"
     style="font-style:normal;font-variant:normal;font-weight:bold;font-stretch:normal;font-size:15.80102253px;line-height:125%;font-family:'Segoe UI';-inkscape-font-specification:'Segoe UI Bold';letter-spacing:0px;word-spacing:0px;fill:#000000;fill-opacity:1;stroke:none;stroke-width:1px;stroke-linecap:butt;stroke-linejoin:miter;stroke-opacity:1"
     id="text4133"><path
       id="path4140"
       style=""
       d="m 31.288522,23.585804 -2.438048,0 0,-1.087863 -0.03086,0 q -0.833257,1.280747 -2.445764,1.280747 -1.481345,0 -2.384041,-1.041572 -0.902695,-1.049286 -0.902695,-2.924115 0,-1.959697 0.99528,-3.140144 0.995279,-1.180448 2.607786,-1.180448 1.527637,0 2.129434,1.095579 l 0.03086,0 0,-4.698644 2.438048,0 0,11.69646 z m -2.391756,-3.842241 0,-0.594081 q 0,-0.771535 -0.44749,-1.280747 -0.44749,-0.509213 -1.165017,-0.509213 -0.810111,0 -1.265316,0.640374 -0.455206,0.632658 -0.455206,1.743667 0,1.041571 0.439775,1.604792 0.439775,0.56322 1.219024,0.56322 0.740673,0 1.203594,-0.594082 0.470636,-0.594081 0.470636,-1.57393 z m -7.267854,3.842241 -2.430333,0 0,-4.50576 q 0,-1.720522 -1.265316,-1.720522 -0.601797,0 -0.979849,0.516928 -0.378051,0.516928 -0.378051,1.288462 l 0,4.420892 -2.438049,0 0,-4.552052 q 0,-1.67423 -1.24217,-1.67423 -0.624943,0 -1.002995,0.493782 -0.370336,0.493782 -0.370336,1.34247 l 0,4.39003 -2.4380485,0 0,-7.900511 2.4380485,0 0,1.234455 0.03086,0 q 0.378052,-0.632659 1.057002,-1.026141 0.686666,-0.401198 1.496777,-0.401198 1.674229,0 2.291457,1.473631 0.902695,-1.473631 2.654078,-1.473631 2.576924,0 2.576924,3.178721 l 0,4.914674 z M 0,0 l 0,7.926229 3.0279216,0 0,2.972336 2.0186144,0 0,-2.972336 3.0279216,0 0,-7.926229 z m 32.29783,0 0,7.926229 8.074458,0 0,-7.926229 z m -30.2792156,1.9815573 4.0372288,0 0,3.9631145 -4.0372288,0 z m 32.2978306,0 4.037228,0 0,3.9631145 -4.037228,0 z m -23.214066,0.9907786 0,1.9815572 4.037229,0 0,-1.9815572 z m 8.074458,0 0,1.9815572 4.037228,0 0,-1.9815572 z m 8.074457,0 0,1.9815572 4.037229,0 0,-1.9815572 z m 8.074458,7.9262291 0,3.963114 2.018614,0 0,-3.963114 z m -32.2978304,3.963114 0,3.963115 2.0186144,0 0,-3.963115 z m 32.2978304,3.963115 0,3.963114 2.018614,0 0,-3.963114 z m -32.2978304,3.963114 0,3.963115 2.0186144,0 0,-3.963115 z m 32.2978304,3.963115 0,3.963114 2.018614,0 0,-3.963114 z m -32.2978304,3.963114 0,0.990779 -3.0279216,0 0,7.926229 8.0744576,0 0,-2.972336 3.0279214,0 0,-1.981557 -3.0279214,0 0,-2.972336 -3.0279216,0 0,-0.990779 z m 29.2699084,0.990779 0,2.972336 -1.009307,0 0,1.981557 1.009307,0 0,2.972336 8.074458,0 0,-7.926229 z m -30.2792156,1.981557 4.0372288,0 0,3.963115 -4.0372288,0 z m 32.2978306,0 4.037228,0 0,3.963115 -4.037228,0 z m -19.176837,0.990779 0,1.981557 4.037229,0 0,-1.981557 z m 8.074457,0 0,1.981557 4.037229,0 0,-1.981557 z" /></g></svg>