<?xml version="1.0" encoding="UTF-8" standalone="no"?>
<!-- Generator: Adobe Illustrator 21.1.0, SVG Export Plug-In . SVG Version: 6.00 Build 0)  -->

<svg
   xmlns:dc="http://purl.org/dc/elements/1.1/"
   xmlns:cc="http://creativecommons.org/ns#"
   xmlns:rdf="http://www.w3.org/1999/02/22-rdf-syntax-ns#"
   xmlns:svg="http://www.w3.org/2000/svg"
   xmlns="http://www.w3.org/2000/svg"
   xmlns:sodipodi="http://sodipodi.sourceforge.net/DTD/sodipodi-0.dtd"
   xmlns:inkscape="http://www.inkscape.org/namespaces/inkscape"
   version="1.1"
   id="Layer_1"
   x="0px"
   y="0px"
   viewBox="0 0 34.5 31"
   style="enable-background:new 0 0 34.5 31;"
   xml:space="preserve"
   sodipodi:docname="EditTag-icon.svg"
   inkscape:version="0.92.3 (2405546, 2018-03-11)"><metadata
   id="metadata19"><rdf:RDF><cc:Work
       rdf:about=""><dc:format>image/svg+xml</dc:format><dc:type
         rdf:resource="http://purl.org/dc/dcmitype/StillImage" /></cc:Work></rdf:RDF></metadata><defs
   id="defs17" /><sodipodi:namedview
   pagecolor="#ffffff"
   bordercolor="#666666"
   borderopacity="1"
   objecttolerance="10"
   gridtolerance="10"
   guidetolerance="10"
   inkscape:pageopacity="0"
   inkscape:pageshadow="2"
   inkscape:window-width="1278"
   inkscape:window-height="1008"
   id="namedview15"
   showgrid="false"
   inkscape:zoom="10.766271"
   inkscape:cx="14.902269"
   inkscape:cy="19.022022"
   inkscape:window-x="1913"
   inkscape:window-y="0"
   inkscape:window-maximized="0"
   inkscape:current-layer="Layer_1" />
<style
   type="text/css"
   id="style2">
	.st0{fill:#B3BBBF;}
</style>
<g
   id="g6"
   style="fill:#000000">
	<path
   class="st0"
   d="M 15.1,10 V 8.5 h 3.4 v -2 C 18.5,5 17.3,3.8 15.8,3.8 14.3,3.8 13.1,5 13.1,6.5 v 16.4 l 2.7,4.9 2.7,-4.9 V 10 Z"
   id="path4"
   inkscape:connector-curvature="0"
   style="fill:#000000" />
</g>
<g
   id="g12"
   style="fill:#000000">
	<path
   class="st0"
   d="m 10.9,21.7 h -2 C 7.1,21.7 5.7,20.3 5.7,18.5 V 10.8 C 5.7,9 7.1,7.6 8.9,7.6 h 2 V 6.3 h -2 c -2.5,0 -4.5,2 -4.5,4.5 v 7.7 c 0,2.5 2,4.5 4.5,4.5 h 2 z"
   id="path8"
   inkscape:connector-curvature="0"
   style="fill:#000000" />
	<path
   class="st0"
   d="M 25.8,7.9 C 25,6.9 23.8,6.3 22.5,6.3 h -1.8 v 1.3 h 1.2 c 1.3,0 2.5,0.6 3.3,1.6 l 4.4,5.5 -4.3,5.4 c -0.8,1 -2.1,1.6 -3.4,1.6 H 20.8 V 23 h 1.7 c 1.3,0 2.6,-0.6 3.4,-1.6 l 5.4,-6.7 z"
   id="path10"
   inkscape:connector-curvature="0"
   style="fill:#000000" />
</g>
</svg>