<?xml version="1.0" encoding="UTF-8" standalone="no"?>
<!-- Generator: Adobe Illustrator 16.0.0, SVG Export Plug-In . SVG Version: 6.00 Build 0)  -->

<svg
   xmlns:dc="http://purl.org/dc/elements/1.1/"
   xmlns:cc="http://creativecommons.org/ns#"
   xmlns:rdf="http://www.w3.org/1999/02/22-rdf-syntax-ns#"
   xmlns:svg="http://www.w3.org/2000/svg"
   xmlns="http://www.w3.org/2000/svg"
   xmlns:sodipodi="http://sodipodi.sourceforge.net/DTD/sodipodi-0.dtd"
   xmlns:inkscape="http://www.inkscape.org/namespaces/inkscape"
   version="1.1"
   id="Layer_1"
   x="0px"
   y="0px"
   width="40px"
   height="40px"
   viewBox="0 0 40 40"
   enable-background="new 0 0 40 40"
   xml:space="preserve"
   inkscape:version="0.91 r13725"
   sodipodi:docname="Radio.svg"><metadata
     id="metadata13"><rdf:RDF><cc:Work
         rdf:about=""><dc:format>image/svg+xml</dc:format><dc:type
           rdf:resource="http://purl.org/dc/dcmitype/StillImage" /></cc:Work></rdf:RDF></metadata><defs
     id="defs11" /><sodipodi:namedview
     pagecolor="#ffffff"
     bordercolor="#666666"
     borderopacity="1"
     objecttolerance="10"
     gridtolerance="10"
     guidetolerance="10"
     inkscape:pageopacity="0"
     inkscape:pageshadow="2"
     inkscape:window-width="742"
     inkscape:window-height="480"
     id="namedview9"
     showgrid="false"
     inkscape:zoom="5.9"
     inkscape:cx="20"
     inkscape:cy="20"
     inkscape:window-x="2463"
     inkscape:window-y="327"
     inkscape:window-maximized="0"
     inkscape:current-layer="Layer_1" /><path
     d="m 6,28 c -3.312,0 -6,2.688 -6,6 0,3.312 2.688,6 6,6 3.312,0 6,-2.688 6,-6 0,-3.312 -2.688,-6 -6,-6 z m 0,10 c -2.209,0 -4,-1.791 -4,-4 0,-2.209 1.791,-4 4,-4 2.209,0 4,1.791 4,4 0,2.209 -1.791,4 -4,4 z M 15,7 39,7 C 39.553,7 40,6.553 40,6 40,5.447 39.553,5 39,5 L 15,5 c -0.552,0 -1,0.447 -1,1 0,0.553 0.448,1 1,1 z m 24,12 -24,0 c -0.552,0 -1,0.447 -1,1 0,0.553 0.448,1 1,1 l 24,0 c 0.553,0 1,-0.447 1,-1 0,-0.553 -0.447,-1 -1,-1 z M 6,0 C 2.688,0 0,2.687 0,6 0,9.313 2.688,12 6,12 9.312,12 12,9.313 12,6 12,2.687 9.312,0 6,0 Z M 6,10 C 3.791,10 2,8.209 2,6 2,3.791 3.791,2 6,2 c 2.209,0 4,1.791 4,4 0,2.209 -1.791,4 -4,4 z m 0,4 c -3.312,0 -6,2.687 -6,6 0,3.312 2.688,6 6,6 3.312,0 6,-2.688 6,-6 0,-3.313 -2.688,-6 -6,-6 z m 0,10 c -2.209,0 -4,-1.791 -4,-4 0,-2.209 1.791,-4 4,-4 2.209,0 4,1.791 4,4 0,2.209 -1.791,4 -4,4 z M 6,4 C 4.896,4 4,4.896 4,6 4,7.104 4.896,8 6,8 7.104,8 8,7.104 8,6 8,4.896 7.104,4 6,4 Z m 33,29 -24,0 c -0.552,0 -1,0.447 -1,1 0,0.553 0.448,1 1,1 l 24,0 c 0.553,0 1,-0.447 1,-1 0,-0.553 -0.447,-1 -1,-1 z"
     id="path7"
     inkscape:connector-curvature="0"
     style="fill:#000000" /></svg>