<?xml version="1.0" encoding="UTF-8" standalone="no"?>
<!-- Generator: Adobe Illustrator 16.0.0, SVG Export Plug-In . SVG Version: 6.00 Build 0)  -->

<svg
   xmlns:dc="http://purl.org/dc/elements/1.1/"
   xmlns:cc="http://creativecommons.org/ns#"
   xmlns:rdf="http://www.w3.org/1999/02/22-rdf-syntax-ns#"
   xmlns:svg="http://www.w3.org/2000/svg"
   xmlns="http://www.w3.org/2000/svg"
   xmlns:sodipodi="http://sodipodi.sourceforge.net/DTD/sodipodi-0.dtd"
   xmlns:inkscape="http://www.inkscape.org/namespaces/inkscape"
   version="1.1"
   id="Layer_1"
   x="0px"
   y="0px"
   width="40px"
   height="40px"
   viewBox="0 0 40 40"
   enable-background="new 0 0 40 40"
   xml:space="preserve"
   inkscape:version="0.91 r13725"
   sodipodi:docname="TextArea.svg"><metadata
     id="metadata37"><rdf:RDF><cc:Work
         rdf:about=""><dc:format>image/svg+xml</dc:format><dc:type
           rdf:resource="http://purl.org/dc/dcmitype/StillImage" /></cc:Work></rdf:RDF></metadata><defs
     id="defs35" /><sodipodi:namedview
     pagecolor="#ffffff"
     bordercolor="#666666"
     borderopacity="1"
     objecttolerance="10"
     gridtolerance="10"
     guidetolerance="10"
     inkscape:pageopacity="0"
     inkscape:pageshadow="2"
     inkscape:window-width="742"
     inkscape:window-height="480"
     id="namedview33"
     showgrid="false"
     inkscape:zoom="5.9"
     inkscape:cx="20"
     inkscape:cy="20"
     inkscape:window-x="2838"
     inkscape:window-y="149"
     inkscape:window-maximized="0"
     inkscape:current-layer="Layer_1" /><path
     d="M 0 0 L 0 8 L 3 8 L 3 11 L 5 11 L 5 8 L 8 8 L 8 0 L 0 0 z M 32 0 L 32 8 L 40 8 L 40 0 L 32 0 z M 2 2 L 6 2 L 6 6 L 2 6 L 2 2 z M 34 2 L 38 2 L 38 6 L 34 6 L 34 2 z M 11 3 L 11 5 L 15 5 L 15 3 L 11 3 z M 19 3 L 19 5 L 23 5 L 23 3 L 19 3 z M 27 3 L 27 5 L 31 5 L 31 3 L 27 3 z M 13.017578 8 C 12.740578 7.988 12.457094 8.0819219 12.246094 8.2949219 L 9.3261719 11.214844 C 8.9231719 11.616844 8.9231719 12.272781 9.3261719 12.675781 C 9.7291719 13.078781 10.383156 13.078781 10.785156 12.675781 L 13.458984 10 L 19 10 L 19 29 L 17.019531 29 C 16.741531 28.988 16.459047 29.081922 16.248047 29.294922 L 15.326172 30.214844 C 14.923172 30.617844 14.923172 31.272781 15.326172 31.675781 C 15.728172 32.078781 16.385109 32.078781 16.787109 31.675781 L 17.460938 31 L 22.529297 31 L 23.234375 31.703125 C 23.640375 32.108125 24.296125 32.108125 24.703125 31.703125 C 25.108125 31.297125 25.108125 30.641375 24.703125 30.234375 L 23.765625 29.296875 C 23.551625 29.082875 23.270234 28.988 22.990234 29 L 21 29 L 21 10 L 26.529297 10 L 29.234375 12.703125 C 29.640375 13.108125 30.295125 13.108125 30.703125 12.703125 C 31.108125 12.298125 31.108125 11.641375 30.703125 11.234375 L 27.765625 8.296875 C 27.551625 8.082875 27.269281 7.988 26.988281 8 L 13.017578 8 z M 35 11 L 35 15 L 37 15 L 37 11 L 35 11 z M 3 15 L 3 19 L 5 19 L 5 15 L 3 15 z M 35 19 L 35 23 L 37 23 L 37 19 L 35 19 z M 3 23 L 3 27 L 5 27 L 5 23 L 3 23 z M 35 27 L 35 31 L 37 31 L 37 27 L 35 27 z M 3 31 L 3 32 L 0 32 L 0 40 L 8 40 L 8 37 L 11 37 L 11 35 L 8 35 L 8 32 L 5 32 L 5 31 L 3 31 z M 32 32 L 32 35 L 31 35 L 31 37 L 32 37 L 32 40 L 40 40 L 40 32 L 32 32 z M 2 34 L 6 34 L 6 38 L 2 38 L 2 34 z M 34 34 L 38 34 L 38 38 L 34 38 L 34 34 z M 15 35 L 15 37 L 19 37 L 19 35 L 15 35 z M 23 35 L 23 37 L 27 37 L 27 35 L 23 35 z "
     id="rect3"
     style="fill:#000000" /></svg>
