<?xml version="1.0" encoding="UTF-8" standalone="no"?>
<!-- Generator: Adobe Illustrator 21.1.0, SVG Export Plug-In . SVG Version: 6.00 Build 0)  -->

<svg
   xmlns:dc="http://purl.org/dc/elements/1.1/"
   xmlns:cc="http://creativecommons.org/ns#"
   xmlns:rdf="http://www.w3.org/1999/02/22-rdf-syntax-ns#"
   xmlns:svg="http://www.w3.org/2000/svg"
   xmlns="http://www.w3.org/2000/svg"
   xmlns:sodipodi="http://sodipodi.sourceforge.net/DTD/sodipodi-0.dtd"
   xmlns:inkscape="http://www.inkscape.org/namespaces/inkscape"
   version="1.1"
   id="Layer_1"
   x="0px"
   y="0px"
   viewBox="0 0 64 64"
   style="enable-background:new 0 0 64 64;"
   xml:space="preserve"
   inkscape:version="0.91 r13725"
   sodipodi:docname="dashboard-schema.svg"
   inkscape:export-filename="E:\Google Drive\Design Assets\Icons\New Icons - Aug 2017\dashboard-schema.png"
   inkscape:export-xdpi="126.56"
   inkscape:export-ydpi="126.56"><metadata
     id="metadata8804"><rdf:RDF><cc:Work
         rdf:about=""><dc:format>image/svg+xml</dc:format><dc:type
           rdf:resource="http://purl.org/dc/dcmitype/StillImage" /><dc:title></dc:title></cc:Work></rdf:RDF></metadata><defs
     id="defs8802" /><sodipodi:namedview
     pagecolor="#ffffff"
     bordercolor="#666666"
     borderopacity="1"
     objecttolerance="10"
     gridtolerance="10"
     guidetolerance="10"
     inkscape:pageopacity="0"
     inkscape:pageshadow="2"
     inkscape:window-width="742"
     inkscape:window-height="480"
     id="namedview8800"
     showgrid="false"
     inkscape:zoom="3.6875"
     inkscape:cx="32"
     inkscape:cy="32"
     inkscape:window-x="2062"
     inkscape:window-y="319"
     inkscape:window-maximized="0"
     inkscape:current-layer="Layer_1" /><style
     type="text/css"
     id="style8758">
	.st0{opacity:0;}
	.st1{fill:#0074FF;}
	.st2{fill:#B4BCC1;}
	.st3{fill:#D7D7F9;}
	.st4{fill:#2E3842;}
	.st5{fill:#EDEDF9;}
	.st6{fill:#B5B5EA;}
	.st7{fill:#C7E0FF;}
	.st8{fill:#7D878E;}
	.st9{fill:#EEF6FF;}
	.st10{opacity:0.2;}
	.st11{fill:#3389FF;}
	.st12{fill:#F2BDBD;}
	.st13{fill:#F7DCDC;}
	.st14{fill:#E29393;}
	.st15{fill:#FFFFFF;}
	.st16{fill:#F7F6E7;}
	.st17{fill:#EFEBBF;}
	.st18{fill:#FCFBEB;}
	.st19{fill:#CEC395;}
	.st20{fill:#F9C553;}
	.st21{fill-rule:evenodd;clip-rule:evenodd;fill:#D6E2B3;}
	.st22{fill-rule:evenodd;clip-rule:evenodd;fill:#FFFFFF;}
	.st23{fill:#77BA61;}
	.st24{fill:#E7F7DC;}
</style><g
     class="st0"
     id="g8760"><rect
       class="st1"
       width="64"
       height="64"
       id="rect8762" /></g><g
     id="g8764"><path
       class="st7"
       d="M50.2,61H13.8C7.9,61,3,56.1,3,50.2V26.8C3,20.9,7.9,16,13.8,16h36.4C56.1,16,61,20.9,61,26.8v23.4   C61,56.1,56.1,61,50.2,61z"
       id="path8766" /><path
       class="st4"
       d="M50.2,62H13.8C7.3,62,2,56.7,2,50.2V26.8C2,20.3,7.3,15,13.8,15h36.4C56.7,15,62,20.3,62,26.8v23.4   C62,56.7,56.7,62,50.2,62z M13.8,17C8.4,17,4,21.4,4,26.8v23.4c0,5.4,4.4,9.8,9.8,9.8h36.4c5.4,0,9.8-4.4,9.8-9.8V26.8   c0-5.4-4.4-9.8-9.8-9.8H13.8z"
       id="path8768" /></g><g
     id="g8770"><path
       class="st8"
       d="M50.7,12H12.1c-0.6,0-1-0.4-1-1s0.4-1,1-1h38.6c0.6,0,1,0.4,1,1S51.2,12,50.7,12z"
       id="path8772" /></g><g
     id="g8774"><path
       class="st2"
       d="M44.7,6H18.1c-0.6,0-1-0.4-1-1s0.4-1,1-1h26.6c0.6,0,1,0.4,1,1S45.2,6,44.7,6z"
       id="path8776" /></g><g
     id="g8778"><path
       class="st9"
       d="M50.2,60H13.8C8.4,60,4,55.6,4,50.2V26.8c0-5.4,4.4-9.8,9.8-9.8h36.3c5.4,0,9.8,4.4,9.8,9.8v23.3   C60,55.6,55.6,60,50.2,60z M13.8,19C9.5,19,6,22.5,6,26.8v23.3c0,4.3,3.5,7.8,7.8,7.8h36.3c4.3,0,7.8-3.5,7.8-7.8V26.8   c0-4.3-3.5-7.8-7.8-7.8H13.8z"
       id="path8780" /></g><g
     class="st10"
     id="g8782"><path
       class="st11"
       d="M51.7,22v14.1c0,2.7-2.2,4.9-4.9,4.9H17.2c-2.7,0-4.9-2.2-4.9-4.9V22h-2v14.1c0,3.8,3.1,6.9,6.9,6.9h29.6   c3.8,0,6.9-3.1,6.9-6.9V22H51.7z"
       id="path8784" /></g><g
     id="g8786"><circle
       class="st11"
       cx="51.9"
       cy="12.1"
       r="11.1"
       id="circle8788" /><path
       class="st15"
       d="M51.9,24.2c-6.7,0-12.1-5.4-12.1-12.1S45.2,0,51.9,0S64,5.4,64,12.1S58.6,24.2,51.9,24.2z M51.9,2   c-5.6,0-10.1,4.5-10.1,10.1s4.5,10.1,10.1,10.1S62,17.7,62,12.1S57.5,2,51.9,2z"
       id="path8790" /></g><g
     id="g8792"><path
       class="st15"
       d="M57,13H47c-0.6,0-1-0.4-1-1s0.4-1,1-1h10c0.6,0,1,0.4,1,1S57.6,13,57,13z"
       id="path8794" /></g><g
     id="g8796"><path
       class="st15"
       d="M52,18c-0.6,0-1-0.4-1-1V7c0-0.6,0.4-1,1-1s1,0.4,1,1v10C53,17.6,52.6,18,52,18z"
       id="path8798" /></g></svg>