<?xml version="1.0" encoding="UTF-8" standalone="no"?>
<!-- Generator: Adobe Illustrator 16.0.0, SVG Export Plug-In . SVG Version: 6.00 Build 0)  -->

<svg
   xmlns:dc="http://purl.org/dc/elements/1.1/"
   xmlns:cc="http://creativecommons.org/ns#"
   xmlns:rdf="http://www.w3.org/1999/02/22-rdf-syntax-ns#"
   xmlns:svg="http://www.w3.org/2000/svg"
   xmlns="http://www.w3.org/2000/svg"
   xmlns:sodipodi="http://sodipodi.sourceforge.net/DTD/sodipodi-0.dtd"
   xmlns:inkscape="http://www.inkscape.org/namespaces/inkscape"
   version="1.1"
   id="Layer_1"
   x="0px"
   y="0px"
   width="40px"
   height="40px"
   viewBox="0 0 40 40"
   enable-background="new 0 0 40 40"
   xml:space="preserve"
   inkscape:version="0.91 r13725"
   sodipodi:docname="Dashboard.svg"><metadata
     id="metadata9"><rdf:RDF><cc:Work
         rdf:about=""><dc:format>image/svg+xml</dc:format><dc:type
           rdf:resource="http://purl.org/dc/dcmitype/StillImage" /></cc:Work></rdf:RDF></metadata><defs
     id="defs7" /><sodipodi:namedview
     pagecolor="#ffffff"
     bordercolor="#666666"
     borderopacity="1"
     objecttolerance="10"
     gridtolerance="10"
     guidetolerance="10"
     inkscape:pageopacity="0"
     inkscape:pageshadow="2"
     inkscape:window-width="742"
     inkscape:window-height="480"
     id="namedview5"
     showgrid="false"
     inkscape:zoom="5.9"
     inkscape:cx="20"
     inkscape:cy="20"
     inkscape:window-x="2586"
     inkscape:window-y="297"
     inkscape:window-maximized="0"
     inkscape:current-layer="Layer_1" /><path
     fill-rule="evenodd"
     clip-rule="evenodd"
     fill="#438CEF"
     d="M34.474,34H34h-2.052H6.051H4H3.527C1.314,30.894,0,27.104,0,23  C0,12.507,8.507,4,19,4s19,8.507,19,19C38,27.104,36.686,30.894,34.474,34z M20,6.049V8h-2V6.049C9.413,6.55,2.551,13.412,2.05,22H4  v2H2.036c0.173,2.93,1.093,5.654,2.565,8h28.797c1.473-2.346,2.393-5.07,2.565-8H34v-2h1.949C35.448,13.412,28.587,6.55,20,6.049z   M19,28c-1.657,0-3-1.343-3-3c0-1.657,1.343-13,3-13c1.657,0,3,11.343,3,13C22,26.657,20.657,28,19,28z M19,20c-0.552,0-1,4.447-1,5  s0.448,1,1,1c0.553,0,1-0.447,1-1S19.553,20,19,20z"
     id="path3"
     style="fill:#000000" /></svg>