<?xml version="1.0" encoding="UTF-8" standalone="no"?>
<!-- Generator: Adobe Illustrator 16.0.0, SVG Export Plug-In . SVG Version: 6.00 Build 0)  -->

<svg
   xmlns:dc="http://purl.org/dc/elements/1.1/"
   xmlns:cc="http://creativecommons.org/ns#"
   xmlns:rdf="http://www.w3.org/1999/02/22-rdf-syntax-ns#"
   xmlns:svg="http://www.w3.org/2000/svg"
   xmlns="http://www.w3.org/2000/svg"
   xmlns:sodipodi="http://sodipodi.sourceforge.net/DTD/sodipodi-0.dtd"
   xmlns:inkscape="http://www.inkscape.org/namespaces/inkscape"
   version="1.1"
   id="Layer_1"
   x="0px"
   y="0px"
   width="20px"
   height="20px"
   viewBox="0 0 20 20"
   enable-background="new 0 0 20 20"
   xml:space="preserve"
   inkscape:version="0.91 r13725"
   sodipodi:docname="document-publish.svg"><metadata
     id="metadata17"><rdf:RDF><cc:Work
         rdf:about=""><dc:format>image/svg+xml</dc:format><dc:type
           rdf:resource="http://purl.org/dc/dcmitype/StillImage" /><dc:title></dc:title></cc:Work></rdf:RDF></metadata><defs
     id="defs15" /><sodipodi:namedview
     pagecolor="#ffffff"
     bordercolor="#666666"
     borderopacity="1"
     objecttolerance="10"
     gridtolerance="10"
     guidetolerance="10"
     inkscape:pageopacity="0"
     inkscape:pageshadow="2"
     inkscape:window-width="742"
     inkscape:window-height="480"
     id="namedview13"
     showgrid="false"
     inkscape:zoom="11.8"
     inkscape:cx="4.8305085"
     inkscape:cy="10"
     inkscape:window-x="2401"
     inkscape:window-y="280"
     inkscape:window-maximized="0"
     inkscape:current-layer="Layer_1" /><path
     style="fill:#000000"
     d="M 7 2 C 6.447 2 6 2.447 6 3 L 6 8 L 7 8 L 7 3 L 13 3 L 13 6 C 13 6.553 13.447 7 14 7 L 17 7 L 17 17 L 10 17 L 10 18 L 17 18 C 17.553 18 18 17.553 18 17 L 18 9 L 18 7 L 18 6.2929688 L 13.707031 2 L 13 2 L 8 2 L 7 2 z M 14 3.7070312 L 16.292969 6 L 14 6 L 14 3.7070312 z M 6.5 9 L 2 14 L 2 15 L 4 15 L 4 18 L 9 18 L 9 15 L 11 15 L 11 14 L 6.5 9 z M 6.5 10.494141 L 9.6542969 14 L 9 14 L 8 14 L 8 15 L 8 17 L 5 17 L 5 15 L 5 14 L 4 14 L 3.3457031 14 L 6.5 10.494141 z "
     id="path9" /></svg>