<?xml version="1.0" encoding="UTF-8" standalone="no"?>
<!-- Generator: Adobe Illustrator 16.0.0, SVG Export Plug-In . SVG Version: 6.00 Build 0)  -->

<svg
   xmlns:dc="http://purl.org/dc/elements/1.1/"
   xmlns:cc="http://creativecommons.org/ns#"
   xmlns:rdf="http://www.w3.org/1999/02/22-rdf-syntax-ns#"
   xmlns:svg="http://www.w3.org/2000/svg"
   xmlns="http://www.w3.org/2000/svg"
   xmlns:sodipodi="http://sodipodi.sourceforge.net/DTD/sodipodi-0.dtd"
   xmlns:inkscape="http://www.inkscape.org/namespaces/inkscape"
   version="1.1"
   id="Layer_1"
   x="0px"
   y="0px"
   width="20px"
   height="20px"
   viewBox="0 0 20 20"
   enable-background="new 0 0 20 20"
   xml:space="preserve"
   inkscape:version="0.91 r13725"
   sodipodi:docname="document-unpublish.svg"><metadata
     id="metadata17"><rdf:RDF><cc:Work
         rdf:about=""><dc:format>image/svg+xml</dc:format><dc:type
           rdf:resource="http://purl.org/dc/dcmitype/StillImage" /><dc:title></dc:title></cc:Work></rdf:RDF></metadata><defs
     id="defs15" /><sodipodi:namedview
     pagecolor="#ffffff"
     bordercolor="#666666"
     borderopacity="1"
     objecttolerance="10"
     gridtolerance="10"
     guidetolerance="10"
     inkscape:pageopacity="0"
     inkscape:pageshadow="2"
     inkscape:window-width="1920"
     inkscape:window-height="1017"
     id="namedview13"
     showgrid="false"
     inkscape:zoom="23.6"
     inkscape:cx="6.5019156"
     inkscape:cy="2.299743"
     inkscape:window-x="1912"
     inkscape:window-y="-8"
     inkscape:window-maximized="1"
     inkscape:current-layer="Layer_1" /><path
     style="fill:#000000"
     d="M 7,2 C 6.447,2 6,2.447 6,3 l 0,3 1,0 0,-3 6,0 0,3 c 0,0.553 0.447,1 1,1 l 3,0 0,10 -7,0 0,1 7,0 c 0.553,0 1,-0.447 1,-1 L 18,9 18,7 18,6.2929688 13.707031,2 13,2 8,2 Z M 14,3.7070312 16.292969,6 14,6 Z M 6.5,9 2,14 l 0,1 2,0 0,3 5,0 0,-3 2,0 0,-1 z m 0,1.494141 L 9.6542969,14 9,14 l -1,0 0,1 0,2 -3,0 0,-2 0,-1 -1,0 -0.6542969,0 z"
     id="path9"
     inkscape:connector-curvature="0"
     sodipodi:nodetypes="ssccccssccccssccccccscccccccccccccccccccccccccc" /><rect
     style="fill:#000000;fill-opacity:1;stroke:none;stroke-width:1;stroke-linejoin:miter;stroke-miterlimit:4;stroke-dasharray:none;stroke-opacity:1"
     id="rect4133"
     width="9"
     height="1.0169492"
     x="2"
     y="6.9830508" /></svg>