<?xml version="1.0" encoding="UTF-8" standalone="no"?>
<!-- Generator: Adobe Illustrator 16.0.0, SVG Export Plug-In . SVG Version: 6.00 Build 0)  -->

<svg
   xmlns:dc="http://purl.org/dc/elements/1.1/"
   xmlns:cc="http://creativecommons.org/ns#"
   xmlns:rdf="http://www.w3.org/1999/02/22-rdf-syntax-ns#"
   xmlns:svg="http://www.w3.org/2000/svg"
   xmlns="http://www.w3.org/2000/svg"
   xmlns:sodipodi="http://sodipodi.sourceforge.net/DTD/sodipodi-0.dtd"
   xmlns:inkscape="http://www.inkscape.org/namespaces/inkscape"
   version="1.1"
   id="Layer_1"
   x="0px"
   y="0px"
   width="20px"
   height="20px"
   viewBox="0 0 20 20"
   enable-background="new 0 0 20 20"
   xml:space="preserve"
   inkscape:version="0.91 r13725"
   sodipodi:docname="Location.svg"><metadata
     id="metadata13"><rdf:RDF><cc:Work
         rdf:about=""><dc:format>image/svg+xml</dc:format><dc:type
           rdf:resource="http://purl.org/dc/dcmitype/StillImage" /></cc:Work></rdf:RDF></metadata><defs
     id="defs11" /><sodipodi:namedview
     pagecolor="#ffffff"
     bordercolor="#666666"
     borderopacity="1"
     objecttolerance="10"
     gridtolerance="10"
     guidetolerance="10"
     inkscape:pageopacity="0"
     inkscape:pageshadow="2"
     inkscape:window-width="742"
     inkscape:window-height="480"
     id="namedview9"
     showgrid="false"
     inkscape:zoom="11.8"
     inkscape:cx="10"
     inkscape:cy="10"
     inkscape:window-x="2151"
     inkscape:window-y="253"
     inkscape:window-maximized="0"
     inkscape:current-layer="Layer_1" /><g
     id="g3"
     style="fill:#000000"><g
       id="g5"
       style="fill:#000000"><path
         fill="#A1B0B5"
         d="M10,0C6.691,0,4,2.691,4,6c0,1.536,0.298,3.221,0.884,5.008c0.466,1.417,1.113,2.902,1.925,4.416    c1.381,2.571,2.741,4.312,2.799,4.385C9.702,19.93,9.848,20,10,20c0.153,0,0.298-0.07,0.393-0.191    c0.058-0.072,1.418-1.813,2.799-4.385c0.812-1.514,1.459-2.999,1.925-4.416C15.702,9.221,16,7.536,16,6C16,2.691,13.308,0,10,0z     M12.318,14.935c-0.903,1.687-1.816,3.027-2.318,3.727c-0.5-0.696-1.407-2.029-2.309-3.71C6.463,12.664,5,9.254,5,6    c0-2.757,2.243-5,5-5s5,2.243,5,5C15,9.248,13.542,12.652,12.318,14.935z M10,3C8.346,3,7,4.346,7,6s1.346,3,3,3s3-1.346,3-3    S11.654,3,10,3z M10,8C8.896,8,8,7.104,8,6c0-1.103,0.896-2,2-2c1.103,0,2,0.897,2,2C12,7.104,11.103,8,10,8z"
         id="path7"
         style="fill:#000000" /></g></g></svg>