<?xml version="1.0" encoding="UTF-8" standalone="no"?>
<!-- Generator: Adobe Illustrator 16.0.0, SVG Export Plug-In . SVG Version: 6.00 Build 0)  -->

<svg
   xmlns:dc="http://purl.org/dc/elements/1.1/"
   xmlns:cc="http://creativecommons.org/ns#"
   xmlns:rdf="http://www.w3.org/1999/02/22-rdf-syntax-ns#"
   xmlns:svg="http://www.w3.org/2000/svg"
   xmlns="http://www.w3.org/2000/svg"
   xmlns:sodipodi="http://sodipodi.sourceforge.net/DTD/sodipodi-0.dtd"
   xmlns:inkscape="http://www.inkscape.org/namespaces/inkscape"
   version="1.1"
   id="Layer_1"
   x="0px"
   y="0px"
   width="40px"
   height="40px"
   viewBox="0 0 40 40"
   enable-background="new 0 0 40 40"
   xml:space="preserve"
   inkscape:version="0.91 r13725"
   sodipodi:docname="Media-1.svg"><metadata
     id="metadata13"><rdf:RDF><cc:Work
         rdf:about=""><dc:format>image/svg+xml</dc:format><dc:type
           rdf:resource="http://purl.org/dc/dcmitype/StillImage" /></cc:Work></rdf:RDF></metadata><defs
     id="defs11" /><sodipodi:namedview
     pagecolor="#ffffff"
     bordercolor="#666666"
     borderopacity="1"
     objecttolerance="10"
     gridtolerance="10"
     guidetolerance="10"
     inkscape:pageopacity="0"
     inkscape:pageshadow="2"
     inkscape:window-width="742"
     inkscape:window-height="480"
     id="namedview9"
     showgrid="false"
     inkscape:zoom="5.9"
     inkscape:cx="20"
     inkscape:cy="20"
     inkscape:window-x="2948"
     inkscape:window-y="134"
     inkscape:window-maximized="0"
     inkscape:current-layer="Layer_1" /><path
     d="M 37,0 3,0 C 1.346,0 0,1.346 0,3 l 0,34 c 0,1.654 1.346,3 3,3 l 34,0 c 1.654,0 3,-1.346 3,-3 L 40,3 C 40,1.346 38.654,0 37,0 Z m 1,37 c 0,0.553 -0.447,1 -1,1 L 3,38 C 2.448,38 2,37.553 2,37 L 2,3 C 2,2.448 2.448,2 3,2 l 34,0 c 0.553,0 1,0.448 1,1 l 0,34 z M 26,18 c 2.205,0 4,-1.794 4,-4 0,-2.206 -1.795,-4 -4,-4 -2.205,0 -4,1.794 -4,4 0,2.206 1.795,4 4,4 z m 0,-6 c 1.102,0 2,0.898 2,2 0,1.102 -0.898,2 -2,2 -1.102,0 -2,-0.898 -2,-2 0,-1.102 0.898,-2 2,-2 z M 35,4 5,4 C 4.448,4 4,4.448 4,5 l 0,24 c 0,0.553 0.448,1 1,1 l 30,0 c 0.553,0 1,-0.447 1,-1 L 36,5 C 36,4.448 35.553,4 35,4 Z M 6,28 6,23.381 12.418,16.16 c 0.164,-0.187 0.38,-0.288 0.604,-0.292 0.224,-0.002 0.441,0.096 0.611,0.275 L 24.697,28 6,28 Z m 28,0 -6.566,0 -12.338,-13.22 c -0.558,-0.599 -1.302,-0.922 -2.098,-0.912 -0.794,0.01 -1.532,0.352 -2.074,0.962 L 6,20.369 6,6 34,6 34,28 Z"
     id="path7"
     inkscape:connector-curvature="0"
     style="fill:#1a1a1a" /></svg>