<?xml version="1.0" encoding="UTF-8" standalone="no"?>
<!-- Generator: Adobe Illustrator 21.1.0, SVG Export Plug-In . SVG Version: 6.00 Build 0)  -->

<svg
   xmlns:dc="http://purl.org/dc/elements/1.1/"
   xmlns:cc="http://creativecommons.org/ns#"
   xmlns:rdf="http://www.w3.org/1999/02/22-rdf-syntax-ns#"
   xmlns:svg="http://www.w3.org/2000/svg"
   xmlns="http://www.w3.org/2000/svg"
   xmlns:sodipodi="http://sodipodi.sourceforge.net/DTD/sodipodi-0.dtd"
   xmlns:inkscape="http://www.inkscape.org/namespaces/inkscape"
   version="1.1"
   id="Layer_1"
   x="0px"
   y="0px"
   viewBox="0 0 45 44.8"
   style="enable-background:new 0 0 45 44.8;"
   xml:space="preserve"
   sodipodi:docname="multiple-content.svg"
   inkscape:version="0.92.3 (2405546, 2018-03-11)"><metadata
   id="metadata29"><rdf:RDF><cc:Work
       rdf:about=""><dc:format>image/svg+xml</dc:format><dc:type
         rdf:resource="http://purl.org/dc/dcmitype/StillImage" /><dc:title></dc:title></cc:Work></rdf:RDF></metadata><defs
   id="defs27" /><sodipodi:namedview
   pagecolor="#ffffff"
   bordercolor="#666666"
   borderopacity="1"
   objecttolerance="10"
   gridtolerance="10"
   guidetolerance="10"
   inkscape:pageopacity="0"
   inkscape:pageshadow="2"
   inkscape:window-width="2560"
   inkscape:window-height="1017"
   id="namedview25"
   showgrid="false"
   inkscape:lockguides="true"
   inkscape:zoom="10.535714"
   inkscape:cx="4.7504213"
   inkscape:cy="20.4951"
   inkscape:window-x="-8"
   inkscape:window-y="-8"
   inkscape:window-maximized="1"
   inkscape:current-layer="Layer_1" />
<style
   type="text/css"
   id="style2">
	.st0{fill:#3389FF;}
</style>
<g
   id="g6"
   style="fill:#000000">
	<path
   class="st0"
   d="M34,41.4H11c-3.9,0-7-3.1-7-7v-13c0-3.9,3.1-7,7-7h23c3.9,0,7,3.1,7,7v13C41,38.3,37.9,41.4,34,41.4z M11,16.4   c-2.8,0-5,2.2-5,5v13c0,2.8,2.2,5,5,5h23c2.8,0,5-2.2,5-5v-13c0-2.8-2.2-5-5-5H11z"
   id="path4"
   style="fill:#000000" />
</g>
<g
   id="g10"
   style="fill:#000000">
	<path
   class="st0"
   d="M32,25.4H12c-0.6,0-1-0.4-1-1s0.4-1,1-1h20c0.6,0,1,0.4,1,1S32.6,25.4,32,25.4z"
   id="path8"
   style="fill:#000000" />
</g>
<g
   id="g14"
   style="fill:#000000">
	<path
   class="st0"
   d="M22,32.4H12c-0.6,0-1-0.4-1-1s0.4-1,1-1h10c0.6,0,1,0.4,1,1S22.6,32.4,22,32.4z"
   id="path12"
   style="fill:#000000" />
</g>
<g
   id="g18"
   style="fill:#000000">
	<path
   class="st0"
   d="M34,11.4H11c-0.6,0-1-0.4-1-1s0.4-1,1-1h23c0.6,0,1,0.4,1,1S34.6,11.4,34,11.4z"
   id="path16"
   style="fill:#000000" />
</g>
<g
   id="g22"
   style="fill:#000000">
	<path
   class="st0"
   d="M30,6.4H15c-0.6,0-1-0.4-1-1s0.4-1,1-1h15c0.6,0,1,0.4,1,1S30.6,6.4,30,6.4z"
   id="path20"
   style="fill:#000000" />
</g>
</svg>