<?xml version="1.0" encoding="UTF-8" standalone="no"?>
<!-- Generator: Adobe Illustrator 16.0.0, SVG Export Plug-In . SVG Version: 6.00 Build 0)  -->

<svg
   xmlns:dc="http://purl.org/dc/elements/1.1/"
   xmlns:cc="http://creativecommons.org/ns#"
   xmlns:rdf="http://www.w3.org/1999/02/22-rdf-syntax-ns#"
   xmlns:svg="http://www.w3.org/2000/svg"
   xmlns="http://www.w3.org/2000/svg"
   xmlns:sodipodi="http://sodipodi.sourceforge.net/DTD/sodipodi-0.dtd"
   xmlns:inkscape="http://www.inkscape.org/namespaces/inkscape"
   version="1.1"
   id="Layer_1"
   x="0px"
   y="0px"
   width="40px"
   height="40px"
   viewBox="0 0 40 40"
   enable-background="new 0 0 40 40"
   xml:space="preserve"
   inkscape:version="0.91 r13725"
   sodipodi:docname="Schemas.svg"><metadata
     id="metadata13"><rdf:RDF><cc:Work
         rdf:about=""><dc:format>image/svg+xml</dc:format><dc:type
           rdf:resource="http://purl.org/dc/dcmitype/StillImage" /></cc:Work></rdf:RDF></metadata><defs
     id="defs11" /><sodipodi:namedview
     pagecolor="#ffffff"
     bordercolor="#666666"
     borderopacity="1"
     objecttolerance="10"
     gridtolerance="10"
     guidetolerance="10"
     inkscape:pageopacity="0"
     inkscape:pageshadow="2"
     inkscape:window-width="742"
     inkscape:window-height="480"
     id="namedview9"
     showgrid="false"
     inkscape:zoom="5.9"
     inkscape:cx="20"
     inkscape:cy="20"
     inkscape:window-x="2477"
     inkscape:window-y="562"
     inkscape:window-maximized="0"
     inkscape:current-layer="Layer_1" /><path
     d="m 0.612,14.911 19,8.017 0.388,0.078 0.389,-0.078 19,-8.017 C 39.758,14.755 40,14.391 40,13.987 40,13.583 39.758,13.22 39.389,13.063 l -19,-8.017 c -0.248,-0.104 -0.528,-0.104 -0.776,0 l -19,8.017 c -0.37,0.157 -0.611,0.521 -0.611,0.924 0,0.403 0.24,0.768 0.61,0.924 z M 20,7.059 36.424,13.987 20,20.916 3.576,13.987 20,7.059 Z m -19.388,13.865 19,8.017 0.388,0.078 0.389,-0.078 19,-8.017 c 0.51,-0.215 0.748,-0.802 0.533,-1.312 -0.213,-0.51 -0.801,-0.75 -1.309,-0.535 L 20,26.931 1.389,19.076 c -0.508,-0.214 -1.096,0.023 -1.311,0.535 -0.214,0.509 0.025,1.098 0.534,1.313 z M 38.613,25.089 20,32.943 1.389,25.089 c -0.508,-0.216 -1.096,0.023 -1.311,0.534 -0.214,0.509 0.024,1.098 0.534,1.313 l 19,8.017 0.388,0.078 0.389,-0.078 19,-8.017 c 0.51,-0.216 0.748,-0.803 0.533,-1.313 -0.213,-0.509 -0.801,-0.75 -1.309,-0.534 z"
     id="path7"
     inkscape:connector-curvature="0"
     style="fill:#000000" /></svg>