<?xml version="1.0" encoding="UTF-8" standalone="no"?>
<!-- Generator: Adobe Illustrator 21.1.0, SVG Export Plug-In . SVG Version: 6.00 Build 0)  -->

<svg
   xmlns:dc="http://purl.org/dc/elements/1.1/"
   xmlns:cc="http://creativecommons.org/ns#"
   xmlns:rdf="http://www.w3.org/1999/02/22-rdf-syntax-ns#"
   xmlns:svg="http://www.w3.org/2000/svg"
   xmlns="http://www.w3.org/2000/svg"
   xmlns:sodipodi="http://sodipodi.sourceforge.net/DTD/sodipodi-0.dtd"
   xmlns:inkscape="http://www.inkscape.org/namespaces/inkscape"
   version="1.1"
   id="Layer_1"
   x="0px"
   y="0px"
   viewBox="0 0 32 32"
   style="enable-background:new 0 0 32 32;"
   xml:space="preserve"
   inkscape:version="0.91 r13725"
   sodipodi:docname="schemas.svg"><metadata
     id="metadata5887"><rdf:RDF><cc:Work
         rdf:about=""><dc:format>image/svg+xml</dc:format><dc:type
           rdf:resource="http://purl.org/dc/dcmitype/StillImage" /><dc:title></dc:title></cc:Work></rdf:RDF></metadata><defs
     id="defs5885" /><sodipodi:namedview
     pagecolor="#ffffff"
     bordercolor="#666666"
     borderopacity="1"
     objecttolerance="10"
     gridtolerance="10"
     guidetolerance="10"
     inkscape:pageopacity="0"
     inkscape:pageshadow="2"
     inkscape:window-width="1920"
     inkscape:window-height="1017"
     id="namedview5883"
     showgrid="false"
     inkscape:zoom="7.375"
     inkscape:cx="-0.88135593"
     inkscape:cy="16"
     inkscape:window-x="1912"
     inkscape:window-y="-8"
     inkscape:window-maximized="1"
     inkscape:current-layer="Layer_1" /><style
     type="text/css"
     id="style5861">
	.st0{opacity:0;}
	.st1{fill:#FF3386;}
	.st2{fill:#3389FF;}
</style><g
     class="st0"
     id="g5863"
     style="fill:#000000"><rect
       class="st1"
       width="32"
       height="32"
       id="rect5865"
       style="fill:#000000" /></g><g
     id="g5867"
     style="fill:#000000"><path
       class="st2"
       d="M25,32H7c-3.9,0-7-3.1-7-7v-9.4c0-3.9,3.1-7,7-7h18c3.9,0,7,3.1,7,7V25C32,28.9,28.9,32,25,32z M7,10.6   c-2.8,0-5,2.2-5,5V25c0,2.8,2.2,5,5,5h18c2.8,0,5-2.2,5-5v-9.4c0-2.8-2.2-5-5-5H7z"
       id="path5869"
       style="fill:#000000" /></g><g
     id="g5871"
     style="fill:#000000"><path
       class="st2"
       d="M25.9,6.3H6.1c-0.6,0-1-0.4-1-1s0.4-1,1-1h19.7c0.6,0,1,0.4,1,1S26.4,6.3,25.9,6.3z"
       id="path5873"
       style="fill:#000000" /></g><g
     id="g5875"
     style="fill:#000000"><path
       class="st2"
       d="M22.4,2H9.6c-0.6,0-1-0.4-1-1s0.4-1,1-1h12.9c0.6,0,1,0.4,1,1S23,2,22.4,2z"
       id="path5877"
       style="fill:#000000" /></g><g
     id="g5879"
     style="fill:#000000"><path
       class="st2"
       d="M25,13v2c0,1.5-1.2,2.6-2.6,2.6H9.6C8.2,17.7,7,16.5,7,15v-2H5.3v2c0,2.4,2,4.4,4.4,4.4h12.7   c2.4,0,4.4-2,4.4-4.4v-2H25z"
       id="path5881"
       style="fill:#000000" /></g></svg>