<?xml version="1.0" encoding="UTF-8" standalone="no"?>
<!-- Generator: Adobe Illustrator 16.0.0, SVG Export Plug-In . SVG Version: 6.00 Build 0)  -->

<svg
   xmlns:dc="http://purl.org/dc/elements/1.1/"
   xmlns:cc="http://creativecommons.org/ns#"
   xmlns:rdf="http://www.w3.org/1999/02/22-rdf-syntax-ns#"
   xmlns:svg="http://www.w3.org/2000/svg"
   xmlns="http://www.w3.org/2000/svg"
   xmlns:sodipodi="http://sodipodi.sourceforge.net/DTD/sodipodi-0.dtd"
   xmlns:inkscape="http://www.inkscape.org/namespaces/inkscape"
   version="1.1"
   id="Layer_1"
   x="0px"
   y="0px"
   width="40px"
   height="40px"
   viewBox="0 0 40 40"
   enable-background="new 0 0 40 40"
   xml:space="preserve"
   inkscape:version="0.91 r13725"
   sodipodi:docname="Settings.svg"><metadata
     id="metadata13"><rdf:RDF><cc:Work
         rdf:about=""><dc:format>image/svg+xml</dc:format><dc:type
           rdf:resource="http://purl.org/dc/dcmitype/StillImage" /></cc:Work></rdf:RDF></metadata><defs
     id="defs11" /><sodipodi:namedview
     pagecolor="#ffffff"
     bordercolor="#666666"
     borderopacity="1"
     objecttolerance="10"
     gridtolerance="10"
     guidetolerance="10"
     inkscape:pageopacity="0"
     inkscape:pageshadow="2"
     inkscape:window-width="742"
     inkscape:window-height="480"
     id="namedview9"
     showgrid="false"
     inkscape:zoom="5.9"
     inkscape:cx="20"
     inkscape:cy="20"
     inkscape:window-x="2808"
     inkscape:window-y="416"
     inkscape:window-maximized="0"
     inkscape:current-layer="Layer_1" /><path
     d="m 39.809,17.217 c -0.076,-0.537 -0.564,-0.914 -1.1,-0.855 -0.662,0.072 -1.338,-0.023 -1.955,-0.277 -2.041,-0.84 -3.018,-3.182 -2.178,-5.223 0.258,-0.619 0.662,-1.166 1.18,-1.586 0.422,-0.338 0.496,-0.949 0.17,-1.381 C 34.797,6.411 33.473,5.094 31.987,3.987 31.569,3.671 30.979,3.735 30.633,4.13 29.508,5.429 27.682,5.859 26.094,5.206 24.504,4.552 23.512,2.96 23.625,1.243 23.658,0.722 23.283,0.259 22.766,0.188 20.93,-0.07 19.063,-0.07 17.217,0.191 c -0.536,0.076 -0.914,0.562 -0.854,1.102 0.072,0.66 -0.024,1.336 -0.28,1.953 -0.84,2.041 -3.18,3.016 -5.22,2.176 C 10.245,5.168 9.697,4.76 9.277,4.244 8.939,3.824 8.327,3.748 7.895,4.076 6.411,5.203 5.095,6.525 3.987,8.012 3.671,8.43 3.735,9.021 4.129,9.365 c 1.3,1.129 1.73,2.953 1.076,4.543 -0.654,1.588 -2.246,2.58 -3.962,2.467 -0.522,-0.033 -0.984,0.342 -1.054,0.859 -0.259,1.836 -0.259,3.704 0.004,5.55 0.076,0.535 0.562,0.911 1.1,0.852 0.66,-0.071 1.336,0.027 1.954,0.28 2.04,0.841 3.016,3.182 2.176,5.224 -0.254,0.617 -0.662,1.163 -1.178,1.583 -0.422,0.341 -0.496,0.951 -0.17,1.381 1.128,1.486 2.454,2.802 3.938,3.911 0.068,0.053 0.143,0.092 0.219,0.125 0.388,0.158 0.848,0.06 1.136,-0.271 1.126,-1.296 2.952,-1.729 4.542,-1.075 1.588,0.654 2.58,2.246 2.466,3.963 -0.032,0.521 0.342,0.983 0.862,1.057 1.836,0.257 3.7,0.256 5.548,-0.004 0.533,-0.077 0.912,-0.565 0.852,-1.103 -0.072,-0.662 0.027,-1.338 0.281,-1.955 0.84,-2.041 3.182,-3.016 5.221,-2.175 0.617,0.255 1.166,0.662 1.584,1.178 0.34,0.422 0.951,0.496 1.383,0.169 1.484,-1.129 2.799,-2.451 3.91,-3.938 0.312,-0.417 0.25,-1.008 -0.145,-1.354 -1.299,-1.126 -1.73,-2.952 -1.076,-4.54 0.654,-1.591 2.246,-2.582 3.963,-2.47 0.521,0.036 0.982,-0.339 1.055,-0.858 0.256,-1.836 0.254,-3.702 -0.005,-5.547 z m -1.877,4.424 c -2.193,0.206 -4.129,1.606 -4.986,3.69 -0.857,2.084 -0.471,4.438 0.941,6.129 -0.691,0.839 -1.463,1.614 -2.299,2.317 -0.498,-0.438 -1.07,-0.795 -1.689,-1.049 -3.057,-1.261 -6.572,0.203 -7.832,3.265 -0.254,0.614 -0.402,1.272 -0.441,1.935 -1.088,0.1 -2.182,0.103 -3.266,0.003 C 18.154,35.74 16.754,33.803 14.67,32.946 12.586,32.087 10.232,32.478 8.54,33.886 7.7,33.195 6.926,32.423 6.224,31.586 6.662,31.089 7.019,30.516 7.275,29.901 8.533,26.839 7.069,23.327 4.01,22.067 3.392,21.813 2.737,21.663 2.072,21.623 1.973,20.535 1.971,19.441 2.072,18.359 4.263,18.152 6.198,16.754 7.055,14.67 7.913,12.584 7.526,10.231 6.114,8.541 6.805,7.699 7.578,6.924 8.414,6.223 c 0.498,0.438 1.07,0.795 1.688,1.049 3.058,1.26 6.571,-0.205 7.831,-3.264 0.255,-0.617 0.404,-1.273 0.444,-1.938 1.088,-0.098 2.18,-0.1 3.264,0 0.207,2.191 1.607,4.125 3.691,4.984 2.084,0.857 4.439,0.469 6.129,-0.941 0.84,0.693 1.613,1.463 2.316,2.299 -0.438,0.5 -0.795,1.07 -1.049,1.688 -1.26,3.059 0.205,6.574 3.262,7.832 0.619,0.254 1.277,0.404 1.939,0.445 0.1,1.088 0.102,2.18 0.003,3.264 z M 20,12 c -4.418,0 -8,3.582 -8,8 0,4.419 3.582,8.001 8,8.001 4.418,0 8,-3.582 8,-8.001 0,-4.418 -3.582,-8 -8,-8 z m 0,14.001 c -3.313,0 -6,-2.688 -6,-6.001 0,-3.314 2.687,-6 6,-6 3.314,0 6,2.686 6,6 0,3.313 -2.686,6.001 -6,6.001 z"
     id="path7"
     inkscape:connector-curvature="0"
     style="fill:#000000" /></svg>