<?xml version="1.0" encoding="UTF-8" standalone="no"?>
<!-- Generator: Adobe Illustrator 16.0.0, SVG Export Plug-In . SVG Version: 6.00 Build 0)  -->

<svg
   xmlns:dc="http://purl.org/dc/elements/1.1/"
   xmlns:cc="http://creativecommons.org/ns#"
   xmlns:rdf="http://www.w3.org/1999/02/22-rdf-syntax-ns#"
   xmlns:svg="http://www.w3.org/2000/svg"
   xmlns="http://www.w3.org/2000/svg"
   xmlns:sodipodi="http://sodipodi.sourceforge.net/DTD/sodipodi-0.dtd"
   xmlns:inkscape="http://www.inkscape.org/namespaces/inkscape"
   version="1.1"
   id="Layer_1"
   x="0px"
   y="0px"
   width="20px"
   height="20px"
   viewBox="0 0 20 20"
   enable-background="new 0 0 20 20"
   xml:space="preserve"
   inkscape:version="0.91 r13725"
   sodipodi:docname="Calendur.svg"><metadata
     id="metadata13"><rdf:RDF><cc:Work
         rdf:about=""><dc:format>image/svg+xml</dc:format><dc:type
           rdf:resource="http://purl.org/dc/dcmitype/StillImage" /></cc:Work></rdf:RDF></metadata><defs
     id="defs11" /><sodipodi:namedview
     pagecolor="#ffffff"
     bordercolor="#666666"
     borderopacity="1"
     objecttolerance="10"
     gridtolerance="10"
     guidetolerance="10"
     inkscape:pageopacity="0"
     inkscape:pageshadow="2"
     inkscape:window-width="742"
     inkscape:window-height="480"
     id="namedview9"
     showgrid="false"
     inkscape:zoom="11.8"
     inkscape:cx="10"
     inkscape:cy="10"
     inkscape:window-x="2312"
     inkscape:window-y="238"
     inkscape:window-maximized="0"
     inkscape:current-layer="Layer_1" /><g
     id="g3"
     style="fill:#000000"><g
       id="g5"
       style="fill:#000000"><path
         fill="#A1B0B5"
         d="M18.5,2H16V1.5C16,1.224,15.776,1,15.5,1S15,1.224,15,1.5V2H5V1.5C5,1.224,4.775,1,4.5,1S4,1.224,4,1.5V2    H1.5C0.673,2,0,2.673,0,3.5v14C0,18.327,0.673,19,1.5,19h17c0.827,0,1.5-0.673,1.5-1.5v-14C20,2.673,19.327,2,18.5,2z M19,17.5    c0,0.276-0.224,0.5-0.5,0.5h-17C1.225,18,1,17.776,1,17.5V7h18V17.5z M19,6H1V3.5C1,3.225,1.225,3,1.5,3H4v1.5    C4,4.775,4.225,5,4.5,5S5,4.775,5,4.5V3h10v1.5C15,4.775,15.224,5,15.5,5S16,4.775,16,4.5V3h2.5C18.776,3,19,3.225,19,3.5V6z     M6.5,10h1C7.775,10,8,9.775,8,9.5S7.775,9,7.5,9h-1C6.225,9,6,9.225,6,9.5S6.225,10,6.5,10z M9.5,10h1c0.276,0,0.5-0.225,0.5-0.5    S10.776,9,10.5,9h-1C9.225,9,9,9.225,9,9.5S9.225,10,9.5,10z M12.5,10h1c0.276,0,0.5-0.225,0.5-0.5S13.776,9,13.5,9h-1    C12.224,9,12,9.225,12,9.5S12.224,10,12.5,10z M15.5,10h1c0.276,0,0.5-0.225,0.5-0.5S16.776,9,16.5,9h-1C15.224,9,15,9.225,15,9.5    S15.224,10,15.5,10z M3.5,12h1C4.775,12,5,11.776,5,11.5S4.775,11,4.5,11h-1C3.225,11,3,11.224,3,11.5S3.225,12,3.5,12z M6.5,12h1    C7.775,12,8,11.776,8,11.5S7.775,11,7.5,11h-1C6.225,11,6,11.224,6,11.5S6.225,12,6.5,12z M9.5,12h1c0.276,0,0.5-0.224,0.5-0.5    S10.776,11,10.5,11h-1C9.225,11,9,11.224,9,11.5S9.225,12,9.5,12z M12.5,12h1c0.276,0,0.5-0.224,0.5-0.5S13.776,11,13.5,11h-1    c-0.276,0-0.5,0.224-0.5,0.5S12.224,12,12.5,12z M15.5,12h1c0.276,0,0.5-0.224,0.5-0.5S16.776,11,16.5,11h-1    c-0.276,0-0.5,0.224-0.5,0.5S15.224,12,15.5,12z M3.5,14h1C4.775,14,5,13.776,5,13.5S4.775,13,4.5,13h-1C3.225,13,3,13.224,3,13.5    S3.225,14,3.5,14z M6.5,14h1C7.775,14,8,13.776,8,13.5S7.775,13,7.5,13h-1C6.225,13,6,13.224,6,13.5S6.225,14,6.5,14z M9.5,14h1    c0.276,0,0.5-0.224,0.5-0.5S10.776,13,10.5,13h-1C9.225,13,9,13.224,9,13.5S9.225,14,9.5,14z M12.5,14h1    c0.276,0,0.5-0.224,0.5-0.5S13.776,13,13.5,13h-1c-0.276,0-0.5,0.224-0.5,0.5S12.224,14,12.5,14z M15.5,14h1    c0.276,0,0.5-0.224,0.5-0.5S16.776,13,16.5,13h-1c-0.276,0-0.5,0.224-0.5,0.5S15.224,14,15.5,14z M3.5,16h1    C4.775,16,5,15.776,5,15.5S4.775,15,4.5,15h-1C3.225,15,3,15.224,3,15.5S3.225,16,3.5,16z M6.5,16h1C7.775,16,8,15.776,8,15.5    S7.775,15,7.5,15h-1C6.225,15,6,15.224,6,15.5S6.225,16,6.5,16z M9.5,16h1c0.276,0,0.5-0.224,0.5-0.5S10.776,15,10.5,15h-1    C9.225,15,9,15.224,9,15.5S9.225,16,9.5,16z M12.5,16h1c0.276,0,0.5-0.224,0.5-0.5S13.776,15,13.5,15h-1    c-0.276,0-0.5,0.224-0.5,0.5S12.224,16,12.5,16z M15.5,16h1c0.276,0,0.5-0.224,0.5-0.5S16.776,15,16.5,15h-1    c-0.276,0-0.5,0.224-0.5,0.5S15.224,16,15.5,16z"
         id="path7"
         style="fill:#000000" /></g></g></svg>
