<?xml version="1.0" encoding="utf-8"?>
<!-- Generator: Adobe Illustrator 21.1.0, SVG Export Plug-In . SVG Version: 6.00 Build 0)  -->
<svg version="1.1" id="Layer_1" xmlns="http://www.w3.org/2000/svg" xmlns:xlink="http://www.w3.org/1999/xlink" x="0px" y="0px"
	 viewBox="0 0 17.3 17.3" style="enable-background:new 0 0 17.3 17.3;" xml:space="preserve">
<style type="text/css">
	.st0{fill:#C1C6C8;}
	.st1{fill:none;stroke:#C1C6C8;stroke-miterlimit:10;}
</style>
<g>
	<path class="st0" d="M5,13.9H3.4c-0.8,0-1.5-0.7-1.5-1.5V4.1c0-0.8,0.7-1.5,1.5-1.5l1.6,0v-1H3.4C2,1.6,0.9,2.7,0.9,4.1v8.3
		c0,1.4,1.1,2.5,2.5,2.5H5V13.9z"/>
	<path class="st0" d="M16.4,8C15,5.1,13,1.6,11.8,1.6H9.9v1l1.9,0c0.6,0.2,2.3,3,3.6,5.7c-1.3,2.6-3,5.5-3.6,5.7H9.9v1h1.9
		c1.2,0,3.1-3.5,4.6-6.5l0.1-0.2L16.4,8z"/>
</g>
<line class="st1" x1="5" y1="5.7" x2="5" y2="10.1"/>
<line class="st1" x1="8.6" y1="5.7" x2="8.6" y2="10.1"/>
</svg>
