<?xml version="1.0" encoding="UTF-8" standalone="no"?>
<!-- Generator: Adobe Illustrator 16.0.0, SVG Export Plug-In . SVG Version: 6.00 Build 0)  -->

<svg
   xmlns:dc="http://purl.org/dc/elements/1.1/"
   xmlns:cc="http://creativecommons.org/ns#"
   xmlns:rdf="http://www.w3.org/1999/02/22-rdf-syntax-ns#"
   xmlns:svg="http://www.w3.org/2000/svg"
   xmlns="http://www.w3.org/2000/svg"
   xmlns:sodipodi="http://sodipodi.sourceforge.net/DTD/sodipodi-0.dtd"
   xmlns:inkscape="http://www.inkscape.org/namespaces/inkscape"
   version="1.1"
   id="Layer_1"
   x="0px"
   y="0px"
   width="40px"
   height="40px"
   viewBox="0 0 40 40"
   enable-background="new 0 0 40 40"
   xml:space="preserve"
   inkscape:version="0.91 r13725"
   sodipodi:docname="type-string.svg"><metadata
     id="metadata13"><rdf:RDF><cc:Work
         rdf:about=""><dc:format>image/svg+xml</dc:format><dc:type
           rdf:resource="http://purl.org/dc/dcmitype/StillImage" /><dc:title></dc:title></cc:Work></rdf:RDF></metadata><defs
     id="defs11" /><sodipodi:namedview
     pagecolor="#ffffff"
     bordercolor="#666666"
     borderopacity="1"
     objecttolerance="10"
     gridtolerance="10"
     guidetolerance="10"
     inkscape:pageopacity="0"
     inkscape:pageshadow="2"
     inkscape:window-width="742"
     inkscape:window-height="480"
     id="namedview9"
     showgrid="false"
     inkscape:zoom="5.9"
     inkscape:cx="20"
     inkscape:cy="20"
     inkscape:window-x="2360"
     inkscape:window-y="329"
     inkscape:window-maximized="0"
     inkscape:current-layer="Layer_1" /><path
     d="M 34,36 6,36 c -0.552,0 -1,0.447 -1,1 0,0.553 0.448,1 1,1 l 28,0 c 0.553,0 1,-0.447 1,-1 0,-0.553 -0.447,-1 -1,-1 z M 7.605,31.92 c 0.509,0.217 1.097,-0.018 1.313,-0.525 L 13.802,20 26.198,20 31.081,31.395 C 31.244,31.773 31.611,32 32,32 c 0.133,0 0.266,-0.025 0.395,-0.08 0.508,-0.219 0.742,-0.807 0.525,-1.314 L 27.779,18.616 C 27.777,18.614 27.777,18.61 27.775,18.608 l -6.855,-16 C 20.762,2.238 20.4,2 20,2 19.6,2 19.238,2.238 19.08,2.606 l -6.855,16 c -0.002,0.002 -0.002,0.006 -0.004,0.008 L 7.08,30.605 c -0.216,0.508 0.018,1.096 0.525,1.315 z M 20,5.538 25.34,18 14.66,18 20,5.538 Z"
     id="path7"
     inkscape:connector-curvature="0"
     style="fill:#000000" /></svg>
