<?xml version="1.0" encoding="UTF-8" standalone="no"?>
<!-- Generator: Adobe Illustrator 16.0.0, SVG Export Plug-In . SVG Version: 6.00 Build 0)  -->

<svg
   xmlns:dc="http://purl.org/dc/elements/1.1/"
   xmlns:cc="http://creativecommons.org/ns#"
   xmlns:rdf="http://www.w3.org/1999/02/22-rdf-syntax-ns#"
   xmlns:svg="http://www.w3.org/2000/svg"
   xmlns="http://www.w3.org/2000/svg"
   xmlns:sodipodi="http://sodipodi.sourceforge.net/DTD/sodipodi-0.dtd"
   xmlns:inkscape="http://www.inkscape.org/namespaces/inkscape"
   version="1.1"
   id="Layer_1"
   x="0px"
   y="0px"
   width="40px"
   height="40px"
   viewBox="0 0 40 40"
   enable-background="new 0 0 40 40"
   xml:space="preserve"
   inkscape:version="0.91 r13725"
   sodipodi:docname="type-boolean.svg"><metadata
     id="metadata5284"><rdf:RDF><cc:Work
         rdf:about=""><dc:format>image/svg+xml</dc:format><dc:type
           rdf:resource="http://purl.org/dc/dcmitype/StillImage" /></cc:Work></rdf:RDF></metadata><defs
     id="defs5282" /><sodipodi:namedview
     pagecolor="#ffffff"
     bordercolor="#666666"
     borderopacity="1"
     objecttolerance="10"
     gridtolerance="10"
     guidetolerance="10"
     inkscape:pageopacity="0"
     inkscape:pageshadow="2"
     inkscape:window-width="742"
     inkscape:window-height="405"
     id="namedview5280"
     showgrid="false"
     inkscape:zoom="2.085965"
     inkscape:cx="-17.794285"
     inkscape:cy="48.684545"
     inkscape:window-x="2334"
     inkscape:window-y="218"
     inkscape:window-maximized="0"
     inkscape:current-layer="Layer_1" /><g
     id="g5274"
     style="fill:#000000"><g
       id="g5276"
       style="fill:#000000"><path
         fill="#438CEF"
         d="M3.008,4.008h5v13c0,0.552,0.446,1,1,1c0.551,0,1-0.448,1-1v-13h5c0.551,0,1-0.448,1-1    c0-0.553-0.449-1-1-1h-12c-0.554,0-1,0.447-1,1C2.008,3.559,2.454,4.008,3.008,4.008z M37.008,28.007h-7v-4h7c0.553,0,1-0.447,1-1    s-0.447-1-1-1h-8c-0.554,0-1,0.447-1,1v14c0,0.553,0.446,1,1,1c0.553,0,1-0.447,1-1v-7h7c0.553,0,1-0.447,1-1    S37.559,28.007,37.008,28.007z M37.699,2.284c-0.389-0.388-1.02-0.388-1.408,0L2.283,36.291c-0.389,0.39-0.389,1.019,0,1.408    c0.391,0.39,1.02,0.39,1.408,0L37.699,3.692C38.088,3.304,38.088,2.673,37.699,2.284z"
         id="path5278"
         style="fill:#000000" /></g></g></svg>