<?xml version="1.0" encoding="UTF-8" standalone="no"?>
<!-- Generator: Adobe Illustrator 16.0.0, SVG Export Plug-In . SVG Version: 6.00 Build 0)  -->

<svg
   xmlns:dc="http://purl.org/dc/elements/1.1/"
   xmlns:cc="http://creativecommons.org/ns#"
   xmlns:rdf="http://www.w3.org/1999/02/22-rdf-syntax-ns#"
   xmlns:svg="http://www.w3.org/2000/svg"
   xmlns="http://www.w3.org/2000/svg"
   xmlns:sodipodi="http://sodipodi.sourceforge.net/DTD/sodipodi-0.dtd"
   xmlns:inkscape="http://www.inkscape.org/namespaces/inkscape"
   version="1.1"
   id="Layer_1"
   x="0px"
   y="0px"
   width="16px"
   height="16px"
   viewBox="0 0 16 16"
   enable-background="new 0 0 16 16"
   xml:space="preserve"
   inkscape:version="0.91 r13725"
   sodipodi:docname="User.svg"><metadata
     id="metadata9"><rdf:RDF><cc:Work
         rdf:about=""><dc:format>image/svg+xml</dc:format><dc:type
           rdf:resource="http://purl.org/dc/dcmitype/StillImage" /></cc:Work></rdf:RDF></metadata><defs
     id="defs7" /><sodipodi:namedview
     pagecolor="#ffffff"
     bordercolor="#666666"
     borderopacity="1"
     objecttolerance="10"
     gridtolerance="10"
     guidetolerance="10"
     inkscape:pageopacity="0"
     inkscape:pageshadow="2"
     inkscape:window-width="742"
     inkscape:window-height="480"
     id="namedview5"
     showgrid="false"
     inkscape:zoom="14.75"
     inkscape:cx="8"
     inkscape:cy="8"
     inkscape:window-x="2795"
     inkscape:window-y="313"
     inkscape:window-maximized="0"
     inkscape:current-layer="Layer_1" /><path
     fill-rule="evenodd"
     clip-rule="evenodd"
     fill="#438CEF"
     d="M11.957,11c0,0.553-0.443,1-0.989,1H5.032  c-0.545,0-0.988-0.447-0.988-1c0-0.011-0.1-0.001,0,0C4.518,9.566,6.194,9,8,9C9.81,9,11.486,9.559,11.957,11  C12.053,11,11.957,10.999,11.957,11z M6.021,6c0-1.104,0.886-2,1.979-2s1.979,0.896,1.979,2S9.093,9,8,9S6.021,7.104,6.021,6z"
     id="path3"
     style="fill:#000000" /></svg>