<!-- Generated by IcoMoon.io -->
<svg version="1.1" xmlns="http://www.w3.org/2000/svg" width="11" height="28" viewBox="0 0 11 28">
<title>angle-left</title>
<path d="M9.797 8.5c0 0.125-0.063 0.266-0.156 0.359l-6.141 6.141 6.141 6.141c0.094 0.094 0.156 0.234 0.156 0.359s-0.063 0.266-0.156 0.359l-0.781 0.781c-0.094 0.094-0.234 0.156-0.359 0.156s-0.266-0.063-0.359-0.156l-7.281-7.281c-0.094-0.094-0.156-0.234-0.156-0.359s0.063-0.266 0.156-0.359l7.281-7.281c0.094-0.094 0.234-0.156 0.359-0.156s0.266 0.063 0.359 0.156l0.781 0.781c0.094 0.094 0.156 0.219 0.156 0.359z"></path>
</svg>
