<!-- Generated by IcoMoon.io -->
<svg version="1.1" xmlns="http://www.w3.org/2000/svg" width="28" height="28" viewBox="0 0 28 28">
<title>api</title>
<path d="M16.188 10.763h-4.287c-1.575 0-2.887-1.313-2.887-2.888v-4.988c0-1.575 1.313-2.887 2.888-2.887h4.287c1.575 0 2.887 1.313 2.887 2.887v4.988c-0.087 1.575-1.313 2.888-2.887 2.888zM11.813 1.75c-0.612 0-1.138 0.525-1.138 1.137v4.988c0 0.612 0.525 1.138 1.138 1.138h4.287c0.613 0 1.138-0.525 1.138-1.138v-4.988c0-0.613-0.525-1.137-1.138-1.137h-4.287z"></path>
<path d="M5.337 28c-2.887 0-5.337-2.45-5.337-5.338 0-2.975 2.45-5.338 5.337-5.338s5.337 2.45 5.337 5.338c0.088 2.888-2.362 5.338-5.337 5.338zM5.337 18.988c-2.012 0-3.587 1.662-3.587 3.587 0 2.013 1.663 3.675 3.587 3.675 2.012 0 3.587-1.662 3.587-3.587 0.088-2.012-1.575-3.675-3.587-3.675z"></path>
<path d="M22.662 28c-2.975 0-5.338-2.45-5.338-5.338 0-2.975 2.45-5.338 5.338-5.338s5.338 2.45 5.338 5.338c0 2.888-2.45 5.338-5.338 5.338zM22.662 18.988c-2.012 0-3.588 1.662-3.588 3.587 0 2.013 1.663 3.588 3.588 3.588 2.013 0 3.588-1.662 3.588-3.588s-1.662-3.587-3.588-3.587z"></path>
<path d="M9.1 17.5c-0.175 0-0.35 0-0.438-0.088-0.438-0.262-0.525-0.787-0.262-1.225l2.275-3.763c0.263-0.438 0.788-0.525 1.225-0.263s0.525 0.788 0.262 1.225l-2.275 3.762c-0.175 0.175-0.438 0.35-0.788 0.35z"></path>
<path d="M18.9 17.5c-0.263 0-0.613-0.175-0.787-0.438l-2.275-3.763c-0.263-0.438-0.088-0.962 0.262-1.225s0.963-0.088 1.225 0.263l2.275 3.762c0.263 0.438 0.088 0.963-0.262 1.225-0.175 0.175-0.35 0.175-0.438 0.175z"></path>
</svg>
