<!-- Generated by IcoMoon.io -->
<svg version="1.1" xmlns="http://www.w3.org/2000/svg" width="18" height="32" viewBox="0 0 18 32">
<title>caret-bottom</title>
<path d="M18.286 17.142c0 0.304-0.125 0.59-0.339 0.803l-8 8c-0.214 0.214-0.501 0.339-0.803 0.339s-0.59-0.125-0.803-0.339l-8-8c-0.214-0.214-0.339-0.501-0.339-0.803 0-0.625 0.518-1.143 1.143-1.143h16c0.625 0 1.143 0.518 1.143 1.143z"></path>
<path d="M18.286 6.858c0 0.304-0.125 0.59-0.339 0.803l-8 8c-0.214 0.214-0.501 0.339-0.803 0.339s-0.59-0.125-0.803-0.339l-8-8c-0.214-0.214-0.339-0.501-0.339-0.803 0-0.625 0.518-1.143 1.143-1.143h16c0.625 0 1.143 0.518 1.143 1.143z"></path>
</svg>
