<!-- Generated by IcoMoon.io -->
<svg version="1.1" xmlns="http://www.w3.org/2000/svg" width="24" height="24" viewBox="0 0 24 24">
<title>check-circle-filled</title>
<path d="M12 24c-6.628 0-12-5.372-12-12s5.372-12 12-12 12 5.372 12 12-5.372 12-12 12zM20.058 6.342c-0.45-0.45-1.178-0.45-1.628 0l-8.83 8.83-4.028-4.030c-0.45-0.45-1.178-0.45-1.628 0s-0.45 1.178 0 1.628c0 0 4.723 4.811 4.8 4.886 0.234 0.238 0.547 0.343 0.857 0.33 0.31 0.013 0.623-0.092 0.858-0.329 0.077-0.076 9.6-9.686 9.6-9.686 0.45-0.45 0.45-1.18 0-1.63z"></path>
</svg>
