<!-- Generated by IcoMoon.io -->
<svg version="1.1" xmlns="http://www.w3.org/2000/svg" width="28" height="28" viewBox="0 0 28 28">
<title>clone</title>
<path d="M26 25.5v-17c0-0.266-0.234-0.5-0.5-0.5h-17c-0.266 0-0.5 0.234-0.5 0.5v17c0 0.266 0.234 0.5 0.5 0.5h17c0.266 0 0.5-0.234 0.5-0.5zM28 8.5v17c0 1.375-1.125 2.5-2.5 2.5h-17c-1.375 0-2.5-1.125-2.5-2.5v-17c0-1.375 1.125-2.5 2.5-2.5h17c1.375 0 2.5 1.125 2.5 2.5zM22 2.5v2.5h-2v-2.5c0-0.266-0.234-0.5-0.5-0.5h-17c-0.266 0-0.5 0.234-0.5 0.5v17c0 0.266 0.234 0.5 0.5 0.5h2.5v2h-2.5c-1.375 0-2.5-1.125-2.5-2.5v-17c0-1.375 1.125-2.5 2.5-2.5h17c1.375 0 2.5 1.125 2.5 2.5z"></path>
</svg>
