<!-- Generated by IcoMoon.io -->
<svg version="1.1" xmlns="http://www.w3.org/2000/svg" width="24" height="24" viewBox="0 0 24 24">
<title>control-TextArea</title>
<path d="M0 0v4.8h1.8v1.8h1.2v-1.8h1.8v-4.8h-4.8zM19.2 0v4.8h4.8v-4.8h-4.8zM1.2 1.2h2.4v2.4h-2.4v-2.4zM20.4 1.2h2.4v2.4h-2.4v-2.4zM6.6 1.8v1.2h2.4v-1.2h-2.4zM11.4 1.8v1.2h2.4v-1.2h-2.4zM16.2 1.8v1.2h2.4v-1.2h-2.4zM7.811 4.8c-0.166-0.007-0.336 0.049-0.463 0.177l-1.752 1.752c-0.242 0.241-0.242 0.635 0 0.877s0.634 0.242 0.875 0l1.604-1.605h3.325v11.4h-1.188c-0.167-0.007-0.336 0.049-0.463 0.177l-0.553 0.552c-0.242 0.242-0.242 0.635 0 0.877s0.635 0.242 0.877 0l0.404-0.405h3.041l0.423 0.422c0.244 0.243 0.637 0.243 0.881 0 0.243-0.244 0.243-0.637 0-0.881l-0.563-0.563c-0.128-0.128-0.297-0.185-0.465-0.178h-1.194v-11.4h3.318l1.623 1.622c0.244 0.243 0.636 0.243 0.881 0 0.243-0.243 0.243-0.637 0-0.881l-1.762-1.762c-0.128-0.128-0.298-0.185-0.466-0.178h-8.382zM21 6.6v2.4h1.2v-2.4h-1.2zM1.8 9v2.4h1.2v-2.4h-1.2zM21 11.4v2.4h1.2v-2.4h-1.2zM1.8 13.8v2.4h1.2v-2.4h-1.2zM21 16.2v2.4h1.2v-2.4h-1.2zM1.8 18.6v0.6h-1.8v4.8h4.8v-1.8h1.8v-1.2h-1.8v-1.8h-1.8v-0.6h-1.2zM19.2 19.2v1.8h-0.6v1.2h0.6v1.8h4.8v-4.8h-4.8zM1.2 20.4h2.4v2.4h-2.4v-2.4zM20.4 20.4h2.4v2.4h-2.4v-2.4zM9 21v1.2h2.4v-1.2h-2.4zM13.8 21v1.2h2.4v-1.2h-2.4z"></path>
</svg>
