<!-- Generated by IcoMoon.io -->
<svg version="1.1" xmlns="http://www.w3.org/2000/svg" width="31" height="28" viewBox="0 0 31 28">
<title>control-Tags</title>
<path d="M13.639 9.032v-1.355h3.071v-1.806c0-1.355-1.084-2.439-2.439-2.439s-2.439 1.084-2.439 2.439v14.813l2.439 4.426 2.439-4.426v-11.652z"></path>
<path d="M9.845 19.6h-1.806c-1.626 0-2.89-1.265-2.89-2.89v-6.955c0-1.626 1.265-2.89 2.89-2.89h1.806v-1.174h-1.806c-2.258 0-4.065 1.806-4.065 4.065v6.955c0 2.258 1.806 4.065 4.065 4.065h1.806z"></path>
<path d="M23.303 7.135c-0.723-0.903-1.806-1.445-2.981-1.445h-1.626v1.174h1.084c1.174 0 2.258 0.542 2.981 1.445l3.974 4.968-3.884 4.877c-0.723 0.903-1.897 1.445-3.071 1.445h-0.994v1.174h1.535c1.174 0 2.348-0.542 3.071-1.445l4.877-6.052z"></path>
</svg>
