<!-- Generated by IcoMoon.io -->
<svg version="1.1" xmlns="http://www.w3.org/2000/svg" width="28" height="28" viewBox="0 0 28 28">
<title>control-DateTime</title>
<path d="M13.3 11.2h1.4c0.385 0 0.7 0.315 0.7 0.7s-0.315 0.7-0.7 0.7h-1.4c-0.385 0-0.7-0.315-0.7-0.7s0.315-0.7 0.7-0.7zM6.3 16.8c0.385 0 0.7 0.314 0.7 0.7s-0.315 0.7-0.7 0.7h-1.4c-0.385 0-0.7-0.314-0.7-0.7s0.315-0.7 0.7-0.7h1.4zM6.3 14c0.385 0 0.7 0.314 0.7 0.7s-0.315 0.7-0.7 0.7h-1.4c-0.385 0-0.7-0.314-0.7-0.7s0.315-0.7 0.7-0.7h1.4zM1.4 20.3v-11.9h18.2v2.8h1.4v-7.7c0-1.158-0.942-2.1-2.1-2.1h-3.5v-0.7c0-0.386-0.314-0.7-0.7-0.7s-0.7 0.314-0.7 0.7v0.7h-7v-0.7c0-0.386-0.315-0.7-0.7-0.7s-0.7 0.314-0.7 0.7v0.7h-3.5c-1.158 0-2.1 0.942-2.1 2.1v16.8c0 1.158 0.942 2.1 2.1 2.1h9.1v-1.4h-9.1c-0.385 0-0.7-0.314-0.7-0.7zM1.4 3.5c0-0.385 0.315-0.7 0.7-0.7h3.5v2.1c0 0.385 0.315 0.7 0.7 0.7s0.7-0.315 0.7-0.7v-2.1h7v2.1c0 0.385 0.314 0.7 0.7 0.7s0.7-0.315 0.7-0.7v-2.1h3.5c0.386 0 0.7 0.315 0.7 0.7v3.5h-18.2v-3.5zM10.5 11.2c0.385 0 0.7 0.315 0.7 0.7s-0.315 0.7-0.7 0.7h-1.4c-0.385 0-0.7-0.315-0.7-0.7s0.315-0.7 0.7-0.7h1.4zM20.3 12.6c-4.253 0-7.7 3.447-7.7 7.7s3.447 7.7 7.7 7.7 7.7-3.447 7.7-7.7-3.447-7.7-7.7-7.7zM20.3 26.6c-3.479 0-6.3-2.821-6.3-6.3s2.821-6.3 6.3-6.3 6.3 2.821 6.3 6.3-2.821 6.3-6.3 6.3zM10.5 14c0.385 0 0.7 0.314 0.7 0.7s-0.315 0.7-0.7 0.7h-1.4c-0.385 0-0.7-0.314-0.7-0.7s0.315-0.7 0.7-0.7h1.4zM10.5 16.8c0.385 0 0.7 0.314 0.7 0.7s-0.315 0.7-0.7 0.7h-1.4c-0.385 0-0.7-0.314-0.7-0.7s0.315-0.7 0.7-0.7h1.4zM23.1 19.6c0.386 0 0.7 0.314 0.7 0.7s-0.314 0.7-0.7 0.7h-2.8c-0.386 0-0.7-0.314-0.7-0.7v-2.8c0-0.386 0.314-0.7 0.7-0.7s0.7 0.314 0.7 0.7v2.1h2.1z"></path>
</svg>
