<!-- Generated by IcoMoon.io -->
<svg version="1.1" xmlns="http://www.w3.org/2000/svg" width="24" height="24" viewBox="0 0 24 24">
<title>control-Radio</title>
<path d="M3.6 16.8c-1.987 0-3.6 1.613-3.6 3.6s1.613 3.6 3.6 3.6c1.987 0 3.6-1.613 3.6-3.6s-1.613-3.6-3.6-3.6zM3.6 22.8c-1.325 0-2.4-1.075-2.4-2.4s1.075-2.4 2.4-2.4c1.325 0 2.4 1.075 2.4 2.4s-1.075 2.4-2.4 2.4zM9 4.2h14.4c0.332 0 0.6-0.268 0.6-0.6s-0.268-0.6-0.6-0.6h-14.4c-0.331 0-0.6 0.268-0.6 0.6s0.269 0.6 0.6 0.6zM23.4 11.4h-14.4c-0.331 0-0.6 0.268-0.6 0.6s0.269 0.6 0.6 0.6h14.4c0.332 0 0.6-0.268 0.6-0.6s-0.268-0.6-0.6-0.6zM3.6 0c-1.987 0-3.6 1.612-3.6 3.6s1.613 3.6 3.6 3.6c1.987 0 3.6-1.612 3.6-3.6s-1.613-3.6-3.6-3.6zM3.6 6c-1.325 0-2.4-1.075-2.4-2.4s1.075-2.4 2.4-2.4c1.325 0 2.4 1.075 2.4 2.4s-1.075 2.4-2.4 2.4zM3.6 8.4c-1.987 0-3.6 1.612-3.6 3.6s1.613 3.6 3.6 3.6 3.6-1.613 3.6-3.6c0-1.988-1.613-3.6-3.6-3.6zM3.6 14.4c-1.325 0-2.4-1.075-2.4-2.4s1.075-2.4 2.4-2.4c1.325 0 2.4 1.075 2.4 2.4s-1.075 2.4-2.4 2.4zM3.6 2.4c-0.662 0-1.2 0.538-1.2 1.2s0.538 1.2 1.2 1.2c0.662 0 1.2-0.538 1.2-1.2s-0.538-1.2-1.2-1.2zM23.4 19.8h-14.4c-0.331 0-0.6 0.268-0.6 0.6s0.269 0.6 0.6 0.6h14.4c0.332 0 0.6-0.268 0.6-0.6s-0.268-0.6-0.6-0.6z"></path>
</svg>
