<!-- Generated by IcoMoon.io -->
<svg version="1.1" xmlns="http://www.w3.org/2000/svg" width="24" height="24" viewBox="0 0 24 24">
<title>control-Slug</title>
<path d="M12 0c-0.36 0-0.6 0.24-0.6 0.6s0.24 0.6 0.6 0.6h3v20.4h-3c-0.36 0-0.6 0.24-0.6 0.6s0.24 0.6 0.6 0.6h7.2c0.36 0 0.6-0.24 0.6-0.6s-0.24-0.6-0.6-0.6h-3v-20.4h3c0.36 0 0.6-0.24 0.6-0.6s-0.24-0.6-0.6-0.6h-7.2zM1.2 4.8c-0.66 0-1.2 0.54-1.2 1.2v10.8c0 0.66 0.54 1.2 1.2 1.2h12.6v-1.2h-12c-0.36 0-0.6-0.24-0.6-0.6v-9.6c0-0.36 0.24-0.6 0.6-0.6h12v-1.2h-12.6zM17.4 4.8v1.2h4.8c0.36 0 0.6 0.24 0.6 0.6v9.6c0 0.36-0.24 0.6-0.6 0.6h-4.8v1.2h5.4c0.66 0 1.2-0.54 1.2-1.2v-10.8c0-0.66-0.54-1.2-1.2-1.2h-5.4z"></path>
<path d="M9.060 14.22c0 0.3-0.18 0.54-0.48 0.6-0.66 0.24-1.38 0.36-2.16 0.36-0.84 0-1.56-0.24-1.98-0.6s-0.6-0.9-0.6-1.56 0.24-1.2 0.6-1.56c0.42-0.42 1.080-0.54 1.98-0.54h1.62v-0.9c0-0.84-0.6-1.26-1.5-1.26-0.54 0-1.080 0.18-1.62 0.48-0.060 0.060-0.12 0.060-0.24 0.060-0.24 0-0.48-0.18-0.48-0.48 0-0.18 0.060-0.3 0.24-0.42 0.72-0.48 1.44-0.6 2.16-0.6 1.32 0 2.46 0.72 2.46 2.16v4.26zM8.1 11.76h-1.62c-1.44 0-1.62 0.66-1.62 1.26s0.18 1.32 1.62 1.32c0.54 0 1.080-0.060 1.62-0.24v-2.34z"></path>
</svg>
