<!-- Generated by IcoMoon.io -->
<svg version="1.1" xmlns="http://www.w3.org/2000/svg" width="28" height="28" viewBox="0 0 28 28">
<title>control-Markdown</title>
<path d="M21.7 16.664h-1.691v-0.769h-0.021q-0.578 0.905-1.696 0.905-1.027 0-1.653-0.736-0.626-0.741-0.626-2.066 0-1.385 0.69-2.219t1.809-0.834q1.059 0 1.477 0.774h0.021v-3.32h1.691v8.264zM20.041 13.949v-0.42q0-0.545-0.31-0.905t-0.808-0.36q-0.562 0-0.878 0.452-0.316 0.447-0.316 1.232 0 0.736 0.305 1.134t0.845 0.398q0.514 0 0.835-0.42 0.326-0.42 0.326-1.112zM15.001 16.664h-1.686v-3.183q0-1.216-0.878-1.216-0.417 0-0.68 0.365t-0.262 0.91v3.123h-1.691v-3.216q0-1.183-0.861-1.183-0.433 0-0.696 0.349-0.257 0.349-0.257 0.948v3.102h-1.691v-5.582h1.691v0.872h0.021q0.262-0.447 0.733-0.725 0.476-0.283 1.038-0.283 1.161 0 1.589 1.041 0.626-1.041 1.841-1.041 1.787 0 1.787 2.246v3.472zM0 0v5.6h2.1v2.1h1.4v-2.1h2.1v-5.6zM22.4 0v5.6h5.6v-5.6zM1.4 1.4h2.8v2.8h-2.8zM23.8 1.4h2.8v2.8h-2.8zM7.7 2.1v1.4h2.8v-1.4zM13.3 2.1v1.4h2.8v-1.4zM18.9 2.1v1.4h2.8v-1.4zM24.5 7.7v2.8h1.4v-2.8zM2.1 10.5v2.8h1.4v-2.8zM24.5 13.3v2.8h1.4v-2.8zM2.1 16.1v2.8h1.4v-2.8zM24.5 18.9v2.8h1.4v-2.8zM2.1 21.7v0.7h-2.1v5.6h5.6v-2.1h2.1v-1.4h-2.1v-2.1h-2.1v-0.7zM22.4 22.4v2.1h-0.7v1.4h0.7v2.1h5.6v-5.6zM1.4 23.8h2.8v2.8h-2.8zM23.8 23.8h2.8v2.8h-2.8zM10.5 24.5v1.4h2.8v-1.4zM16.1 24.5v1.4h2.8v-1.4z"></path>
</svg>
