<!-- Generated by IcoMoon.io -->
<svg version="1.1" xmlns="http://www.w3.org/2000/svg" width="28" height="28" viewBox="0 0 28 28">
<title>contents</title>
<path d="M21.875 28h-15.75c-3.413 0-6.125-2.713-6.125-6.125v-15.75c0-3.413 2.712-6.125 6.125-6.125h15.75c3.412 0 6.125 2.712 6.125 6.125v15.75c0 3.412-2.713 6.125-6.125 6.125zM6.125 1.75c-2.45 0-4.375 1.925-4.375 4.375v15.75c0 2.45 1.925 4.375 4.375 4.375h15.75c2.45 0 4.375-1.925 4.375-4.375v-15.75c0-2.45-1.925-4.375-4.375-4.375h-15.75z"></path>
<path d="M13.125 12.25h-5.775c-1.575 0-2.888-1.313-2.888-2.888v-2.013c0-1.575 1.313-2.888 2.888-2.888h5.775c1.575 0 2.887 1.313 2.887 2.888v2.013c0 1.575-1.312 2.888-2.887 2.888zM7.35 6.212c-0.613 0-1.138 0.525-1.138 1.138v2.012c0 0.612 0.525 1.138 1.138 1.138h5.775c0.612 0 1.138-0.525 1.138-1.138v-2.013c0-0.612-0.525-1.138-1.138-1.138h-5.775z"></path>
<path d="M22.662 16.713h-17.325c-0.525 0-0.875-0.35-0.875-0.875s0.35-0.875 0.875-0.875h17.237c0.525 0 0.875 0.35 0.875 0.875s-0.35 0.875-0.787 0.875z"></path>
<path d="M15.138 21.262h-9.8c-0.525 0-0.875-0.35-0.875-0.875s0.35-0.875 0.875-0.875h9.713c0.525 0 0.875 0.35 0.875 0.875s-0.35 0.875-0.787 0.875z"></path>
</svg>
