<!-- Generated by IcoMoon.io -->
<svg version="1.1" xmlns="http://www.w3.org/2000/svg" width="28" height="28" viewBox="0 0 28 28">
<title>control-Html</title>
<path d="M4.35 18.2l-4.35-3.666 4.35-3.659 1.007 1.020-3.201 2.627 3.201 2.659z"></path>
<path d="M13.487 14.657q0 0.903-0.258 1.562-0.252 0.658-0.71 1.097-0.452 0.432-1.071 0.645-0.62 0.207-1.349 0.207-0.716 0-1.336-0.11-0.613-0.103-1.175-0.284v-8.841h1.575v2.143l-0.065 1.291q0.355-0.458 0.826-0.736 0.478-0.278 1.142-0.278 0.581 0 1.033 0.232t0.755 0.665q0.31 0.426 0.471 1.039 0.161 0.607 0.161 1.368zM11.835 14.722q0-0.542-0.077-0.923t-0.226-0.626q-0.142-0.245-0.355-0.355-0.207-0.116-0.478-0.116-0.4 0-0.768 0.323-0.361 0.323-0.768 0.878v2.865q0.187 0.071 0.458 0.116 0.278 0.045 0.561 0.045 0.374 0 0.678-0.155 0.31-0.155 0.523-0.439 0.219-0.284 0.336-0.691 0.116-0.413 0.116-0.923z"></path>
<path d="M19.159 14.044q0.013-0.368-0.039-0.626-0.045-0.258-0.155-0.426-0.103-0.168-0.258-0.245t-0.355-0.077q-0.348 0-0.723 0.29-0.368 0.284-0.813 0.942v4.15h-1.613v-6.557h1.426l0.058 0.955q0.161-0.252 0.361-0.452 0.207-0.2 0.452-0.342 0.252-0.148 0.555-0.226t0.665-0.077q0.497 0 0.878 0.174 0.387 0.168 0.645 0.503 0.265 0.336 0.387 0.845 0.129 0.503 0.11 1.168z"></path>
<path d="M23.65 10.875l4.35 3.659-4.35 3.666-1-1.020 3.194-2.633-3.194-2.652z"></path>
</svg>
