<!-- Generated by IcoMoon.io -->
<svg version="1.1" xmlns="http://www.w3.org/2000/svg" width="24" height="24" viewBox="0 0 24 24">
<title>control-Toggle</title>
<path d="M7.8 0.6c-2.983 0-5.4 2.417-5.4 5.4s2.417 5.4 5.4 5.4h8.4c2.983 0 5.4-2.417 5.4-5.4s-2.417-5.4-5.4-5.4h-8.4zM7.8 1.8h8.4c2.32 0 4.2 1.88 4.2 4.2s-1.88 4.2-4.2 4.2h-8.4c-2.32 0-4.2-1.88-4.2-4.2s1.88-4.2 4.2-4.2zM7.8 3c-1.657 0-3 1.343-3 3s1.343 3 3 3c1.657 0 3-1.343 3-3s-1.343-3-3-3zM7.8 4.2c0.994 0 1.8 0.806 1.8 1.8s-0.806 1.8-1.8 1.8c-0.994 0-1.8-0.806-1.8-1.8s0.806-1.8 1.8-1.8zM7.8 12.6c-2.983 0-5.4 2.417-5.4 5.4s2.417 5.4 5.4 5.4h8.4c2.983 0 5.4-2.417 5.4-5.4s-2.417-5.4-5.4-5.4h-8.4zM7.8 13.8h8.4c2.32 0 4.2 1.88 4.2 4.2s-1.88 4.2-4.2 4.2h-8.4c-2.32 0-4.2-1.88-4.2-4.2s1.88-4.2 4.2-4.2zM16.2 15c-1.657 0-3 1.343-3 3s1.343 3 3 3c1.657 0 3-1.343 3-3s-1.343-3-3-3zM16.2 16.2c0.994 0 1.8 0.806 1.8 1.8s-0.806 1.8-1.8 1.8c-0.994 0-1.8-0.806-1.8-1.8s0.806-1.8 1.8-1.8z"></path>
</svg>
