<!-- Generated by IcoMoon.io -->
<svg version="1.1" xmlns="http://www.w3.org/2000/svg" width="24" height="24" viewBox="0 0 24 24">
<title>control-Checkbox</title>
<path d="M18.6 19.8c0 0.332-0.268 0.6-0.6 0.6h-15.6c-0.331 0-0.6-0.268-0.6-0.6v-15.6c0-0.332 0.269-0.6 0.6-0.6h15.6c0.332 0 0.6 0.268 0.6 0.6v2.4h1.2v-3c0-0.662-0.538-1.2-1.2-1.2h-16.8c-0.662 0-1.2 0.538-1.2 1.2v16.8c0 0.662 0.538 1.2 1.2 1.2h16.8c0.662 0 1.2-0.538 1.2-1.2v-6.6h-1.2v6zM23.228 5.572c-0.233-0.233-0.61-0.233-0.843 0l-9.185 9.185-5.585-5.585c-0.233-0.233-0.611-0.233-0.842 0-0.233 0.232-0.233 0.61 0 0.842l5.974 5.974c0.011 0.013 0.014 0.028 0.026 0.040 0.118 0.118 0.274 0.175 0.428 0.173 0.155 0.002 0.31-0.055 0.428-0.173 0.012-0.012 0.016-0.028 0.026-0.040l9.573-9.574c0.233-0.233 0.233-0.61 0-0.842z"></path>
</svg>
