<!-- Generated by IcoMoon.io -->
<svg version="1.1" xmlns="http://www.w3.org/2000/svg" width="28" height="28" viewBox="0 0 28 28">
<title>control-Checkboxes</title>
<path d="M10.5 4.9h16.8c0.387 0 0.7-0.313 0.7-0.7s-0.313-0.7-0.7-0.7h-16.8c-0.386 0-0.7 0.313-0.7 0.7s0.314 0.7 0.7 0.7zM27.3 13.3h-16.8c-0.386 0-0.7 0.313-0.7 0.7s0.314 0.7 0.7 0.7h16.8c0.387 0 0.7-0.313 0.7-0.7s-0.313-0.7-0.7-0.7zM27.3 23.1h-16.8c-1.050 0.425-0.624 1.027 0 1.4h16.8c0.387 0 0.7-0.313 0.7-0.7s-0.313-0.7-0.7-0.7z"></path>
<path d="M0 0v8.4h8.4v-8.4zM1.296 1.296h5.808v5.808h-5.808z"></path>
<path d="M0 19.6v8.4h8.4v-8.4zM1.296 20.896h5.808v5.808h-5.808z"></path>
<path d="M0 9.8v8.4h8.4v-8.4zM1.296 11.096h5.808v5.808h-5.808z"></path>
<path d="M2.45 2.45h3.5v3.5h-3.5v-3.5z"></path>
</svg>
