<!-- Generated by IcoMoon.io -->
<svg version="1.1" xmlns="http://www.w3.org/2000/svg" width="24" height="24" viewBox="0 0 24 24">
<title>control-Dropdown</title>
<path d="M1.2 0c-0.662 0-1.2 0.538-1.2 1.2v6.6c0 0.662 0.538 1.2 1.2 1.2h21.6c0.662 0 1.2-0.538 1.2-1.2v-6.6c0-0.662-0.538-1.2-1.2-1.2h-21.6zM1.8 1.2h12v6.6h-12c-0.332 0-0.6-0.268-0.6-0.6v-5.4c0-0.332 0.268-0.6 0.6-0.6zM15 1.2h7.2c0.332 0 0.6 0.268 0.6 0.6v5.4c0 0.332-0.268 0.6-0.6 0.6h-7.2v-6.6zM16.8 3.6c-0.010 0.008 2.089 2.413 2.1 2.4 0.012 0 2.1-2.235 2.1-2.4 0 0.009-4.035 0-4.2 0zM3 10.2c-0.994 0-1.8 0.806-1.8 1.8s0.806 1.8 1.8 1.8c0.994 0 1.8-0.806 1.8-1.8s-0.806-1.8-1.8-1.8zM3 11.4c0.332 0 0.6 0.268 0.6 0.6s-0.268 0.6-0.6 0.6c-0.332 0-0.6-0.268-0.6-0.6s0.268-0.6 0.6-0.6zM7.2 11.4c-0.332 0-0.6 0.268-0.6 0.6s0.268 0.6 0.6 0.6h15c0.332 0 0.6-0.268 0.6-0.6s-0.268-0.6-0.6-0.6h-15zM3 15c-0.994 0-1.8 0.806-1.8 1.8s0.806 1.8 1.8 1.8c0.994 0 1.8-0.806 1.8-1.8s-0.806-1.8-1.8-1.8zM3 16.2c0.332 0 0.6 0.268 0.6 0.6s-0.268 0.6-0.6 0.6c-0.332 0-0.6-0.268-0.6-0.6s0.268-0.6 0.6-0.6zM7.2 16.2c-0.332 0-0.6 0.268-0.6 0.6s0.268 0.6 0.6 0.6h15c0.332 0 0.6-0.268 0.6-0.6s-0.268-0.6-0.6-0.6h-15zM3 19.8c-0.994 0-1.8 0.806-1.8 1.8s0.806 1.8 1.8 1.8c0.994 0 1.8-0.806 1.8-1.8s-0.806-1.8-1.8-1.8zM3 21c0.332 0 0.6 0.268 0.6 0.6s-0.268 0.6-0.6 0.6c-0.332 0-0.6-0.268-0.6-0.6s0.268-0.6 0.6-0.6zM7.2 21c-0.332 0-0.6 0.268-0.6 0.6s0.268 0.6 0.6 0.6h15c0.332 0 0.6-0.268 0.6-0.6s-0.268-0.6-0.6-0.6h-15z"></path>
</svg>
