<!-- Generated by IcoMoon.io -->
<svg version="1.1" xmlns="http://www.w3.org/2000/svg" width="24" height="24" viewBox="0 0 24 24">
<title>copy</title>
<path d="M4.8 1.2c-1.325 0-2.4 1.075-2.4 2.4v12c0 1.325 1.075 2.4 2.4 2.4h9.6c1.325 0 2.4-1.075 2.4-2.4v-12c0-1.325-1.075-2.4-2.4-2.4h-9.6zM4.8 2.4h9.6c0.662 0 1.2 0.536 1.2 1.2v12c0 0.664-0.538 1.2-1.2 1.2h-9.6c-0.662 0-1.2-0.536-1.2-1.2v-12c0-0.664 0.538-1.2 1.2-1.2zM18 4.8v1.2c0.662 0 1.2 0.536 1.2 1.2v12c0 0.664-0.538 1.2-1.2 1.2h-9.6c-0.662 0-1.2-0.536-1.2-1.2h-1.2c0 1.325 1.075 2.4 2.4 2.4h9.6c1.325 0 2.4-1.075 2.4-2.4v-12c0-1.325-1.075-2.4-2.4-2.4z"></path>
</svg>
