<!-- Generated by IcoMoon.io -->
<svg version="1.1" xmlns="http://www.w3.org/2000/svg" width="24" height="24" viewBox="0 0 24 24">
<title>delete-filled</title>
<path d="M19.5 3h-4.5v-1.5c0-0.83-0.67-1.5-1.5-1.5h-3c-0.828 0-1.5 0.67-1.5 1.5v1.5h-4.5c-0.828 0-1.5 0.671-1.5 1.5v3c0 0.829 0.672 1.5 1.5 1.5v12c0 0.83 0.672 1.5 1.5 1.5h12c0.83 0 1.5-0.67 1.5-1.5v-12c0.83 0 1.5-0.671 1.5-1.5v-3c0-0.829-0.67-1.5-1.5-1.5zM10.5 1.5h3v1.5h-3v-1.5zM10.5 18.75c0 0.414-0.336 0.75-0.75 0.75s-0.75-0.336-0.75-0.75v-7.5c0-0.413 0.336-0.75 0.75-0.75s0.75 0.337 0.75 0.75v7.5zM15 18.75c0 0.414-0.336 0.75-0.75 0.75s-0.75-0.336-0.75-0.75v-7.5c0-0.413 0.336-0.75 0.75-0.75s0.75 0.337 0.75 0.75v7.5zM19.5 7.5h-15v-3h15v3z"></path>
</svg>
