<!-- Generated by IcoMoon.io -->
<svg version="1.1" xmlns="http://www.w3.org/2000/svg" width="24" height="24" viewBox="0 0 24 24">
<title>document-disable</title>
<path d="M8.4 2.4c-0.664 0-1.2 0.536-1.2 1.2v6h1.2v-6h7.2v3.6c0 0.664 0.536 1.2 1.2 1.2h3.6v12h-8.4v1.2h8.4c0.664 0 1.2-0.536 1.2-1.2v-12.848l-5.152-5.152h-8.048zM16.8 4.448l2.752 2.752h-2.752v-2.752zM7.8 10.8c-2.982 0-5.4 2.418-5.4 5.4s2.418 5.4 5.4 5.4c2.982 0 5.4-2.418 5.4-5.4s-2.418-5.4-5.4-5.4zM7.8 12c0.936 0 1.792 0.317 2.491 0.837l-5.869 5.836c-0.511-0.696-0.823-1.545-0.823-2.473 0-2.316 1.884-4.2 4.2-4.2zM11.18 13.727c0.511 0.695 0.82 1.546 0.82 2.473 0 2.316-1.884 4.2-4.2 4.2-0.935 0-1.79-0.318-2.489-0.837l5.869-5.836z"></path>
</svg>
