<!-- Generated by IcoMoon.io -->
<svg version="1.1" xmlns="http://www.w3.org/2000/svg" width="28" height="28" viewBox="0 0 28 28">
<title>document-lock</title>
<path d="M9.8 2.8c-0.774 0-1.4 0.626-1.4 1.4v5.6h1.4v-5.6h8.4v4.2c0 0.774 0.626 1.4 1.4 1.4h4.2v14h-8.4v1.4h8.4c0.774 0 1.4-0.626 1.4-1.4v-14.99l-6.010-6.010h-7.99zM19.6 5.19l3.21 3.21h-3.21z"></path>
<path d="M4.2 17.5v7.7h9.8v-7.7zM4.9 17.5v-2.1c0-2.31 1.89-4.2 4.2-4.2s4.2 1.89 4.2 4.2v2.1h-1.4v-2.1c0-1.54-1.26-2.8-2.8-2.8s-2.8 1.26-2.8 2.8v2.1z"></path>
</svg>
