<!-- Generated by IcoMoon.io -->
<svg version="1.1" xmlns="http://www.w3.org/2000/svg" width="28" height="28" viewBox="0 0 28 28">
<title>document-unpublish</title>
<path d="M9.8 2.8c-0.774 0-1.4 0.626-1.4 1.4v4.2h1.4v-4.2h8.4v4.2c0 0.774 0.626 1.4 1.4 1.4h4.2v14h-9.8v1.4h9.8c0.774 0 1.4-0.626 1.4-1.4v-14.99l-6.010-6.010h-7.99zM19.6 5.19l3.21 3.21h-3.21zM9.1 12.6l-6.3 7v1.4h2.8v4.2h7v-4.2h2.8v-1.4zM9.1 14.692l4.416 4.908h-2.316v4.2h-4.2v-4.2h-2.316z"></path>
<path d="M2.8 9.776h12.6v1.424h-12.6v-1.424z"></path>
</svg>
