<!-- Generated by IcoMoon.io -->
<svg version="1.1" xmlns="http://www.w3.org/2000/svg" width="24" height="24" viewBox="0 0 24 24">
<title>download</title>
<path d="M15 2q1.828 0 3.496 0.715t2.871 1.918 1.918 2.871 0.715 3.496q0 1.992-0.82 3.766t-2.266 3.027-3.281 1.816l0.492-0.484q0.422-0.43 0.656-1 0.219-0.531 0.219-1.156 0-0.156-0.008-0.219 1.391-0.969 2.199-2.48t0.809-3.27q0-1.422-0.555-2.719t-1.492-2.234-2.234-1.492-2.719-0.555q-1.297 0-2.496 0.465t-2.109 1.262-1.523 1.906-0.793 2.367h-2.078q-1.656 0-2.828 1.172t-1.172 2.828q0 0.906 0.355 1.68t0.934 1.27 1.285 0.773 1.426 0.277h1.172q0.273 0.687 0.703 1.125l0.883 0.875h-2.758q-1.633 0-3.012-0.805t-2.184-2.184-0.805-3.012 0.805-3.012 2.184-2.184 3.012-0.805h0.516q0.617-1.742 1.859-3.098t2.973-2.129 3.652-0.773zM13 10q0.414 0 0.707 0.293t0.293 0.707v6.586l1.289-1.297q0.289-0.289 0.711-0.289 0.43 0 0.715 0.285t0.285 0.715q0 0.422-0.289 0.711l-3 3q-0.289 0.289-0.711 0.289t-0.711-0.289l-3-3q-0.289-0.305-0.289-0.711 0-0.414 0.293-0.707t0.707-0.293q0.422 0 0.711 0.289l1.289 1.297v-6.586q0-0.414 0.293-0.707t0.707-0.293z"></path>
</svg>
