<!-- Generated by IcoMoon.io -->
<svg version="1.1" xmlns="http://www.w3.org/2000/svg" width="24" height="24" viewBox="0 0 24 24">
<title>drag</title>
<path d="M15.6 1.2v2.4h2.4v-2.4h-2.4zM10.8 3.6h2.4v-2.4h-2.4v2.4zM10.8 8.4h2.4v-2.4h-2.4v2.4zM15.6 8.4h2.4v-2.4h-2.4v2.4zM15.6 13.2h2.4v-2.4h-2.4v2.4zM10.8 13.2h2.4v-2.4h-2.4v2.4zM10.8 18h2.4v-2.4h-2.4v2.4zM15.6 18h2.4v-2.4h-2.4v2.4zM15.6 22.8h2.4v-2.4h-2.4v2.4zM10.8 22.8h2.4v-2.4h-2.4v2.4zM6 3.6h2.4v-2.4h-2.4v2.4zM6 8.4h2.4v-2.4h-2.4v2.4zM6 13.2h2.4v-2.4h-2.4v2.4zM6 18h2.4v-2.4h-2.4v2.4zM6 22.8h2.4v-2.4h-2.4v2.4z"></path>
</svg>
