<!-- Generated by IcoMoon.io -->
<svg version="1.1" xmlns="http://www.w3.org/2000/svg" width="24" height="24" viewBox="0 0 24 24">
<title>filter</title>
<path d="M21.6 6.608c0-1.657-4.028-3.004-9-3.004s-9 1.34-9 2.998c0 0.235 0.089 0.462 0.242 0.68 0-0.001 6.958 9.517 6.958 9.517v6l3.6-1.2v-4.8c0 0 7.002-9.566 7.025-9.602 0 0 0.175-0.39 0.175-0.589zM12.6 4.8c4.849 0 7.458 1.248 7.783 1.8-0.325 0.552-2.934 1.8-7.783 1.8s-7.458-1.248-7.783-1.8c0.325-0.552 2.934-1.8 7.783-1.8zM20.376 8.106v0 0zM13.43 16.092c-0.15 0.205-0.23 0.454-0.23 0.708v3.935l-1.2 0.4v-4.334c0-0.254-0.080-0.503-0.23-0.708l-5.347-7.315c1.612 0.509 3.782 0.823 6.178 0.823 2.398 0 4.571-0.314 6.184-0.824-0.002 0.001-0.005 0.001-0.007 0.002l-5.346 7.314z"></path>
</svg>
