<?xml version="1.0" encoding="UTF-8" standalone="no"?>
<!-- Generator: Adobe Illustrator 16.0.0, SVG Export Plug-In . SVG Version: 6.00 Build 0)  -->

<svg
   xmlns:dc="http://purl.org/dc/elements/1.1/"
   xmlns:cc="http://creativecommons.org/ns#"
   xmlns:rdf="http://www.w3.org/1999/02/22-rdf-syntax-ns#"
   xmlns:svg="http://www.w3.org/2000/svg"
   xmlns="http://www.w3.org/2000/svg"
   xmlns:sodipodi="http://sodipodi.sourceforge.net/DTD/sodipodi-0.dtd"
   xmlns:inkscape="http://www.inkscape.org/namespaces/inkscape"
   version="1.1"
   id="Layer_1"
   x="0px"
   y="0px"
   width="40px"
   height="40px"
   viewBox="0 0 40 40"
   enable-background="new 0 0 40 40"
   xml:space="preserve"
   inkscape:version="0.91 r13725"
   sodipodi:docname="json.svg"><metadata
     id="metadata13"><rdf:RDF><cc:Work
         rdf:about=""><dc:format>image/svg+xml</dc:format><dc:type
           rdf:resource="http://purl.org/dc/dcmitype/StillImage" /><dc:title></dc:title></cc:Work></rdf:RDF></metadata><defs
     id="defs11" /><sodipodi:namedview
     pagecolor="#ffffff"
     bordercolor="#666666"
     borderopacity="1"
     objecttolerance="10"
     gridtolerance="10"
     guidetolerance="10"
     inkscape:pageopacity="0"
     inkscape:pageshadow="2"
     inkscape:window-width="742"
     inkscape:window-height="480"
     id="namedview9"
     showgrid="false"
     inkscape:zoom="5.9"
     inkscape:cx="20"
     inkscape:cy="20"
     inkscape:window-x="2052"
     inkscape:window-y="328"
     inkscape:window-maximized="0"
     inkscape:current-layer="Layer_1" /><path
     d="M 7,10 C 7,8.896 7.896,8 9,8 l 1,0 C 10.553,8 11,7.553 11,7 11,6.448 10.553,6 10,6 L 9,6 C 6.791,6 5,7.791 5,10 l 0,7 c 0,1.104 -0.896,2 -2,2 l -1,0 c -0.553,0 -1,0.448 -1,1 0,0.553 0.447,1 1,1 l 1,0 c 1.104,0 2,0.896 2,2 l 0,7 c 0,2.209 1.791,4 4,4 l 1,0 c 0.553,0 1,-0.447 1,-1 0,-0.553 -0.447,-1 -1,-1 L 9,32 C 7.896,32 7,31.104 7,30 L 7,23 C 7,21.799 6.459,20.732 5.62,20 6.459,19.267 7,18.202 7,17 l 0,-7 z m 31,9 -1,0 c -1.104,0 -2,-0.896 -2,-2 l 0,-7 C 35,7.791 33.209,6 31,6 l -1,0 c -0.553,0 -1,0.448 -1,1 0,0.553 0.447,1 1,1 l 1,0 c 1.104,0 2,0.896 2,2 l 0,7 c 0,1.202 0.541,2.267 1.38,3 C 33.541,20.732 33,21.799 33,23 l 0,7 c 0,1.104 -0.896,2 -2,2 l -1,0 c -0.553,0 -1,0.447 -1,1 0,0.553 0.447,1 1,1 l 1,0 c 2.209,0 4,-1.791 4,-4 l 0,-7 c 0,-1.104 0.896,-2 2,-2 l 1,0 c 0.553,0 1,-0.447 1,-1 0,-0.552 -0.447,-1 -1,-1 z M 20,13 c -0.553,0 -1,0.448 -1,1 0,0.553 0.447,1 1,1 0.553,0 1,-0.447 1,-1 0,-0.552 -0.447,-1 -1,-1 z m 0,4 c -0.553,0 -1,0.448 -1,1 l 0,8 c 0,0.553 0.447,1 1,1 0.553,0 1,-0.447 1,-1 l 0,-8 c 0,-0.552 -0.447,-1 -1,-1 z"
     id="path7"
     inkscape:connector-curvature="0"
     style="fill:#000000" /></svg>