<!-- Generated by IcoMoon.io -->
<svg version="1.1" xmlns="http://www.w3.org/2000/svg" width="28" height="28" viewBox="0 0 28 28">
<title>multiple-content</title>
<path d="M21.25 25.875h-14.375c-2.438 0-4.375-1.937-4.375-4.375v-8.125c0-2.438 1.937-4.375 4.375-4.375h14.375c2.438 0 4.375 1.937 4.375 4.375v8.125c0 2.438-1.937 4.375-4.375 4.375zM6.875 10.25c-1.75 0-3.125 1.375-3.125 3.125v8.125c0 1.75 1.375 3.125 3.125 3.125h14.375c1.75 0 3.125-1.375 3.125-3.125v-8.125c0-1.75-1.375-3.125-3.125-3.125h-14.375z"></path>
<path d="M20 15.875h-12.5c-0.375 0-0.625-0.25-0.625-0.625s0.25-0.625 0.625-0.625h12.5c0.375 0 0.625 0.25 0.625 0.625s-0.25 0.625-0.625 0.625z"></path>
<path d="M13.75 20.25h-6.25c-0.375 0-0.625-0.25-0.625-0.625s0.25-0.625 0.625-0.625h6.25c0.375 0 0.625 0.25 0.625 0.625s-0.25 0.625-0.625 0.625z"></path>
<path d="M21.25 7.125h-14.375c-0.375 0-0.625-0.25-0.625-0.625s0.25-0.625 0.625-0.625h14.375c0.375 0 0.625 0.25 0.625 0.625s-0.25 0.625-0.625 0.625z"></path>
<path d="M18.75 4h-9.375c-0.375 0-0.625-0.25-0.625-0.625s0.25-0.625 0.625-0.625h9.375c0.375 0 0.625 0.25 0.625 0.625s-0.25 0.625-0.625 0.625z"></path>
</svg>
