<!-- Generated by IcoMoon.io -->
<svg version="1.1" xmlns="http://www.w3.org/2000/svg" width="24" height="24" viewBox="0 0 24 24">
<title>reference</title>
<path d="M20.908 3.092c-1.723-1.723-4.527-1.723-6.25 0l-3.684 3.682c-0.233 0.235-0.233 0.614 0 0.85 0.236 0.234 0.615 0.234 0.85 0l3.683-3.682c1.254-1.255 3.297-1.255 4.551 0 1.256 1.254 1.256 3.297 0 4.551l-4.363 4.363c-1.255 1.256-3.297 1.256-4.551 0-0.236-0.235-0.615-0.235-0.85 0-0.235 0.236-0.235 0.614 0 0.85 0.862 0.861 1.992 1.292 3.125 1.292s2.264-0.432 3.126-1.292l4.363-4.364c1.723-1.722 1.723-4.527 0-6.25zM12.175 16.376l-3.682 3.682c-1.254 1.255-3.297 1.255-4.551 0-1.256-1.254-1.256-3.297 0-4.551l4.363-4.363c1.255-1.256 3.297-1.256 4.551 0 0.236 0.234 0.614 0.234 0.85 0 0.235-0.236 0.235-0.614 0-0.85-1.724-1.723-4.528-1.723-6.251 0l-4.363 4.363c-1.723 1.724-1.723 4.528 0 6.251 0.862 0.86 1.993 1.292 3.125 1.292 1.133 0 2.263-0.431 3.125-1.292l3.683-3.683c0.235-0.235 0.235-0.614 0-0.849-0.235-0.234-0.614-0.234-0.85 0z"></path>
</svg>
