<!-- Generated by IcoMoon.io -->
<svg version="1.1" xmlns="http://www.w3.org/2000/svg" width="24" height="24" viewBox="0 0 24 24">
<title>search</title>
<path d="M22.026 23.526c-0.638 0.633-1.669 0.633-2.306 0l-3.96-3.96c-1.551 0.902-3.328 1.455-5.25 1.455-5.806 0-10.511-4.707-10.511-10.511 0-5.807 4.704-10.511 10.511-10.511 5.805 0 10.512 4.704 10.512 10.511 0 2.698-1.047 5.131-2.716 6.991l3.718 3.718c0.633 0.636 0.633 1.668 0.001 2.305zM10.511 3.003c-4.146 0-7.508 3.36-7.508 7.508s3.362 7.508 7.508 7.508c4.148 0 7.509-3.36 7.509-7.508s-3.363-7.507-7.509-7.507z"></path>
</svg>
