<!-- Generated by IcoMoon.io -->
<svg version="1.1" xmlns="http://www.w3.org/2000/svg" width="32" height="32" viewBox="0 0 32 32">
<title>show-all</title>
<path d="M8 3.2c-0.885 0-1.6 0.715-1.6 1.6v8h1.6v-8h9.6v4.8c0 0.885 0.715 1.6 1.6 1.6h4.8v16h-16v-14.4h-1.6v14.4c0 0.885 0.715 1.6 1.6 1.6h16c0.885 0 1.6-0.715 1.6-1.6v-17.131l-6.869-6.869h-9.131zM19.2 5.931l3.669 3.669h-3.669z"></path>
<path d="M10.887 0.5c-0.885 0-1.6 0.715-1.6 1.6v0.741h1.6v-0.741h9.6l6.4 6.4v16h-0.744v1.6h0.744c0.885 0 1.6-0.715 1.6-1.6v-17.131l-6.869-6.869h-9.131z"></path>
<path d="M12.778 18.366l-1.103-1.156 4.316-4.122 4.313 4.122-1.103 1.156-3.209-3.066z"></path>
<path d="M15.991 24.16l-4.316-4.122 1.103-1.156 3.213 3.066 3.209-3.066 1.103 1.156z"></path>
</svg>
