<!-- Generated by IcoMoon.io -->
<svg version="1.1" xmlns="http://www.w3.org/2000/svg" width="24" height="24" viewBox="0 0 24 24">
<title>type-Json</title>
<path d="M4.2 6c0-0.662 0.538-1.2 1.2-1.2h0.6c0.332 0 0.6-0.268 0.6-0.6s-0.268-0.6-0.6-0.6h-0.6c-1.325 0-2.4 1.075-2.4 2.4v4.2c0 0.662-0.538 1.2-1.2 1.2h-0.6c-0.332 0-0.6 0.269-0.6 0.6s0.268 0.6 0.6 0.6h0.6c0.662 0 1.2 0.538 1.2 1.2v4.2c0 1.325 1.075 2.4 2.4 2.4h0.6c0.332 0 0.6-0.268 0.6-0.6s-0.268-0.6-0.6-0.6h-0.6c-0.662 0-1.2-0.538-1.2-1.2v-4.2c0-0.721-0.325-1.361-0.828-1.8 0.503-0.44 0.828-1.079 0.828-1.8v-4.2zM22.8 11.4h-0.6c-0.662 0-1.2-0.538-1.2-1.2v-4.2c0-1.325-1.075-2.4-2.4-2.4h-0.6c-0.332 0-0.6 0.269-0.6 0.6s0.268 0.6 0.6 0.6h0.6c0.662 0 1.2 0.538 1.2 1.2v4.2c0 0.721 0.325 1.36 0.828 1.8-0.503 0.439-0.828 1.079-0.828 1.8v4.2c0 0.662-0.538 1.2-1.2 1.2h-0.6c-0.332 0-0.6 0.268-0.6 0.6s0.268 0.6 0.6 0.6h0.6c1.325 0 2.4-1.075 2.4-2.4v-4.2c0-0.662 0.538-1.2 1.2-1.2h0.6c0.332 0 0.6-0.268 0.6-0.6s-0.268-0.6-0.6-0.6zM12 7.8c-0.332 0-0.6 0.269-0.6 0.6s0.268 0.6 0.6 0.6 0.6-0.268 0.6-0.6c0-0.331-0.268-0.6-0.6-0.6zM12 10.2c-0.332 0-0.6 0.269-0.6 0.6v4.8c0 0.332 0.268 0.6 0.6 0.6s0.6-0.268 0.6-0.6v-4.8c0-0.331-0.268-0.6-0.6-0.6z"></path>
</svg>
