<!-- Generated by IcoMoon.io -->
<svg version="1.1" xmlns="http://www.w3.org/2000/svg" width="28" height="28" viewBox="0 0 28 28">
<title>type-Array</title>
<path d="M22.75 7.35h-17.99c-0.42 0-0.7-0.28-0.7-0.7s0.28-0.7 0.7-0.7h17.99c0.42 0 0.7 0.28 0.7 0.7s-0.28 0.7-0.7 0.7z"></path>
<path d="M22.75 12.39h-11.2c-0.42 0-0.7-0.28-0.7-0.7s0.28-0.7 0.7-0.7h11.2c0.42 0 0.7 0.28 0.7 0.7s-0.28 0.7-0.7 0.7z"></path>
<path d="M22.75 17.57h-11.2c-0.42 0-0.7-0.28-0.7-0.7s0.28-0.7 0.7-0.7h11.2c0.42 0 0.7 0.28 0.7 0.7s-0.28 0.7-0.7 0.7z"></path>
<path d="M22.75 22.75h-11.2c-0.42 0-0.7-0.28-0.7-0.7s0.28-0.7 0.7-0.7h11.2c0.42 0 0.7 0.28 0.7 0.7s-0.28 0.7-0.7 0.7z"></path>
</svg>
