<!-- Generated by IcoMoon.io -->
<svg version="1.1" xmlns="http://www.w3.org/2000/svg" width="24" height="24" viewBox="0 0 24 24">
<title>type-DateTime</title>
<path d="M22.2 2.4h-3v-0.6c0-0.331-0.269-0.6-0.6-0.6s-0.6 0.269-0.6 0.6v0.6h-12v-0.6c0-0.331-0.27-0.6-0.6-0.6s-0.6 0.269-0.6 0.6v0.6h-3c-0.992 0-1.8 0.808-1.8 1.8v16.8c0 0.992 0.808 1.8 1.8 1.8h20.4c0.992 0 1.8-0.808 1.8-1.8v-16.8c0-0.992-0.808-1.8-1.8-1.8zM22.8 21c0 0.331-0.269 0.6-0.6 0.6h-20.4c-0.33 0-0.6-0.269-0.6-0.6v-12.6h21.6v12.6zM22.8 7.2h-21.6v-3c0-0.33 0.27-0.6 0.6-0.6h3v1.8c0 0.33 0.27 0.6 0.6 0.6s0.6-0.27 0.6-0.6v-1.8h12v1.8c0 0.33 0.269 0.6 0.6 0.6s0.6-0.27 0.6-0.6v-1.8h3c0.331 0 0.6 0.27 0.6 0.6v3zM7.8 12h1.2c0.33 0 0.6-0.27 0.6-0.6s-0.27-0.6-0.6-0.6h-1.2c-0.33 0-0.6 0.27-0.6 0.6s0.27 0.6 0.6 0.6zM11.4 12h1.2c0.331 0 0.6-0.27 0.6-0.6s-0.269-0.6-0.6-0.6h-1.2c-0.33 0-0.6 0.27-0.6 0.6s0.27 0.6 0.6 0.6zM15 12h1.2c0.331 0 0.6-0.27 0.6-0.6s-0.269-0.6-0.6-0.6h-1.2c-0.331 0-0.6 0.27-0.6 0.6s0.269 0.6 0.6 0.6zM18.6 12h1.2c0.331 0 0.6-0.27 0.6-0.6s-0.269-0.6-0.6-0.6h-1.2c-0.331 0-0.6 0.27-0.6 0.6s0.269 0.6 0.6 0.6zM4.2 14.4h1.2c0.33 0 0.6-0.269 0.6-0.6s-0.27-0.6-0.6-0.6h-1.2c-0.33 0-0.6 0.269-0.6 0.6s0.27 0.6 0.6 0.6zM7.8 14.4h1.2c0.33 0 0.6-0.269 0.6-0.6s-0.27-0.6-0.6-0.6h-1.2c-0.33 0-0.6 0.269-0.6 0.6s0.27 0.6 0.6 0.6zM11.4 14.4h1.2c0.331 0 0.6-0.269 0.6-0.6s-0.269-0.6-0.6-0.6h-1.2c-0.33 0-0.6 0.269-0.6 0.6s0.27 0.6 0.6 0.6zM15 14.4h1.2c0.331 0 0.6-0.269 0.6-0.6s-0.269-0.6-0.6-0.6h-1.2c-0.331 0-0.6 0.269-0.6 0.6s0.269 0.6 0.6 0.6zM18.6 14.4h1.2c0.331 0 0.6-0.269 0.6-0.6s-0.269-0.6-0.6-0.6h-1.2c-0.331 0-0.6 0.269-0.6 0.6s0.269 0.6 0.6 0.6zM4.2 16.8h1.2c0.33 0 0.6-0.269 0.6-0.6s-0.27-0.6-0.6-0.6h-1.2c-0.33 0-0.6 0.269-0.6 0.6s0.27 0.6 0.6 0.6zM7.8 16.8h1.2c0.33 0 0.6-0.269 0.6-0.6s-0.27-0.6-0.6-0.6h-1.2c-0.33 0-0.6 0.269-0.6 0.6s0.27 0.6 0.6 0.6zM11.4 16.8h1.2c0.331 0 0.6-0.269 0.6-0.6s-0.269-0.6-0.6-0.6h-1.2c-0.33 0-0.6 0.269-0.6 0.6s0.27 0.6 0.6 0.6zM15 16.8h1.2c0.331 0 0.6-0.269 0.6-0.6s-0.269-0.6-0.6-0.6h-1.2c-0.331 0-0.6 0.269-0.6 0.6s0.269 0.6 0.6 0.6zM18.6 16.8h1.2c0.331 0 0.6-0.269 0.6-0.6s-0.269-0.6-0.6-0.6h-1.2c-0.331 0-0.6 0.269-0.6 0.6s0.269 0.6 0.6 0.6zM4.2 19.2h1.2c0.33 0 0.6-0.269 0.6-0.6s-0.27-0.6-0.6-0.6h-1.2c-0.33 0-0.6 0.269-0.6 0.6s0.27 0.6 0.6 0.6zM7.8 19.2h1.2c0.33 0 0.6-0.269 0.6-0.6s-0.27-0.6-0.6-0.6h-1.2c-0.33 0-0.6 0.269-0.6 0.6s0.27 0.6 0.6 0.6zM11.4 19.2h1.2c0.331 0 0.6-0.269 0.6-0.6s-0.269-0.6-0.6-0.6h-1.2c-0.33 0-0.6 0.269-0.6 0.6s0.27 0.6 0.6 0.6zM15 19.2h1.2c0.331 0 0.6-0.269 0.6-0.6s-0.269-0.6-0.6-0.6h-1.2c-0.331 0-0.6 0.269-0.6 0.6s0.269 0.6 0.6 0.6zM18.6 19.2h1.2c0.331 0 0.6-0.269 0.6-0.6s-0.269-0.6-0.6-0.6h-1.2c-0.331 0-0.6 0.269-0.6 0.6s0.269 0.6 0.6 0.6z"></path>
</svg>
