<!-- Generated by IcoMoon.io -->
<svg version="1.1" xmlns="http://www.w3.org/2000/svg" width="24" height="24" viewBox="0 0 24 24">
<title>type-Boolean</title>
<path d="M1.805 2.405h3v7.8c0 0.331 0.268 0.6 0.6 0.6 0.331 0 0.6-0.269 0.6-0.6v-7.8h3c0.331 0 0.6-0.269 0.6-0.6s-0.269-0.6-0.6-0.6h-7.2c-0.332 0-0.6 0.268-0.6 0.6 0 0.331 0.268 0.6 0.6 0.6zM22.205 16.804h-4.2v-2.4h4.2c0.332 0 0.6-0.268 0.6-0.6s-0.268-0.6-0.6-0.6h-4.8c-0.332 0-0.6 0.268-0.6 0.6v8.4c0 0.332 0.268 0.6 0.6 0.6s0.6-0.268 0.6-0.6v-4.2h4.2c0.332 0 0.6-0.268 0.6-0.6s-0.269-0.6-0.6-0.6zM22.619 1.37c-0.233-0.233-0.612-0.233-0.845 0l-20.405 20.404c-0.233 0.234-0.233 0.611 0 0.845 0.235 0.234 0.612 0.234 0.845 0l20.405-20.404c0.233-0.233 0.233-0.611 0-0.845z"></path>
</svg>
