<!-- Generated by IcoMoon.io -->
<svg version="1.1" xmlns="http://www.w3.org/2000/svg" width="24" height="24" viewBox="0 0 24 24">
<title>type-Tags</title>
<path d="M6.936 19.283h-2.22c-1.11 0-2.081-0.971-2.081-2.081v-11.514c0-1.11 0.971-2.081 2.081-2.081h2.22v-1.387h-2.22c-1.942 0-3.468 1.526-3.468 3.468v11.514c0 1.942 1.526 3.468 3.468 3.468h2.22v-1.387z"></path>
<path d="M22.751 11.098c-1.942-4.023-4.717-8.879-6.381-8.879h-2.636v1.387h2.636c0.832 0.277 3.191 4.162 4.994 7.908-1.803 3.607-4.162 7.63-4.994 7.908h-2.636v1.387h2.636c1.665 0 4.301-4.856 6.381-9.017l0.139-0.277-0.139-0.416z"></path>
<path d="M6.243 7.906v6.105h1.387v-6.105z"></path>
<path d="M11.236 7.906v6.105h1.387v-6.105z"></path>
</svg>
