<!-- Generated by IcoMoon.io -->
<svg version="1.1" xmlns="http://www.w3.org/2000/svg" width="24" height="24" viewBox="0 0 24 24">
<title>upload-3</title>
<path d="M11 14.414v6.586c0 0.552 0.448 1 1 1s1-0.448 1-1v-6.586l2.293 2.293c0.391 0.391 1.024 0.391 1.414 0s0.391-1.024 0-1.414l-4-4c-0.002-0.002-0.004-0.004-0.006-0.006-0.095-0.093-0.203-0.163-0.318-0.211-0.12-0.050-0.249-0.075-0.377-0.076-0.004 0-0.008 0-0.011 0-0.128 0.001-0.257 0.026-0.377 0.076-0.116 0.048-0.224 0.118-0.318 0.211-0.002 0.002-0.004 0.004-0.006 0.006l-4 4c-0.391 0.391-0.391 1.024 0 1.414s1.024 0.391 1.414 0zM20.869 19.268c0.712-0.388 1.316-0.901 1.797-1.498 0.5-0.619 0.866-1.327 1.087-2.076s0.296-1.543 0.211-2.334c-0.081-0.762-0.311-1.521-0.699-2.232-0.333-0.611-0.759-1.143-1.251-1.586-0.509-0.458-1.088-0.819-1.708-1.077-0.724-0.3-1.504-0.459-2.298-0.465h-0.528c-0.312-0.884-0.752-1.693-1.293-2.412-0.718-0.953-1.613-1.745-2.623-2.34s-2.137-0.994-3.318-1.161c-1.139-0.159-2.326-0.103-3.504 0.202s-2.244 0.83-3.162 1.522c-0.953 0.718-1.745 1.613-2.34 2.623s-0.994 2.137-1.16 3.318c-0.16 1.138-0.103 2.325 0.201 3.503 0.372 1.437 1.073 2.71 1.975 3.713 0.369 0.411 1.002 0.444 1.412 0.075s0.444-1.002 0.075-1.412c-0.688-0.765-1.235-1.75-1.526-2.877-0.238-0.92-0.281-1.842-0.157-2.724 0.129-0.917 0.44-1.793 0.904-2.581s1.080-1.484 1.82-2.041c0.712-0.536 1.539-0.945 2.459-1.183s1.842-0.281 2.724-0.157c0.917 0.129 1.794 0.439 2.581 0.903s1.484 1.080 2.041 1.82c0.536 0.712 0.945 1.539 1.183 2.459 0.115 0.435 0.505 0.75 0.968 0.75h1.253c0.536 0.004 1.061 0.111 1.545 0.312 0.415 0.172 0.8 0.413 1.137 0.717 0.326 0.293 0.609 0.647 0.833 1.057 0.26 0.477 0.412 0.982 0.466 1.488 0.056 0.526 0.006 1.055-0.141 1.557s-0.392 0.973-0.725 1.385c-0.319 0.396-0.721 0.737-1.198 0.998-0.485 0.264-0.664 0.872-0.399 1.357s0.872 0.664 1.357 0.399z"></path>
</svg>
