<!-- Generated by IcoMoon.io -->
<svg version="1.1" xmlns="http://www.w3.org/2000/svg" width="28" height="28" viewBox="0 0 28 28">
<title>user-o</title>
<path d="M14 1.75c-3.601 0-6.539 2.937-6.539 6.535 0 1.799 0.679 4.012 1.788 5.886 0.537 0.908 1.2 1.746 1.962 2.382-1.625 0.206-3.336 0.257-4.707 0.875-2.182 0.983-3.947 2.591-4.713 4.884-0.041 0.26 0 0-0.041 0.246v0.014c0 2.023 1.656 3.678 3.674 3.678h17.148c2.020 0 3.678-1.654 3.678-3.678l-0.041-0.256c-0.761-2.304-2.523-3.913-4.707-4.895-1.372-0.616-3.086-0.668-4.713-0.872 0.76-0.636 1.422-1.472 1.958-2.379 1.109-1.874 1.788-4.087 1.788-5.886 0-3.598-2.934-6.535-6.535-6.535zM14 3.391c2.714 0 4.895 2.184 4.895 4.895 0 1.355-0.598 3.428-1.559 5.052s-2.227 2.7-3.336 2.7c-1.109 0-2.376-1.077-3.336-2.7s-1.562-3.697-1.562-5.052c0-2.71 2.184-4.895 4.898-4.895zM14 17.678c2.531 0 4.945 0.394 6.829 1.241 1.826 0.821 3.108 2.043 3.732 3.767-0.067 1.073-0.9 1.924-1.989 1.924h-17.148c-1.085 0-1.917-0.849-1.986-1.921 0.628-1.715 1.913-2.94 3.739-3.763 1.885-0.849 4.299-1.248 6.822-1.248z"></path>
</svg>
