<svg id="Layer_1" xmlns="http://www.w3.org/2000/svg" viewBox="0 0 600 391.9">
  <style>
    .st0{fill:#3389ff}
    .st1{fill:#3370ff}
    .st2{fill:#fff}
    .st3{fill:#253256}
    .st6{font-family:-apple-system,BlinkMacSystemFont,"Segoe UI",Roboto,"Helvetica Neue",Arial,sans-serif,"Apple Color Emoji","Segoe UI Emoji","Segoe UI Symbol"}
    .st10{font-size:22px}
    .st11{font-size:14px;font-weight:bold;}
    .st12{fill:#3e4c7d}
  </style>
  <path class="st0" d="M532.8 152.9c.5-6.9 13.9-1.9 13.3-8.4-6.8-67.5-69.9-110.1-70-110.1-.1 0-73.5 20.2-101.5 82-2.7 5.9 11.6 5.5 9.9 12.2-2.1 8.2-18.6 8.9-20.4 33.1-2 26.1 16.7 55.8 15.1 70.4l18.3 4.5.4-2c.8-4.6 5.1-7.7 9.7-7 4.6.8 7.8 5.1 7 9.7l-.1.5 20.4-6.3.1-.4c.8-4.7 5.2-7.9 9.9-7.1 4.7.8 7.9 5.2 7.1 9.9l-.1.4 17.3 12.5.1-.5c.8-4.6 5.1-7.7 9.7-7 4.6.8 7.7 5.1 7 9.7l-.1.5 18.9 3.1c5.2-20 30.2-36.5 36.7-61.9 6-23.4-9.3-29.4-8.7-37.8z"/>
  <path class="st1" d="M420.9 233.9c-2.7-7-23-1.1-20.3 5.9 9.9 25.8-.3 43.5-12.9 62-9.9 14.5-11.4 31.4-3.4 48.4 3.2 6.8 9 2 5.8-4.8-11.8-24.9 12.4-41.3 22.3-60 7.8-15 15.1-34.4 8.5-51.5zM460.8 245.3c4.2-7.4 22.9 1.6 18.6 9-15.7 27.3-9.7 48.1-1.6 70.1.5 1.3 15.2 19.1-7.8 53.8-4.7 7.1-9.3 1.1-4.6-6 17.3-26.1-2.6-47.1-8.1-68.9-4.3-17.6-6.9-39.9 3.5-58z"/>
  <path class="st1" d="M448 316.8c-.9-10.5-4.2-19.1-5.5-29.5-1.5-12.6 3-24.4 8.9-35.3 3.7-6.7-15.4-12.7-19.1-6.1-8.6 15.8-4.8 34.6-.8 52 2.5 10.9 7.3 21.2 3.6 33-3.5 11-11 21-17.6 29.7-4.5 6 1.4 11.1 6 5.1 10.5-13.8 26.1-29.7 24.5-48.9z"/>
  <path class="st1" d="M513.7 318.6c-1-13.5-7.2-24.2-15-34.9-2.9-4-4.3-8.9-3.2-13.8 1.2-5.1 5-8.9 8-13 3.4-4.6 5.1-9.9 6.4-15.5 1.5-5.9 2.2-12 2.7-18.1 1.2-15 .5-30.2-.9-45.1-1.5-16.5-4.1-32.8-7.5-49-3.1-14.6-6.8-29.1-11.9-43.1-3.4-9.5-7.3-19.8-14-27.5-1.9-2.2-4.3-4.5-7.3-4.9-5.7-.9-12.3 6.8-15.8 10.3-8.7 8.8-16.3 18.9-23.4 29-9.1 12.9-17.4 26.3-25.1 40-7.8 14.1-15 28.5-20.9 43.5-5 12.6-9.3 25.8-10.7 39.4-1 9.6.2 18.4 3.7 27.3 3.3 8.2 1.1 17.1-6.5 22-11.1 7.2-20.6 15.1-26.3 27.4-5.2 11.2-5.6 24.2 1.2 34.9 3.6 5.6 8.3.9 4.8-4.7-7-11-1.3-23.6 6.6-32.2 10.9-11.9 29.6-16.1 37.7-30.6 2.5-4.5 4.2-9.7 4.5-14.9 21.3 4.6 53.2 10.9 77.4 12.4-.9 4.3-1 8.8-.3 13.1 2.4 16.4 18.6 26.9 24.6 41.9 4.4 10.9 5.3 24.7-5.1 32.5-5.3 4-2.5 10.1 2.8 6.1 10.3-7.8 14.4-20.1 13.5-32.5z"/>
  <ellipse transform="rotate(-80.689 405.782 178.323)" class="st0" cx="405.8" cy="178.3" rx="8.3" ry="12.7"/>
  <ellipse transform="rotate(-80.689 493.236 192.67)" class="st0" cx="493.3" cy="192.7" rx="8.3" ry="12.7"/>
  <ellipse transform="rotate(-80.689 485.487 169.884)" class="st3" cx="485.5" cy="169.9" rx="9.4" ry="9.4"/>
  <ellipse transform="rotate(-80.689 423.967 159.791)" class="st3" cx="424" cy="159.8" rx="9.4" ry="9.4"/>
  <path class="st3" d="M466.9 199.9c-2 12.2-11.3 20.8-20.8 19.2s-15.5-12.7-13.6-24.8c2-12.2 7.7 1.3 17.2 2.8 9.5 1.6 19.2-9.3 17.2 2.8z"/>
  <path class="st2" d="M423.5 153.4c-5.2-.8-6.5 7.2-1.3 8 5.1.9 6.4-7.2 1.3-8zM485 163.5c-5.2-.8-6.5 7.2-1.3 8 5.1.8 6.5-7.2 1.3-8zM449.7 197.1c-4.1-.7-7.4-3.5-10.1-5.6 2.4 3.5 5.5 8 9.6 8.7 4.1.7 8.4-2.6 11.8-5.2-3.1 1.2-7.2 2.8-11.3 2.1z"/>
  <path d="M346 223.2c-16.9-8.5-28.9-20-36.6-29.3 18.6-27 26.6-58.4 20.1-89.5C314.7 34.4 232-7.4 144.7 11 57.4 29.4-1.4 101.1 13.4 171s97.4 111.8 184.7 93.4c31.1-6.6 58.6-19.9 80.4-37.5 44.3 17.3 67.5-3.7 67.5-3.7z" fill="[COLOR]"/>
  <text transform="translate(94.602 96.7)" letter-spacing="1" class="st6 st11" fill="#2d3964">
    {{TITLE}}
  </text>
  <text transform="translate(94.602 139.655)">
    <tspan x="0" y="00" class="st2 st6 st10">{{TEXT1}}</tspan>
	<tspan x="0" y="28" class="st2 st6 st10">{{TEXT2}}</tspan>
	<tspan x="0" y="56" class="st2 st6 st10">{{TEXT3}}</tspan>
  </text>
  <circle cx="579" cy="124.6" r="5.9" fill="#414e7c"/>
  <circle class="st0" cx="553.3" cy="112.9" r="1.8"/>
  <circle class="st0" cx="578.1" cy="152.3" r="3.6"/>
  <path class="st12" d="M300.7 29.6l9.4-3.9-.8 10.6zM305.9 277.5l9.5-3.9-.9 10.6z"/>
</svg>
