<?xml version="1.0" encoding="utf-8"?>
<!-- Generator: Adobe Illustrator 21.1.0, SVG Export Plug-In . SVG Version: 6.00 Build 0)  -->
<svg version="1.1" id="Layer_1" xmlns="http://www.w3.org/2000/svg" xmlns:xlink="http://www.w3.org/1999/xlink" x="0px" y="0px"
	 viewBox="0 0 774 666" style="enable-background:new 0 0 774 666;" xml:space="preserve">
<style type="text/css">
	.st0{fill:#AEE2F4;}
	.st1{fill:#64AFDD;}
	.st2{fill:#DCE9EF;}
	.st3{fill:#B4BCC1;}
	.st4{fill:#F7F6E7;}
	.st5{fill:none;stroke:#3389FF;stroke-width:2;stroke-linecap:round;stroke-linejoin:round;stroke-miterlimit:10;}
	.st6{fill:#C7E0FF;stroke:#2E3842;stroke-width:2;stroke-linecap:round;stroke-linejoin:round;stroke-miterlimit:10;}
	.st7{fill:#F2BDBD;stroke:#2E3842;stroke-width:2;stroke-linecap:round;stroke-linejoin:round;stroke-miterlimit:10;}
	.st8{fill:none;stroke:#F7DCDC;stroke-width:2;stroke-linecap:round;stroke-linejoin:round;stroke-miterlimit:10;}
	.st9{fill:none;stroke:#7D878E;stroke-width:2;stroke-linecap:round;stroke-linejoin:round;stroke-miterlimit:10;}
	.st10{fill:none;stroke:#B4BCC1;stroke-width:2;stroke-linecap:round;stroke-linejoin:round;stroke-miterlimit:10;}
	.st11{fill:none;stroke:#EEF6FF;stroke-width:2;stroke-linecap:round;stroke-linejoin:round;stroke-miterlimit:10;}
	.st12{opacity:0.2;fill:#3389FF;}
	.st13{fill:none;stroke:#E29393;stroke-width:2;stroke-linecap:round;stroke-linejoin:round;stroke-miterlimit:10;}
	.st14{fill:#FFFFFF;}
	.st15{fill:#2E3842;}
	.st16{fill:#F2BDBD;stroke:#C66A7F;stroke-width:2;stroke-linecap:round;stroke-linejoin:round;stroke-miterlimit:10;}
	.st17{fill:#C66A7F;}
	.st18{fill:#3389FF;}
	.st19{fill:none;stroke:#FFFFFF;stroke-width:2;stroke-linecap:round;stroke-linejoin:round;stroke-miterlimit:10;}
	.st20{fill:#EFEBBF;stroke:#2E3842;stroke-width:2;stroke-linecap:round;stroke-linejoin:round;stroke-miterlimit:10;}
	.st21{fill:#FCFBEB;}
	.st22{fill:none;stroke:#CEC395;stroke-width:2;stroke-linecap:round;stroke-linejoin:round;stroke-miterlimit:10;}
	.st23{fill:#F9C553;}
	.st24{fill:#D7D7F9;stroke:#2E3842;stroke-width:2;stroke-linecap:round;stroke-linejoin:round;stroke-miterlimit:10;}
	.st25{fill:none;stroke:#EDEDF9;stroke-width:2;stroke-linecap:round;stroke-linejoin:round;stroke-miterlimit:10;}
	.st26{fill:#B5B5EA;}
	
		.st27{fill-rule:evenodd;clip-rule:evenodd;fill:#D6E2B3;stroke:#2E3842;stroke-width:2;stroke-linecap:round;stroke-linejoin:round;stroke-miterlimit:10;}
	.st28{fill-rule:evenodd;clip-rule:evenodd;fill:#FFFFFF;}
	.st29{fill:#77BA61;}
	
		.st30{fill-rule:evenodd;clip-rule:evenodd;fill:none;stroke:#E7F7DC;stroke-width:2;stroke-linecap:round;stroke-linejoin:round;stroke-miterlimit:10;}
	.st31{fill:none;stroke:#3389FF;stroke-width:2;stroke-miterlimit:10;}
	.st32{fill:#C7E0FF;stroke:#5587C4;stroke-width:2;stroke-linecap:round;stroke-linejoin:round;stroke-miterlimit:10;}
	.st33{fill:#F2BDBD;stroke:#D6516B;stroke-width:2;stroke-linecap:round;stroke-linejoin:round;stroke-miterlimit:10;}
	.st34{fill:#D6DDE5;stroke:#92979B;stroke-width:2;stroke-linecap:round;stroke-linejoin:round;stroke-miterlimit:10;}
	.st35{fill:none;stroke:#E8ECEF;stroke-width:2;stroke-linecap:round;stroke-linejoin:round;stroke-miterlimit:10;}
	.st36{fill:#D6516B;}
	.st37{fill:#BAE8CA;stroke:#57C178;stroke-width:2;stroke-linecap:round;stroke-linejoin:round;stroke-miterlimit:10;}
	.st38{fill:none;stroke:#DCF4E5;stroke-width:2;stroke-linecap:round;stroke-linejoin:round;stroke-miterlimit:10;}
	.st39{fill:#C1BAE5;stroke:#585EBF;stroke-width:2;stroke-linecap:round;stroke-linejoin:round;stroke-miterlimit:10;}
	.st40{fill:none;stroke:#E4DDF2;stroke-width:2;stroke-linecap:round;stroke-linejoin:round;stroke-miterlimit:10;}
	.st41{fill:#AEE2F4;stroke:#64AFDD;stroke-width:2;stroke-linecap:round;stroke-linejoin:round;stroke-miterlimit:10;}
	.st42{fill:none;stroke:#DCE9EF;stroke-width:2;stroke-linecap:round;stroke-linejoin:round;stroke-miterlimit:10;}
	.st43{fill:#F7C38B;stroke:#E57E5E;stroke-width:2;stroke-linecap:round;stroke-linejoin:round;stroke-miterlimit:10;}
	.st44{fill:none;stroke:#F4E5D9;stroke-width:2;stroke-linecap:round;stroke-linejoin:round;stroke-miterlimit:10;}
	.st45{fill:none;stroke:#E57E5E;stroke-width:2;stroke-linecap:round;stroke-linejoin:round;stroke-miterlimit:10;}
	.st46{fill:#4CA9D8;}
	.st47{fill:#C1BAE5;}
	.st48{fill:#585EBF;}
	.st49{fill:#E4DDF2;}
	.st50{fill:#BAE8CA;}
	.st51{fill:#57C178;}
	.st52{fill:#DCF4E5;}
	.st53{fill:#D6D6F8;stroke:#767ECC;stroke-width:2;stroke-linecap:round;stroke-linejoin:round;stroke-miterlimit:10;}
	.st54{fill:none;stroke:#EBE9F2;stroke-width:2;stroke-linecap:round;stroke-linejoin:round;stroke-miterlimit:10;}
	.st55{fill:none;stroke:#B5B5EA;stroke-width:2;stroke-linecap:round;stroke-linejoin:round;stroke-miterlimit:10;}
	.st56{fill:none;stroke:#767ECC;stroke-width:2;stroke-linecap:round;stroke-linejoin:round;stroke-miterlimit:10;}
	.st57{fill:#EFEBBF;stroke:#D6A938;stroke-width:2;stroke-linecap:round;stroke-linejoin:round;stroke-miterlimit:10;}
	.st58{fill:#ECB32D;}
	.st59{fill:#63C1A0;}
	.st60{fill:#E01A59;}
	.st61{fill:#331433;}
	.st62{fill:#D62027;}
	.st63{fill:#89D3DF;}
	.st64{fill:#258B74;}
	.st65{fill:#819C3C;}
	.st66{fill:#4CC159;}
	.st67{fill:#202020;}
	.st68{fill:#F2BDBD;}
	.st69{fill:#F7DCDC;}
	.st70{fill:#F7C38B;}
	.st71{fill:#E57E5E;}
	.st72{fill:#F4E5D9;}
	.st73{fill:#D6DDE5;}
	.st74{fill:#92979B;}
	.st75{fill:#E8ECEF;}
	.st76{fill:#A8B2BA;}
	.st77{fill:#B3BBBF;}
	.st78{fill:none;stroke:#B3BBBF;stroke-width:1.2;stroke-miterlimit:10;}
	.st79{fill:none;stroke:#FFFFFF;stroke-width:1.5;stroke-miterlimit:10;}
</style>
<g>
	<path class="st0" d="M353.2,299.6h-15.4c-3.5,0-6.3-2.8-6.3-6.3v-22.9c0-3.5,2.8-6.3,6.3-6.3H359c0.3,0,0.5,0.2,0.5,0.5v28.7
		C359.5,296.8,356.7,299.6,353.2,299.6z"/>
	<path class="st1" d="M354,300.1h-17c-3.3,0-6-2.7-6-6v-24.5c0-3.3,2.7-6,6-6h19.9c1.7,0,3.1,1.4,3.1,3.1v27.4
		C360,297.4,357.3,300.1,354,300.1z M337,264.6c-2.7,0-5,2.2-5,5v24.5c0,2.7,2.2,5,5,5h17c2.7,0,5-2.2,5-5v-27.4
		c0-1.1-0.9-2.1-2.1-2.1H337z"/>
</g>
<g>
	<path class="st2" d="M354.1,299.1h-17.2c-2.8,0-5-2.3-5-5v-24.6c0-2.8,2.3-5,5-5H357c1.2,0,2.2,1,2.2,2.2v27.4
		C359.1,296.9,356.9,299.1,354.1,299.1z M336.9,265.5c-2.2,0-4,1.8-4,4v24.6c0,2.2,1.8,4,4,4h17.2c2.2,0,4-1.8,4-4v-27.4
		c0-0.6-0.5-1.1-1.1-1.1H336.9z"/>
</g>
<path class="st3" d="M150.8,461c0.2,0.4,0.2,0.9,0.2,1.3v1.6h2v-1.6c0-0.7-0.1-1.4-0.4-2c0,0,0,0,0,0l-1.1-3.1
	c-0.4-1.2-0.3-2.5,0.4-3.5c0.6-1,1.6-1.6,2.7-1.7c0.1,0,0.3,0,0.4,0h10.2c2.4,0,4.6,0.9,6.3,2.6l4.7,4.7c2.1,2.1,4.8,3.2,7.7,3.2
	h7.5c0.2,0,0.4,0,0.6,0v-2c-0.2,0-0.4,0-0.6,0h-7.5c-2.4,0-4.6-0.9-6.3-2.6l-4.7-4.7c-2.1-2.1-4.8-3.2-7.7-3.2H155
	c-0.2,0-0.4,0-0.6,0c-1.7,0.2-3.2,1.1-4.2,2.6c-1,1.6-1.2,3.5-0.6,5.3L150.8,461z"/>
<path class="st4" d="M504.5,475.5c0,0-2,10-18,16l11,7v-7l4.7,0.1l2.3-1.1l1-3L504.5,475.5z"/>
<path class="st5" d="M453,383h-23c-3.3,0-6-2.7-6-6v-23c0-3.3,2.7-6,6-6h23c3.3,0,6,2.7,6,6v23C459,380.3,456.3,383,453,383z"/>
<path class="st5" d="M398.4,383h-23c-3.3,0-6-2.7-6-6v-11.7c0-9.5,7.8-17.3,17.3-17.3h0c9.7,0,17.7,8,17.7,17.7V377
	C404.4,380.3,401.7,383,398.4,383z"/>
<path class="st5" d="M511,383h-23c-3.3,0-6-2.7-6-6v-23c0-3.3,2.7-6,6-6h23c3.3,0,6,2.7,6,6v23C517,380.3,514.3,383,511,383z"/>
<path class="st5" d="M615,383h-23c-3.3,0-6-2.7-6-6v-13c0-3.3,2.7-6,6-6h23c3.3,0,6,2.7,6,6v13C621,380.3,618.3,383,615,383z"/>
<path class="st5" d="M440.7,362h-8.5c-1.2,0-2.3-1-2.3-2.3v-3.5c0-1.2,1-2.3,2.3-2.3h8.5c1.2,0,2.3,1,2.3,2.3v3.5
	C443,361,442,362,440.7,362z"/>
<path class="st5" d="M555.7,360h-6.5c-1.2,0-2.3-1-2.3-2.3v-7.5c0-1.2,1-2.3,2.3-2.3h6.5c1.2,0,2.3,1,2.3,2.3v7.5
	C558,359,557,360,555.7,360z"/>
<line class="st5" x1="430" y1="368" x2="453" y2="368"/>
<line class="st5" x1="592" y1="353" x2="615" y2="353"/>
<line class="st5" x1="596" y1="348" x2="611" y2="348"/>
<path class="st6" d="M303.2,505h-42.4c-5.9,0-10.8-4.9-10.8-10.8v-23.4c0-5.9,4.9-10.8,10.8-10.8h42.4c5.9,0,10.8,4.9,10.8,10.8
	v23.4C314,500.1,309.1,505,303.2,505z"/>
<path class="st7" d="M402.2,497h-19.4c-5.9,0-10.8-4.9-10.8-10.8v-30.4c0-5.9,4.9-10.8,10.8-10.8h25.1c2.8,0,5.1,2.3,5.1,5.1v36.1
	C413,492.1,408.1,497,402.2,497z"/>
<path class="st8" d="M402.1,497h-19.2c-4.9,0-8.9-4-8.9-8.9v-32.2c0-4.9,4-8.9,8.9-8.9h24.9c1.8,0,3.3,1.5,3.3,3.3v37.9
	C411,493,407,497,402.1,497z"/>
<line class="st9" x1="261.1" y1="454" x2="303.7" y2="454"/>
<line class="st5" x1="430" y1="374" x2="443" y2="374"/>
<path class="st5" d="M203,382h-23c-3.3,0-6-2.7-6-6v-23c0-3.3,2.7-6,6-6h23c3.3,0,6,2.7,6,6v23C209,379.3,206.3,382,203,382z"/>
<path class="st5" d="M190.7,361h-8.5c-1.2,0-2.3-1-2.3-2.3v-3.5c0-1.2,1-2.3,2.3-2.3h8.5c1.2,0,2.3,1,2.3,2.3v3.5
	C193,360,192,361,190.7,361z"/>
<line class="st5" x1="180" y1="367" x2="203" y2="367"/>
<line class="st5" x1="180" y1="373" x2="193" y2="373"/>
<path class="st5" d="M335,383h-23c-3.3,0-6-2.7-6-6v-23c0-3.3,2.7-6,6-6h23c3.3,0,6,2.7,6,6v23C341,380.3,338.3,383,335,383z"/>
<line class="st5" x1="312" y1="357" x2="335" y2="357"/>
<line class="st5" x1="312" y1="363" x2="325" y2="363"/>
<line class="st5" x1="312" y1="369" x2="325" y2="369"/>
<path class="st5" d="M274,383h-23c-3.3,0-6-2.7-6-6v-13c0-3.3,2.7-6,6-6h23c3.3,0,6,2.7,6,6v13C280,380.3,277.3,383,274,383z"/>
<line class="st5" x1="252" y1="367" x2="272" y2="367"/>
<line class="st5" x1="252" y1="374" x2="262" y2="374"/>
<path class="st5" d="M493,377h16c0,0,3,0,2-3l-7-10L493,377z"/>
<circle class="st5" cx="493" cy="360" r="4"/>
<circle class="st5" cx="541" cy="377" r="6"/>
<circle class="st5" cx="564" cy="377" r="6"/>
<line class="st5" x1="549" y1="364" x2="546" y2="369"/>
<line class="st5" x1="556" y1="364" x2="559" y2="369"/>
<path class="st5" d="M377.6,358.8l7,10.1c1,1.5,3.1,1.6,4.3,0.3l0,0c1.2-1.3,0.9-3.3-0.6-4.2L377.6,358.8z"/>
<line class="st5" x1="395" y1="356" x2="393" y2="359"/>
<line class="st10" x1="267.1" y1="448" x2="297.7" y2="448"/>
<path class="st11" d="M303.2,503h-42.3c-4.9,0-8.8-4-8.8-8.8v-23.3c0-4.9,4-8.8,8.8-8.8h42.3c4.9,0,8.8,4,8.8,8.8v23.3
	C312,499,308,503,303.2,503z"/>
<path class="st12" d="M303.7,465v14.1c0,2.7-2.2,4.9-4.9,4.9h-33.6c-2.7,0-4.9-2.2-4.9-4.9V465h-2v14.1c0,3.8,3.1,6.9,6.9,6.9h33.6
	c3.8,0,6.9-3.1,6.9-6.9V465H303.7z"/>
<line class="st13" x1="381.1" y1="457" x2="404" y2="457"/>
<line class="st13" x1="381.1" y1="464" x2="404" y2="464"/>
<line class="st13" x1="381.1" y1="471" x2="390" y2="471"/>
<g>
	<path class="st14" d="M369,484h12.3c1.6,0,3.1,1,3.7,2.5l0,0c0.6,1.5,2.1,2.5,3.7,2.5H416c2.2,0,4,1.8,4,4v8c0,2.2-1.8,4-4,4h-47
		c-2.2,0-4-1.8-4-4v-13C365,485.8,366.8,484,369,484z"/>
	<path class="st15" d="M366,495v-7c0-1.6,1.3-3,3-3h12.3c1.2,0,2.3,0.7,2.8,1.9c0.8,1.9,2.6,3.1,4.6,3.1H416c1.6,0,3,1.3,3,3v4h2v-4
		c0-2.7-2.2-5-5-5h-27.3c-1.2,0-2.3-0.7-2.8-1.9c-0.8-1.9-2.6-3.1-4.6-3.1H369c-2.7,0-5,2.2-5,5v7H366z"/>
</g>
<path class="st3" d="M419,501c0,1.6-1.3,3-3,3h-47c-1.6,0-3-1.3-3-3v-4h-2v4c0,2.7,2.2,5,5,5h47c2.7,0,5-2.2,5-5H419z"/>
<path class="st16" d="M322.2,90h-19.4c-5.9,0-10.8-4.9-10.8-10.8V48.8c0-5.9,4.9-10.8,10.8-10.8h25.1c2.8,0,5.1,2.3,5.1,5.1v36.1
	C333,85.1,328.1,90,322.2,90z"/>
<path class="st8" d="M322.1,90h-19.2c-4.9,0-8.9-4-8.9-8.9V48.9c0-4.9,4-8.9,8.9-8.9h24.9c1.8,0,3.3,1.5,3.3,3.3v37.9
	C331,86,327,90,322.1,90z"/>
<line class="st16" x1="301.1" y1="50" x2="324" y2="50"/>
<line class="st16" x1="301.1" y1="57" x2="324" y2="57"/>
<line class="st16" x1="301.1" y1="64" x2="310" y2="64"/>
<g>
	<path class="st14" d="M289,77h12.3c1.6,0,3.1,1,3.7,2.5l0,0c0.6,1.5,2.1,2.5,3.7,2.5H336c2.2,0,4,1.8,4,4v8c0,2.2-1.8,4-4,4h-47
		c-2.2,0-4-1.8-4-4V81C285,78.8,286.8,77,289,77z"/>
	<path class="st17" d="M286,88v-7c0-1.6,1.3-3,3-3h12.3c1.2,0,2.3,0.7,2.8,1.9c0.8,1.9,2.6,3.1,4.6,3.1H336c1.6,0,3,1.3,3,3v4h2v-4
		c0-2.7-2.2-5-5-5h-27.3c-1.2,0-2.3-0.7-2.8-1.9c-0.8-1.9-2.6-3.1-4.6-3.1H289c-2.7,0-5,2.2-5,5v7H286z"/>
</g>
<path class="st3" d="M339,94c0,1.6-1.3,3-3,3h-47c-1.6,0-3-1.3-3-3v-4h-2v4c0,2.7,2.2,5,5,5h47c2.7,0,5-2.2,5-5H339z"/>
<circle class="st18" cx="323.9" cy="453.1" r="11.1"/>
<line class="st19" x1="319" y1="453" x2="329" y2="453"/>
<line class="st19" x1="324" y1="458" x2="324" y2="448"/>
<circle class="st18" cx="206.9" cy="453.1" r="11.1"/>
<line class="st19" x1="202" y1="453" x2="212" y2="453"/>
<line class="st19" x1="207" y1="458" x2="207" y2="448"/>
<path class="st20" d="M510.7,445h-37.2c-5.2,0-9.5,4.3-9.5,9.5v13.3c0,2.9,2.3,5.2,5.2,5.2h6.8v6l5.3-3.7c2.1-1.5,4.7-2.3,7.3-2.3
	h16c5.2,0,9.5-4.3,9.5-9.5v-15.2C514,446.5,512.5,445,510.7,445z"/>
<g>
	<g>
		<path class="st21" d="M509.8,448c0.7,0,1.2,0.5,1.2,1.1v13.8c0,3.7-3.2,6.6-7.1,6.6h-15.3c-2.9,0-5.7,0.8-8.1,2.4l-2,1.3v-1.7
			c0-1.1-0.9-2-2-2H470c-1.7,0-3-1.2-3-2.8v-12.1c0-3.7,3.2-6.6,7.1-6.6H509.8 M509.8,446h-35.7c-5,0-9.1,3.9-9.1,8.6v12.1
			c0,2.6,2.3,4.8,5,4.8h6.5v5.5l5.1-3.4c2-1.4,4.5-2.1,7-2.1h15.3c5,0,9.1-3.9,9.1-8.6v-13.8C513,447.4,511.6,446,509.8,446
			L509.8,446z"/>
	</g>
</g>
<line class="st22" x1="474.5" y1="454" x2="503.5" y2="454"/>
<line class="st22" x1="474" y1="460" x2="492" y2="460"/>
<circle class="st23" cx="472.5" cy="494.5" r="11.5"/>
<circle class="st14" cx="476.1" cy="492.1" r="1.5"/>
<circle class="st14" cx="469" cy="492" r="1.5"/>
<path class="st19" d="M467,497c0,0,6,5,12,0"/>
<path class="st3" d="M504,476v11.8c0,2.3-1.9,4.2-4.2,4.2H497c-0.6,0-1,0.4-1,1v4.1l-3.7-2.6c-1.9-1.3-4-2.1-6.3-2.4v2
	c1.8,0.2,3.6,0.9,5.1,2l5.3,3.7c0.2,0.1,0.4,0.2,0.6,0.2c0.2,0,0.3,0,0.5-0.1c0.3-0.2,0.5-0.5,0.5-0.9v-5h1.8c3.4,0,6.2-2.8,6.2-6.2
	V476H504z"/>
<path class="st24" d="M142,468v-4.5c0-3.6,2.9-6.5,6.5-6.5h15.8c1.7,0,3.4,0.7,4.6,1.9l7.2,7.2c1.2,1.2,2.9,1.9,4.6,1.9h9.8
	c8.6,0,15.5,6.9,15.5,15.5v15c0,3.6-2.9,6.5-6.5,6.5h-51.1c-3.6,0-6.5-2.9-6.5-6.5V468z"/>
<path class="st25" d="M144,469.9V464c0-3.2,1.6-5,5-5h15c1.6,0,2.9,0.9,4,2l8,7.2c1.1,1.1,2.7,1.7,4.3,1.7h9.2
	c8,0,14.5,5.5,14.5,13.1v15c0,3.2-1.6,5-5,5h-50c-3.4,0-5-1.8-5-5V469.9z"/>
<g>
	<path class="st26" d="M164,485c-2.8,0-5-2.2-5-5s2.2-5,5-5s5,2.2,5,5S166.8,485,164,485z M164,477c-1.7,0-3,1.3-3,3s1.3,3,3,3
		s3-1.3,3-3S165.7,477,164,477z"/>
</g>
<g>
	<g>
		<path class="st26" d="M159,480c0-0.3,0-0.7,0.1-1H156c-0.6,0-1,0.4-1,1s0.4,1,1,1h3.1C159,480.7,159,480.3,159,480z"/>
	</g>
	<g>
		<path class="st26" d="M191,479h-22.1c0.1,0.3,0.1,0.7,0.1,1s0,0.7-0.1,1H191c0.6,0,1-0.4,1-1S191.6,479,191,479z"/>
	</g>
</g>
<g>
	<path class="st26" d="M183,496c-2.8,0-5-2.2-5-5s2.2-5,5-5s5,2.2,5,5S185.8,496,183,496z M183,488c-1.7,0-3,1.3-3,3s1.3,3,3,3
		s3-1.3,3-3S184.7,488,183,488z"/>
</g>
<g>
	<g>
		<path class="st26" d="M188,491c0-0.3,0-0.7-0.1-1h3.1c0.6,0,1,0.4,1,1s-0.4,1-1,1h-3.1C188,491.7,188,491.3,188,491z"/>
	</g>
	<g>
		<path class="st26" d="M156,490h22.1c-0.1,0.3-0.1,0.7-0.1,1s0,0.7,0.1,1H156c-0.6,0-1-0.4-1-1S155.4,490,156,490z"/>
	</g>
</g>
<circle class="st27" cx="576.5" cy="470.5" r="29.5"/>
<path class="st28" d="M571.3,485.7C571.3,485.7,571.3,485.7,571.3,485.7c2.7,0.3,7.2,0.4,13.6-0.6c4.9-1.3,9.1-4.4,9.1-13
	c0-3-1.1-5.5-2.8-7.4c0.3-0.7,1.2-3.5-0.3-7.3c0,0-2.3-0.7-7.6,2.8c-2.2-0.6-4.6-0.9-6.9-0.9c-2.4,0-4.7,0.3-6.9,0.9
	c-5.3-3.6-7.6-2.8-7.6-2.8c-1.5,3.8-0.6,6.6-0.3,7.3c-1.8,1.9-2.9,4.4-2.9,7.4C558.7,482.6,565.1,485,571.3,485.7z"/>
<path class="st29" d="M587,471.6c-2.3-2.1-6.1-1-10.5-1c0,0,0,0-0.1,0c0,0,0,0,0,0c-4.4,0-8.2-1.1-10.5,1c-1.4,1.3-1.9,2.8-1.9,4.4
	c0,6.8,5.4,7.6,12.4,7.6h0.1c7,0,12.4-0.8,12.4-7.6C588.9,474.3,588.3,472.8,587,471.6z M570.5,479.9c-1.3,0-2.4-1.5-2.4-3.3
	c0-1.8,1.1-3.3,2.4-3.3c1.3,0,2.4,1.5,2.4,3.3C572.9,478.4,571.8,479.9,570.5,479.9z M582.3,479.9c-1.3,0-2.4-1.5-2.4-3.3
	c0-1.8,1.1-3.3,2.4-3.3s2.4,1.5,2.4,3.3C584.7,478.4,583.6,479.9,582.3,479.9z"/>
<circle class="st30" cx="576.5" cy="470.5" r="27.5"/>
<path class="st5" d="M649.8,360v6.5h0c-9.3,1.4-9.4,14.7-0.2,16.3l0.2,0"/>
<path class="st5" d="M655,376.2h7.6v0c1.4,9.3,14.7,9.4,16.3,0.2l0-0.2"/>
<path class="st5" d="M671.2,371v-6.7h0c9.3-1.4,9.4-14.7,0.2-16.3l-0.2,0"/>
<path class="st5" d="M666,354.7h-6.6v0c-1.4-9.3-14.7-9.4-16.3-0.2l0,0.2"/>
<ellipse transform="matrix(0.7071 -0.7071 0.7071 0.7071 -61.2347 564.8661)" class="st31" cx="651.2" cy="356.3" rx="3.7" ry="3.7"/>
<ellipse transform="matrix(0.7071 -0.7071 0.7071 0.7071 -68.5406 583.9185)" class="st31" cx="670.6" cy="374.7" rx="3.7" ry="3.7"/>
<ellipse transform="matrix(0.7071 -0.7071 0.7071 0.7071 -55.8245 577.9276)" class="st31" cx="669.7" cy="356.3" rx="3.7" ry="3.7"/>
<ellipse transform="matrix(0.7071 -0.7071 0.7071 0.7071 -74.1697 570.3287)" class="st31" cx="651.4" cy="374.7" rx="3.7" ry="3.7"/>
<path class="st18" d="M614,362v2.4c0,1.7-1.4,3.1-3.1,3.1h-14.8c-1.7,0-3.1-1.4-3.1-3.1V362h-2v2.4c0,2.8,2.3,5.1,5.1,5.1h14.8
	c2.8,0,5.1-2.3,5.1-5.1V362H614z"/>
<path class="st5" d="M713.8,363.8c2.5-1.5,4.2-4.2,4.2-7.3c0-4.7-3.8-8.5-8.5-8.5s-8.5,3.8-8.5,8.5c0,3,1.5,5.6,3.9,7.1
	c-6.3,1.9-10.9,8.1-10.9,15.4c0,0.4,0,0.8,0.1,1.2c5.4,1.8,17.2,4.5,29.9-0.3c0-0.3,0-0.6,0-0.8C724,371.9,719.7,366,713.8,363.8z"
	/>
<path class="st32" d="M50,163.3v-5.9c0-4.6,3.8-8.4,8.4-8.4h20.6c2.2,0,4.4,0.9,5.9,2.5l9.4,9.4c1.6,1.6,3.7,2.5,5.9,2.5h12.7
	c11.1,0,20.1,9,20.1,20.1v19.5c0,4.6-3.8,8.4-8.4,8.4H58.4c-4.6,0-8.4-3.8-8.4-8.4V163.3z"/>
<path class="st11" d="M51.2,164v-6.2c0-4.1,3.3-7.4,7.4-7.4h20.2c2.1,0,3.4,0.8,4.9,2.3l8.9,8.9c1.5,1.5,5,3.2,7.1,3.2h12.4
	c10.6,0,19.3,7.9,19.3,18.5v18.9c0,4.1-3.3,7.5-7.5,7.5H58.7c-4.1,0-7.5-3.3-7.5-7.5V164z"/>
<line class="st11" x1="105.6" y1="164.9" x2="68.8" y2="164.9"/>
<path class="st33" d="M211.2,214.8h-33.4c-5.9,0-10.8-4.9-10.8-10.8v-48.2c0-5.9,4.9-10.8,10.8-10.8h39.1c2.8,0,5.1,2.3,5.1,5.1V204
	C222,209.9,217.1,214.8,211.2,214.8z"/>
<path class="st8" d="M211.4,212.8h-33.9c-4.9,0-8.9-4-8.9-8.9v-48.3c0-4.9,4-8.9,8.9-8.9h39.5c1.8,0,3.3,1.5,3.3,3.3v53.9
	C220.3,208.8,216.3,212.8,211.4,212.8z"/>
<path class="st34" d="M586.2,214.8h-33.4c-5.9,0-10.8-4.9-10.8-10.8v-48.2c0-5.9,4.9-10.8,10.8-10.8h39.1c2.8,0,5.1,2.3,5.1,5.1V204
	C597,209.9,592.1,214.8,586.2,214.8z"/>
<path class="st35" d="M586.4,212.8h-33.9c-4.9,0-8.9-4-8.9-8.9v-48.3c0-4.9,4-8.9,8.9-8.9h39.5c1.8,0,3.3,1.5,3.3,3.3v53.9
	C595.3,208.8,591.3,212.8,586.4,212.8z"/>
<line class="st34" x1="554.2" y1="161" x2="584.9" y2="161"/>
<line class="st34" x1="554.2" y1="170.4" x2="584.9" y2="170.4"/>
<line class="st34" x1="554.2" y1="179.8" x2="566.1" y2="179.8"/>
<path class="st36" d="M207.8,183.4c-0.4-0.9-1.5-1.3-3.3-1.3c-1,0-2.3,0.1-3.8,0.4c-2.1-2.2-4.2-5.4-5.7-8.6
	c1.5-6.4,0.8-7.3,0.4-7.7c-0.4-0.5-0.9-1.2-1.4-1.2c-0.2,0-0.9,0.1-1.1,0.2c-0.6,0.2-1,0.7-1.3,1.4c-0.8,1.9,0.3,5.1,1.4,7.5
	c-1,3.9-2.6,8.5-4.3,12.2c-4.3,2-6.5,3.9-6.7,5.8c-0.1,0.7,0.1,1.7,1.3,2.6c0.3,0.2,0.7,0.4,1.1,0.4c1,0,2-0.8,3.1-2.4
	c0.8-1.2,1.7-2.8,2.7-4.8c3-1.3,6.7-2.5,9.9-3.2c1.8,1.7,3.4,2.6,4.7,2.6c1,0,1.9-0.5,2.5-1.4C208,184.9,208.2,184.1,207.8,183.4z
	 M184.4,193.1c-0.5-0.4-0.5-0.7-0.5-0.8c0.1-0.6,1-1.8,3.5-3.1C185.5,192.6,184.6,193,184.4,193.1z M193.6,167.1
	c0,0,1.2,1.3,0.1,3.7C192.1,169,193.5,167.1,193.6,167.1z M191.3,185.2c1.1-2.7,2.2-5.8,3-8.6c1.3,2.3,2.8,4.5,4.3,6.3
	C196.2,183.5,193.6,184.3,191.3,185.2z M205.8,184.7c-0.3,0.5-1.1,0.5-1.4,0.5c-0.6,0-0.8-0.4-1.7-1.1c0.8-0.1,1.5-0.1,2-0.1
	c1,0,1.2,0.1,1.3,0.2C206.1,184.3,206,184.5,205.8,184.7z"/>
<path class="st37" d="M510.2,213.8h-33.4c-5.9,0-10.8-4.9-10.8-10.8v-48.2c0-5.9,4.9-10.8,10.8-10.8h39.1c2.8,0,5.1,2.3,5.1,5.1V203
	C521,208.9,516.1,213.8,510.2,213.8z"/>
<path class="st38" d="M510.4,211.8h-33.9c-4.9,0-8.9-4-8.9-8.9v-48.3c0-4.9,4-8.9,8.9-8.9h39.5c1.8,0,3.3,1.5,3.3,3.3v53.9
	C519.3,207.8,515.3,211.8,510.4,211.8z"/>
<line class="st37" x1="508" y1="169" x2="480" y2="169"/>
<line class="st37" x1="480" y1="179" x2="508" y2="179"/>
<line class="st37" x1="480" y1="189" x2="508" y2="189"/>
<line class="st37" x1="480" y1="169" x2="480" y2="189"/>
<line class="st37" x1="508" y1="169" x2="508" y2="189"/>
<line class="st37" x1="494" y1="169" x2="494" y2="189"/>
<path class="st39" d="M436.2,213.8h-33.4c-5.9,0-10.8-4.9-10.8-10.8v-48.2c0-5.9,4.9-10.8,10.8-10.8h39.1c2.8,0,5.1,2.3,5.1,5.1V203
	C447,208.9,442.1,213.8,436.2,213.8z"/>
<path class="st40" d="M436.4,211.8h-33.9c-4.9,0-8.9-4-8.9-8.9v-48.3c0-4.9,4-8.9,8.9-8.9h39.5c1.8,0,3.3,1.5,3.3,3.3v53.9
	C445.3,207.8,441.3,211.8,436.4,211.8z"/>
<path class="st41" d="M362.2,214.8h-33.4c-5.9,0-10.8-4.9-10.8-10.8v-48.2c0-5.9,4.9-10.8,10.8-10.8h39.1c2.8,0,5.1,2.3,5.1,5.1V204
	C373,209.9,368.1,214.8,362.2,214.8z"/>
<path class="st42" d="M362.4,212.8h-33.9c-4.9,0-8.9-4-8.9-8.9v-48.3c0-4.9,4-8.9,8.9-8.9h39.5c1.8,0,3.3,1.5,3.3,3.3v53.9
	C371.3,208.8,367.3,212.8,362.4,212.8z"/>
<path class="st43" d="M288.2,214.8h-33.4c-5.9,0-10.8-4.9-10.8-10.8v-48.2c0-5.9,4.9-10.8,10.8-10.8h39.1c2.8,0,5.1,2.3,5.1,5.1V204
	C299,209.9,294.1,214.8,288.2,214.8z"/>
<path class="st44" d="M288.4,212.8h-33.9c-4.9,0-8.9-4-8.9-8.9v-48.3c0-4.9,4-8.9,8.9-8.9h39.5c1.8,0,3.3,1.5,3.3,3.3v53.9
	C297.3,208.8,293.3,212.8,288.4,212.8z"/>
<path class="st45" d="M275.5,167c-0.1,0-0.2,0-0.3,0v9h9.7C284.6,171,280.5,167,275.5,167z"/>
<path class="st45" d="M271,180v-13c-7.2,0.3-13,6.2-13,13.5c0,7.5,6,13.5,13.5,13.5c7.5,0,13.5-6,13.5-13.5c0-0.2,0-0.3,0-0.5H271z"
	/>
<g>
	<path class="st46" d="M345.6,178.9l-3.9,10.7h-1.3l-6.2-16.7c-0.2-0.7-0.8-0.9-1.6-1v-0.9h7.7v0.9c-1.4,0.1-1.9,0.4-1.9,1.1
		c0,0.4,0.2,0.8,0.3,1.3l3.6,10.1l2.6-7.1l-1.4-4.3c-0.2-0.7-0.7-0.9-1.4-1v-0.9h7.6v0.9c-1.6,0-2.1,0.3-2.1,1.1
		c0,0.4,0.1,0.8,0.3,1.3l3.2,9.8l3.3-9.8c0.2-0.5,0.3-0.9,0.3-1.2c0-0.8-0.5-1.1-2.1-1.2v-0.9h5.2v0.9c-0.7,0.1-1.3,0.3-1.5,1
		l-5.8,16.7h-1.3L345.6,178.9z"/>
</g>
<g>
	<path class="st46" d="M345.5,281.5l-2.2,6h-0.7l-3.5-9.4c-0.1-0.4-0.5-0.5-0.9-0.5V277h4.3v0.5c-0.8,0-1.1,0.2-1.1,0.6
		c0,0.2,0.1,0.4,0.2,0.7l2,5.7l1.4-4l-0.8-2.4c-0.1-0.4-0.4-0.5-0.8-0.5V277h4.3v0.5c-0.9,0-1.2,0.2-1.2,0.6c0,0.2,0.1,0.4,0.2,0.8
		l1.8,5.5l1.9-5.5c0.1-0.3,0.2-0.5,0.2-0.7c0-0.4-0.3-0.6-1.2-0.7V277h2.9v0.5c-0.4,0.1-0.7,0.1-0.9,0.5l-3.3,9.4h-0.7L345.5,281.5z
		"/>
</g>
<g>
	<path class="st47" d="M427.2,299.6h-15.4c-3.5,0-6.3-2.8-6.3-6.3v-22.9c0-3.5,2.8-6.3,6.3-6.3H433c0.3,0,0.5,0.2,0.5,0.5v28.7
		C433.5,296.8,430.7,299.6,427.2,299.6z"/>
	<path class="st48" d="M428,300.1h-17c-3.3,0-6-2.7-6-6v-24.5c0-3.3,2.7-6,6-6h19.9c1.7,0,3.1,1.4,3.1,3.1v27.4
		C434,297.4,431.3,300.1,428,300.1z M411,264.6c-2.7,0-5,2.2-5,5v24.5c0,2.7,2.2,5,5,5h17c2.7,0,5-2.2,5-5v-27.4
		c0-1.1-0.9-2.1-2.1-2.1H411z"/>
</g>
<g>
	<path class="st49" d="M428.1,299.1h-17.2c-2.8,0-5-2.3-5-5v-24.6c0-2.8,2.3-5,5-5H431c1.2,0,2.2,1,2.2,2.2v27.4
		C433.1,296.9,430.9,299.1,428.1,299.1z M410.9,265.5c-2.2,0-4,1.8-4,4v24.6c0,2.2,1.8,4,4,4h17.2c2.2,0,4-1.8,4-4v-27.4
		c0-0.6-0.5-1.1-1.1-1.1H410.9z"/>
</g>
<path class="st39" d="M414,186.6v-16c0-1.5,1.7-2.3,2.9-1.4l11.1,8.4c1,0.7,0.9,2.2-0.1,2.9l-11.1,7.7
	C415.6,188.9,414,188,414,186.6z"/>
<g>
	<path class="st47" d="M416.7,285.6v-8c0-0.7,0.8-1.2,1.4-0.7l5.6,4.2c0.5,0.4,0.5,1.1,0,1.5l-5.6,3.8
		C417.5,286.7,416.7,286.3,416.7,285.6z"/>
	<path class="st48" d="M417.6,287c-0.2,0-0.4-0.1-0.7-0.2c-0.5-0.2-0.7-0.7-0.7-1.2v-8c0-0.5,0.3-1,0.8-1.2c0.5-0.2,1-0.2,1.5,0.1
		l5.6,4.2c0.4,0.3,0.6,0.7,0.6,1.1c0,0.4-0.2,0.9-0.6,1.1l-5.6,3.8C418.1,286.9,417.8,287,417.6,287z M417.6,277.2
		c-0.1,0-0.1,0-0.2,0c-0.1,0-0.2,0.1-0.2,0.4v8c0,0.2,0.1,0.3,0.2,0.3c0.1,0,0.2,0.1,0.4,0l5.6-3.8c0.1-0.1,0.2-0.2,0.2-0.3
		c0-0.1-0.1-0.2-0.2-0.3l-5.6-4.2C417.7,277.2,417.6,277.2,417.6,277.2z"/>
</g>
<g>
	<path class="st50" d="M502.2,299.6h-15.4c-3.5,0-6.3-2.8-6.3-6.3v-22.9c0-3.5,2.8-6.3,6.3-6.3H508c0.3,0,0.5,0.2,0.5,0.5v28.7
		C508.5,296.8,505.7,299.6,502.2,299.6z"/>
	<path class="st51" d="M503,300.1h-17c-3.3,0-6-2.7-6-6v-24.5c0-3.3,2.7-6,6-6h19.9c1.7,0,3.1,1.4,3.1,3.1v27.4
		C509,297.4,506.3,300.1,503,300.1z M486,264.6c-2.7,0-5,2.2-5,5v24.5c0,2.7,2.2,5,5,5h17c2.7,0,5-2.2,5-5v-27.4
		c0-1.1-0.9-2.1-2.1-2.1H486z"/>
</g>
<g>
	<path class="st52" d="M503.1,299.1h-17.2c-2.8,0-5-2.3-5-5v-24.6c0-2.8,2.3-5,5-5H506c1.2,0,2.2,1,2.2,2.2v27.4
		C508.1,296.9,505.9,299.1,503.1,299.1z M485.9,265.5c-2.2,0-4,1.8-4,4v24.6c0,2.2,1.8,4,4,4h17.2c2.2,0,4-1.8,4-4v-27.4
		c0-0.6-0.5-1.1-1.1-1.1H485.9z"/>
</g>
<path class="st53" d="M238.2,97.8h-33.4c-5.9,0-10.8-4.9-10.8-10.8V48.8c0-5.9,4.9-10.8,10.8-10.8h39.1c2.8,0,5.1,2.3,5.1,5.1V87
	C249,92.9,244.1,97.8,238.2,97.8z"/>
<path class="st54" d="M238.4,95.8h-33.9c-4.9,0-8.9-4-8.9-8.9V48.6c0-4.9,4-8.9,8.9-8.9h39.5c1.8,0,3.3,1.5,3.3,3.3v43.9
	C247.3,91.8,243.3,95.8,238.4,95.8z"/>
<line class="st55" x1="204" y1="53" x2="240" y2="53"/>
<line class="st56" x1="220" y1="69" x2="239" y2="69"/>
<line class="st56" x1="220" y1="74" x2="231" y2="74"/>
<circle class="st26" cx="206" cy="47" r="2"/>
<circle class="st26" cx="213" cy="47" r="2"/>
<circle class="st26" cx="220" cy="47" r="2"/>
<path class="st56" d="M211,76h-5c-1.1,0-2-0.9-2-2v-5c0-1.1,0.9-2,2-2h5c1.1,0,2,0.9,2,2v5C213,75.1,212.1,76,211,76z"/>
<path class="st4" d="M409.5,67.5c0,0-2,10-18,16l11,7v-7l4.7,0.1l2.3-1.1l1-3L409.5,67.5z"/>
<path class="st57" d="M415.7,37h-37.2c-5.2,0-9.5,4.3-9.5,9.5v13.3c0,2.9,2.3,5.2,5.2,5.2h6.8v6l5.3-3.7c2.1-1.5,4.7-2.3,7.3-2.3h16
	c5.2,0,9.5-4.3,9.5-9.5V40.3C419,38.5,417.5,37,415.7,37z"/>
<g>
	<g>
		<path class="st21" d="M414.8,40c0.7,0,1.2,0.5,1.2,1.1v13.8c0,3.7-3.2,6.6-7.1,6.6h-15.3c-2.9,0-5.7,0.8-8.1,2.4l-2,1.3v-1.7
			c0-1.1-0.9-2-2-2H375c-1.7,0-3-1.2-3-2.8V46.6c0-3.7,3.2-6.6,7.1-6.6H414.8 M414.8,38h-35.7c-5,0-9.1,3.9-9.1,8.6v12.1
			c0,2.6,2.3,4.8,5,4.8h6.5V69l5.1-3.4c2-1.4,4.5-2.1,7-2.1h15.3c5,0,9.1-3.9,9.1-8.6V41.1C418,39.4,416.6,38,414.8,38L414.8,38z"/>
	</g>
</g>
<line class="st57" x1="379.5" y1="46" x2="408.5" y2="46"/>
<line class="st57" x1="379" y1="52" x2="397" y2="52"/>
<circle class="st23" cx="377.5" cy="86.5" r="11.5"/>
<circle class="st14" cx="381.1" cy="84.1" r="1.5"/>
<circle class="st14" cx="374" cy="84" r="1.5"/>
<path class="st19" d="M372,89c0,0,6,5,12,0"/>
<path class="st3" d="M409,68v11.8c0,2.3-1.9,4.2-4.2,4.2H402c-0.6,0-1,0.4-1,1v4.1l-3.7-2.6c-1.9-1.3-4-2.1-6.3-2.4v2
	c1.8,0.2,3.6,0.9,5.1,2l5.3,3.7c0.2,0.1,0.4,0.2,0.6,0.2c0.2,0,0.3,0,0.5-0.1c0.3-0.2,0.5-0.5,0.5-0.9v-5h1.8c3.4,0,6.2-2.8,6.2-6.2
	V68H409z"/>
<g>
	<g>
		<path class="st58" d="M484.5,39.8c-1-2.9-4.1-4.5-7-3.6c-2.9,1-4.5,4.1-3.6,7l14.3,44c1,2.7,3.9,4.2,6.7,3.4c3-0.9,4.7-4,3.8-6.8
			C498.7,83.7,484.5,39.8,484.5,39.8z"/>
		<path class="st59" d="M462.3,47c-1-2.9-4.1-4.5-7-3.6c-2.9,1-4.5,4.1-3.6,7l14.3,44c1,2.7,3.9,4.2,6.7,3.4c3-0.9,4.7-4,3.8-6.8
			C476.6,90.9,462.3,47,462.3,47z"/>
		<path class="st60" d="M502.5,76.2c2.9-1,4.5-4.1,3.6-7c-1-2.9-4.1-4.5-7-3.6l-44,14.3c-2.7,1-4.2,3.9-3.4,6.7c0.9,3,4,4.7,6.8,3.8
			C458.6,90.5,502.5,76.2,502.5,76.2z"/>
		<path class="st61" d="M464.2,88.7c2.8-0.9,6.6-2.1,10.5-3.4c-0.9-2.8-2.1-6.6-3.4-10.5l-10.5,3.4L464.2,88.7z"/>
		<path class="st62" d="M486.4,81.4c4-1.3,7.7-2.5,10.5-3.4c-0.9-2.8-2.1-6.6-3.4-10.5L483,70.9L486.4,81.4z"/>
		<path class="st63" d="M495.3,54.1c2.9-1,4.5-4.1,3.6-7c-1-2.9-4.1-4.5-7-3.6l-44,14.3c-2.7,1-4.2,3.9-3.4,6.7c0.9,3,4,4.7,6.8,3.8
			C451.4,68.3,495.3,54.1,495.3,54.1z"/>
		<path class="st64" d="M457.1,66.5c2.8-0.9,6.6-2.1,10.5-3.4c-1.3-4-2.5-7.7-3.4-10.5L453.6,56L457.1,66.5z"/>
		<path class="st65" d="M479.2,59.3c4-1.3,7.7-2.5,10.5-3.4c-1.3-4-2.5-7.7-3.4-10.5l-10.5,3.4L479.2,59.3z"/>
	</g>
</g>
<rect x="432" y="599" class="st66" width="8" height="8"/>
<rect x="442" y="599" class="st66" width="8" height="8"/>
<rect x="442" y="609" class="st66" width="8" height="8"/>
<rect x="432" y="609" class="st66" width="8" height="8"/>
<rect x="484" y="601" class="st67" width="18" height="3"/>
<rect x="484" y="606" class="st67" width="18" height="3"/>
<rect x="484" y="611" class="st67" width="18" height="3"/>
<path class="st32" d="M79,274.2v-2.5c0-2,1.6-3.6,3.6-3.6h8.9c1,0,1.9,0.4,2.6,1.1l4.1,4.1c0.7,0.7,1.6,1.1,2.6,1.1h5.5
	c4.8,0,8.7,3.9,8.7,8.7v8.4c0,2-1.6,3.6-3.6,3.6H82.6c-2,0-3.6-1.6-3.6-3.6V274.2z"/>
<path class="st11" d="M80,274.7v-2.6c0-1.7,1.4-3.1,3.1-3.1h8.5c0.9,0,1.4,0.4,2.1,1l3.8,3.8c0.6,0.6,2.1,1.3,3,1.3h5.2
	c4.5,0,8.1,3.3,8.1,7.8v8c0,1.7-1.4,3.1-3.1,3.1H83.2c-1.7,0-3.1-1.4-3.1-3.1V274.7z"/>
<line class="st11" x1="100" y1="275" x2="89" y2="275"/>
<g>
	<path class="st68" d="M199.2,299.6h-15.4c-3.5,0-6.3-2.8-6.3-6.3v-22.9c0-3.5,2.8-6.3,6.3-6.3H205c0.3,0,0.5,0.2,0.5,0.5v28.7
		C205.5,296.8,202.7,299.6,199.2,299.6z"/>
	<path class="st36" d="M200,300.1h-17c-3.3,0-6-2.7-6-6v-24.5c0-3.3,2.7-6,6-6h19.9c1.7,0,3.1,1.4,3.1,3.1v27.4
		C206,297.4,203.3,300.1,200,300.1z M183,264.6c-2.7,0-5,2.2-5,5v24.5c0,2.7,2.2,5,5,5h17c2.7,0,5-2.2,5-5v-27.4
		c0-1.1-0.9-2.1-2.1-2.1H183z"/>
</g>
<g>
	<path class="st69" d="M200.1,299.1h-17.2c-2.8,0-5-2.3-5-5v-24.6c0-2.8,2.3-5,5-5H203c1.2,0,2.2,1,2.2,2.2v27.4
		C205.1,296.9,202.9,299.1,200.1,299.1z M182.9,265.5c-2.2,0-4,1.8-4,4v24.6c0,2.2,1.8,4,4,4h17.2c2.2,0,4-1.8,4-4v-27.4
		c0-0.6-0.5-1.1-1.1-1.1H182.9z"/>
</g>
<g>
	<path class="st36" d="M198.3,283.7c-0.2-0.4-0.8-0.6-1.7-0.6c-0.5,0-1.2,0.1-1.9,0.2c-1-1.1-2.1-2.8-2.9-4.4
		c0.8-3.3,0.4-3.7,0.2-3.9c-0.2-0.2-0.4-0.6-0.7-0.6c-0.1,0-0.5,0.1-0.6,0.1c-0.3,0.1-0.5,0.4-0.7,0.7c-0.4,1,0.2,2.6,0.7,3.8
		c-0.5,2-1.3,4.3-2.2,6.2c-2.2,1-3.3,2-3.4,2.9c0,0.3,0,0.8,0.6,1.3c0.2,0.1,0.4,0.2,0.6,0.2c0.5,0,1-0.4,1.6-1.2
		c0.4-0.6,0.9-1.4,1.4-2.5c1.5-0.7,3.4-1.3,5.1-1.6c0.9,0.9,1.7,1.3,2.4,1.3c0.5,0,1-0.2,1.3-0.7C198.4,284.4,198.5,284,198.3,283.7
		z M186.4,288.6c-0.3-0.2-0.3-0.3-0.2-0.4c0-0.3,0.5-0.9,1.8-1.6C186.9,288.3,186.4,288.6,186.4,288.6z M191.1,275.4
		c0,0,0.6,0.6,0.1,1.9C190.3,276.4,191,275.4,191.1,275.4z M189.9,284.6c0.6-1.4,1.1-2.9,1.5-4.4c0.6,1.2,1.4,2.3,2.2,3.2
		C192.4,283.7,191.1,284.1,189.9,284.6z M197.3,284.3c-0.2,0.2-0.6,0.3-0.7,0.3c-0.3,0-0.4-0.2-0.9-0.5c0.4-0.1,0.7-0.1,1-0.1
		c0.5,0,0.6,0.1,0.7,0.1C197.4,284.1,197.3,284.2,197.3,284.3z"/>
</g>
<g>
	<path class="st70" d="M275.2,299.6h-15.4c-3.5,0-6.3-2.8-6.3-6.3v-22.9c0-3.5,2.8-6.3,6.3-6.3H281c0.3,0,0.5,0.2,0.5,0.5v28.7
		C281.5,296.8,278.7,299.6,275.2,299.6z"/>
	<path class="st71" d="M276,300.1h-17c-3.3,0-6-2.7-6-6v-24.5c0-3.3,2.7-6,6-6h19.9c1.7,0,3.1,1.4,3.1,3.1v27.4
		C282,297.4,279.3,300.1,276,300.1z M259,264.6c-2.7,0-5,2.2-5,5v24.5c0,2.7,2.2,5,5,5h17c2.7,0,5-2.2,5-5v-27.4
		c0-1.1-0.9-2.1-2.1-2.1H259z"/>
</g>
<g>
	<path class="st72" d="M276.1,299.1h-17.2c-2.8,0-5-2.3-5-5v-24.6c0-2.8,2.3-5,5-5H279c1.2,0,2.2,1,2.2,2.2v27.4
		C281.1,296.9,278.9,299.1,276.1,299.1z M258.9,265.5c-2.2,0-4,1.8-4,4v24.6c0,2.2,1.8,4,4,4h17.2c2.2,0,4-1.8,4-4v-27.4
		c0-0.6-0.5-1.1-1.1-1.1H258.9z"/>
</g>
<g>
	<path class="st71" d="M274.5,279.9h-4.3c-0.2,0-0.4-0.2-0.4-0.4v-4c0-0.2,0.2-0.4,0.4-0.4l0,0c0,0,0.1,0,0.1,0c2.5,0,4.5,2,4.6,4.5
		c0,0.1,0,0.2-0.1,0.3C274.7,279.9,274.6,279.9,274.5,279.9z M270.6,279h3.4c-0.3-1.7-1.7-3-3.4-3.1V279z"/>
</g>
<g>
	<path class="st71" d="M267.5,289c-3.6,0-6.5-2.9-6.5-6.5c0-3.5,2.7-6.4,6.3-6.5c0.1,0,0.2,0,0.3,0.1c0.1,0.1,0.1,0.2,0.1,0.3v5.4
		h5.8c0.2,0,0.4,0.2,0.4,0.4l0,0.1c0,0.1,0,0.1,0,0.2C274,286.1,271.1,289,267.5,289z M266.8,276.9c-2.8,0.3-4.9,2.7-4.9,5.6
		c0,3.1,2.5,5.6,5.6,5.6c3,0,5.5-2.4,5.6-5.4h-5.8c-0.2,0-0.4-0.2-0.4-0.4V276.9z"/>
</g>
<g>
	<line class="st50" x1="501.2" y1="277.5" x2="488.5" y2="277.5"/>
	<path class="st51" d="M501.2,277.9h-12.7c-0.3,0-0.5-0.2-0.5-0.5c0-0.3,0.2-0.5,0.5-0.5h12.7c0.3,0,0.5,0.2,0.5,0.5
		C501.6,277.7,501.4,277.9,501.2,277.9z"/>
</g>
<g>
	<line class="st50" x1="488.5" y1="282" x2="501.2" y2="282"/>
	<path class="st51" d="M501.2,282.5h-12.7c-0.3,0-0.5-0.2-0.5-0.5s0.2-0.5,0.5-0.5h12.7c0.3,0,0.5,0.2,0.5,0.5
		S501.4,282.5,501.2,282.5z"/>
</g>
<g>
	<line class="st50" x1="488.5" y1="286.5" x2="501.2" y2="286.5"/>
	<path class="st51" d="M501.2,287h-12.7c-0.3,0-0.5-0.2-0.5-0.5c0-0.3,0.2-0.5,0.5-0.5h12.7c0.3,0,0.5,0.2,0.5,0.5
		C501.6,286.8,501.4,287,501.2,287z"/>
</g>
<g>
	<line class="st50" x1="488.5" y1="277.5" x2="488.5" y2="286.5"/>
	<path class="st51" d="M488.5,287c-0.3,0-0.5-0.2-0.5-0.5v-9.1c0-0.3,0.2-0.5,0.5-0.5c0.3,0,0.5,0.2,0.5,0.5v9.1
		C488.9,286.8,488.7,287,488.5,287z"/>
</g>
<g>
	<line class="st50" x1="501.2" y1="277.5" x2="501.2" y2="286.5"/>
	<path class="st51" d="M501.2,287c-0.3,0-0.5-0.2-0.5-0.5v-9.1c0-0.3,0.2-0.5,0.5-0.5s0.5,0.2,0.5,0.5v9.1
		C501.6,286.8,501.4,287,501.2,287z"/>
</g>
<g>
	<line class="st50" x1="494.8" y1="277.5" x2="494.8" y2="286.5"/>
	<path class="st51" d="M494.8,287c-0.3,0-0.5-0.2-0.5-0.5v-9.1c0-0.3,0.2-0.5,0.5-0.5s0.5,0.2,0.5,0.5v9.1
		C495.3,286.8,495.1,287,494.8,287z"/>
</g>
<g>
	<path class="st73" d="M577.2,299.6h-15.4c-3.5,0-6.3-2.8-6.3-6.3v-22.9c0-3.5,2.8-6.3,6.3-6.3H583c0.3,0,0.5,0.2,0.5,0.5v28.7
		C583.5,296.8,580.7,299.6,577.2,299.6z"/>
	<path class="st74" d="M578,300.1h-17c-3.3,0-6-2.7-6-6v-24.5c0-3.3,2.7-6,6-6h19.9c1.7,0,3.1,1.4,3.1,3.1v27.4
		C584,297.4,581.3,300.1,578,300.1z M561,264.6c-2.7,0-5,2.2-5,5v24.5c0,2.7,2.2,5,5,5h17c2.7,0,5-2.2,5-5v-27.4
		c0-1.1-0.9-2.1-2.1-2.1H561z"/>
</g>
<g>
	<path class="st75" d="M578.1,299.1h-17.2c-2.8,0-5-2.3-5-5v-24.6c0-2.8,2.3-5,5-5H581c1.2,0,2.2,1,2.2,2.2v27.4
		C583.1,296.9,580.9,299.1,578.1,299.1z M560.9,265.5c-2.2,0-4,1.8-4,4v24.6c0,2.2,1.8,4,4,4h17.2c2.2,0,4-1.8,4-4v-27.4
		c0-0.6-0.5-1.1-1.1-1.1H560.9z"/>
</g>
<g>
	<line class="st73" x1="562.5" y1="271.6" x2="576.5" y2="271.6"/>
	<path class="st74" d="M576.5,272.1h-14c-0.3,0-0.5-0.2-0.5-0.5c0-0.3,0.2-0.5,0.5-0.5h14c0.3,0,0.5,0.2,0.5,0.5
		C577,271.9,576.8,272.1,576.5,272.1z"/>
</g>
<g>
	<line class="st73" x1="562.5" y1="275.9" x2="576.5" y2="275.9"/>
	<path class="st74" d="M576.5,276.4h-14c-0.3,0-0.5-0.2-0.5-0.5s0.2-0.5,0.5-0.5h14c0.3,0,0.5,0.2,0.5,0.5S576.8,276.4,576.5,276.4z
		"/>
</g>
<g>
	<line class="st73" x1="562.5" y1="280.2" x2="568" y2="280.2"/>
	<path class="st74" d="M568,280.7h-5.5c-0.3,0-0.5-0.2-0.5-0.5c0-0.3,0.2-0.5,0.5-0.5h5.5c0.3,0,0.5,0.2,0.5,0.5
		C568.4,280.5,568.2,280.7,568,280.7z"/>
</g>
<g>
	<path class="st76" d="M397,602c3.9,0,7,3.1,7,7s-3.1,7-7,7s-7-3.1-7-7S393.1,602,397,602 M397,601c-4.4,0-8,3.6-8,8s3.6,8,8,8
		s8-3.6,8-8S401.4,601,397,601L397,601z"/>
</g>
<g>
	<path class="st76" d="M395.6,611.6c0-0.1,0.1-0.3,0.1-0.5l0.8-2.8c0,0,0-0.1,0-0.1c0,0,0-0.1,0-0.1c0-0.2-0.1-0.3-0.2-0.3
		c-0.1,0-0.3-0.1-0.6-0.1v-0.3c0.2,0,0.6,0,1-0.1c0.4,0,0.7-0.1,0.9-0.1l0.5-0.1l-1,3.5c-0.1,0.3-0.1,0.5-0.2,0.6
		c-0.1,0.3-0.1,0.5-0.1,0.6s0,0.1,0.1,0.2c0,0,0.1,0,0.1,0c0.1,0,0.3-0.1,0.5-0.3c0.2-0.2,0.3-0.4,0.5-0.7l0.3,0.2
		c-0.4,0.6-0.7,1-0.9,1.2c-0.3,0.3-0.7,0.5-1.1,0.5c-0.2,0-0.4-0.1-0.6-0.2s-0.3-0.3-0.3-0.6C395.5,612,395.6,611.8,395.6,611.6z
		 M398.5,604.6c0.2,0.2,0.2,0.4,0.2,0.6s-0.1,0.4-0.2,0.6c-0.2,0.2-0.4,0.2-0.6,0.2c-0.2,0-0.4-0.1-0.6-0.2
		c-0.2-0.2-0.2-0.4-0.2-0.6s0.1-0.4,0.2-0.6s0.4-0.2,0.6-0.2C398.1,604.4,398.3,604.5,398.5,604.6z"/>
</g>
<line class="st5" x1="251" y1="353" x2="274" y2="353"/>
<line class="st5" x1="255" y1="348" x2="270" y2="348"/>
<g>
	<path class="st77" d="M293.8,604.2v-1.5h3.4v-2c0-1.5-1.2-2.7-2.7-2.7s-2.7,1.2-2.7,2.7v16.4l2.7,4.9l2.7-4.9v-12.9H293.8z"/>
</g>
<polyline class="st78" points="341,603 335,609 341,615 "/>
<polyline class="st78" points="356,603 362,609 356,615 "/>
<g>
	<g>
		<path class="st77" d="M343.5,614.5l4.8-14.3c0.4-1.2,1.6-2,2.8-2c0.3,0,0.6,0.1,1,0.2c1.6,0.5,2.4,2.2,1.9,3.8l-4.8,14.3l-4.6,4.2
			L343.5,614.5z"/>
		<g>
			<path class="st14" d="M351.2,598.6c0.3,0,0.5,0,0.8,0.1c1.3,0.4,2,1.9,1.6,3.2l-4.8,14.2l-3.8,3.5l-0.9-5.1l4.1-12.1l0.7-2.2
				C349.2,599.3,350.2,598.6,351.2,598.6 M351.2,597.6L351.2,597.6c-1.5,0-2.8,1-3.3,2.4l-0.7,2.2l-4.1,12.1l-0.1,0.2l0,0.3l0.9,5.1
				l0.3,1.8l1.3-1.2l3.8-3.5l0.2-0.2l0.1-0.2l4.8-14.2c0.6-1.8-0.4-3.8-2.2-4.4C352,597.7,351.6,597.6,351.2,597.6L351.2,597.6z"/>
		</g>
	</g>
	<polyline class="st79" points="352.3,604.1 352.3,604.1 347.1,602.4 	"/>
</g>
<g>
	<path class="st77" d="M289.5,615.9h-2c-1.8,0-3.2-1.4-3.2-3.2V605c0-1.8,1.4-3.2,3.2-3.2h2v-1.3h-2c-2.5,0-4.5,2-4.5,4.5v7.7
		c0,2.5,2,4.5,4.5,4.5h2V615.9z"/>
	<path class="st77" d="M304.5,602.1c-0.8-1-2-1.6-3.3-1.6h-1.8v1.3h1.2c1.3,0,2.5,0.6,3.3,1.6l4.4,5.5l-4.3,5.4
		c-0.8,1-2.1,1.6-3.4,1.6h-1.1v1.3h1.7c1.3,0,2.6-0.6,3.4-1.6l5.4-6.7L304.5,602.1z"/>
</g>
</svg>
