<?xml version="1.0" encoding="UTF-8" standalone="no"?>
<!-- Generator: Adobe Illustrator 16.0.0, SVG Export Plug-In . SVG Version: 6.00 Build 0)  -->

<svg
   xmlns:dc="http://purl.org/dc/elements/1.1/"
   xmlns:cc="http://creativecommons.org/ns#"
   xmlns:rdf="http://www.w3.org/1999/02/22-rdf-syntax-ns#"
   xmlns:svg="http://www.w3.org/2000/svg"
   xmlns="http://www.w3.org/2000/svg"
   xmlns:sodipodi="http://sodipodi.sourceforge.net/DTD/sodipodi-0.dtd"
   xmlns:inkscape="http://www.inkscape.org/namespaces/inkscape"
   version="1.1"
   id="Layer_1"
   x="0px"
   y="0px"
   width="494px"
   height="111px"
   viewBox="0 0 494 111"
   enable-background="new 0 0 494 111"
   xml:space="preserve"
   inkscape:version="0.91 r13725"
   sodipodi:docname="logo-white.svg"
   inkscape:export-filename="D:\Squidex\media\logo-white.png"
   inkscape:export-xdpi="90"
   inkscape:export-ydpi="90"><metadata
     id="metadata45"><rdf:RDF><cc:Work
         rdf:about=""><dc:format>image/svg+xml</dc:format><dc:type
           rdf:resource="http://purl.org/dc/dcmitype/StillImage" /><dc:title></dc:title></cc:Work></rdf:RDF></metadata><defs
     id="defs43" /><sodipodi:namedview
     pagecolor="#ffffff"
     bordercolor="#666666"
     borderopacity="1"
     objecttolerance="10"
     gridtolerance="10"
     guidetolerance="10"
     inkscape:pageopacity="0"
     inkscape:pageshadow="2"
     inkscape:window-width="1920"
     inkscape:window-height="1017"
     id="namedview41"
     showgrid="false"
     inkscape:zoom="0.58299595"
     inkscape:cx="247"
     inkscape:cy="55.5"
     inkscape:window-x="1912"
     inkscape:window-y="-8"
     inkscape:window-maximized="1"
     inkscape:current-layer="Layer_1" /><path
     fill="#525873"
     d="M90.902,65.898h15.952c1.21,4.842,4.841,8.143,14.632,8.143c6.931,0,10.232-1.65,10.232-4.951  c0-4.07-4.731-4.4-13.862-6.602c-17.163-4.07-24.204-7.92-24.204-18.371c0-12.764,10.562-20.135,26.514-20.135  c16.832,0,25.083,8.143,27.174,19.363h-15.952c-1.21-3.85-4.511-6.16-11.772-6.16c-6.271,0-10.122,1.76-10.122,5.061  c0,2.859,2.75,3.41,11.552,5.391C138.318,51.598,148,54.898,148,67c0,13.531-11.992,20.133-26.954,20.133  C104.874,87.133,93.102,79.211,90.902,65.898z"
     id="path3"
     style="fill:#ffffff" /><path
     fill="#525873"
     d="M213.235,25.303v75.439h-15.731v-23.07c-4.181,5.721-10.562,9.461-19.033,9.461  c-15.842,0-27.614-12.982-27.614-31.574c0-18.703,11.992-31.576,27.503-31.576c8.582,0,14.963,3.961,19.144,9.793v-8.473H213.235z   M197.504,55.559c0-9.902-6.711-16.613-15.513-16.613c-8.801,0-15.292,6.711-15.292,16.613c0,10.01,6.601,16.611,15.292,16.611  C190.793,72.17,197.504,65.568,197.504,55.559z"
     id="path5"
     style="fill:#ffffff" /><path
     fill="#525873"
     d="M274.281,25.303v60.51h-15.732v-8.361c-4.4,6.16-10.342,9.682-18.703,9.682  c-13.312,0-21.562-9.131-21.562-23.873V25.303h15.732v34.545c0,7.922,2.971,12.322,11.111,12.322c8.691,0,13.422-5.17,13.422-15.072  V25.303H274.281z"
     id="path7"
     style="fill:#ffffff" /><path
     fill="#525873"
     d="M279.767,42.927H295.5v42.886h-15.732V42.927z"
     id="path9"
     style="fill:#ffffff" /><path
     fill="#525873"
     d="M363.037,8.506v77.307h-15.733v-8.141c-4.18,5.721-10.561,9.461-19.031,9.461  c-15.732,0-27.615-12.982-27.615-31.574c0-18.703,11.992-31.576,27.504-31.576c8.582,0,14.963,3.961,19.143,9.793V8.506H363.037z   M347.304,55.559c0-9.902-6.711-16.613-15.512-16.613s-15.291,6.711-15.291,16.613c0,10.01,6.6,16.611,15.291,16.611  C340.593,72.17,347.304,65.568,347.304,55.559z"
     id="path11"
     style="fill:#ffffff" /><path
     fill="#525873"
     d="M430.254,58.309h-51.818c0.881,12.541,9.791,20.133,22.004,20.133c8.361,0,15.291-3.521,18.922-10.562h9.461  c-5.061,12.873-16.061,19.143-28.713,19.143c-17.934,0-31.025-12.762-31.025-31.244c0-18.373,12.873-31.684,30.916-31.684  C418.812,24.094,431.023,38.395,430.254,58.309z M378.877,49.727h41.475c-1.98-10.121-9.461-17.053-20.352-17.053  C388.887,32.674,380.967,39.826,378.877,49.727z"
     id="path13"
     style="fill:#ffffff" /><path
     fill="#525873"
     d="M469.848,85.812l-16.723-24.094l-16.502,24.094h-11.002l22.004-31.135l-20.793-29.375h11.002l15.512,22.555  l15.293-22.555h11.111l-20.904,29.484l22.004,31.025H469.848z"
     id="path15"
     style="fill:#ffffff" /><path
     fill="#3389FF"
     d="M290.666,30.575h2.198c1.455,0,2.636-1.181,2.636-2.636c0-1.456-1.181-2.637-2.636-2.637h-10.461  c-1.455,0-2.636,1.181-2.636,2.637c0,0.805,0.368,1.516,0.938,2l-0.018,0.013c0.649,0.542,1.071,1.347,1.071,2.259  c0,0.9-0.411,1.696-1.046,2.237l0.018,0.031c-0.583,0.484-0.963,1.205-0.963,2.022c0,1.455,1.181,2.636,2.636,2.636h8.23  c1.455,0,2.636-1.181,2.636-2.636c0-1.456-1.181-2.637-2.636-2.637h0.21c-0.911-0.003-1.649-0.742-1.649-1.654  C289.194,31.36,289.839,30.668,290.666,30.575z"
     id="path17"
     style="fill:#ffffff" /><g
     id="g19"
     style="fill:#ffffff"><g
       id="g21"
       style="fill:#ffffff"><path
         fill="#3389FF"
         d="M21.267,80.827c-0.473,0-0.971-0.031-1.494-0.096c-3.67-0.459-6.484-2.862-7.531-6.428    c-1.109-3.789,0.053-8.048,2.826-10.359c1.144-0.955,2.844-0.799,3.797,0.345c0.953,1.145,0.798,2.844-0.346,3.797    c-1.138,0.948-1.611,2.968-1.104,4.7c0.309,1.051,1.083,2.353,3.025,2.596c1.399,0.175,2.459-0.063,3.246-0.724    c1.435-1.209,1.869-3.684,1.922-4.596V53.077c0-1.489,1.207-2.695,2.695-2.695S31,51.588,31,53.077v17.051    c0,0.033,0,0.065-0.001,0.098c-0.02,0.558-0.297,5.538-3.803,8.525C26.031,79.742,24.107,80.827,21.267,80.827z"
         id="path23"
         style="fill:#ffffff" /></g><g
       id="g25"
       style="fill:#ffffff"><path
         fill="#3389FF"
         d="M31.435,99.967c-0.473,0-0.971-0.031-1.494-0.096c-3.67-0.46-6.486-2.862-7.531-6.428    c-1.109-3.789,0.051-8.048,2.826-10.358c1.144-0.955,2.845-0.8,3.797,0.342c0.953,1.146,0.798,2.845-0.346,3.799    c-1.138,0.947-1.612,2.968-1.104,4.701c0.308,1.049,1.082,2.351,3.025,2.594c1.404,0.177,2.473-0.065,3.259-0.735    c1.638-1.394,1.887-4.275,1.909-4.586V52.238c0-1.489,1.207-2.696,2.695-2.696s2.695,1.207,2.695,2.696v37.031    c0,0.032,0,0.062-0.002,0.097c-0.019,0.558-0.296,5.538-3.803,8.525C36.199,98.882,34.275,99.967,31.435,99.967z"
         id="path27"
         style="fill:#ffffff" /></g><g
       id="g29"
       style="fill:#ffffff"><path
         fill="#3389FF"
         d="M65.941,80.827c-2.84,0-4.764-1.085-5.928-2.076c-3.507-2.987-3.784-7.968-3.803-8.525    c-0.002-0.032-0.002-0.064-0.002-0.098V53.077c0-1.489,1.206-2.695,2.695-2.695c1.488,0,2.695,1.207,2.695,2.695v16.991    c0.05,0.889,0.482,3.377,1.923,4.591c0.786,0.66,1.849,0.899,3.245,0.723c1.942-0.242,2.718-1.544,3.025-2.595    c0.509-1.732,0.034-3.752-1.104-4.7c-1.144-0.953-1.299-2.652-0.345-3.797c0.951-1.144,2.65-1.299,3.796-0.345    c2.774,2.312,3.936,6.57,2.826,10.359c-1.045,3.565-3.861,5.969-7.53,6.428C66.912,80.796,66.414,80.827,65.941,80.827z"
         id="path31"
         style="fill:#ffffff" /></g><g
       id="g33"
       style="fill:#ffffff"><path
         fill="#3389FF"
         d="M55.773,99.967c-2.84,0-4.764-1.085-5.928-2.076c-3.507-2.987-3.783-7.968-3.803-8.525    c-0.002-0.034-0.002-0.064-0.002-0.097V52.238c0-1.489,1.207-2.696,2.696-2.696c1.488,0,2.694,1.207,2.694,2.696v36.967    c0.051,0.891,0.482,3.379,1.923,4.592c0.786,0.661,1.847,0.9,3.245,0.724c1.942-0.243,2.718-1.545,3.025-2.594    c0.509-1.733,0.034-3.754-1.104-4.701c-1.144-0.954-1.298-2.652-0.345-3.799c0.952-1.141,2.651-1.297,3.797-0.342    c2.774,2.311,3.935,6.569,2.825,10.358c-1.045,3.565-3.861,5.968-7.53,6.428C56.744,99.936,56.247,99.967,55.773,99.967z"
         id="path35"
         style="fill:#ffffff" /></g><g
       id="g37"
       style="fill:#ffffff"><path
         fill="#3389FF"
         d="M64.793,38.868c-0.178-1.947,3.787-1.169,3.311-2.94C63.147,17.484,43.646,8.512,43.632,8.506    c-0.015,0.006-19.516,8.978-24.472,27.422c-0.478,1.771,3.487,0.993,3.31,2.94c-0.217,2.364-4.765,3.333-4.172,10.121    c0.641,7.341,7.182,14.765,7.418,18.873h5.295v-0.153c0-1.319,1.069-2.388,2.389-2.388s2.388,1.068,2.388,2.388v0.153l5.39-2.695    V65.06c0-1.345,1.09-2.435,2.436-2.435c1.344,0,2.434,1.09,2.434,2.435v0.107l5.375,2.695v-0.153c0-1.319,1.069-2.388,2.389-2.388    s2.389,1.068,2.389,2.388v0.153h5.391c0.542-5.791,6.735-11.532,7.376-18.873C69.558,42.201,65.009,41.232,64.793,38.868z"
         id="path39"
         style="fill:#ffffff" /></g></g></svg>