<?xml version="1.0" encoding="UTF-8" standalone="no"?>
<!-- Generator: Adobe Illustrator 16.0.0, SVG Export Plug-In . SVG Version: 6.00 Build 0)  -->

<svg
   xmlns:dc="http://purl.org/dc/elements/1.1/"
   xmlns:cc="http://creativecommons.org/ns#"
   xmlns:rdf="http://www.w3.org/1999/02/22-rdf-syntax-ns#"
   xmlns:svg="http://www.w3.org/2000/svg"
   xmlns="http://www.w3.org/2000/svg"
   xmlns:sodipodi="http://sodipodi.sourceforge.net/DTD/sodipodi-0.dtd"
   xmlns:inkscape="http://www.inkscape.org/namespaces/inkscape"
   version="1.1"
   id="Layer_1"
   x="0px"
   y="0px"
   width="110"
   height="110"
   viewBox="0 0 110 110"
   enable-background="new 0 0 494 111"
   xml:space="preserve"
   inkscape:version="0.91 r13725"
   sodipodi:docname="logo-squared.svg"
   inkscape:export-filename="C:\Users\mail2\Downloads\logo-squared.png"
   inkscape:export-xdpi="490.91"
   inkscape:export-ydpi="490.91"><metadata
     id="metadata45"><rdf:RDF><cc:Work
         rdf:about=""><dc:format>image/svg+xml</dc:format><dc:type
           rdf:resource="http://purl.org/dc/dcmitype/StillImage" /><dc:title></dc:title></cc:Work></rdf:RDF></metadata><defs
     id="defs43" /><sodipodi:namedview
     pagecolor="#ffffff"
     bordercolor="#666666"
     borderopacity="1"
     objecttolerance="10"
     gridtolerance="10"
     guidetolerance="10"
     inkscape:pageopacity="0"
     inkscape:pageshadow="2"
     inkscape:window-width="1920"
     inkscape:window-height="1017"
     id="namedview41"
     showgrid="false"
     inkscape:zoom="2.3319838"
     inkscape:cx="-70.482725"
     inkscape:cy="106.27906"
     inkscape:window-x="1912"
     inkscape:window-y="-8"
     inkscape:window-maximized="1"
     inkscape:current-layer="Layer_1" /><g
     id="g19"
     transform="matrix(1.0069983,0,0,1.0058932,11.091568,0.44387448)"><g
       id="g21"><path
         d="m 21.267,80.827 c -0.473,0 -0.971,-0.031 -1.494,-0.096 -3.67,-0.459 -6.484,-2.862 -7.531,-6.428 -1.109,-3.789 0.053,-8.048 2.826,-10.359 1.144,-0.955 2.844,-0.799 3.797,0.345 0.953,1.145 0.798,2.844 -0.346,3.797 -1.138,0.948 -1.611,2.968 -1.104,4.7 0.309,1.051 1.083,2.353 3.025,2.596 1.399,0.175 2.459,-0.063 3.246,-0.724 1.435,-1.209 1.869,-3.684 1.922,-4.596 l 0,-16.985 c 0,-1.489 1.207,-2.695 2.695,-2.695 1.488,0 2.697,1.206 2.697,2.695 l 0,17.051 c 0,0.033 0,0.065 -0.001,0.098 -0.02,0.558 -0.297,5.538 -3.803,8.525 -1.165,0.991 -3.089,2.076 -5.929,2.076 z"
         id="path23"
         inkscape:connector-curvature="0"
         style="fill:#3389ff" /></g><g
       id="g25"><path
         d="m 31.435,99.967 c -0.473,0 -0.971,-0.031 -1.494,-0.096 -3.67,-0.46 -6.486,-2.862 -7.531,-6.428 -1.109,-3.789 0.051,-8.048 2.826,-10.358 1.144,-0.955 2.845,-0.8 3.797,0.342 0.953,1.146 0.798,2.845 -0.346,3.799 -1.138,0.947 -1.612,2.968 -1.104,4.701 0.308,1.049 1.082,2.351 3.025,2.594 1.404,0.177 2.473,-0.065 3.259,-0.735 1.638,-1.394 1.887,-4.275 1.909,-4.586 l 0,-36.962 c 0,-1.489 1.207,-2.696 2.695,-2.696 1.488,0 2.695,1.207 2.695,2.696 l 0,37.031 c 0,0.032 0,0.062 -0.002,0.097 -0.019,0.558 -0.296,5.538 -3.803,8.525 -1.162,0.991 -3.086,2.076 -5.926,2.076 z"
         id="path27"
         inkscape:connector-curvature="0"
         style="fill:#3389ff" /></g><g
       id="g29"><path
         d="m 65.941,80.827 c -2.84,0 -4.764,-1.085 -5.928,-2.076 -3.507,-2.987 -3.784,-7.968 -3.803,-8.525 -0.002,-0.032 -0.002,-0.064 -0.002,-0.098 l 0,-17.051 c 0,-1.489 1.206,-2.695 2.695,-2.695 1.488,0 2.695,1.207 2.695,2.695 l 0,16.991 c 0.05,0.889 0.482,3.377 1.923,4.591 0.786,0.66 1.849,0.899 3.245,0.723 1.942,-0.242 2.718,-1.544 3.025,-2.595 0.509,-1.732 0.034,-3.752 -1.104,-4.7 -1.144,-0.953 -1.299,-2.652 -0.345,-3.797 0.951,-1.144 2.65,-1.299 3.796,-0.345 2.774,2.312 3.936,6.57 2.826,10.359 -1.045,3.565 -3.861,5.969 -7.53,6.428 -0.522,0.064 -1.02,0.095 -1.493,0.095 z"
         id="path31"
         inkscape:connector-curvature="0"
         style="fill:#3389ff" /></g><g
       id="g33"><path
         d="m 55.773,99.967 c -2.84,0 -4.764,-1.085 -5.928,-2.076 C 46.338,94.904 46.062,89.923 46.042,89.366 46.04,89.332 46.04,89.302 46.04,89.269 l 0,-37.031 c 0,-1.489 1.207,-2.696 2.696,-2.696 1.488,0 2.694,1.207 2.694,2.696 l 0,36.967 c 0.051,0.891 0.482,3.379 1.923,4.592 0.786,0.661 1.847,0.9 3.245,0.724 1.942,-0.243 2.718,-1.545 3.025,-2.594 0.509,-1.733 0.034,-3.754 -1.104,-4.701 -1.144,-0.954 -1.298,-2.652 -0.345,-3.799 0.952,-1.141 2.651,-1.297 3.797,-0.342 2.774,2.311 3.935,6.569 2.825,10.358 -1.045,3.565 -3.861,5.968 -7.53,6.428 -0.522,0.065 -1.019,0.096 -1.493,0.096 z"
         id="path35"
         inkscape:connector-curvature="0"
         style="fill:#3389ff" /></g><g
       id="g37"><path
         d="M 64.793,38.868 C 64.615,36.921 68.58,37.699 68.104,35.928 63.147,17.484 43.646,8.512 43.632,8.506 43.617,8.512 24.116,17.484 19.16,35.928 c -0.478,1.771 3.487,0.993 3.31,2.94 -0.217,2.364 -4.765,3.333 -4.172,10.121 0.641,7.341 7.182,14.765 7.418,18.873 l 5.295,0 0,-0.153 c 0,-1.319 1.069,-2.388 2.389,-2.388 1.32,0 2.388,1.068 2.388,2.388 l 0,0.153 5.39,-2.695 0,-0.107 c 0,-1.345 1.09,-2.435 2.436,-2.435 1.344,0 2.434,1.09 2.434,2.435 l 0,0.107 5.375,2.695 0,-0.153 c 0,-1.319 1.069,-2.388 2.389,-2.388 1.32,0 2.389,1.068 2.389,2.388 l 0,0.153 5.391,0 c 0.542,-5.791 6.735,-11.532 7.376,-18.873 0.59,-6.788 -3.959,-7.757 -4.175,-10.121 z"
         id="path39"
         inkscape:connector-curvature="0"
         style="fill:#3389ff" /></g></g></svg>