<?xml version="1.0" encoding="UTF-8" standalone="no"?>
<svg
        id="Layer_1"
        viewBox="0 0 204.02457 346.98514"
        version="1.1"
        sodipodi:docname="squid.svg"
        width="204.02457"
        height="346.98514"
        inkscape:version="1.3 (0e150ed6c4, 2023-07-21)"
        xmlns:inkscape="http://www.inkscape.org/namespaces/inkscape"
        xmlns:sodipodi="http://sodipodi.sourceforge.net/DTD/sodipodi-0.dtd"
        xmlns="http://www.w3.org/2000/svg"
>
  <defs
     id="defs13" />
  <sodipodi:namedview
     id="namedview13"
     pagecolor="#ffffff"
     bordercolor="#666666"
     borderopacity="1.0"
     inkscape:showpageshadow="2"
     inkscape:pageopacity="0.0"
     inkscape:pagecheckerboard="0"
     inkscape:deskcolor="#d1d1d1"
     inkscape:zoom="1.4506252"
     inkscape:cx="-161.65444"
     inkscape:cy="150.96939"
     inkscape:window-width="2560"
     inkscape:window-height="1351"
     inkscape:window-x="-9"
     inkscape:window-y="-2"
     inkscape:window-maximized="1"
     inkscape:current-layer="Layer_1" />
  <style
     id="style1">&#10;    .st0{fill:#3389ff}&#10;	  .st1{fill:#3370ff}&#10;	  .st2{fill:#fff}&#10;	  .st3{fill:#253256}&#10;	  .st6{font-family:-apple-system,BlinkMacSystemFont,&quot;Segoe UI&quot;,Roboto,&quot;Helvetica Neue&quot;,Arial,sans-serif,&quot;Apple Color Emoji&quot;,&quot;Segoe UI Emoji&quot;,&quot;Segoe UI Symbol&quot;}&#10;	  .st10{font-size:30px}&#10;	  .st11{font-size:20px;font-weight:bold;}&#10;	  .st12{fill:#3e4c7d}&#10;  </style>
  <path
     class="st0"
     d="m 190.70501,118.5 c 0.5,-6.9 13.9,-1.9 13.3,-8.4 -6.8,-67.5 -69.9,-110.1 -70,-110.1 -0.1,0 -73.499999,20.2 -101.499999,82 -2.7,5.9 11.6,5.5 9.9,12.2 -2.1,8.2 -18.6,8.9 -20.4,33.1 -2,26.1 16.7,55.8 15.1,70.4 l 18.3,4.5 0.4,-2 c 0.8,-4.6 5.1,-7.7 9.7,-7 4.6,0.8 7.8,5.1 7,9.7 l -0.1,0.5 20.4,-6.3 0.1,-0.4 c 0.8,-4.7 5.2,-7.9 9.899999,-7.1 4.7,0.8 7.9,5.2 7.1,9.9 l -0.1,0.4 17.3,12.5 0.1,-0.5 c 0.8,-4.6 5.1,-7.7 9.7,-7 4.6,0.8 7.7,5.1 7,9.7 l -0.1,0.5 18.9,3.1 c 5.2,-20 30.2,-36.5 36.7,-61.9 6,-23.4 -9.3,-29.4 -8.7,-37.8 z"
     id="path1" />
  <path
     class="st1"
     d="m 78.805011,199.5 c -2.7,-7 -23,-1.1 -20.3,5.9 9.9,25.8 -0.3,43.5 -12.9,62 -9.9,14.5 -11.4,31.4 -3.4,48.4 3.2,6.8 9,2 5.8,-4.8 -11.8,-24.9 12.4,-41.3 22.3,-60 7.8,-15 15.1,-34.4 8.5,-51.5 z m 39.899999,11.4 c 4.2,-7.4 22.9,1.6 18.6,9 -15.7,27.3 -9.7,48.1 -1.6,70.1 0.5,1.3 15.2,19.1 -7.8,53.8 -4.7,7.1 -9.3,1.1 -4.6,-6 17.3,-26.1 -2.6,-47.1 -8.1,-68.9 -4.3,-17.6 -6.9,-39.9 3.5,-58 z"
     id="path2" />
  <path
     class="st1"
     d="m 105.90501,282.4 c -0.9,-10.5 -4.2,-19.1 -5.5,-29.5 -1.499999,-12.6 3,-24.4 8.9,-35.3 3.7,-6.7 -15.399999,-12.7 -19.099999,-6.1 -8.6,15.8 -4.8,34.6 -0.8,52 2.5,10.9 7.3,21.2 3.6,33 -3.5,11 -11,21 -17.6,29.7 -4.5,6 1.4,11.1 6,5.1 10.5,-13.8 26.099999,-29.7 24.499999,-48.9 z"
     id="path3" />
  <path
     class="st1"
     d="m 171.60501,284.2 c -1,-13.5 -7.2,-24.2 -15,-34.9 -2.9,-4 -4.3,-8.9 -3.2,-13.8 1.2,-5.1 5,-8.9 8,-13 3.4,-4.6 5.1,-9.9 6.4,-15.5 1.5,-5.9 2.2,-12 2.7,-18.1 1.2,-15 0.5,-30.2 -0.9,-45.1 -1.5,-16.5 -4.1,-32.8 -7.5,-49 -3.1,-14.6 -6.8,-29.1 -11.9,-43.1 -3.4,-9.5 -7.3,-19.8 -14,-27.5 -1.9,-2.2 -4.3,-4.5 -7.3,-4.9 -5.7,-0.9 -12.3,6.8 -15.8,10.3 -8.7,8.8 -16.299999,18.9 -23.399999,29 -9.1,12.9 -17.4,26.3 -25.1,40 -7.8,14.1 -15,28.5 -20.9,43.5 -5,12.6 -9.3,25.8 -10.7,39.4 -1,9.6 0.2,18.4 3.7,27.3 3.3,8.2 1.1,17.1 -6.5,22 -11.1,7.2 -20.5999998,15.1 -26.2999998,27.4 -5.2,11.2 -5.6,24.2 1.2,34.9 3.6,5.6 8.2999998,0.9 4.8,-4.7 -7,-11 -1.3,-23.6 6.5999998,-32.2 10.9,-11.9 29.6,-16.1 37.7,-30.6 2.5,-4.5 4.2,-9.7 4.5,-14.9 21.3,4.6 53.199999,10.9 77.399999,12.4 -0.9,4.3 -1,8.8 -0.3,13.1 2.4,16.4 18.6,26.9 24.6,41.9 4.4,10.9 5.3,24.7 -5.1,32.5 -5.3,4 -2.5,10.1 2.8,6.1 10.3,-7.8 14.4,-20.1 13.5,-32.5 z"
     id="path4" />
  <ellipse
     transform="rotate(-80.689)"
     class="st0"
     cx="-131.70465"
     cy="86.110695"
     rx="8.3000002"
     ry="12.7"
     id="ellipse4" />
  <ellipse
     transform="rotate(-80.689)"
     class="st0"
     cx="-131.66716"
     cy="174.7867"
     rx="8.3000002"
     ry="12.7"
     id="ellipse5" />
  <circle
     transform="rotate(-80.689)"
     class="st3"
     cx="-110.48609"
     cy="163.43916"
     id="ellipse6"
     r="9.3999996" />
  <circle
     transform="rotate(-80.689)"
     class="st3"
     cx="-110.45959"
     cy="101.08974"
     id="ellipse7"
     r="9.3999996" />
  <path
     class="st3"
     d="m 124.80501,165.5 c -2,12.2 -11.3,20.8 -20.8,19.2 -9.499999,-1.6 -15.499999,-12.7 -13.599999,-24.8 2,-12.2 7.7,1.3 17.199999,2.8 9.5,1.6 19.2,-9.3 17.2,2.8 z"
     id="path7" />
  <path
     class="st2"
     d="m 81.405011,119 c -5.2,-0.8 -6.5,7.2 -1.3,8 5.1,0.9 6.4,-7.2 1.3,-8 z m 61.499999,10.1 c -5.2,-0.8 -6.5,7.2 -1.3,8 5.1,0.8 6.5,-7.2 1.3,-8 z m -35.3,33.6 c -4.1,-0.7 -7.4,-3.5 -10.099999,-5.6 2.4,3.5 5.499999,8 9.599999,8.7 4.1,0.7 8.4,-2.6 11.8,-5.2 -3.1,1.2 -7.2,2.8 -11.3,2.1 z"
     id="path8" />
</svg>
