<svg id="Layer_1" xmlns="http://www.w3.org/2000/svg" viewBox="0 0 600 391.9">
  <style>
    .st5{fill:#2d3964}
    .st6{font-family:-apple-system,BlinkMacSystemFont,"Segoe UI",Roboto,"Helvetica Neue",Arial,sans-serif,"Apple Color Emoji","Segoe UI Emoji","Segoe UI Symbol"}
    .st70{font-size:30px}
    .st71{font-size:20px;font-weight:bold;}
    .st8{fill:#e4e4ea}
    .st9{fill:#3389ff}
    .st11{fill:#3370ff}
    .st12{fill:#253256}
    .st13{fill:#fff}
  </style>
  <path d="M349 231.4c-16.9-8.5-28.9-20-36.6-29.3 18.6-27 26.6-58.4 20.1-89.5C317.7 42.7 235 .9 147.7 19.3c-87.3 18.4-146.1 90-131.3 160s97.4 111.8 184.7 93.4c31.1-6.6 58.6-19.9 80.4-37.5 44.3 17.3 67.5-3.8 67.5-3.8z" fill="[COLOR]"/>
  <text transform="translate(77.559 104.938)" letter-spacing="1" class="st6 st71" fill="#4cc159">
    {{TITLE}}
  </text>
  <text transform="translate(77.559 147.894)">
    <tspan x="0" y="00" class="st5 st6 st70">{{TEXT1}}</tspan>
	<tspan x="0" y="40" class="st5 st6 st70">{{TEXT2}}</tspan>
	<tspan x="0" y="80" class="st5 st6 st70">{{TEXT3}}</tspan>
  </text>
  <circle class="st8" cx="581.9" cy="132.9" r="5.9"/>
  <circle class="st9" cx="566.2" cy="105.1" r="1.8"/>
  <circle class="st9" cx="571.1" cy="180.5" r="3.6"/>
  <path fill="#ceced8" d="M356.7 48.4l9.5-3.9-.9 10.6z"/>
  <path class="st8" d="M303.4 280.5l9.5-3.9-.9 10.5z"/>
  <path class="st9" d="M526.9 147c-.6-6.9 13.5-4.2 11.8-10.5-17.6-65.6-87-97.5-87-97.5-.1 0-69.4 31.9-87 97.5-1.7 6.3 12.4 3.5 11.8 10.5-.8 8.4-16.9 11.9-14.8 36 2.3 26.1 25.5 52.5 26.4 67.1l18.8 1.5v-2.1c0-4.7 3.8-8.5 8.5-8.5s8.5 3.8 8.5 8.5v.6l19.2-9.6v-.4c0-4.8 3.9-8.7 8.7-8.7 4.8 0 8.7 3.9 8.7 8.7v.4l19.1 9.6v-.6c0-4.7 3.8-8.5 8.5-8.5s8.5 3.8 8.5 8.5v.6h19.2c1.9-20.6 23.9-41 26.2-67.1 1.9-24.2-14.3-27.6-15.1-36z"/>
  <path class="st11" d="M429.5 245.1c-3.8-6.5-22.9 2.6-19.1 9.1 14 23.9 6.7 43-2.7 63.4-7.4 15.9-6.2 32.9 4.4 48.4 4.3 6.2 9.2.5 5-5.6-15.7-22.7 5.5-42.8 12.3-62.9 5.4-16.2 9.4-36.5.1-52.4zM470.8 250c3-8 22.9-2.2 19.9 5.9-11.1 29.5-1.8 49.1 9.8 69.5.7 1.2 18.2 16.4 1 54.5-3.5 7.8-9 2.6-5.5-5.1 12.9-28.6-10.2-46.1-19.1-66.8-7.3-16.9-13.5-38.4-6.1-58z"/>
  <path class="st11" d="M469.7 322.7c-2.6-10.2-7.3-18.2-10.2-28.2-3.5-12.2-1-24.6 3.1-36.4 2.5-7.2-17.3-10.1-19.8-2.9-6 17 .8 35 7.6 51.5 4.2 10.4 10.7 19.8 8.9 32-1.7 11.4-7.5 22.5-12.6 32.2-3.5 6.7 3.2 10.8 6.7 4.1 8.2-15.4 21-33.5 16.3-52.3z"/>
  <path class="st11" d="M535 313.9c-3.2-13.2-11-22.8-20.5-32-3.6-3.5-5.7-8.1-5.4-13.1.3-5.2 3.5-9.6 5.8-14.2 2.6-5.1 3.4-10.6 3.8-16.3.5-6.1.3-12.2-.2-18.3-1.3-15-4.4-29.9-8.2-44.5-4.2-16-9.4-31.8-15.4-47.2-5.4-13.9-11.4-27.7-18.7-40.7-4.9-8.8-10.4-18.4-18.3-25-2.2-1.8-5-3.7-8-3.7-5.8 0-11.1 8.8-13.9 12.7-7.2 10.1-13 21.3-18.4 32.4-6.9 14.2-13 28.8-18.3 43.6-5.5 15.2-10.2 30.6-13.6 46.4-2.9 13.3-5 27-4.2 40.7.6 9.6 3.2 18.2 8.1 26.4 4.5 7.6 3.8 16.7-2.8 22.8-9.7 9-17.9 18.3-21.5 31.3-3.3 12-1.6 24.8 6.8 34.3 4.4 5 8.4-.5 3.9-5.4-8.7-9.7-5.1-23.1 1.3-32.9 8.8-13.6 26.7-20.7 32.3-36.4 1.7-4.8 2.6-10.2 2.1-15.4 21.8 1.1 54.4 2.1 78.5-.3-.2 4.4.5 8.9 1.8 13 5.1 15.8 22.7 23.6 31.1 37.4 6.1 10.1 9.2 23.5.3 33-4.6 4.8-.8 10.4 3.8 5.6 8.6-9.4 10.7-22.2 7.8-34.2z"/>
  <g>
    <path class="st12" d="M432.5 216.8c0-12.3 7.8-22.3 17.4-22.3 9.6 0 17.4 10 17.4 22.3s-7.8 0-17.4 0c-9.6 0-17.4 12.4-17.4 0z"/>
    <path class="st13" d="M463.1 202.3c-3.2-4.7-7.9-7.8-13.2-7.8-5.3 0-10 3-13.2 7.8h11.8c.3 0 .6-.2.7-.6l.8-4.8.7 4.6c.1.5.5.8.9.8h11.5z"/>
    <ellipse class="st9" cx="405.6" cy="192.7" rx="12.7" ry="8.3"/>
    <ellipse class="st9" cx="494.3" cy="192.7" rx="12.7" ry="8.3"/>
    <g>
      <path class="st12" d="M404.9 176.9c0-6.5 5.3-11.7 11.7-11.7 6.5 0 11.7 5.3 11.7 11.7h-23.4z"/>
      <path class="st13" d="M413.7 166.6c-4 0-4 6.2 0 6.2s4-6.2 0-6.2zM417 172.3c-1.3 0-1.3 2.1 0 2.1s1.3-2.1 0-2.1z"/>
      <g>
        <path class="st12" d="M498.6 178.7c0-8.4-6.8-15.3-15.3-15.3-8.4 0-15.3 6.8-15.3 15.3h30.6z"/>
        <path class="st13" d="M479.3 165.2c-5.2 0-5.2 8.1 0 8.1 5.3 0 5.3-8.1 0-8.1zM483.6 172.7c-1.7 0-1.7 2.7 0 2.7 1.8 0 1.8-2.7 0-2.7z"/>
      </g>
    </g>
  </g>
</svg>
