<!-- Generated by IcoMoon.io -->
<svg version="1.1" xmlns="http://www.w3.org/2000/svg" width="24" height="24" viewBox="0 0 24 24">
<title>activity</title>
<path d="M12 2.4c-4.697 0-8.6 3.377-9.431 7.833-0.001 0.004-0.002 0.008-0.002 0.012-0.070 0.376-0.112 0.76-0.136 1.151-0 0.006-0.002 0.012-0.002 0.019 0 0 0.002-0 0.002 0-0.012 0.195-0.030 0.388-0.030 0.586 0 5.302 4.298 9.6 9.6 9.6 4.879 0 8.899-3.643 9.511-8.355 0-0.001-0-0.002 0-0.002 0.045-0.351 0.073-0.707 0.080-1.069 0.001-0.058 0.009-0.115 0.009-0.173 0-5.302-4.298-9.6-9.6-9.6zM12 3.6c4.347 0 7.92 3.303 8.353 7.535-0.825-0.511-1.974-0.935-3.553-0.935-2 0-3.302 0.975-4.561 1.92-1.152 0.864-2.239 1.68-3.839 1.68-2.017 0-3.184-1.281-4.123-2.311-0.211-0.232-0.401-0.41-0.595-0.593 0.542-4.116 4.054-7.296 8.318-7.296zM16.8 11.4c1.824 0 2.934 0.661 3.567 1.238-0.327 4.34-3.943 7.762-8.367 7.762-4.455 0-8.090-3.472-8.372-7.856 0.98 1.063 2.404 2.456 4.772 2.456 2 0 3.302-0.975 4.561-1.92 1.152-0.865 2.239-1.68 3.839-1.68z"></path>
</svg>
