<?xml version="1.0" encoding="UTF-8" standalone="no"?>
<!-- Generator: Adobe Illustrator 21.1.0, SVG Export Plug-In . SVG Version: 6.00 Build 0)  -->

<svg
   xmlns:dc="http://purl.org/dc/elements/1.1/"
   xmlns:cc="http://creativecommons.org/ns#"
   xmlns:rdf="http://www.w3.org/1999/02/22-rdf-syntax-ns#"
   xmlns:svg="http://www.w3.org/2000/svg"
   xmlns="http://www.w3.org/2000/svg"
   xmlns:sodipodi="http://sodipodi.sourceforge.net/DTD/sodipodi-0.dtd"
   xmlns:inkscape="http://www.inkscape.org/namespaces/inkscape"
   version="1.1"
   id="Layer_1"
   x="0px"
   y="0px"
   viewBox="0 0 32 32"
   style="enable-background:new 0 0 32 32;"
   xml:space="preserve"
   inkscape:version="0.91 r13725"
   sodipodi:docname="api.svg"><metadata
     id="metadata5318"><rdf:RDF><cc:Work
         rdf:about=""><dc:format>image/svg+xml</dc:format><dc:type
           rdf:resource="http://purl.org/dc/dcmitype/StillImage" /><dc:title></dc:title></cc:Work></rdf:RDF></metadata><defs
     id="defs5316" /><sodipodi:namedview
     pagecolor="#ffffff"
     bordercolor="#666666"
     borderopacity="1"
     objecttolerance="10"
     gridtolerance="10"
     guidetolerance="10"
     inkscape:pageopacity="0"
     inkscape:pageshadow="2"
     inkscape:window-width="1920"
     inkscape:window-height="1017"
     id="namedview5314"
     showgrid="false"
     inkscape:zoom="7.375"
     inkscape:cx="16"
     inkscape:cy="16"
     inkscape:window-x="1912"
     inkscape:window-y="-8"
     inkscape:window-maximized="1"
     inkscape:current-layer="Layer_1" /><style
     type="text/css"
     id="style5288">
	.st0{opacity:0;}
	.st1{fill:#FF3386;}
	.st2{fill:#3389FF;}
</style><g
     class="st0"
     id="g5290"
     style="fill:#000000"><rect
       class="st1"
       width="32"
       height="32"
       id="rect5292"
       style="fill:#000000" /></g><g
     id="g5294"
     style="fill:#000000"><path
       class="st2"
       d="M18.5,12.3h-4.9c-1.8,0-3.3-1.5-3.3-3.3V3.3c0-1.8,1.5-3.3,3.3-3.3h4.9c1.8,0,3.3,1.5,3.3,3.3V9   C21.7,10.8,20.3,12.3,18.5,12.3z M13.5,2c-0.7,0-1.3,0.6-1.3,1.3V9c0,0.7,0.6,1.3,1.3,1.3h4.9c0.7,0,1.3-0.6,1.3-1.3V3.3   c0-0.7-0.6-1.3-1.3-1.3H13.5z"
       id="path5296"
       style="fill:#000000" /></g><g
     id="g5298"
     style="fill:#000000"><path
       class="st2"
       d="M6.1,32C2.8,32,0,29.2,0,25.9c0-3.4,2.8-6.1,6.1-6.1s6.1,2.8,6.1,6.1C12.3,29.2,9.5,32,6.1,32z M6.1,21.7   c-2.3,0-4.1,1.9-4.1,4.1C2,28.1,3.9,30,6.1,30c2.3,0,4.1-1.9,4.1-4.1C10.3,23.6,8.4,21.7,6.1,21.7z"
       id="path5300"
       style="fill:#000000" /></g><g
     id="g5302"
     style="fill:#000000"><path
       class="st2"
       d="M25.9,32c-3.4,0-6.1-2.8-6.1-6.1c0-3.4,2.8-6.1,6.1-6.1s6.1,2.8,6.1,6.1C32,29.2,29.2,32,25.9,32z M25.9,21.7   c-2.3,0-4.1,1.9-4.1,4.1c0,2.3,1.9,4.1,4.1,4.1c2.3,0,4.1-1.9,4.1-4.1C30,23.6,28.1,21.7,25.9,21.7z"
       id="path5304"
       style="fill:#000000" /></g><g
     id="g5306"
     style="fill:#000000"><path
       class="st2"
       d="M10.4,20c-0.2,0-0.4,0-0.5-0.1c-0.5-0.3-0.6-0.9-0.3-1.4l2.6-4.3c0.3-0.5,0.9-0.6,1.4-0.3   c0.5,0.3,0.6,0.9,0.3,1.4l-2.6,4.3C11.1,19.8,10.8,20,10.4,20z"
       id="path5308"
       style="fill:#000000" /></g><g
     id="g5310"
     style="fill:#000000"><path
       class="st2"
       d="M21.6,20c-0.3,0-0.7-0.2-0.9-0.5l-2.6-4.3c-0.3-0.5-0.1-1.1,0.3-1.4s1.1-0.1,1.4,0.3l2.6,4.3   c0.3,0.5,0.1,1.1-0.3,1.4C21.9,20,21.7,20,21.6,20z"
       id="path5312"
       style="fill:#000000" /></g></svg>