<!-- Generated by IcoMoon.io -->
<svg version="1.1" xmlns="http://www.w3.org/2000/svg" width="28" height="28" viewBox="0 0 28 28">
<title>assets</title>
<path d="M21.875 28h-15.75c-3.413 0-6.125-2.713-6.125-6.125v-15.75c0-3.413 2.712-6.125 6.125-6.125h15.75c3.412 0 6.125 2.712 6.125 6.125v15.75c0 3.412-2.713 6.125-6.125 6.125zM6.125 1.75c-2.45 0-4.375 1.925-4.375 4.375v15.75c0 2.45 1.925 4.375 4.375 4.375h15.75c2.45 0 4.375-1.925 4.375-4.375v-15.75c0-2.45-1.925-4.375-4.375-4.375h-15.75z"></path>
<path d="M21.088 23.537h-11.988c-0.35 0-0.612-0.175-0.787-0.525s-0.088-0.7 0.088-0.962l8.225-9.713c0.175-0.175 0.438-0.35 0.7-0.35s0.525 0.175 0.7 0.35l5.25 7.525c0.088 0.087 0.088 0.175 0.088 0.262 0.438 1.225 0.087 2.012-0.175 2.45-0.613 0.875-1.925 0.963-2.1 0.963zM11.025 21.787h10.15c0.175 0 0.612-0.088 0.7-0.262 0.088-0.088 0.088-0.35 0-0.7l-4.55-6.475-6.3 7.438z"></path>
<path d="M9.1 13.737c-2.1 0-3.85-1.75-3.85-3.85s1.75-3.85 3.85-3.85 3.85 1.75 3.85 3.85-1.663 3.85-3.85 3.85zM9.1 7.788c-1.138 0-2.1 0.875-2.1 2.1s0.962 2.1 2.1 2.1 2.1-0.962 2.1-2.1-0.875-2.1-2.1-2.1z"></path>
</svg>
