<?xml version="1.0" encoding="UTF-8" standalone="no"?>
<!-- Generator: Adobe Illustrator 21.1.0, SVG Export Plug-In . SVG Version: 6.00 Build 0)  -->

<svg
   xmlns:dc="http://purl.org/dc/elements/1.1/"
   xmlns:cc="http://creativecommons.org/ns#"
   xmlns:rdf="http://www.w3.org/1999/02/22-rdf-syntax-ns#"
   xmlns:svg="http://www.w3.org/2000/svg"
   xmlns="http://www.w3.org/2000/svg"
   xmlns:sodipodi="http://sodipodi.sourceforge.net/DTD/sodipodi-0.dtd"
   xmlns:inkscape="http://www.inkscape.org/namespaces/inkscape"
   version="1.1"
   id="Layer_1"
   x="0px"
   y="0px"
   viewBox="0 0 32 32"
   style="enable-background:new 0 0 32 32;"
   xml:space="preserve"
   inkscape:version="0.91 r13725"
   sodipodi:docname="assets.svg"><metadata
     id="metadata4745"><rdf:RDF><cc:Work
         rdf:about=""><dc:format>image/svg+xml</dc:format><dc:type
           rdf:resource="http://purl.org/dc/dcmitype/StillImage" /><dc:title></dc:title></cc:Work></rdf:RDF></metadata><defs
     id="defs4743" /><sodipodi:namedview
     pagecolor="#ffffff"
     bordercolor="#666666"
     borderopacity="1"
     objecttolerance="10"
     gridtolerance="10"
     guidetolerance="10"
     inkscape:pageopacity="0"
     inkscape:pageshadow="2"
     inkscape:window-width="1920"
     inkscape:window-height="1017"
     id="namedview4741"
     showgrid="false"
     inkscape:zoom="7.375"
     inkscape:cx="16"
     inkscape:cy="16"
     inkscape:window-x="1912"
     inkscape:window-y="-8"
     inkscape:window-maximized="1"
     inkscape:current-layer="Layer_1" /><style
     type="text/css"
     id="style4723">
	.st0{opacity:0;}
	.st1{fill:#FF3386;}
	.st2{fill:#3389FF;}
</style><g
     class="st0"
     id="g4725"
     style="fill:#000000"><rect
       class="st1"
       width="32"
       height="32"
       id="rect4727"
       style="fill:#000000" /></g><g
     id="g4729"
     style="fill:#000000"><path
       class="st2"
       d="M25,32H7c-3.9,0-7-3.1-7-7V7c0-3.9,3.1-7,7-7h18c3.9,0,7,3.1,7,7v18C32,28.9,28.9,32,25,32z M7,2   C4.2,2,2,4.2,2,7v18c0,2.8,2.2,5,5,5h18c2.8,0,5-2.2,5-5V7c0-2.8-2.2-5-5-5H7z"
       id="path4731"
       style="fill:#000000" /></g><g
     id="g4733"
     style="fill:#000000"><path
       class="st2"
       d="M24.1,26.9H10.4c-0.4,0-0.7-0.2-0.9-0.6c-0.2-0.4-0.1-0.8,0.1-1.1l9.4-11.1c0.2-0.2,0.5-0.4,0.8-0.4   c0.3,0,0.6,0.2,0.8,0.4l6,8.6c0.1,0.1,0.1,0.2,0.1,0.3c0.5,1.4,0.1,2.3-0.2,2.8C25.8,26.8,24.3,26.9,24.1,26.9z M12.6,24.9h11.6   c0.2,0,0.7-0.1,0.8-0.3c0.1-0.1,0.1-0.4,0-0.8l-5.2-7.4L12.6,24.9z"
       id="path4735"
       style="fill:#000000" /></g><g
     id="g4737"
     style="fill:#000000"><path
       class="st2"
       d="M10.4,15.7c-2.4,0-4.4-2-4.4-4.4s2-4.4,4.4-4.4s4.4,2,4.4,4.4S12.9,15.7,10.4,15.7z M10.4,8.9   C9.1,8.9,8,9.9,8,11.3s1.1,2.4,2.4,2.4s2.4-1.1,2.4-2.4S11.8,8.9,10.4,8.9z"
       id="path4739"
       style="fill:#000000" /></g></svg>