<!-- Generated by IcoMoon.io -->
<svg version="1.1" xmlns="http://www.w3.org/2000/svg" width="24" height="24" viewBox="0 0 24 24">
<title>backup</title>
<path d="M12 3c4.969 0 9 4.031 9 9s-4.031 9-9 9c-2.063 0-3.984-0.703-5.484-1.875l1.406-1.406c1.172 0.797 2.578 1.266 4.078 1.266 3.891 0 6.984-3.094 6.984-6.984s-3.094-6.984-6.984-6.984-6.984 3.094-6.984 6.984h3l-4.031 3.984-3.984-3.984h3c0-4.969 4.031-9 9-9zM14.016 12c0 1.078-0.938 2.016-2.016 2.016s-2.016-0.938-2.016-2.016 0.938-2.016 2.016-2.016 2.016 0.938 2.016 2.016z"></path>
</svg>
