<!-- Generated by IcoMoon.io -->
<svg version="1.1" xmlns="http://www.w3.org/2000/svg" width="18" height="32" viewBox="0 0 18 32">
<title>caret-top</title>
<path d="M18.286 25.143c0 0.625-0.518 1.143-1.143 1.143h-16c-0.625 0-1.143-0.518-1.143-1.143 0-0.304 0.125-0.59 0.339-0.803l8-8c0.214-0.214 0.501-0.339 0.803-0.339s0.59 0.125 0.803 0.339l8 8c0.214 0.214 0.339 0.501 0.339 0.803z"></path>
<path d="M18.286 14.857c0 0.625-0.518 1.143-1.143 1.143h-16c-0.625 0-1.143-0.518-1.143-1.143 0-0.304 0.125-0.59 0.339-0.803l8-8c0.214-0.214 0.501-0.339 0.803-0.339s0.59 0.125 0.803 0.339l8 8c0.214 0.214 0.339 0.501 0.339 0.803z"></path>
</svg>
