<?xml version="1.0" encoding="UTF-8" standalone="no"?>
<!-- Generated by IcoMoon.io -->

<svg
   xmlns:dc="http://purl.org/dc/elements/1.1/"
   xmlns:cc="http://creativecommons.org/ns#"
   xmlns:rdf="http://www.w3.org/1999/02/22-rdf-syntax-ns#"
   xmlns:svg="http://www.w3.org/2000/svg"
   xmlns="http://www.w3.org/2000/svg"
   xmlns:sodipodi="http://sodipodi.sourceforge.net/DTD/sodipodi-0.dtd"
   xmlns:inkscape="http://www.inkscape.org/namespaces/inkscape"
   version="1.1"
   width="16"
   height="28"
   viewBox="0 0 16 28"
   id="svg6"
   sodipodi:docname="caret-down.svg"
   inkscape:version="0.92.3 (2405546, 2018-03-11)">
  <metadata
     id="metadata12">
    <rdf:RDF>
      <cc:Work
         rdf:about="">
        <dc:format>image/svg+xml</dc:format>
        <dc:type
           rdf:resource="http://purl.org/dc/dcmitype/StillImage" />
      </cc:Work>
    </rdf:RDF>
  </metadata>
  <defs
     id="defs10" />
  <sodipodi:namedview
     pagecolor="#ffffff"
     bordercolor="#666666"
     borderopacity="1"
     objecttolerance="10"
     gridtolerance="10"
     guidetolerance="10"
     inkscape:pageopacity="0"
     inkscape:pageshadow="2"
     inkscape:window-width="1278"
     inkscape:window-height="1008"
     id="namedview8"
     showgrid="false"
     inkscape:zoom="2"
     inkscape:cx="-140.31126"
     inkscape:cy="32.033384"
     inkscape:window-x="1913"
     inkscape:window-y="0"
     inkscape:window-maximized="0"
     inkscape:current-layer="svg6" />
  <title
     id="title2">caret-down</title>
  <g
     id="g3749"
     transform="translate(0,-0.0039063)">
    <path
       inkscape:connector-curvature="0"
       id="path4"
       d="m 16,15.003503 c 0,0.266 -0.109,0.516 -0.297,0.703 l -7,7 c -0.187,0.187 -0.438,0.297 -0.703,0.297 -0.265,0 -0.516,-0.109 -0.703,-0.297 l -7,-7 C 0.11,15.519503 0,15.268503 0,15.003503 c 0,-0.547 0.453,-1 0.99999997,-1 H 15 c 0.547,0 1,0.453 1,1 z" />
    <path
       id="path4-7"
       d="m 15.999999,6.0043096 c 0,0.266 -0.109,0.516 -0.297,0.703 L 8.7029995,13.707309 c -0.1869999,0.187 -0.438,0.297001 -0.7029999,0.297001 -0.2650001,0 -0.5160001,-0.109 -0.7030001,-0.297001 L 0.297,6.7073096 C 0.11,6.5203096 0,6.2693096 0,6.0043096 c 0,-0.547 0.453,-1 0.99999986,-1 H 14.999999 c 0.547,0 1,0.453 1,1 z"
       inkscape:connector-curvature="0" />
  </g>
</svg>
