<?xml version="1.0" encoding="UTF-8" standalone="no"?>
<!-- Generated by IcoMoon.io -->

<svg
   xmlns:dc="http://purl.org/dc/elements/1.1/"
   xmlns:cc="http://creativecommons.org/ns#"
   xmlns:rdf="http://www.w3.org/1999/02/22-rdf-syntax-ns#"
   xmlns:svg="http://www.w3.org/2000/svg"
   xmlns="http://www.w3.org/2000/svg"
   xmlns:sodipodi="http://sodipodi.sourceforge.net/DTD/sodipodi-0.dtd"
   xmlns:inkscape="http://www.inkscape.org/namespaces/inkscape"
   version="1.1"
   width="16"
   height="28"
   viewBox="0 0 16 28"
   id="svg6"
   sodipodi:docname="caret-up.svg"
   inkscape:version="0.92.3 (2405546, 2018-03-11)">
  <metadata
     id="metadata12">
    <rdf:RDF>
      <cc:Work
         rdf:about="">
        <dc:format>image/svg+xml</dc:format>
        <dc:type
           rdf:resource="http://purl.org/dc/dcmitype/StillImage" />
      </cc:Work>
    </rdf:RDF>
  </metadata>
  <defs
     id="defs10" />
  <sodipodi:namedview
     pagecolor="#ffffff"
     bordercolor="#666666"
     borderopacity="1"
     objecttolerance="10"
     gridtolerance="10"
     guidetolerance="10"
     inkscape:pageopacity="0"
     inkscape:pageshadow="2"
     inkscape:window-width="1278"
     inkscape:window-height="1008"
     id="namedview8"
     showgrid="false"
     inkscape:zoom="16"
     inkscape:cx="9.6379344"
     inkscape:cy="17.322397"
     inkscape:window-x="3193"
     inkscape:window-y="0"
     inkscape:window-maximized="0"
     inkscape:current-layer="svg6" />
  <title
     id="title2">caret-up</title>
  <g
     id="g3734"
     transform="translate(0.06567746,3.0040716)">
    <path
       inkscape:connector-curvature="0"
       id="path4"
       d="m 15.934323,18.996094 c 0,0.547 -0.453,1 -1,1 H 0.93432208 c -0.547,0 -1,-0.453 -1,-1 0,-0.266 0.109,-0.516 0.297,-0.703 l 7.00000002,-7 c 0.187,-0.187 0.438,-0.297 0.703,-0.297 0.265,0 0.516,0.109 0.703,0.297 l 6.9999999,7 c 0.187001,0.187 0.297001,0.438 0.297001,0.703 z" />
    <path
       id="path4-0"
       d="m 15.934323,9.9957628 c 0,0.5470002 -0.453,1.0000002 -1,1.0000002 H 0.93432253 c -0.54699995,0 -0.99999995,-0.453 -0.99999995,-1.0000002 0,-0.266 0.109,-0.516 0.297,-0.703 l 7.00000002,-7 c 0.187,-0.187 0.438,-0.297 0.7030002,-0.297 0.265,0 0.516,0.109 0.703,0.297 l 7.0000002,7 c 0.186999,0.187 0.297,0.438 0.297,0.703 z"
       inkscape:connector-curvature="0" />
  </g>
</svg>
