<?xml version="1.0" encoding="UTF-8" standalone="no"?>
<!-- Generator: Adobe Illustrator 16.0.0, SVG Export Plug-In . SVG Version: 6.00 Build 0)  -->

<svg
   xmlns:dc="http://purl.org/dc/elements/1.1/"
   xmlns:cc="http://creativecommons.org/ns#"
   xmlns:rdf="http://www.w3.org/1999/02/22-rdf-syntax-ns#"
   xmlns:svg="http://www.w3.org/2000/svg"
   xmlns="http://www.w3.org/2000/svg"
   xmlns:sodipodi="http://sodipodi.sourceforge.net/DTD/sodipodi-0.dtd"
   xmlns:inkscape="http://www.inkscape.org/namespaces/inkscape"
   version="1.1"
   id="Layer_1"
   x="0px"
   y="0px"
   width="20px"
   height="20px"
   viewBox="0 0 20 20"
   enable-background="new 0 0 20 20"
   xml:space="preserve"
   inkscape:version="0.91 r13725"
   sodipodi:docname="Default.svg"><metadata
     id="metadata15"><rdf:RDF><cc:Work
         rdf:about=""><dc:format>image/svg+xml</dc:format><dc:type
           rdf:resource="http://purl.org/dc/dcmitype/StillImage" /></cc:Work></rdf:RDF></metadata><defs
     id="defs13" /><sodipodi:namedview
     pagecolor="#ffffff"
     bordercolor="#666666"
     borderopacity="1"
     objecttolerance="10"
     gridtolerance="10"
     guidetolerance="10"
     inkscape:pageopacity="0"
     inkscape:pageshadow="2"
     inkscape:window-width="742"
     inkscape:window-height="480"
     id="namedview11"
     showgrid="false"
     inkscape:zoom="11.8"
     inkscape:cx="10"
     inkscape:cy="10"
     inkscape:window-x="2253"
     inkscape:window-y="123"
     inkscape:window-maximized="0"
     inkscape:current-layer="Layer_1" /><path
     style="fill:#000000"
     d="M 10 2 C 5.582 2 2 5.582 2 10 C 2 14.418 5.582 18 10 18 C 14.418 18 18 14.418 18 10 C 18 5.582 14.418 2 10 2 z M 10 3 C 13.86 3 17 6.141 17 10 C 17 13.859 13.86 17 10 17 C 6.14 17 3 13.859 3 10 C 3 6.141 6.14 3 10 3 z M 13.513672 6.5039062 C 13.261855 6.5039491 13.010123 6.5992522 12.820312 6.7890625 L 8.4804688 11.123047 L 7.1582031 9.8046875 C 6.7834028 9.4278502 6.1604444 9.4293993 5.7851562 9.8046875 C 5.4111367 10.178707 5.4111368 10.801762 5.7851562 11.175781 C 5.7890263 11.179681 6.2968299 11.6969 6.8007812 12.210938 C 7.0537168 12.468934 7.3039303 12.72601 7.4882812 12.914062 C 7.5804563 13.008093 7.6563959 13.085058 7.7070312 13.136719 C 7.7323493 13.162549 7.7518229 13.181269 7.7636719 13.193359 C 7.7691119 13.198859 7.7732116 13.202858 7.7753906 13.205078 C 7.775403 13.205091 7.9236547 13.05998 8.0605469 12.925781 L 7.7773438 13.207031 L 7.7792969 13.208984 L 7.78125 13.210938 L 7.78125 13.212891 C 8.1607367 13.590369 8.7884819 13.590369 9.1679688 13.212891 L 9.1679688 13.210938 L 14.208984 8.1796875 C 14.590742 7.7998618 14.590252 7.1663176 14.207031 6.7871094 C 14.016977 6.5980603 13.765488 6.5038635 13.513672 6.5039062 z "
     id="path7" /></svg>