<!-- Generated by IcoMoon.io -->
<svg version="1.1" xmlns="http://www.w3.org/2000/svg" width="24" height="24" viewBox="0 0 24 24">
<title>check-circle</title>
<path d="M12 2.4c-5.302 0-9.6 4.298-9.6 9.6s4.298 9.6 9.6 9.6c5.302 0 9.6-4.298 9.6-9.6s-4.298-9.6-9.6-9.6zM12 3.6c4.632 0 8.4 3.769 8.4 8.4s-3.768 8.4-8.4 8.4c-4.632 0-8.4-3.769-8.4-8.4s3.768-8.4 8.4-8.4zM16.216 7.805c-0.302 0-0.604 0.114-0.832 0.342l-5.208 5.201-1.587-1.582c-0.45-0.452-1.197-0.45-1.648 0-0.449 0.449-0.449 1.196 0 1.645 0.005 0.005 0.614 0.625 1.219 1.242 0.304 0.31 0.604 0.618 0.825 0.844 0.111 0.113 0.202 0.205 0.263 0.267 0.030 0.031 0.054 0.053 0.068 0.068 0.007 0.007 0.011 0.011 0.014 0.014 0 0 0.178-0.174 0.342-0.335l-0.34 0.338 0.005 0.005v0.002c0.455 0.453 1.209 0.453 1.664 0v-0.002l6.049-6.038c0.458-0.456 0.458-1.216-0.002-1.671-0.228-0.227-0.53-0.34-0.832-0.34z"></path>
</svg>
