<!-- Generated by IcoMoon.io -->
<svg version="1.1" xmlns="http://www.w3.org/2000/svg" width="24" height="24" viewBox="0 0 24 24">
<title>close</title>
<path d="M14.087 12l6.486 6.486c0.575 0.576 0.575 1.509 0 2.086-0.577 0.576-1.509 0.576-2.086 0l-6.486-6.486-6.486 6.486c-0.574 0.576-1.509 0.576-2.087 0-0.575-0.577-0.575-1.51 0-2.086l6.486-6.486-6.486-6.486c-0.575-0.576-0.575-1.509 0-2.087 0.577-0.576 1.512-0.576 2.087 0l6.486 6.486 6.486-6.486c0.577-0.576 1.509-0.576 2.086 0 0.575 0.577 0.575 1.51 0 2.087l-6.486 6.486z"></path>
</svg>
