<?xml version="1.0" encoding="UTF-8" standalone="no"?>
<!-- Generated by IcoMoon.io -->

<svg
   version="1.1"
   width="28"
   height="28"
   viewBox="0 0 28 28"
   id="svg12"
   sodipodi:docname="component.svg"
   inkscape:version="1.1 (c68e22c387, 2021-05-23)"
   xmlns:inkscape="http://www.inkscape.org/namespaces/inkscape"
   xmlns:sodipodi="http://sodipodi.sourceforge.net/DTD/sodipodi-0.dtd"
   xmlns="http://www.w3.org/2000/svg"
   xmlns:svg="http://www.w3.org/2000/svg"
   xmlns:rdf="http://www.w3.org/1999/02/22-rdf-syntax-ns#"
   xmlns:cc="http://creativecommons.org/ns#"
   xmlns:dc="http://purl.org/dc/elements/1.1/">
  <metadata
     id="metadata18">
    <rdf:RDF>
      <cc:Work
         rdf:about="">
        <dc:format>image/svg+xml</dc:format>
        <dc:type
           rdf:resource="http://purl.org/dc/dcmitype/StillImage" />
        <dc:title>single-content</dc:title>
      </cc:Work>
    </rdf:RDF>
  </metadata>
  <defs
     id="defs16" />
  <sodipodi:namedview
     pagecolor="#ffffff"
     bordercolor="#666666"
     borderopacity="1"
     objecttolerance="10"
     gridtolerance="10"
     guidetolerance="10"
     inkscape:pageopacity="0"
     inkscape:pageshadow="2"
     inkscape:window-width="2560"
     inkscape:window-height="1017"
     id="namedview14"
     showgrid="false"
     inkscape:zoom="2.97995"
     inkscape:cx="-81.880567"
     inkscape:cy="77.35029"
     inkscape:window-x="-8"
     inkscape:window-y="2"
     inkscape:window-maximized="1"
     inkscape:current-layer="svg12"
     inkscape:pagecheckerboard="0" />
  <title
     id="title2">single-content</title>
  <path
     d="M 6.875,2.75 C 4.472,2.75 2.5,4.722 2.5,7.125 V 21.5 c 0,2.403 1.972,4.375 4.375,4.375 H 21.25 c 2.403,0 4.375,-1.972 4.375,-4.375 V 7.125 C 25.625,4.722 23.653,2.75 21.25,2.75 Z m 0,1.25 H 21.25 c 1.722,0 3.125,1.403 3.125,3.125 V 21.5 c 0,1.722 -1.403,3.125 -3.125,3.125 H 6.875 C 5.153,24.625 3.75,23.222 3.75,21.5 V 7.125 C 3.75,5.403 5.153,4 6.875,4 Z"
     id="path4" />
  <g
     id="g847"
     transform="translate(0,-1.1249995)">
    <path
       inkscape:connector-curvature="0"
       d="m 10.875,7.8749991 c -2.403,0 -4.375,1.972 -4.375,4.3750009 v 6.375 C 6.5,21.028 8.472,23 10.875,23 h 6.375 c 2.403,0 4.375,-1.972 4.375,-4.375 V 12.25 c 0,-2.4030009 -1.972,-4.3750009 -4.375,-4.3750009 z m 0,1.25 h 6.375 c 1.722,0 3.125,1.4029999 3.125,3.1250009 v 6.375 c 0,1.722 -1.403,3.125 -3.125,3.125 H 10.875 C 9.153,21.75 7.75,20.347 7.75,18.625 V 12.25 c 0,-1.722001 1.403,-3.1250009 3.125,-3.1250009 z"
       id="path4-2"
       sodipodi:nodetypes="ssssssssssssssssss" />
    <path
       inkscape:connector-curvature="0"
       d="M 9.875,12.728814 H 9.866 c -0.345,0 -0.625,0.28 -0.625,0.625 0,0.345 0.28,0.625 0.625,0.625 h 0.009 8.375 0.009 c 0.345,0 0.625,-0.28 0.625,-0.625 0,-0.345 -0.97,-0.625 -0.625,-0.625 H 18.25 v 0 z"
       id="path6-4"
       sodipodi:nodetypes="csssccsssccc" />
    <path
       inkscape:connector-curvature="0"
       d="m 11,16.478814 h -0.009 c -0.345,0 -0.625,0.28 -0.625,0.625 0,0.345 0.28,0.625 0.625,0.625 H 11 h 6.125 0.009 c 0.345,0 0.625,-0.28 0.625,-0.625 0,-0.345 -0.28,-0.625 -0.625,-0.625 h -0.009 v 0 z"
       id="path8-6"
       sodipodi:nodetypes="csssccsssccc" />
  </g>
</svg>
