<?xml version="1.0" encoding="UTF-8" standalone="no"?>
<!-- Generated by IcoMoon.io -->

<svg
   xmlns:dc="http://purl.org/dc/elements/1.1/"
   xmlns:cc="http://creativecommons.org/ns#"
   xmlns:rdf="http://www.w3.org/1999/02/22-rdf-syntax-ns#"
   xmlns:svg="http://www.w3.org/2000/svg"
   xmlns="http://www.w3.org/2000/svg"
   xmlns:sodipodi="http://sodipodi.sourceforge.net/DTD/sodipodi-0.dtd"
   xmlns:inkscape="http://www.inkscape.org/namespaces/inkscape"
   version="1.1"
   width="28"
   height="28"
   viewBox="0 0 28 28"
   id="svg12"
   sodipodi:docname="component.svg"
   inkscape:version="0.92.4 (5da689c313, 2019-01-14)">
  <metadata
     id="metadata18">
    <rdf:RDF>
      <cc:Work
         rdf:about="">
        <dc:format>image/svg+xml</dc:format>
        <dc:type
           rdf:resource="http://purl.org/dc/dcmitype/StillImage" />
        <dc:title>single-content</dc:title>
      </cc:Work>
    </rdf:RDF>
  </metadata>
  <defs
     id="defs16" />
  <sodipodi:namedview
     pagecolor="#ffffff"
     bordercolor="#666666"
     borderopacity="1"
     objecttolerance="10"
     gridtolerance="10"
     guidetolerance="10"
     inkscape:pageopacity="0"
     inkscape:pageshadow="2"
     inkscape:window-width="2560"
     inkscape:window-height="1017"
     id="namedview14"
     showgrid="false"
     inkscape:zoom="16.857143"
     inkscape:cx="41.190874"
     inkscape:cy="19.905555"
     inkscape:window-x="1912"
     inkscape:window-y="-8"
     inkscape:window-maximized="1"
     inkscape:current-layer="svg12" />
  <title
     id="title2">single-content</title>
  <path
     d="M6.875 2.75c-2.403 0-4.375 1.972-4.375 4.375v14.375c0 2.403 1.972 4.375 4.375 4.375h14.375c2.403 0 4.375-1.972 4.375-4.375v-14.375c0-2.403-1.972-4.375-4.375-4.375zM6.875 4h14.375c1.722 0 3.125 1.403 3.125 3.125v14.375c0 1.722-1.403 3.125-3.125 3.125h-14.375c-1.722 0-3.125-1.403-3.125-3.125v-14.375c0-1.722 1.403-3.125 3.125-3.125z"
     id="path4" />
  <path
     inkscape:connector-curvature="0"
     d="m 11.875,7.8749991 c -2.403,0 -4.375,1.972 -4.375,4.3750009 v 6.375 C 7.5,21.028 9.472,23 11.875,23 h 6.375 c 2.403,0 4.375,-1.972 4.375,-4.375 V 12.25 c 0,-2.4030009 -1.972,-4.3750009 -4.375,-4.3750009 z m 0,1.25 h 6.375 c 1.722,0 3.125,1.4029999 3.125,3.1250009 v 6.375 c 0,1.722 -1.403,3.125 -3.125,3.125 H 11.875 C 10.153,21.75 8.75,20.347 8.75,18.625 V 12.25 c 0,-1.722001 1.403,-3.1250009 3.125,-3.1250009 z"
     id="path4-2"
     sodipodi:nodetypes="ssssssssssssssssss" />
  <path
     inkscape:connector-curvature="0"
     d="m 11.103814,12.728814 h -0.009 c -0.345,0 -0.625,0.28 -0.625,0.625 0,0.345 0.28,0.625 0.625,0.625 h 0.009 8.375 0.009 c 0.345,0 0.625,-0.28 0.625,-0.625 0,-0.345 -0.97,-0.625 -0.625,-0.625 h -0.009 v 0 z"
     id="path6-4"
     sodipodi:nodetypes="csssccsssccc" />
  <path
     inkscape:connector-curvature="0"
     d="m 11.103814,16.478814 h -0.009 c -0.345,0 -0.625,0.28 -0.625,0.625 0,0.345 0.28,0.625 0.625,0.625 h 0.009 6.125 0.009 c 0.345,0 0.625,-0.28 0.625,-0.625 0,-0.345 -0.28,-0.625 -0.625,-0.625 h -0.009 v 0 z"
     id="path8-6"
     sodipodi:nodetypes="csssccsssccc" />
</svg>
