<?xml version="1.0" encoding="UTF-8" standalone="no"?>
<!-- Generator: Adobe Illustrator 21.1.0, SVG Export Plug-In . SVG Version: 6.00 Build 0)  -->

<svg
   xmlns:dc="http://purl.org/dc/elements/1.1/"
   xmlns:cc="http://creativecommons.org/ns#"
   xmlns:rdf="http://www.w3.org/1999/02/22-rdf-syntax-ns#"
   xmlns:svg="http://www.w3.org/2000/svg"
   xmlns="http://www.w3.org/2000/svg"
   xmlns:sodipodi="http://sodipodi.sourceforge.net/DTD/sodipodi-0.dtd"
   xmlns:inkscape="http://www.inkscape.org/namespaces/inkscape"
   version="1.1"
   id="Layer_1"
   x="0px"
   y="0px"
   viewBox="0 0 32 32"
   style="enable-background:new 0 0 32 32;"
   xml:space="preserve"
   inkscape:version="0.91 r13725"
   sodipodi:docname="content.svg"><metadata
     id="metadata4180"><rdf:RDF><cc:Work
         rdf:about=""><dc:format>image/svg+xml</dc:format><dc:type
           rdf:resource="http://purl.org/dc/dcmitype/StillImage" /><dc:title></dc:title></cc:Work></rdf:RDF></metadata><defs
     id="defs4178" /><sodipodi:namedview
     pagecolor="#ffffff"
     bordercolor="#666666"
     borderopacity="1"
     objecttolerance="10"
     gridtolerance="10"
     guidetolerance="10"
     inkscape:pageopacity="0"
     inkscape:pageshadow="2"
     inkscape:window-width="1920"
     inkscape:window-height="1017"
     id="namedview4176"
     showgrid="false"
     inkscape:zoom="7.375"
     inkscape:cx="12.474576"
     inkscape:cy="16"
     inkscape:window-x="1912"
     inkscape:window-y="-8"
     inkscape:window-maximized="1"
     inkscape:current-layer="Layer_1" /><style
     type="text/css"
     id="style4154">
	.st0{opacity:0;}
	.st1{fill:#FF3386;}
	.st2{fill:#3389FF;}
</style><g
     class="st0"
     id="g4156"
     style="fill:#000000"><rect
       class="st1"
       width="32"
       height="32"
       id="rect4158"
       style="fill:#000000" /></g><g
     id="g4160"
     style="fill:#000000"><path
       class="st2"
       d="M25,32H7c-3.9,0-7-3.1-7-7V7c0-3.9,3.1-7,7-7h18c3.9,0,7,3.1,7,7v18C32,28.9,28.9,32,25,32z M7,2   C4.2,2,2,4.2,2,7v18c0,2.8,2.2,5,5,5h18c2.8,0,5-2.2,5-5V7c0-2.8-2.2-5-5-5H7z"
       id="path4162"
       style="fill:#000000" /></g><g
     id="g4164"
     style="fill:#000000"><path
       class="st2"
       d="M15,14H8.4c-1.8,0-3.3-1.5-3.3-3.3V8.4c0-1.8,1.5-3.3,3.3-3.3H15c1.8,0,3.3,1.5,3.3,3.3v2.3   C18.3,12.5,16.8,14,15,14z M8.4,7.1c-0.7,0-1.3,0.6-1.3,1.3v2.3c0,0.7,0.6,1.3,1.3,1.3H15c0.7,0,1.3-0.6,1.3-1.3V8.4   c0-0.7-0.6-1.3-1.3-1.3H8.4z"
       id="path4166"
       style="fill:#000000" /></g><g
     id="g4168"
     style="fill:#000000"><path
       class="st2"
       d="M25.9,19.1H6.1c-0.6,0-1-0.4-1-1s0.4-1,1-1h19.7c0.6,0,1,0.4,1,1S26.4,19.1,25.9,19.1z"
       id="path4170"
       style="fill:#000000" /></g><g
     id="g4172"
     style="fill:#000000"><path
       class="st2"
       d="M17.3,24.3H6.1c-0.6,0-1-0.4-1-1s0.4-1,1-1h11.1c0.6,0,1,0.4,1,1S17.8,24.3,17.3,24.3z"
       id="path4174"
       style="fill:#000000" /></g></svg>