<!-- Generated by IcoMoon.io -->
<svg version="1.1" xmlns="http://www.w3.org/2000/svg" width="24" height="24" viewBox="0 0 24 24">
<title>control-Input</title>
<path d="M12 0c-0.332 0-0.6 0.268-0.6 0.6s0.268 0.6 0.6 0.6h3v20.4h-3c-0.332 0-0.6 0.268-0.6 0.6s0.268 0.6 0.6 0.6h7.2c0.332 0 0.6-0.268 0.6-0.6s-0.268-0.6-0.6-0.6h-3v-20.4h3c0.332 0 0.6-0.268 0.6-0.6s-0.268-0.6-0.6-0.6h-7.2zM1.2 4.8c-0.662 0-1.2 0.538-1.2 1.2v10.8c0 0.662 0.538 1.2 1.2 1.2h12.6v-1.2h-12c-0.331 0-0.6-0.268-0.6-0.6v-9.6c0-0.332 0.269-0.6 0.6-0.6h12v-1.2h-12.6zM17.4 4.8v1.2h4.8c0.332 0 0.6 0.268 0.6 0.6v9.6c0 0.332-0.268 0.6-0.6 0.6h-4.8v1.2h5.4c0.662 0 1.2-0.538 1.2-1.2v-10.8c0-0.662-0.538-1.2-1.2-1.2h-5.4zM6.701 7.195c-0.014 0.001-0.027 0.001-0.041 0.004-0.193 0.001-0.384 0.105-0.489 0.306l-3.107 7.178c-0.156 0.299-0.067 0.679 0.199 0.848s0.609 0.064 0.764-0.234l0.648-1.496h3.996c0.012 0 0.021-0.005 0.033-0.006l0.643 1.501c0.155 0.299 0.495 0.405 0.759 0.236s0.352-0.55 0.197-0.848l-3.077-7.178c-0.104-0.201-0.291-0.304-0.484-0.306-0.014-0.002-0.028-0.002-0.042-0.004zM6.701 9.121l1.492 3.479h-2.998l1.506-3.479z"></path>
</svg>
