<?xml version="1.0" encoding="utf-8"?>
<!-- Generator: Adobe Illustrator 21.1.0, SVG Export Plug-In . SVG Version: 6.00 Build 0)  -->
<svg version="1.1"
	 id="Layer_1" inkscape:version="0.91 r13725" sodipodi:docname="Input.svg" xmlns:cc="http://creativecommons.org/ns#" xmlns:dc="http://purl.org/dc/elements/1.1/" xmlns:inkscape="http://www.inkscape.org/namespaces/inkscape" xmlns:rdf="http://www.w3.org/1999/02/22-rdf-syntax-ns#" xmlns:sodipodi="http://sodipodi.sourceforge.net/DTD/sodipodi-0.dtd" xmlns:svg="http://www.w3.org/2000/svg"
	 xmlns="http://www.w3.org/2000/svg" xmlns:xlink="http://www.w3.org/1999/xlink" x="0px" y="0px" viewBox="0 0 40 40"
	 style="enable-background:new 0 0 40 40;" xml:space="preserve">
<sodipodi:namedview  bordercolor="#666666" borderopacity="1" gridtolerance="10" guidetolerance="10" id="namedview11" inkscape:current-layer="Layer_1" inkscape:cx="20" inkscape:cy="20" inkscape:pageopacity="0" inkscape:pageshadow="2" inkscape:window-height="480" inkscape:window-maximized="0" inkscape:window-width="742" inkscape:window-x="2227" inkscape:window-y="307" inkscape:zoom="5.9" objecttolerance="10" pagecolor="#ffffff" showgrid="false">
	</sodipodi:namedview>
<path id="path3" d="M20,0c-0.6,0-1,0.4-1,1s0.4,1,1,1h5v34h-5c-0.6,0-1,0.4-1,1s0.4,1,1,1h12c0.6,0,1-0.4,1-1s-0.4-1-1-1h-5V2h5
	c0.6,0,1-0.4,1-1s-0.4-1-1-1H20z M2,8c-1.1,0-2,0.9-2,2v18c0,1.1,0.9,2,2,2h21v-2H3c-0.6,0-1-0.4-1-1V11c0-0.6,0.4-1,1-1h20V8H2z
	 M29,8v2h8c0.6,0,1,0.4,1,1v16c0,0.6-0.4,1-1,1h-8v2h9c1.1,0,2-0.9,2-2V10c0-1.1-0.9-2-2-2H29z"/>
<g>
	<path d="M15.1,23.7c0,0.5-0.3,0.9-0.8,1c-1.1,0.4-2.3,0.6-3.6,0.6c-1.4,0-2.6-0.4-3.3-1c-0.7-0.6-1-1.5-1-2.6s0.4-2,1-2.6
		c0.7-0.7,1.8-0.9,3.3-0.9h2.7v-1.5c0-1.4-1-2.1-2.5-2.1c-0.9,0-1.8,0.3-2.7,0.8c-0.1,0.1-0.2,0.1-0.4,0.1c-0.4,0-0.8-0.3-0.8-0.8
		c0-0.3,0.1-0.5,0.4-0.7C8.6,13.2,9.8,13,11,13c2.2,0,4.1,1.2,4.1,3.6V23.7z M13.5,19.6h-2.7c-2.4,0-2.7,1.1-2.7,2.1
		s0.3,2.2,2.7,2.2c0.9,0,1.8-0.1,2.7-0.4V19.6z"/>
</g>
</svg>
