<!-- Generated by IcoMoon.io -->
<svg version="1.1" xmlns="http://www.w3.org/2000/svg" width="28" height="28" viewBox="0 0 28 28">
<title>control-Date</title>
<path d="M25.9 2.8h-3.5v-0.7c0-0.386-0.314-0.7-0.7-0.7s-0.7 0.314-0.7 0.7v0.7h-14v-0.7c0-0.386-0.315-0.7-0.7-0.7s-0.7 0.314-0.7 0.7v0.7h-3.5c-1.158 0-2.1 0.942-2.1 2.1v19.6c0 1.158 0.942 2.1 2.1 2.1h23.8c1.158 0 2.1-0.942 2.1-2.1v-19.6c0-1.158-0.942-2.1-2.1-2.1zM26.6 24.5c0 0.386-0.314 0.7-0.7 0.7h-23.8c-0.385 0-0.7-0.314-0.7-0.7v-14.7h25.2v14.7zM26.6 8.4h-25.2v-3.5c0-0.385 0.315-0.7 0.7-0.7h3.5v2.1c0 0.385 0.315 0.7 0.7 0.7s0.7-0.315 0.7-0.7v-2.1h14v2.1c0 0.385 0.314 0.7 0.7 0.7s0.7-0.315 0.7-0.7v-2.1h3.5c0.386 0 0.7 0.315 0.7 0.7v3.5zM9.1 14h1.4c0.385 0 0.7-0.315 0.7-0.7s-0.315-0.7-0.7-0.7h-1.4c-0.385 0-0.7 0.315-0.7 0.7s0.315 0.7 0.7 0.7zM13.3 14h1.4c0.386 0 0.7-0.315 0.7-0.7s-0.314-0.7-0.7-0.7h-1.4c-0.385 0-0.7 0.315-0.7 0.7s0.315 0.7 0.7 0.7zM17.5 14h1.4c0.386 0 0.7-0.315 0.7-0.7s-0.314-0.7-0.7-0.7h-1.4c-0.386 0-0.7 0.315-0.7 0.7s0.314 0.7 0.7 0.7zM21.7 14h1.4c0.386 0 0.7-0.315 0.7-0.7s-0.314-0.7-0.7-0.7h-1.4c-0.386 0-0.7 0.315-0.7 0.7s0.314 0.7 0.7 0.7zM4.9 16.8h1.4c0.385 0 0.7-0.314 0.7-0.7s-0.315-0.7-0.7-0.7h-1.4c-0.385 0-0.7 0.314-0.7 0.7s0.315 0.7 0.7 0.7zM9.1 16.8h1.4c0.385 0 0.7-0.314 0.7-0.7s-0.315-0.7-0.7-0.7h-1.4c-0.385 0-0.7 0.314-0.7 0.7s0.315 0.7 0.7 0.7zM13.3 16.8h1.4c0.386 0 0.7-0.314 0.7-0.7s-0.314-0.7-0.7-0.7h-1.4c-0.385 0-0.7 0.314-0.7 0.7s0.315 0.7 0.7 0.7zM17.5 16.8h1.4c0.386 0 0.7-0.314 0.7-0.7s-0.314-0.7-0.7-0.7h-1.4c-0.386 0-0.7 0.314-0.7 0.7s0.314 0.7 0.7 0.7zM21.7 16.8h1.4c0.386 0 0.7-0.314 0.7-0.7s-0.314-0.7-0.7-0.7h-1.4c-0.386 0-0.7 0.314-0.7 0.7s0.314 0.7 0.7 0.7zM4.9 19.6h1.4c0.385 0 0.7-0.314 0.7-0.7s-0.315-0.7-0.7-0.7h-1.4c-0.385 0-0.7 0.314-0.7 0.7s0.315 0.7 0.7 0.7zM9.1 19.6h1.4c0.385 0 0.7-0.314 0.7-0.7s-0.315-0.7-0.7-0.7h-1.4c-0.385 0-0.7 0.314-0.7 0.7s0.315 0.7 0.7 0.7zM13.3 19.6h1.4c0.386 0 0.7-0.314 0.7-0.7s-0.314-0.7-0.7-0.7h-1.4c-0.385 0-0.7 0.314-0.7 0.7s0.315 0.7 0.7 0.7zM17.5 19.6h1.4c0.386 0 0.7-0.314 0.7-0.7s-0.314-0.7-0.7-0.7h-1.4c-0.386 0-0.7 0.314-0.7 0.7s0.314 0.7 0.7 0.7zM21.7 19.6h1.4c0.386 0 0.7-0.314 0.7-0.7s-0.314-0.7-0.7-0.7h-1.4c-0.386 0-0.7 0.314-0.7 0.7s0.314 0.7 0.7 0.7zM4.9 22.4h1.4c0.385 0 0.7-0.314 0.7-0.7s-0.315-0.7-0.7-0.7h-1.4c-0.385 0-0.7 0.314-0.7 0.7s0.315 0.7 0.7 0.7zM9.1 22.4h1.4c0.385 0 0.7-0.314 0.7-0.7s-0.315-0.7-0.7-0.7h-1.4c-0.385 0-0.7 0.314-0.7 0.7s0.315 0.7 0.7 0.7zM13.3 22.4h1.4c0.386 0 0.7-0.314 0.7-0.7s-0.314-0.7-0.7-0.7h-1.4c-0.385 0-0.7 0.314-0.7 0.7s0.315 0.7 0.7 0.7zM17.5 22.4h1.4c0.386 0 0.7-0.314 0.7-0.7s-0.314-0.7-0.7-0.7h-1.4c-0.386 0-0.7 0.314-0.7 0.7s0.314 0.7 0.7 0.7zM21.7 22.4h1.4c0.386 0 0.7-0.314 0.7-0.7s-0.314-0.7-0.7-0.7h-1.4c-0.386 0-0.7 0.314-0.7 0.7s0.314 0.7 0.7 0.7z"></path>
</svg>
