<?xml version="1.0" encoding="UTF-8" standalone="no"?>
<!-- Generator: Adobe Illustrator 16.0.0, SVG Export Plug-In . SVG Version: 6.00 Build 0)  -->

<svg
   xmlns:dc="http://purl.org/dc/elements/1.1/"
   xmlns:cc="http://creativecommons.org/ns#"
   xmlns:rdf="http://www.w3.org/1999/02/22-rdf-syntax-ns#"
   xmlns:svg="http://www.w3.org/2000/svg"
   xmlns="http://www.w3.org/2000/svg"
   xmlns:sodipodi="http://sodipodi.sourceforge.net/DTD/sodipodi-0.dtd"
   xmlns:inkscape="http://www.inkscape.org/namespaces/inkscape"
   version="1.1"
   id="Layer_1"
   x="0px"
   y="0px"
   width="20px"
   height="20px"
   viewBox="0 0 20 20"
   enable-background="new 0 0 20 20"
   xml:space="preserve"
   inkscape:version="0.91 r13725"
   sodipodi:docname="Duplicate .svg"><metadata
     id="metadata11"><rdf:RDF><cc:Work
         rdf:about=""><dc:format>image/svg+xml</dc:format><dc:type
           rdf:resource="http://purl.org/dc/dcmitype/StillImage" /></cc:Work></rdf:RDF></metadata><defs
     id="defs9" /><sodipodi:namedview
     pagecolor="#ffffff"
     bordercolor="#666666"
     borderopacity="1"
     objecttolerance="10"
     gridtolerance="10"
     guidetolerance="10"
     inkscape:pageopacity="0"
     inkscape:pageshadow="2"
     inkscape:window-width="742"
     inkscape:window-height="480"
     id="namedview7"
     showgrid="false"
     inkscape:zoom="11.8"
     inkscape:cx="10"
     inkscape:cy="10"
     inkscape:window-x="2475"
     inkscape:window-y="411"
     inkscape:window-maximized="0"
     inkscape:current-layer="Layer_1" /><path
     d="M 4 1 C 2.896 1 2 1.896 2 3 L 2 13 C 2 14.104 2.896 15 4 15 L 12 15 C 13.104 15 14 14.104 14 13 L 14 3 C 14 1.896 13.104 1 12 1 L 4 1 z M 4 2 L 12 2 C 12.552 2 13 2.447 13 3 L 13 13 C 13 13.553 12.552 14 12 14 L 4 14 C 3.448 14 3 13.553 3 13 L 3 3 C 3 2.447 3.448 2 4 2 z M 15 4 L 15 5 C 15.552 5 16 5.447 16 6 L 16 16 C 16 16.553 15.552 17 15 17 L 7 17 C 6.448 17 6 16.553 6 16 L 5 16 C 5 17.104 5.896 18 7 18 L 15 18 C 16.104 18 17 17.104 17 16 L 17 6 C 17 4.896 16.104 4 15 4 z "
     id="path3"
     style="fill:#000000" /></svg>