<!-- Generated by IcoMoon.io -->
<svg version="1.1" xmlns="http://www.w3.org/2000/svg" width="24" height="24" viewBox="0 0 24 24">
<title>corner-down-right</title>
<path d="M3 4v7c0 1.38 0.561 2.632 1.464 3.536s2.156 1.464 3.536 1.464h9.586l-3.293 3.293c-0.391 0.391-0.391 1.024 0 1.414s1.024 0.391 1.414 0l5-5c0.092-0.092 0.166-0.202 0.217-0.324s0.076-0.253 0.076-0.383c0-0.256-0.098-0.512-0.293-0.707l-5-5c-0.391-0.391-1.024-0.391-1.414 0s-0.391 1.024 0 1.414l3.293 3.293h-9.586c-0.829 0-1.577-0.335-2.121-0.879s-0.879-1.292-0.879-2.121v-7c0-0.552-0.448-1-1-1s-1 0.448-1 1z"></path>
</svg>
