<!-- Generated by IcoMoon.io -->
<svg version="1.1" xmlns="http://www.w3.org/2000/svg" width="24" height="24" viewBox="0 0 24 24">
<title>dashboard</title>
<path d="M19.425 24h-14.85c-2.475 0-4.575-2.1-4.575-4.575v-7.5c0-6.6 5.325-11.925 11.85-11.925 6.75 0 12.15 5.4 12.15 12.15v7.275c0 2.475-2.1 4.575-4.575 4.575zM11.85 1.5c-5.7 0-10.35 4.65-10.35 10.35v7.5c0 1.725 1.425 3.15 3.075 3.15h14.775c1.725 0 3.075-1.425 3.075-3.075v-7.275c0.075-5.85-4.725-10.65-10.575-10.65z"></path>
<path d="M12 15.675c-0.075 0-0.15 0-0.15 0-0.75-0.075-1.5-0.45-1.875-1.125l-4.5-6.525c-0.225-0.225-0.225-0.6 0-0.9 0.225-0.225 0.6-0.3 0.9-0.15l6.9 4.050c0.675 0.375 1.125 1.050 1.2 1.8s-0.15 1.5-0.675 2.1c-0.45 0.525-1.125 0.75-1.8 0.75zM8.55 10.050l2.55 3.75c0.15 0.225 0.45 0.45 0.75 0.45s0.6-0.075 0.825-0.3c0.225-0.225 0.3-0.525 0.225-0.825s-0.225-0.525-0.45-0.75l-3.9-2.325z"></path>
<path d="M15.9 8.55c-0.15 0-0.3-0.075-0.45-0.15-0.375-0.225-0.45-0.675-0.225-1.050l1.275-1.95c0.225-0.375 0.675-0.45 1.050-0.225 0.45 0.3 0.525 0.825 0.3 1.125l-1.275 1.95c-0.15 0.225-0.375 0.3-0.675 0.3z"></path>
</svg>
