<?xml version="1.0" encoding="UTF-8" standalone="no"?>
<!-- Generator: Adobe Illustrator 21.1.0, SVG Export Plug-In . SVG Version: 6.00 Build 0)  -->

<svg
   xmlns:dc="http://purl.org/dc/elements/1.1/"
   xmlns:cc="http://creativecommons.org/ns#"
   xmlns:rdf="http://www.w3.org/1999/02/22-rdf-syntax-ns#"
   xmlns:svg="http://www.w3.org/2000/svg"
   xmlns="http://www.w3.org/2000/svg"
   xmlns:sodipodi="http://sodipodi.sourceforge.net/DTD/sodipodi-0.dtd"
   xmlns:inkscape="http://www.inkscape.org/namespaces/inkscape"
   version="1.1"
   id="Layer_1"
   x="0px"
   y="0px"
   viewBox="0 0 32 32"
   style="enable-background:new 0 0 32 32;"
   xml:space="preserve"
   inkscape:version="0.91 r13725"
   sodipodi:docname="dashboard.svg"><metadata
     id="metadata25"><rdf:RDF><cc:Work
         rdf:about=""><dc:format>image/svg+xml</dc:format><dc:type
           rdf:resource="http://purl.org/dc/dcmitype/StillImage" /><dc:title /></cc:Work></rdf:RDF></metadata><defs
     id="defs23" /><sodipodi:namedview
     pagecolor="#ffffff"
     bordercolor="#666666"
     borderopacity="1"
     objecttolerance="10"
     gridtolerance="10"
     guidetolerance="10"
     inkscape:pageopacity="0"
     inkscape:pageshadow="2"
     inkscape:window-width="1920"
     inkscape:window-height="1017"
     id="namedview21"
     showgrid="false"
     inkscape:zoom="7.375"
     inkscape:cx="-0.88135593"
     inkscape:cy="16"
     inkscape:window-x="1912"
     inkscape:window-y="-8"
     inkscape:window-maximized="1"
     inkscape:current-layer="Layer_1" /><style
     type="text/css"
     id="style3">
	.st0{opacity:0;}
	.st1{fill:#FF3386;}
	.st2{fill:#3389FF;}
</style><g
     class="st0"
     id="g5"
     style="fill:#000000"><rect
       class="st1"
       width="32"
       height="32"
       id="rect7"
       style="fill:#000000" /></g><g
     id="g9"
     style="fill:#000000"><path
       class="st2"
       d="M25.9,32H6.1C2.8,32,0,29.2,0,25.9v-10C0,7.1,7.1,0,15.8,0C24.8,0,32,7.2,32,16.2v9.7C32,29.2,29.2,32,25.9,32   z M15.8,2C8.2,2,2,8.2,2,15.8v10C2,28.1,3.9,30,6.1,30h19.7c2.3,0,4.1-1.9,4.1-4.1v-9.7C30,8.4,23.6,2,15.8,2z"
       id="path11"
       style="fill:#000000" /></g><g
     id="g13"
     style="fill:#000000"><path
       class="st2"
       d="M16,20.9c-0.1,0-0.2,0-0.2,0c-1-0.1-2-0.6-2.5-1.5l-6-8.7C7,10.4,7,9.9,7.3,9.5c0.3-0.3,0.8-0.4,1.2-0.2   l9.2,5.4c0.9,0.5,1.5,1.4,1.6,2.4c0.1,1-0.2,2-0.9,2.8C17.8,20.6,16.9,20.9,16,20.9z M11.4,13.4l3.4,5c0.2,0.3,0.6,0.6,1,0.6   c0.4,0,0.8-0.1,1.1-0.4c0.3-0.3,0.4-0.7,0.3-1.1c-0.1-0.4-0.3-0.7-0.6-1L11.4,13.4z"
       id="path15"
       style="fill:#000000" /></g><g
     id="g17"
     style="fill:#000000"><path
       class="st2"
       d="M21.2,11.4c-0.2,0-0.4-0.1-0.6-0.2c-0.5-0.3-0.6-0.9-0.3-1.4l1.7-2.6c0.3-0.5,0.9-0.6,1.4-0.3   C24,7.3,24.1,8,23.8,8.4L22.1,11C21.9,11.3,21.6,11.4,21.2,11.4z"
       id="path19"
       style="fill:#000000" /></g></svg>