<?xml version="1.0" encoding="UTF-8" standalone="no"?>
<!-- Generator: Adobe Illustrator 16.0.0, SVG Export Plug-In . SVG Version: 6.00 Build 0)  -->

<svg
   xmlns:dc="http://purl.org/dc/elements/1.1/"
   xmlns:cc="http://creativecommons.org/ns#"
   xmlns:rdf="http://www.w3.org/1999/02/22-rdf-syntax-ns#"
   xmlns:svg="http://www.w3.org/2000/svg"
   xmlns="http://www.w3.org/2000/svg"
   xmlns:sodipodi="http://sodipodi.sourceforge.net/DTD/sodipodi-0.dtd"
   xmlns:inkscape="http://www.inkscape.org/namespaces/inkscape"
   version="1.1"
   id="Layer_1"
   x="0px"
   y="0px"
   width="16px"
   height="16px"
   viewBox="0 0 16 16"
   enable-background="new 0 0 16 16"
   xml:space="preserve"
   inkscape:version="0.91 r13725"
   sodipodi:docname="Delete-3.svg"><metadata
     id="metadata13"><rdf:RDF><cc:Work
         rdf:about=""><dc:format>image/svg+xml</dc:format><dc:type
           rdf:resource="http://purl.org/dc/dcmitype/StillImage" /></cc:Work></rdf:RDF></metadata><defs
     id="defs11" /><sodipodi:namedview
     pagecolor="#ffffff"
     bordercolor="#666666"
     borderopacity="1"
     objecttolerance="10"
     gridtolerance="10"
     guidetolerance="10"
     inkscape:pageopacity="0"
     inkscape:pageshadow="2"
     inkscape:window-width="742"
     inkscape:window-height="480"
     id="namedview9"
     showgrid="false"
     inkscape:zoom="14.75"
     inkscape:cx="8"
     inkscape:cy="8"
     inkscape:window-x="2184"
     inkscape:window-y="481"
     inkscape:window-maximized="0"
     inkscape:current-layer="Layer_1" /><path
     d="M 13,2 10,2 10,1 C 10,0.447 9.553,0 9,0 L 7,0 C 6.448,0 6,0.447 6,1 L 6,2 3,2 C 2.448,2 2,2.447 2,3 l 0,2 c 0,0.553 0.448,1 1,1 l 0,8 c 0,0.553 0.448,1 1,1 l 8,0 c 0.553,0 1,-0.447 1,-1 l 0,-8 c 0.553,0 1,-0.447 1,-1 L 14,3 C 14,2.447 13.553,2 13,2 Z M 7,1 9,1 9,2 7,2 7,1 Z M 7,12.5 C 7,12.776 6.776,13 6.5,13 6.224,13 6,12.776 6,12.5 l 0,-5 C 6,7.225 6.224,7 6.5,7 6.776,7 7,7.225 7,7.5 l 0,5 z m 3,0 C 10,12.776 9.776,13 9.5,13 9.224,13 9,12.776 9,12.5 l 0,-5 C 9,7.225 9.224,7 9.5,7 9.776,7 10,7.225 10,7.5 l 0,5 z M 13,5 3,5 3,3 13,3 13,5 Z"
     id="path7"
     inkscape:connector-curvature="0"
     style="clip-rule:evenodd;fill:#000000;fill-rule:evenodd" /></svg>