<!-- Generated by IcoMoon.io -->
<svg version="1.1" xmlns="http://www.w3.org/2000/svg" width="24" height="24" viewBox="0 0 24 24">
<title>delete</title>
<path d="M14 19.2c0.331 0 0.6-0.269 0.6-0.6v-7.2c0-0.33-0.269-0.6-0.6-0.6s-0.6 0.27-0.6 0.6v7.2c0 0.331 0.268 0.6 0.6 0.6zM18.2 4.8h-3.6v-1.2c0-0.664-0.536-1.2-1.2-1.2h-2.4c-0.662 0-1.2 0.536-1.2 1.2v1.2h-3.6c-0.662 0-1.2 0.536-1.2 1.2v2.4c0 0.664 0.538 1.2 1.2 1.2v10.8c0 0.664 0.538 1.2 1.2 1.2h9.6c0.664 0 1.2-0.536 1.2-1.2v-10.8c0.664 0 1.2-0.536 1.2-1.2v-2.4c0-0.664-0.538-1.2-1.2-1.2zM11 3.6h2.4v1.2h-2.4v-1.2zM17 20.4h-9.6v-10.8h9.6v10.8zM18.2 8.4h-12v-2.4h12v2.4zM10.4 19.2c0.331 0 0.6-0.269 0.6-0.6v-7.2c0-0.33-0.269-0.6-0.6-0.6s-0.6 0.27-0.6 0.6v7.2c0 0.331 0.269 0.6 0.6 0.6z"></path>
</svg>
