<?xml version="1.0" encoding="UTF-8" standalone="no"?>
<!-- Generator: Adobe Illustrator 16.0.0, SVG Export Plug-In . SVG Version: 6.00 Build 0)  -->

<svg
   xmlns:dc="http://purl.org/dc/elements/1.1/"
   xmlns:cc="http://creativecommons.org/ns#"
   xmlns:rdf="http://www.w3.org/1999/02/22-rdf-syntax-ns#"
   xmlns:svg="http://www.w3.org/2000/svg"
   xmlns="http://www.w3.org/2000/svg"
   xmlns:sodipodi="http://sodipodi.sourceforge.net/DTD/sodipodi-0.dtd"
   xmlns:inkscape="http://www.inkscape.org/namespaces/inkscape"
   version="1.1"
   id="Layer_1"
   x="0px"
   y="0px"
   width="20px"
   height="20px"
   viewBox="0 0 20 20"
   enable-background="new 0 0 20 20"
   xml:space="preserve"
   inkscape:version="0.91 r13725"
   sodipodi:docname="Disable.svg"><metadata
     id="metadata17"><rdf:RDF><cc:Work
         rdf:about=""><dc:format>image/svg+xml</dc:format><dc:type
           rdf:resource="http://purl.org/dc/dcmitype/StillImage" /></cc:Work></rdf:RDF></metadata><defs
     id="defs15" /><sodipodi:namedview
     pagecolor="#ffffff"
     bordercolor="#666666"
     borderopacity="1"
     objecttolerance="10"
     gridtolerance="10"
     guidetolerance="10"
     inkscape:pageopacity="0"
     inkscape:pageshadow="2"
     inkscape:window-width="742"
     inkscape:window-height="480"
     id="namedview13"
     showgrid="false"
     inkscape:zoom="11.8"
     inkscape:cx="10"
     inkscape:cy="10"
     inkscape:window-x="2894"
     inkscape:window-y="260"
     inkscape:window-maximized="0"
     inkscape:current-layer="Layer_1" /><path
     style="fill:#000000"
     d="M 7 2 C 6.447 2 6 2.447 6 3 L 6 8 L 7 8 L 7 3 L 13 3 L 13 6 C 13 6.553 13.447 7 14 7 L 17 7 L 17 17 L 10 17 L 10 18 L 17 18 C 17.553 18 18 17.553 18 17 L 18 9 L 18 7 L 18 6.2929688 L 13.707031 2 L 13 2 L 8 2 L 7 2 z M 14 3.7070312 L 16.292969 6 L 14 6 L 14 3.7070312 z M 6.5 9 C 4.015 9 2 11.015 2 13.5 C 2 15.985 4.015 18 6.5 18 C 8.985 18 11 15.985 11 13.5 C 11 11.015 8.985 9 6.5 9 z M 6.5 10 C 7.2799611 10 7.9936595 10.264311 8.5761719 10.697266 L 3.6855469 15.560547 C 3.2596194 14.9808 3 14.272966 3 13.5 C 3 11.57 4.57 10 6.5 10 z M 9.3164062 11.439453 C 9.7418881 12.019022 10 12.727479 10 13.5 C 10 15.43 8.43 17 6.5 17 C 5.7205794 17 5.0080819 16.735144 4.4257812 16.302734 L 9.3164062 11.439453 z "
     id="path7" /></svg>