<?xml version="1.0" encoding="UTF-8" standalone="no"?>
<!-- Generator: Adobe Illustrator 16.0.0, SVG Export Plug-In . SVG Version: 6.00 Build 0)  -->

<svg
   xmlns:dc="http://purl.org/dc/elements/1.1/"
   xmlns:cc="http://creativecommons.org/ns#"
   xmlns:rdf="http://www.w3.org/1999/02/22-rdf-syntax-ns#"
   xmlns:svg="http://www.w3.org/2000/svg"
   xmlns="http://www.w3.org/2000/svg"
   xmlns:sodipodi="http://sodipodi.sourceforge.net/DTD/sodipodi-0.dtd"
   xmlns:inkscape="http://www.inkscape.org/namespaces/inkscape"
   version="1.1"
   id="Layer_1"
   x="0px"
   y="0px"
   width="20px"
   height="20px"
   viewBox="0 0 20 20"
   enable-background="new 0 0 20 20"
   xml:space="preserve"
   inkscape:version="0.91 r13725"
   sodipodi:docname="document-lock.svg"><metadata
     id="metadata17"><rdf:RDF><cc:Work
         rdf:about=""><dc:format>image/svg+xml</dc:format><dc:type
           rdf:resource="http://purl.org/dc/dcmitype/StillImage" /><dc:title /></cc:Work></rdf:RDF></metadata><defs
     id="defs15" /><sodipodi:namedview
     pagecolor="#ffffff"
     bordercolor="#666666"
     borderopacity="1"
     objecttolerance="10"
     gridtolerance="10"
     guidetolerance="10"
     inkscape:pageopacity="0"
     inkscape:pageshadow="2"
     inkscape:window-width="1920"
     inkscape:window-height="1017"
     id="namedview13"
     showgrid="false"
     inkscape:zoom="33.37544"
     inkscape:cx="13.271682"
     inkscape:cy="5.1659963"
     inkscape:window-x="1912"
     inkscape:window-y="-8"
     inkscape:window-maximized="1"
     inkscape:current-layer="Layer_1" /><path
     style="fill:#000000"
     d="M 7,2 C 6.447,2 6,2.447 6,3 l 0,4 1,0 0,-4 6,0 0,3 c 0,0.553 0.447,1 1,1 l 3,0 0,10 -6,0 0,1 6,0 c 0.553,0 1,-0.447 1,-1 L 18,9 18,7 18,6.2929688 13.707031,2 13,2 8,2 Z M 14,3.7070312 16.292969,6 14,6 Z"
     id="path9"
     inkscape:connector-curvature="0"
     sodipodi:nodetypes="ssccccssccccssccccccscccc" /><path
     d="M 6.5 8 C 4.85 8 3.5 9.35 3.5 11 L 3.5 12.5 L 3 12.5 L 3 18 L 10 18 L 10 12.5 L 9.5 12.5 L 9.5 11 C 9.5 9.35 8.15 8 6.5 8 z M 6.5 9 C 7.6 9 8.5 9.9 8.5 11 L 8.5 12.5 L 4.5 12.5 L 4.5 11 C 4.5 9.9 5.4 9 6.5 9 z M 4 13.5 L 9 13.5 L 9 17 L 4 17 L 4 13.5 z "
     id="path4687" /></svg>