<?xml version="1.0" encoding="UTF-8" standalone="no"?>
<!-- Generator: Adobe Illustrator 16.0.0, SVG Export Plug-In . SVG Version: 6.00 Build 0)  -->

<svg
   xmlns:dc="http://purl.org/dc/elements/1.1/"
   xmlns:cc="http://creativecommons.org/ns#"
   xmlns:rdf="http://www.w3.org/1999/02/22-rdf-syntax-ns#"
   xmlns:svg="http://www.w3.org/2000/svg"
   xmlns="http://www.w3.org/2000/svg"
   xmlns:sodipodi="http://sodipodi.sourceforge.net/DTD/sodipodi-0.dtd"
   xmlns:inkscape="http://www.inkscape.org/namespaces/inkscape"
   version="1.1"
   id="Layer_1"
   x="0px"
   y="0px"
   width="20px"
   height="20px"
   viewBox="0 0 20 20"
   enable-background="new 0 0 20 20"
   xml:space="preserve"
   inkscape:version="0.91 r13725"
   sodipodi:docname="filter.svg"><metadata
     id="metadata9"><rdf:RDF><cc:Work
         rdf:about=""><dc:format>image/svg+xml</dc:format><dc:type
           rdf:resource="http://purl.org/dc/dcmitype/StillImage" /><dc:title></dc:title></cc:Work></rdf:RDF></metadata><defs
     id="defs7" /><sodipodi:namedview
     pagecolor="#ffffff"
     bordercolor="#666666"
     borderopacity="1"
     objecttolerance="10"
     gridtolerance="10"
     guidetolerance="10"
     inkscape:pageopacity="0"
     inkscape:pageshadow="2"
     inkscape:window-width="742"
     inkscape:window-height="480"
     id="namedview5"
     showgrid="false"
     inkscape:zoom="11.8"
     inkscape:cx="10"
     inkscape:cy="10"
     inkscape:window-x="2157"
     inkscape:window-y="253"
     inkscape:window-maximized="0"
     inkscape:current-layer="Layer_1" /><path
     fill="#A1B0B5"
     d="M18,5.507c0-1.381-3.357-2.503-7.5-2.503S3,4.121,3,5.502c0,0.196,0.074,0.385,0.202,0.567  C3.202,6.068,9,14,9,14v5l3-1v-4c0,0,5.835-7.972,5.854-8.002C17.854,5.998,18,5.673,18,5.507z M10.5,4  c4.041,0,6.215,1.04,6.486,1.5C16.715,5.96,14.541,7,10.5,7S4.285,5.96,4.014,5.5C4.285,5.04,6.459,4,10.5,4z M16.98,6.755  L16.98,6.755L16.98,6.755z M11.192,13.41C11.067,13.581,11,13.788,11,14v3.279l-1,0.333V14c0-0.212-0.067-0.419-0.192-0.59  L5.352,7.314C6.695,7.738,8.504,8,10.5,8c1.998,0,3.809-0.262,5.153-0.687c-0.002,0.001-0.004,0.001-0.006,0.002L11.192,13.41z"
     id="path3"
     style="fill:#000000" /></svg>