<!-- Generated by IcoMoon.io -->
<svg version="1.1" xmlns="http://www.w3.org/2000/svg" width="24" height="24" viewBox="0 0 24 24">
<title>github</title>
<path d="M12 0c-6.63 0-12 5.373-12 12 0 5.303 3.438 9.8 8.205 11.385 0.6 0.113 0.82-0.258 0.82-0.577 0-0.285-0.010-1.040-0.015-2.040-3.339 0.724-4.043-1.61-4.043-1.61-0.546-1.386-1.335-1.755-1.335-1.755-1.087-0.744 0.084-0.729 0.084-0.729 1.205 0.084 1.838 1.236 1.838 1.236 1.071 1.835 2.809 1.305 3.495 0.997 0.108-0.775 0.417-1.305 0.761-1.605-2.665-0.3-5.466-1.332-5.466-5.93 0-1.309 0.465-2.38 1.234-3.221-0.135-0.303-0.54-1.522 0.105-3.175 0 0 1.005-0.322 3.3 1.23 0.96-0.267 1.98-0.399 3-0.405 1.020 0.006 2.040 0.138 3 0.405 2.28-1.553 3.285-1.23 3.285-1.23 0.645 1.653 0.24 2.872 0.12 3.175 0.765 0.84 1.23 1.911 1.23 3.221 0 4.61-2.805 5.625-5.475 5.921 0.42 0.36 0.81 1.095 0.81 2.22 0 1.605-0.015 2.895-0.015 3.285 0 0.315 0.21 0.69 0.825 0.57 4.802-1.573 8.236-6.073 8.236-11.369 0-6.627-5.373-12-12-12z"></path>
</svg>
