<?xml version="1.0" encoding="UTF-8" standalone="no"?>
<!-- Generator: Adobe Illustrator 16.0.0, SVG Export Plug-In . SVG Version: 6.00 Build 0)  -->

<svg
   xmlns:dc="http://purl.org/dc/elements/1.1/"
   xmlns:cc="http://creativecommons.org/ns#"
   xmlns:rdf="http://www.w3.org/1999/02/22-rdf-syntax-ns#"
   xmlns:svg="http://www.w3.org/2000/svg"
   xmlns="http://www.w3.org/2000/svg"
   xmlns:sodipodi="http://sodipodi.sourceforge.net/DTD/sodipodi-0.dtd"
   xmlns:inkscape="http://www.inkscape.org/namespaces/inkscape"
   version="1.1"
   id="Layer_1"
   x="0px"
   y="0px"
   width="20px"
   height="20px"
   viewBox="0 0 20 20"
   enable-background="new 0 0 20 20"
   xml:space="preserve"
   inkscape:version="0.91 r13725"
   sodipodi:docname="Help.svg"><metadata
     id="metadata13"><rdf:RDF><cc:Work
         rdf:about=""><dc:format>image/svg+xml</dc:format><dc:type
           rdf:resource="http://purl.org/dc/dcmitype/StillImage" /></cc:Work></rdf:RDF></metadata><defs
     id="defs11" /><sodipodi:namedview
     pagecolor="#ffffff"
     bordercolor="#666666"
     borderopacity="1"
     objecttolerance="10"
     gridtolerance="10"
     guidetolerance="10"
     inkscape:pageopacity="0"
     inkscape:pageshadow="2"
     inkscape:window-width="742"
     inkscape:window-height="480"
     id="namedview9"
     showgrid="false"
     inkscape:zoom="11.8"
     inkscape:cx="10"
     inkscape:cy="10"
     inkscape:window-x="2248"
     inkscape:window-y="366"
     inkscape:window-maximized="0"
     inkscape:current-layer="Layer_1" /><path
     d="m 10,10 -4,0 0,1 4,0 0,-1 z M 15,3 14,3 C 14,2.447 13.553,2 13,2 L 7,2 C 6.447,2 6,2.447 6,3 L 5,3 C 4.447,3 4,3.447 4,4 l 0,13 c 0,0.553 0.447,1 1,1 l 10,0 c 0.553,0 1,-0.447 1,-1 L 16,4 C 16,3.447 15.553,3 15,3 Z M 7,3 13,3 13,4 7,4 7,3 Z m 8,13 c 0,0.553 -0.447,1 -1,1 L 6,17 C 5.447,17 5,16.553 5,16 L 5,5 C 5,4.447 5.447,4 6,4 6,4.553 6.447,5 7,5 l 6,0 c 0.553,0 1,-0.447 1,-1 0.553,0 1,0.447 1,1 l 0,11 z M 6,9 14,9 14,8 6,8 6,9 Z m 0,4 8,0 0,-1 -8,0 0,1 z"
     id="path7"
     inkscape:connector-curvature="0"
     style="clip-rule:evenodd;fill:#000000;fill-rule:evenodd" /></svg>