<!-- Generated by IcoMoon.io -->
<svg version="1.1" xmlns="http://www.w3.org/2000/svg" width="24" height="24" viewBox="0 0 24 24">
<title>help</title>
<path d="M12 12h-4.8v1.2h4.8v-1.2zM18 3.6h-1.2c0-0.664-0.536-1.2-1.2-1.2h-7.2c-0.664 0-1.2 0.536-1.2 1.2h-1.2c-0.664 0-1.2 0.536-1.2 1.2v15.6c0 0.664 0.536 1.2 1.2 1.2h12c0.664 0 1.2-0.536 1.2-1.2v-15.6c0-0.664-0.536-1.2-1.2-1.2zM8.4 3.6h7.2v1.2h-7.2v-1.2zM18 19.2c0 0.664-0.536 1.2-1.2 1.2h-9.6c-0.664 0-1.2-0.536-1.2-1.2v-13.2c0-0.664 0.536-1.2 1.2-1.2 0 0.664 0.536 1.2 1.2 1.2h7.2c0.664 0 1.2-0.536 1.2-1.2 0.664 0 1.2 0.536 1.2 1.2v13.2zM7.2 10.8h9.6v-1.2h-9.6v1.2zM7.2 15.6h9.6v-1.2h-9.6v1.2z"></path>
</svg>
