<!-- Generated by IcoMoon.io -->
<svg version="1.1" xmlns="http://www.w3.org/2000/svg" width="24" height="24" viewBox="0 0 24 24">
<title>location</title>
<path d="M12 0c-3.971 0-7.2 3.229-7.2 7.2 0 1.843 0.358 3.865 1.061 6.010 0.559 1.7 1.336 3.482 2.31 5.299 1.657 3.085 3.289 5.174 3.359 5.262 0.113 0.145 0.288 0.229 0.47 0.229 0.184 0 0.358-0.084 0.472-0.229 0.070-0.086 1.702-2.176 3.359-5.262 0.974-1.817 1.751-3.599 2.31-5.299 0.702-2.144 1.060-4.166 1.060-6.010 0-3.971-3.23-7.2-7.2-7.2zM14.782 17.922c-1.084 2.024-2.179 3.632-2.782 4.472-0.6-0.835-1.688-2.435-2.771-4.452-1.474-2.746-3.229-6.838-3.229-10.742 0-3.308 2.692-6 6-6s6 2.692 6 6c0 3.898-1.75 7.982-3.218 10.722zM12 3.6c-1.985 0-3.6 1.615-3.6 3.6s1.615 3.6 3.6 3.6 3.6-1.615 3.6-3.6-1.615-3.6-3.6-3.6zM12 9.6c-1.325 0-2.4-1.075-2.4-2.4 0-1.324 1.075-2.4 2.4-2.4 1.324 0 2.4 1.076 2.4 2.4 0 1.325-1.076 2.4-2.4 2.4z"></path>
</svg>
