<!-- Generated by IcoMoon.io -->
<svg version="1.1" xmlns="http://www.w3.org/2000/svg" width="24" height="24" viewBox="0 0 24 24">
<title>logo</title>
<path d="M12.006 1.964c-0.003 0.001-4.288 1.97-5.377 6.018-0.105 0.389 0.766 0.218 0.727 0.645-0.048 0.519-1.047 0.731-0.917 2.221 0.133 1.517 1.414 3.050 1.606 3.977v0.648c-0.012 0.2-0.107 0.743-0.422 1.009-0.173 0.145-0.406 0.197-0.713 0.159-0.427-0.053-0.596-0.339-0.664-0.57-0.111-0.38-0.008-0.823 0.242-1.031 0.251-0.209 0.285-0.582 0.076-0.834s-0.583-0.285-0.834-0.075c-0.609 0.507-0.865 1.442-0.621 2.273 0.23 0.783 0.848 1.31 1.655 1.411 0.115 0.014 0.224 0.021 0.328 0.021 0.624 0 1.047-0.238 1.303-0.456 0.77-0.656 0.831-1.748 0.835-1.871 0-0.007 0-0.014 0-0.022v-0.497h0.003v-0.033c0-0.289 0.235-0.524 0.525-0.524 0.28 0 0.506 0.219 0.522 0.495v4.746c-0.005 0.068-0.059 0.701-0.419 1.007-0.173 0.147-0.407 0.2-0.716 0.161-0.427-0.053-0.597-0.339-0.665-0.569-0.112-0.38-0.008-0.824 0.242-1.032 0.251-0.209 0.286-0.582 0.076-0.834s-0.583-0.285-0.834-0.075c-0.61 0.507-0.865 1.442-0.621 2.273 0.23 0.783 0.848 1.31 1.655 1.411 0.115 0.014 0.224 0.021 0.328 0.021 0.624 0 1.047-0.238 1.302-0.456 0.771-0.656 0.831-1.749 0.835-1.871 0-0.008 0-0.014 0-0.021v-5.288l0.003-0.001v-0.023c0-0.295 0.24-0.534 0.535-0.534 0.289 0 0.523 0.23 0.533 0.517v5.33c0 0.007 0 0.014 0 0.021 0.004 0.122 0.065 1.216 0.836 1.871 0.256 0.218 0.679 0.456 1.303 0.456 0.104 0 0.213-0.007 0.328-0.021 0.806-0.101 1.425-0.629 1.655-1.411 0.244-0.832-0.011-1.766-0.621-2.273-0.252-0.21-0.625-0.175-0.834 0.075-0.209 0.252-0.176 0.624 0.076 0.834 0.25 0.208 0.355 0.651 0.243 1.032-0.067 0.23-0.238 0.516-0.665 0.569-0.307 0.039-0.54-0.014-0.713-0.159-0.317-0.266-0.412-0.812-0.423-1.008v-4.73c0.007-0.283 0.238-0.511 0.523-0.511 0.29 0 0.525 0.234 0.525 0.524v0.033h0.002v0.497c0 0.007 0 0.015 0 0.022 0.004 0.122 0.065 1.215 0.836 1.871 0.256 0.217 0.678 0.456 1.302 0.456 0.104 0 0.213-0.007 0.328-0.021 0.806-0.101 1.425-0.629 1.654-1.411 0.244-0.832-0.011-1.766-0.621-2.273-0.252-0.209-0.625-0.175-0.834 0.076s-0.175 0.624 0.076 0.833c0.25 0.208 0.354 0.652 0.242 1.032-0.067 0.231-0.238 0.516-0.665 0.569-0.307 0.039-0.54-0.014-0.713-0.159-0.317-0.266-0.411-0.813-0.422-1.008v-0.493c0.124-1.268 1.479-2.526 1.619-4.134 0.13-1.49-0.87-1.702-0.917-2.221-0.039-0.427 0.832-0.257 0.727-0.645-1.089-4.048-5.373-6.017-5.377-6.018z"></path>
</svg>
