<?xml version="1.0" encoding="UTF-8" standalone="no"?>
<!-- Generator: Adobe Illustrator 16.0.0, SVG Export Plug-In . SVG Version: 6.00 Build 0)  -->

<svg
   xmlns:dc="http://purl.org/dc/elements/1.1/"
   xmlns:cc="http://creativecommons.org/ns#"
   xmlns:rdf="http://www.w3.org/1999/02/22-rdf-syntax-ns#"
   xmlns:svg="http://www.w3.org/2000/svg"
   xmlns="http://www.w3.org/2000/svg"
   xmlns:sodipodi="http://sodipodi.sourceforge.net/DTD/sodipodi-0.dtd"
   xmlns:inkscape="http://www.inkscape.org/namespaces/inkscape"
   version="1.1"
   id="Layer_1"
   x="0px"
   y="0px"
   width="110"
   height="110"
   viewBox="0 0 110 110"
   enable-background="new 0 0 494 111"
   xml:space="preserve"
   inkscape:version="0.91 r13725"
   sodipodi:docname="logo.svg"><metadata
     id="metadata45"><rdf:RDF><cc:Work
         rdf:about=""><dc:format>image/svg+xml</dc:format><dc:type
           rdf:resource="http://purl.org/dc/dcmitype/StillImage" /><dc:title></dc:title></cc:Work></rdf:RDF></metadata><defs
     id="defs43" /><sodipodi:namedview
     pagecolor="#ffffff"
     bordercolor="#666666"
     borderopacity="1"
     objecttolerance="10"
     gridtolerance="10"
     guidetolerance="10"
     inkscape:pageopacity="0"
     inkscape:pageshadow="2"
     inkscape:window-width="1920"
     inkscape:window-height="1017"
     id="namedview41"
     showgrid="false"
     inkscape:zoom="1.6489616"
     inkscape:cx="241.39675"
     inkscape:cy="62.325638"
     inkscape:window-x="1912"
     inkscape:window-y="-8"
     inkscape:window-maximized="1"
     inkscape:current-layer="Layer_1" /><path
     style="fill:#000000"
     d="M 55.029297 9 C 55.014197 9.00604 35.37545 18.03129 30.384766 36.583984 C 29.903421 38.365421 33.896989 37.582542 33.71875 39.541016 C 33.500231 41.918948 28.920428 42.8927 29.517578 49.720703 C 30.125436 56.674506 35.997358 63.700666 36.878906 67.947266 L 36.878906 70.917969 C 36.825536 71.835343 36.388401 74.324891 34.943359 75.541016 C 34.150851 76.205913 33.082619 76.445562 31.673828 76.269531 C 29.718238 76.025099 28.940069 74.715397 28.628906 73.658203 C 28.118358 71.915996 28.594269 69.885228 29.740234 68.931641 C 30.89224 67.973025 31.04756 66.263076 30.087891 65.111328 C 29.128222 63.960587 27.417631 63.804997 26.265625 64.765625 C 23.473218 67.090244 22.303161 71.374218 23.419922 75.185547 C 24.474249 78.772562 27.308223 81.188686 31.003906 81.650391 C 31.530566 81.715781 32.031503 81.748047 32.507812 81.748047 C 35.367688 81.748047 37.305363 80.655043 38.478516 79.658203 C 42.009052 76.6536 42.286501 71.645273 42.306641 71.083984 C 42.307641 71.050784 42.308594 71.017565 42.308594 70.984375 L 42.308594 68.705078 L 42.320312 68.705078 L 42.320312 68.552734 C 42.320312 67.225961 43.395371 66.150391 44.724609 66.150391 C 46.007616 66.150391 47.045938 67.154348 47.117188 68.417969 L 47.117188 90.169922 C 47.095033 90.482755 46.844777 93.380988 45.195312 94.783203 C 44.403813 95.457155 43.327889 95.699527 41.914062 95.521484 C 39.957465 95.277052 39.177343 93.967291 38.867188 92.912109 C 38.355632 91.168896 38.832552 89.136175 39.978516 88.183594 C 41.130522 87.223972 41.287794 85.516035 40.328125 84.363281 C 39.369462 83.214551 37.655912 83.05695 36.503906 84.017578 C 33.709489 86.341191 32.541442 90.62617 33.658203 94.4375 C 34.710516 98.024515 37.546504 100.44159 41.242188 100.9043 C 41.768847 100.9697 42.269783 101 42.746094 101 C 45.605969 101 47.544698 99.90898 48.714844 98.912109 C 52.246388 95.907506 52.523839 90.897227 52.542969 90.335938 C 52.544969 90.300727 52.544922 90.270471 52.544922 90.238281 L 52.544922 66 L 52.558594 65.994141 L 52.558594 65.886719 C 52.558594 64.533793 53.656299 63.4375 55.011719 63.4375 C 56.338269 63.4375 57.410754 64.492815 57.453125 65.808594 L 57.453125 90.238281 C 57.453125 90.271471 57.453078 90.301738 57.455078 90.335938 C 57.475218 90.896221 57.753613 95.907506 61.285156 98.912109 C 62.457302 99.908949 64.395984 101 67.255859 101 C 67.733176 101 68.232146 100.96969 68.757812 100.9043 C 72.452488 100.44159 75.289484 98.023509 76.341797 94.4375 C 77.459565 90.62617 76.289507 86.342197 73.496094 84.017578 C 72.342074 83.05695 70.630537 83.215557 69.671875 84.363281 C 68.712206 85.517041 68.867524 87.223972 70.019531 88.183594 C 71.165497 89.136175 71.645375 91.168896 71.132812 92.912109 C 70.823664 93.967291 70.041528 95.277052 68.085938 95.521484 C 66.678154 95.698521 65.60986 95.457864 64.818359 94.792969 C 63.367275 93.572821 62.932219 91.070079 62.880859 90.173828 L 62.880859 68.494141 C 62.912734 67.195103 63.970157 66.150391 65.279297 66.150391 C 66.608534 66.150391 67.685547 67.224955 67.685547 68.552734 L 67.685547 68.705078 L 67.693359 68.705078 L 67.693359 70.984375 C 67.693359 71.018575 67.693313 71.051794 67.695312 71.083984 C 67.714445 71.644267 67.993848 76.6536 71.525391 79.658203 C 72.697537 80.655043 74.634266 81.748047 77.494141 81.748047 C 77.970451 81.748047 78.472394 81.716724 78.998047 81.652344 C 82.692724 81.190639 85.527764 78.771556 86.580078 75.185547 C 87.697846 71.374217 86.527789 67.09125 83.734375 64.765625 C 82.580355 63.806003 80.869764 63.962539 79.912109 65.113281 C 78.951432 66.265029 79.10776 67.973025 80.259766 68.931641 C 81.405732 69.885228 81.883656 71.917949 81.371094 73.660156 C 81.061946 74.71735 80.27981 76.026105 78.324219 76.269531 C 76.91845 76.446568 75.848142 76.206858 75.056641 75.542969 C 73.605556 74.321815 73.171444 71.818067 73.121094 70.923828 L 73.121094 68.666016 C 73.690995 62.854126 79.898926 57.088458 80.542969 49.720703 C 81.137098 42.8927 76.555402 41.918948 76.337891 39.541016 C 76.158645 37.582542 80.151206 38.365421 79.671875 36.583984 C 74.680185 18.03129 55.043395 9.0060354 55.029297 9 z "
     id="path23" /></svg>