<!-- Generated by IcoMoon.io -->
<svg version="1.1" xmlns="http://www.w3.org/2000/svg" width="24" height="24" viewBox="0 0 24 24">
<title>media</title>
<path d="M22.2 0h-20.4c-0.992 0-1.8 0.808-1.8 1.8v20.4c0 0.992 0.808 1.8 1.8 1.8h20.4c0.992 0 1.8-0.808 1.8-1.8v-20.4c0-0.992-0.808-1.8-1.8-1.8zM22.8 22.2c0 0.332-0.268 0.6-0.6 0.6h-20.4c-0.331 0-0.6-0.268-0.6-0.6v-20.4c0-0.331 0.269-0.6 0.6-0.6h20.4c0.332 0 0.6 0.269 0.6 0.6v20.4zM15.6 10.8c1.323 0 2.4-1.076 2.4-2.4s-1.077-2.4-2.4-2.4c-1.323 0-2.4 1.076-2.4 2.4s1.077 2.4 2.4 2.4zM15.6 7.2c0.661 0 1.2 0.539 1.2 1.2s-0.539 1.2-1.2 1.2c-0.661 0-1.2-0.539-1.2-1.2s0.539-1.2 1.2-1.2zM21 2.4h-18c-0.331 0-0.6 0.269-0.6 0.6v14.4c0 0.332 0.269 0.6 0.6 0.6h18c0.332 0 0.6-0.268 0.6-0.6v-14.4c0-0.331-0.268-0.6-0.6-0.6zM3.6 16.8v-2.771l3.851-4.333c0.098-0.112 0.228-0.173 0.362-0.175 0.134-0.001 0.265 0.058 0.367 0.165l6.638 7.114h-11.218zM20.4 16.8h-3.94l-7.403-7.932c-0.335-0.359-0.781-0.553-1.259-0.547-0.476 0.006-0.919 0.211-1.244 0.577l-2.954 3.323v-8.621h16.8v13.2z"></path>
</svg>
