<!-- Generated by IcoMoon.io -->
<svg version="1.1" xmlns="http://www.w3.org/2000/svg" width="28" height="28" viewBox="0 0 28 28">
<title>rules</title>
<path d="M5.95 27.125c-0.088 0-0.088 0-0.175 0h-0.087c-3.938-0.7-5.688-3.938-5.688-6.825 0-2.713 1.575-5.688 5.075-6.563v-4.025c0-0.525 0.35-0.875 0.875-0.875s0.875 0.35 0.875 0.875v4.725c0 0.438-0.35 0.787-0.7 0.875-2.975 0.438-4.375 2.8-4.375 4.988s1.313 4.55 4.2 5.075h0.175c0.438 0.088 0.788 0.525 0.7 1.050-0.088 0.438-0.438 0.7-0.875 0.7z"></path>
<path d="M21.175 27.387c0 0 0 0 0 0-2.8 0-5.775-1.662-6.65-5.075h-4.813c-0.525 0-0.875-0.35-0.875-0.875s0.35-0.875 0.875-0.875h5.512c0.438 0 0.787 0.35 0.875 0.7 0.438 2.975 2.8 4.288 4.988 4.375 2.188 0 4.55-1.313 5.075-4.2v-0.088c0.088-0.438 0.525-0.787 1.050-0.7 0.438 0.088 0.787 0.525 0.7 1.050v0.088c-0.612 3.85-3.85 5.6-6.737 5.6z"></path>
<path d="M21.525 18.55c-0.525 0-0.875-0.35-0.875-0.875v-4.813c0-0.438 0.35-0.787 0.7-0.875 2.975-0.438 4.288-2.8 4.375-4.987 0-2.188-1.313-4.55-4.2-5.075h-0.088c-0.525-0.175-0.875-0.613-0.787-1.050s0.525-0.788 1.050-0.7h0.088c3.938 0.7 5.688 3.937 5.688 6.825 0 2.713-1.662 5.688-5.075 6.563v4.113c0 0.438-0.438 0.875-0.875 0.875z"></path>
<path d="M1.137 6.737c-0.087 0-0.087 0-0.175 0-0.438-0.087-0.788-0.525-0.7-0.963v-0.087c0.7-3.938 3.85-5.688 6.737-5.688 0 0 0.087 0 0.087 0 2.712 0 5.688 1.662 6.563 5.075h4.025c0.525 0 0.875 0.35 0.875 0.875s-0.35 0.875-0.875 0.875h-4.725c-0.438 0-0.788-0.35-0.875-0.7-0.438-2.975-2.8-4.288-4.988-4.375-2.188 0-4.55 1.313-5.075 4.2v0.087c-0.088 0.438-0.438 0.7-0.875 0.7z"></path>
<path d="M7 10.588c-0.875 0-1.837-0.35-2.538-1.050-1.4-1.4-1.4-3.675 0-5.075 0.7-0.612 1.575-0.963 2.538-0.963s1.838 0.35 2.537 1.050c0.7 0.7 1.050 1.575 1.050 2.537s-0.35 1.837-1.050 2.538c-0.7 0.612-1.575 0.963-2.537 0.963zM7 5.25c-0.438 0-0.875 0.175-1.225 0.525-0.7 0.7-0.7 1.837 0 2.538s1.837 0.7 2.538 0c0.35-0.35 0.525-0.788 0.525-1.313s-0.175-0.875-0.525-1.225-0.788-0.525-1.313-0.525z"></path>
<path d="M21.088 23.887c-0.875 0-1.838-0.35-2.537-1.050-1.4-1.4-1.4-3.675 0-5.075 0.7-0.7 1.575-1.050 2.537-1.050s1.838 0.35 2.537 1.050c0.7 0.7 1.050 1.575 1.050 2.538s-0.35 1.837-1.050 2.537c-0.787 0.7-1.662 1.050-2.537 1.050zM21.088 18.55c-0.525 0-0.963 0.175-1.313 0.525-0.7 0.7-0.7 1.838 0 2.538s1.838 0.7 2.537 0c0.35-0.35 0.525-0.788 0.525-1.313s-0.175-0.963-0.525-1.313-0.787-0.438-1.225-0.438z"></path>
<path d="M20.387 10.588c-0.875 0-1.837-0.35-2.537-1.050s-1.050-1.575-1.050-2.537 0.35-1.837 1.050-2.538c0.7-0.612 1.662-0.962 2.537-0.962s1.838 0.35 2.538 1.050c1.4 1.4 1.4 3.675 0 5.075v0c-0.7 0.612-1.575 0.963-2.538 0.963zM20.387 5.25c-0.525 0-0.962 0.175-1.313 0.525s-0.525 0.788-0.525 1.313 0.175 0.962 0.525 1.313c0.7 0.7 1.838 0.7 2.538 0s0.7-1.838 0-2.538c-0.263-0.438-0.7-0.612-1.225-0.612z"></path>
<path d="M7.087 23.887c-0.875 0-1.837-0.35-2.538-1.050s-1.050-1.575-1.050-2.537 0.35-1.838 1.050-2.538c0.7-0.612 1.575-0.962 2.538-0.962s1.837 0.35 2.538 1.050c1.4 1.4 1.4 3.675 0 5.075v0c-0.7 0.612-1.575 0.962-2.538 0.962zM7.087 18.55c-0.525 0-0.962 0.175-1.313 0.525s-0.525 0.788-0.525 1.313 0.175 0.963 0.525 1.313c0.7 0.7 1.837 0.7 2.538 0s0.7-1.837 0-2.537c-0.263-0.438-0.7-0.612-1.225-0.612z"></path>
</svg>
