<!-- Generated by IcoMoon.io -->
<svg version="1.1" xmlns="http://www.w3.org/2000/svg" width="24" height="24" viewBox="0 0 24 24">
<title>schemas</title>
<path d="M18.75 24h-13.5c-2.925 0-5.25-2.325-5.25-5.25v-7.050c0-2.925 2.325-5.25 5.25-5.25h13.5c2.925 0 5.25 2.325 5.25 5.25v7.050c0 2.925-2.325 5.25-5.25 5.25zM5.25 7.95c-2.1 0-3.75 1.65-3.75 3.75v7.050c0 2.1 1.65 3.75 3.75 3.75h13.5c2.1 0 3.75-1.65 3.75-3.75v-7.050c0-2.1-1.65-3.75-3.75-3.75h-13.5z"></path>
<path d="M19.425 4.725h-14.85c-0.45 0-0.75-0.3-0.75-0.75s0.3-0.75 0.75-0.75h14.775c0.45 0 0.75 0.3 0.75 0.75s-0.3 0.75-0.675 0.75z"></path>
<path d="M16.8 1.5h-9.6c-0.45 0-0.75-0.3-0.75-0.75s0.3-0.75 0.75-0.75h9.675c0.45 0 0.75 0.3 0.75 0.75s-0.375 0.75-0.825 0.75z"></path>
<path d="M18.75 9.75v1.5c0 1.125-0.9 1.95-1.95 1.95h-9.6c-1.050 0.075-1.95-0.825-1.95-1.95v-1.5h-1.275v1.5c0 1.8 1.5 3.3 3.3 3.3h9.525c1.8 0 3.3-1.5 3.3-3.3v-1.5h-1.35z"></path>
</svg>
