<!-- Generated by IcoMoon.io -->
<svg version="1.1" xmlns="http://www.w3.org/2000/svg" width="24" height="24" viewBox="0 0 24 24">
<title>settings</title>
<path d="M23.885 10.33c-0.046-0.322-0.338-0.548-0.66-0.513-0.397 0.043-0.803-0.014-1.173-0.166-1.225-0.504-1.811-1.909-1.307-3.134 0.155-0.371 0.397-0.7 0.708-0.952 0.253-0.203 0.298-0.569 0.102-0.829-0.677-0.89-1.472-1.681-2.363-2.345-0.251-0.19-0.605-0.151-0.812 0.086-0.675 0.779-1.771 1.037-2.723 0.646-0.954-0.392-1.549-1.348-1.481-2.378 0.020-0.313-0.205-0.59-0.515-0.633-1.102-0.155-2.222-0.155-3.329 0.002-0.322 0.046-0.548 0.337-0.512 0.661 0.043 0.396-0.014 0.802-0.168 1.172-0.504 1.225-1.908 1.81-3.132 1.306-0.371-0.152-0.7-0.397-0.952-0.707-0.203-0.252-0.57-0.298-0.829-0.101-0.89 0.676-1.68 1.469-2.345 2.362-0.19 0.251-0.151 0.605 0.085 0.812 0.78 0.677 1.038 1.772 0.646 2.726-0.392 0.953-1.348 1.548-2.377 1.48-0.313-0.020-0.59 0.205-0.632 0.515-0.155 1.102-0.155 2.222 0.002 3.33 0.046 0.321 0.337 0.547 0.66 0.511 0.396-0.043 0.802 0.016 1.172 0.168 1.224 0.505 1.81 1.909 1.306 3.134-0.152 0.37-0.397 0.698-0.707 0.95-0.253 0.205-0.298 0.571-0.102 0.829 0.677 0.892 1.472 1.681 2.363 2.347 0.041 0.032 0.086 0.055 0.131 0.075 0.233 0.095 0.509 0.036 0.682-0.163 0.676-0.778 1.771-1.037 2.725-0.645 0.953 0.392 1.548 1.348 1.48 2.378-0.019 0.313 0.205 0.59 0.517 0.634 1.102 0.154 2.22 0.154 3.329-0.002 0.32-0.046 0.547-0.339 0.511-0.662-0.043-0.397 0.016-0.803 0.169-1.173 0.504-1.225 1.909-1.81 3.133-1.305 0.37 0.153 0.7 0.397 0.95 0.707 0.204 0.253 0.571 0.298 0.83 0.101 0.89-0.677 1.679-1.471 2.346-2.363 0.187-0.25 0.15-0.605-0.087-0.812-0.779-0.676-1.038-1.771-0.646-2.724 0.392-0.955 1.348-1.549 2.378-1.482 0.313 0.022 0.589-0.203 0.633-0.515 0.154-1.102 0.152-2.221-0.003-3.328zM22.759 12.985c-1.316 0.124-2.477 0.964-2.992 2.214s-0.283 2.663 0.565 3.677c-0.415 0.503-0.878 0.968-1.379 1.39-0.299-0.263-0.642-0.477-1.013-0.629-1.834-0.757-3.943 0.122-4.699 1.959-0.152 0.368-0.241 0.763-0.265 1.161-0.653 0.060-1.309 0.062-1.96 0.002-0.124-1.315-0.964-2.477-2.214-2.991-1.25-0.515-2.663-0.281-3.678 0.564-0.504-0.415-0.968-0.878-1.39-1.38 0.263-0.298 0.477-0.642 0.631-1.011 0.755-1.837-0.124-3.944-1.959-4.7-0.371-0.152-0.764-0.242-1.163-0.266-0.059-0.653-0.061-1.309 0-1.958 1.315-0.124 2.476-0.963 2.99-2.213 0.515-1.252 0.283-2.663-0.565-3.677 0.415-0.505 0.878-0.97 1.38-1.391 0.299 0.263 0.642 0.477 1.013 0.629 1.835 0.756 3.943-0.123 4.699-1.958 0.153-0.37 0.242-0.764 0.266-1.163 0.653-0.059 1.308-0.060 1.958 0 0.124 1.315 0.964 2.475 2.215 2.99 1.25 0.514 2.663 0.281 3.677-0.565 0.504 0.416 0.968 0.878 1.39 1.379-0.263 0.3-0.477 0.642-0.629 1.013-0.756 1.835 0.123 3.944 1.957 4.699 0.371 0.152 0.766 0.242 1.163 0.267 0.060 0.653 0.061 1.308 0.002 1.958zM12 7.2c-2.651 0-4.8 2.149-4.8 4.8s2.149 4.801 4.8 4.801 4.8-2.149 4.8-4.801c0-2.651-2.149-4.8-4.8-4.8zM12 15.601c-1.988 0-3.6-1.613-3.6-3.601s1.612-3.6 3.6-3.6c1.988 0 3.6 1.612 3.6 3.6s-1.612 3.601-3.6 3.601z"></path>
</svg>
