<!-- Generated by IcoMoon.io -->
<svg version="1.1" xmlns="http://www.w3.org/2000/svg" width="28" height="28" viewBox="0 0 28 28">
<title>single-content</title>
<path d="M6.875 2.75c-2.403 0-4.375 1.972-4.375 4.375v14.375c0 2.403 1.972 4.375 4.375 4.375h14.375c2.403 0 4.375-1.972 4.375-4.375v-14.375c0-2.403-1.972-4.375-4.375-4.375zM6.875 4h14.375c1.722 0 3.125 1.403 3.125 3.125v14.375c0 1.722-1.403 3.125-3.125 3.125h-14.375c-1.722 0-3.125-1.403-3.125-3.125v-14.375c0-1.722 1.403-3.125 3.125-3.125z"></path>
<path d="M6.875 8.375c-0.003-0-0.006-0-0.009-0-0.345 0-0.625 0.28-0.625 0.625s0.28 0.625 0.625 0.625c0.003 0 0.006-0 0.009-0h14.375c0.003 0 0.006 0 0.009 0 0.345 0 0.625-0.28 0.625-0.625s-0.28-0.625-0.625-0.625c-0.003 0-0.006 0-0.009 0h0z"></path>
<path d="M6.875 12.125c-0.003-0-0.006-0-0.009-0-0.345 0-0.625 0.28-0.625 0.625s0.28 0.625 0.625 0.625c0.003 0 0.006-0 0.009-0h8.125c0.003 0 0.006 0 0.009 0 0.345 0 0.625-0.28 0.625-0.625s-0.28-0.625-0.625-0.625c-0.003 0-0.006 0-0.009 0h0z"></path>
<path d="M6.875 15.875c-0.003-0-0.006-0-0.009-0-0.345 0-0.625 0.28-0.625 0.625s0.28 0.625 0.625 0.625c0.003 0 0.006-0 0.009-0h8.125c0.003 0 0.006 0 0.009 0 0.345 0 0.625-0.28 0.625-0.625s-0.28-0.625-0.625-0.625c-0.003 0-0.006 0-0.009 0h0z"></path>
</svg>
