<!-- Generated by IcoMoon.io -->
<svg version="1.1" xmlns="http://www.w3.org/2000/svg" width="24" height="24" viewBox="0 0 24 24">
<title>translate</title>
<path d="M15.891 17.016h3.234l-1.641-4.359zM18.516 9.984l4.5 12h-2.016l-1.125-3h-4.734l-1.125 3h-2.016l4.5-12h2.016zM12.891 15.047l-0.797 2.063-3.094-3.094-5.016 4.969-1.406-1.406 5.109-5.016c-1.266-1.406-2.25-2.906-3-4.547h2.016c0.609 1.172 1.359 2.297 2.297 3.328 1.453-1.594 2.531-3.422 3.188-5.344h-11.203v-2.016h7.031v-1.969h1.969v1.969h7.031v2.016h-2.953c-0.75 2.344-1.969 4.594-3.703 6.516l-0.047 0.047z"></path>
</svg>
