<!-- Generated by IcoMoon.io -->
<svg version="1.1" xmlns="http://www.w3.org/2000/svg" width="24" height="24" viewBox="0 0 24 24">
<title>type-References</title>
<path d="M9.6 10.2h-3.6v1.2h3.6v-1.2zM9.6 7.8h-3.6v1.2h3.6v-1.2zM6 16.2h9.6v-1.2h-9.6v1.2zM9.6 5.4h-3.6v1.2h3.6v-1.2zM20.4 4.2h-1.2v-1.2c0-0.662-0.538-1.2-1.2-1.2h-14.4c-0.662 0-1.2 0.538-1.2 1.2v15.6c0 0.662 0.538 1.2 1.2 1.2h1.2v1.2c0 0.662 0.538 1.2 1.2 1.2h14.4c0.662 0 1.2-0.538 1.2-1.2v-15.6c0-0.662-0.538-1.2-1.2-1.2zM4.2 18.6c-0.332 0-0.6-0.268-0.6-0.6v-14.4c0-0.331 0.268-0.6 0.6-0.6h13.2c0.332 0 0.6 0.269 0.6 0.6v14.4c0 0.332-0.268 0.6-0.6 0.6h-13.2zM20.4 20.4c0 0.332-0.268 0.6-0.6 0.6h-13.2c-0.332 0-0.6-0.268-0.6-0.6v-0.6h12c0.662 0 1.2-0.538 1.2-1.2v-13.2h0.6c0.332 0 0.6 0.269 0.6 0.6v14.4zM14.4 5.4h-2.4c-0.662 0-1.2 0.538-1.2 1.2v3.6c0 0.662 0.538 1.2 1.2 1.2h2.4c0.662 0 1.2-0.538 1.2-1.2v-3.6c0-0.662-0.538-1.2-1.2-1.2zM14.4 10.2h-2.4v-3.6h2.4v3.6zM6 13.8h9.6v-1.2h-9.6v1.2z"></path>
</svg>
