<!-- Generated by IcoMoon.io -->
<svg version="1.1" xmlns="http://www.w3.org/2000/svg" width="24" height="24" viewBox="0 0 24 24">
<title>type-String</title>
<path d="M20.4 21.6h-16.8c-0.331 0-0.6 0.268-0.6 0.6s0.269 0.6 0.6 0.6h16.8c0.332 0 0.6-0.268 0.6-0.6s-0.268-0.6-0.6-0.6zM4.563 19.152c0.305 0.13 0.658-0.011 0.788-0.315l2.93-6.837h7.438l2.93 6.837c0.098 0.227 0.318 0.363 0.551 0.363 0.080 0 0.16-0.015 0.237-0.048 0.305-0.131 0.445-0.484 0.315-0.788l-3.085-7.194c-0.001-0.001-0.001-0.004-0.002-0.005l-4.113-9.6c-0.095-0.222-0.312-0.365-0.552-0.365s-0.457 0.143-0.552 0.364l-4.113 9.6c-0.001 0.001-0.001 0.004-0.002 0.005l-3.085 7.195c-0.13 0.305 0.011 0.658 0.315 0.789zM12 3.323l3.204 7.477h-6.408l3.204-7.477z"></path>
</svg>
