<!-- Generated by IcoMoon.io -->
<svg version="1.1" xmlns="http://www.w3.org/2000/svg" width="24" height="24" viewBox="0 0 24 24">
<title>type-Number</title>
<path d="M6 15.6h-1.8v-7.8c0-0.331-0.269-0.6-0.6-0.6h-1.8c-0.331 0-0.6 0.269-0.6 0.6s0.269 0.6 0.6 0.6h1.2v7.2h-1.8c-0.331 0-0.6 0.269-0.6 0.6s0.269 0.6 0.6 0.6h4.8c0.331 0 0.6-0.269 0.6-0.6s-0.269-0.6-0.6-0.6zM14.4 7.2h-4.8c-0.331 0-0.6 0.269-0.6 0.6s0.269 0.6 0.6 0.6h4.2v3h-4.2c-0.331 0-0.6 0.269-0.6 0.6v4.2c0 0.331 0.269 0.6 0.6 0.6h4.8c0.331 0 0.6-0.269 0.6-0.6s-0.269-0.6-0.6-0.6h-4.2v-3h4.2c0.331 0 0.6-0.269 0.6-0.6v-4.2c0-0.331-0.269-0.6-0.6-0.6zM22.8 7.2h-4.8c-0.331 0-0.6 0.269-0.6 0.6s0.269 0.6 0.6 0.6h4.2v3h-4.2c-0.331 0-0.6 0.269-0.6 0.6s0.269 0.6 0.6 0.6h4.2v3h-4.2c-0.331 0-0.6 0.269-0.6 0.6s0.269 0.6 0.6 0.6h4.8c0.331 0 0.6-0.269 0.6-0.6v-8.4c0-0.331-0.269-0.6-0.6-0.6z"></path>
</svg>
