<?xml version="1.0" encoding="UTF-8" standalone="no"?>
<!-- Generator: Adobe Illustrator 16.0.0, SVG Export Plug-In . SVG Version: 6.00 Build 0)  -->

<svg
   xmlns:dc="http://purl.org/dc/elements/1.1/"
   xmlns:cc="http://creativecommons.org/ns#"
   xmlns:rdf="http://www.w3.org/1999/02/22-rdf-syntax-ns#"
   xmlns:svg="http://www.w3.org/2000/svg"
   xmlns="http://www.w3.org/2000/svg"
   xmlns:sodipodi="http://sodipodi.sourceforge.net/DTD/sodipodi-0.dtd"
   xmlns:inkscape="http://www.inkscape.org/namespaces/inkscape"
   version="1.1"
   id="Layer_1"
   x="0px"
   y="0px"
   width="40px"
   height="40px"
   viewBox="0 0 40 40"
   enable-background="new 0 0 40 40"
   xml:space="preserve"
   inkscape:version="0.91 r13725"
   sodipodi:docname="Number.svg"><metadata
     id="metadata13"><rdf:RDF><cc:Work
         rdf:about=""><dc:format>image/svg+xml</dc:format><dc:type
           rdf:resource="http://purl.org/dc/dcmitype/StillImage" /></cc:Work></rdf:RDF></metadata><defs
     id="defs11" /><sodipodi:namedview
     pagecolor="#ffffff"
     bordercolor="#666666"
     borderopacity="1"
     objecttolerance="10"
     gridtolerance="10"
     guidetolerance="10"
     inkscape:pageopacity="0"
     inkscape:pageshadow="2"
     inkscape:window-width="742"
     inkscape:window-height="480"
     id="namedview9"
     showgrid="false"
     inkscape:zoom="5.9"
     inkscape:cx="20"
     inkscape:cy="20"
     inkscape:window-x="2755"
     inkscape:window-y="398"
     inkscape:window-maximized="0"
     inkscape:current-layer="Layer_1" /><path
     d="M 10,26 7,26 7,13 C 7,12.448 6.552,12 6,12 l -3,0 c -0.552,0 -1,0.448 -1,1 0,0.552 0.448,1 1,1 l 2,0 0,12 -3,0 c -0.552,0 -1,0.448 -1,1 0,0.552 0.448,1 1,1 l 8,0 c 0.552,0 1,-0.448 1,-1 0,-0.552 -0.448,-1 -1,-1 z m 14,-14 -8,0 c -0.552,0 -1,0.448 -1,1 0,0.552 0.448,1 1,1 l 7,0 0,5 -7,0 c -0.552,0 -1,0.448 -1,1 l 0,7 c 0,0.552 0.448,1 1,1 l 8,0 c 0.552,0 1,-0.448 1,-1 0,-0.552 -0.448,-1 -1,-1 l -7,0 0,-5 7,0 c 0.552,0 1,-0.448 1,-1 l 0,-7 c 0,-0.552 -0.448,-1 -1,-1 z m 14,0 -8,0 c -0.552,0 -1,0.448 -1,1 0,0.552 0.448,1 1,1 l 7,0 0,5 -7,0 c -0.552,0 -1,0.448 -1,1 0,0.552 0.448,1 1,1 l 7,0 0,5 -7,0 c -0.552,0 -1,0.448 -1,1 0,0.552 0.448,1 1,1 l 8,0 c 0.552,0 1,-0.448 1,-1 l 0,-14 c 0,-0.552 -0.448,-1 -1,-1 z"
     id="path7"
     inkscape:connector-curvature="0"
     style="fill:#000000" /></svg>
