<?xml version="1.0" encoding="UTF-8" standalone="no"?>
<!-- Generator: Adobe Illustrator 16.0.0, SVG Export Plug-In . SVG Version: 6.00 Build 0)  -->

<svg
   xmlns:dc="http://purl.org/dc/elements/1.1/"
   xmlns:cc="http://creativecommons.org/ns#"
   xmlns:rdf="http://www.w3.org/1999/02/22-rdf-syntax-ns#"
   xmlns:svg="http://www.w3.org/2000/svg"
   xmlns="http://www.w3.org/2000/svg"
   xmlns:sodipodi="http://sodipodi.sourceforge.net/DTD/sodipodi-0.dtd"
   xmlns:inkscape="http://www.inkscape.org/namespaces/inkscape"
   version="1.1"
   id="Layer_1"
   x="0px"
   y="0px"
   width="16px"
   height="16px"
   viewBox="0 0 16 16"
   enable-background="new 0 0 16 16"
   xml:space="preserve"
   inkscape:version="0.91 r13725"
   sodipodi:docname="user.svg"><metadata
     id="metadata9"><rdf:RDF><cc:Work
         rdf:about=""><dc:format>image/svg+xml</dc:format><dc:type
           rdf:resource="http://purl.org/dc/dcmitype/StillImage" /></cc:Work></rdf:RDF></metadata><defs
     id="defs7" /><sodipodi:namedview
     pagecolor="#ffffff"
     bordercolor="#666666"
     borderopacity="1"
     objecttolerance="10"
     gridtolerance="10"
     guidetolerance="10"
     inkscape:pageopacity="0"
     inkscape:pageshadow="2"
     inkscape:window-width="1920"
     inkscape:window-height="1017"
     id="namedview5"
     showgrid="false"
     inkscape:zoom="14.75"
     inkscape:cx="-3.8983051"
     inkscape:cy="10.711864"
     inkscape:window-x="1912"
     inkscape:window-y="-8"
     inkscape:window-maximized="1"
     inkscape:current-layer="Layer_1" /><path
     d="m 14.925334,13.25 c 0,0.96775 -0.775238,1.75 -1.730725,1.75 L 2.8067528,15 C 1.853016,15 1.0777767,14.21775 1.0777767,13.25 c 0,-0.01925 -0.17499759,-0.0017 0,0 0.8294885,-2.5095 3.762448,-3.5000004 6.9229044,-3.5000004 3.1674559,0 6.1004149,0.9782504 6.9246529,3.5000004 0.167998,0 0,-0.0017 0,0 z M 4.5374788,4.4999993 c 0,-1.9320002 1.5504787,-3.5000003 3.4632023,-3.5000003 1.9127229,0 3.4632019,1.5680001 3.4632019,3.5000003 0,1.9320001 -1.550479,5.2500003 -3.4632019,5.2500003 -1.9127236,0 -3.4632023,-3.3180002 -3.4632023,-5.2500003 z"
     id="path3"
     style="clip-rule:evenodd;fill:#000000;fill-rule:evenodd"
     inkscape:connector-curvature="0" /></svg>