<svg xmlns="http://www.w3.org/2000/svg" id="Layer_1" x="0" y="0" version="1.1" viewBox="0 0 64 64" xml:space="preserve">
  <style id="style8137" type="text/css">
    .st6{fill:#b5b5ea}.st15{fill:#fff}
  </style>
  <g id="g8143">
    <path id="path8145" fill="#b4bcc1" d="M11.8 16c.2.4.2.9.2 1.3V19h1v-1.6c0-.7-.1-1.4-.4-2l-.1-3.1c-.4-1.2-.3-2.5.4-3.5.6-1 1.6-1.6 2.7-1.7H23.2c2.4 0 4.6.9 6.3 2.6l4.7 4.7c2.1 2.1 4.8 3.2 7.7 3.2H50v-2h-8.1c-2.4 0-4.6-.9-6.3-2.6l-4.7-4.7C28.8 6.1 26.1 5 23.2 5h-7.8c-1.7.2-3.2 1.1-4.2 2.6-1 1.6-1.2 3.5-.6 5.3l1.2 3.1z"/>
  </g>
  <g id="g8147">
    <path id="path8149" fill="#d7d7f9" d="M3 24v-4.5C3 15.9 5.9 13 9.5 13h12.8c1.7 0 3.4.7 4.6 1.9l7.2 9.2c1.2 1.2 2.9 1.9 4.6 1.9h7.8C55.1 26 61 30.9 61 39.5v15c0 3.6-3.9 6.5-7.5 6.5h-44C5.9 61 3 58.1 3 54.5V24z"/>
    <path id="path8151" fill="#2e3842" d="M53.5 62h-44C5.4 62 2 58.6 2 54.5v-35C2 15.4 5.4 12 9.5 12h12.8c2 0 3.9.8 5.3 2.2l.1.1 7.2 9.2c1 1 2.4 1.6 3.8 1.6h7.8C55.9 25 62 30.7 62 39.5v15c0 4.3-4.5 7.5-8.5 7.5zm-44-48c-3 0-5.5 2.5-5.5 5.5v35.1c0 3 2.5 5.5 5.5 5.5h44.1c2.9 0 6.5-2.4 6.5-5.5v-15C60 31.8 54.8 27 46.5 27h-7.8c-2 0-3.9-.8-5.3-2.2l-.1-.1-7.2-9.2c-1-1-2.4-1.6-3.8-1.6H9.5z"/>
  </g>
  <g id="g8153">
    <path id="path8155" fill="#ededf9" d="M53 60H10c-3.8 0-6-2.2-6-6V20c0-3.8 2.2-6 6-6h12c2 0 3.6 1.2 4.7 2.3l.1.1 7 8.9c.6.5 2.1 1.7 4.5 1.5h7.3C54.7 26.9 60 31.3 60 39v15c0 3.6-2.8 6-7 6zM10 16c-2.7 0-4 1.3-4 4v34c0 2.7 1.3 4 4 4h43c2.3 0 5-1 5-4V39c0-8.8-7.9-10.1-12.5-10.1h-7.2c-2.2.1-4.4-.6-6-2.1l-.1-.1-7-8.9C24 16.5 23.1 16 22 16H10z"/>
  </g>
  <g id="g8157">
    <g id="g8159">
      <path id="path8161" d="M22 41c-2.8 0-5-2.2-5-5s2.2-5 5-5 5 2.2 5 5-2.2 5-5 5zm0-8c-1.7 0-3 1.3-3 3s1.3 3 3 3 3-1.3 3-3-1.3-3-3-3z" class="st6"/>
    </g>
  </g>
  <g id="g8163">
    <g id="g8165">
      <g id="g8167">
        <path id="path8169" d="M17 36c0-.3 0-.7.1-1H14c-.6 0-1 .4-1 1s.4 1 1 1h3.1c-.1-.3-.1-.7-.1-1z" class="st6"/>
      </g>
    </g>
    <g id="g8171">
      <g id="g8173">
        <path id="path8175" d="M49 35H26.9c.1.3.1.7.1 1s0 .7-.1 1H49c.6 0 1-.4 1-1s-.4-1-1-1z" class="st6"/>
      </g>
    </g>
  </g>
  <g id="g8177">
    <g id="g8179">
      <path id="path8181" d="M41 52c-2.8 0-5-2.2-5-5s2.2-5 5-5 5 2.2 5 5-2.2 5-5 5zm0-8c-1.7 0-3 1.3-3 3s1.3 3 3 3 3-1.3 3-3-1.3-3-3-3z" class="st6"/>
    </g>
  </g>
  <g id="g8183">
    <g id="g8185">
      <g id="g8187">
        <path id="path8189" d="M46 47c0-.3 0-.7-.1-1H49c.6 0 1 .4 1 1s-.4 1-1 1h-3.1c.1-.3.1-.7.1-1z" class="st6"/>
      </g>
    </g>
    <g id="g8191">
      <g id="g8193">
        <path id="path8195" d="M14 46h22.1c-.1.3-.1.7-.1 1s0 .7.1 1H14c-.6 0-1-.4-1-1s.4-1 1-1z" class="st6"/>
      </g>
    </g>
  </g>
  <g id="g8197">
    <circle id="circle8199" cx="51.9" cy="12.1" r="11.1" fill="#3389ff"/>
    <path id="path8201" d="M51.9 24.2c-6.7 0-12.1-5.4-12.1-12.1S45.2 0 51.9 0 64 5.4 64 12.1s-5.4 12.1-12.1 12.1zm0-22.2c-5.6 0-10.1 4.5-10.1 10.1s4.5 10.1 10.1 10.1S62 17.7 62 12.1 57.5 2 51.9 2z" class="st15"/>
  </g>
  <g id="g8203">
    <path id="path8205" d="M57 13H47c-.6 0-1-.4-1-1s.4-1 1-1h10c.6 0 1 .4 1 1s-.4 1-1 1z" class="st15"/>
  </g>
  <g id="g8207">
    <path id="path8209" d="M52 18c-.6 0-1-.4-1-1V7c0-.6.4-1 1-1s1 .4 1 1v10c0 .6-.4 1-1 1z" class="st15"/>
  </g>
</svg>