<svg xmlns="http://www.w3.org/2000/svg" id="Layer_1" x="0" y="0" version="1.1" xml:space="preserve" viewBox="0 0 57 71.8">
  <path id="path258" fill="#aee2f4" stroke="#64afdd" stroke-linecap="round" stroke-linejoin="round" stroke-miterlimit="10" stroke-width="2" d="M45.2 70.8H11.8C5.9 70.8 1 65.9 1 60V11.8C1 5.9 5.9 1 11.8 1h39.1C53.7 1 56 3.3 56 6.1V60c0 5.9-4.9 10.8-10.8 10.8z"/>
  <path id="path260" fill="none" stroke="#dce9ef" stroke-linecap="round" stroke-linejoin="round" stroke-miterlimit="10" stroke-width="2" d="M45.4 68.8H11.5c-4.9 0-8.9-4-8.9-8.9V11.6c0-4.9 4-8.9 8.9-8.9H51c1.8 0 3.3 1.5 3.3 3.3v53.9c0 4.9-4 8.9-8.9 8.9z"/>
  <g id="g272" transform="translate(-317 -144)">
    <path id="path270" fill="#4ca9d8" d="M345.6 178.9l-3.9 10.7h-1.3l-6.2-16.7c-.2-.7-.8-.9-1.6-1v-.9h7.7v.9c-1.4.1-1.9.4-1.9 1.1 0 .4.2.8.3 1.3l3.6 10.1 2.6-7.1-1.4-4.3c-.2-.7-.7-.9-1.4-1v-.9h7.6v.9c-1.6 0-2.1.3-2.1 1.1 0 .4.1.8.3 1.3l3.2 9.8 3.3-9.8c.2-.5.3-.9.3-1.2 0-.8-.5-1.1-2.1-1.2v-.9h5.2v.9c-.7.1-1.3.3-1.5 1l-5.8 16.7h-1.3z"/>
  </g>
</svg>