<svg xmlns="http://www.w3.org/2000/svg" id="Layer_1" x="0" y="0" version="1.1" xml:space="preserve" viewBox="0 0 57 71.8">
  <path id="path254" fill="#c1bae5" stroke="#585ebf" stroke-linecap="round" stroke-linejoin="round" stroke-miterlimit="10" stroke-width="2" d="M45.2 70.8H11.8C5.9 70.8 1 65.9 1 60V11.8C1 5.9 5.9 1 11.8 1h39.1C53.7 1 56 3.3 56 6.1V60c0 5.9-4.9 10.8-10.8 10.8z" class="st39"/>
  <path id="path256" fill="none" stroke="#e4ddf2" stroke-linecap="round" stroke-linejoin="round" stroke-miterlimit="10" stroke-width="2" d="M45.4 68.8H11.5c-4.9 0-8.9-4-8.9-8.9V11.6c0-4.9 4-8.9 8.9-8.9H51c1.8 0 3.3 1.5 3.3 3.3v53.9c0 4.9-4 8.9-8.9 8.9z"/>
  <path id="path288" fill="#c1bae5" stroke="#585ebf" stroke-linecap="round" stroke-linejoin="round" stroke-miterlimit="10" stroke-width="2" d="M23 43.6v-16c0-1.5 1.7-2.3 2.9-1.4L37 34.6c1 .7.9 2.2-.1 2.9l-11.1 7.7c-1.2.7-2.8-.2-2.8-1.6z" class="st39"/>
</svg>