<svg xmlns="http://www.w3.org/2000/svg" id="Layer_1" x="0" y="0" version="1.1" xml:space="preserve" viewBox="0 0 57 71.8">
  <path id="path222" fill="#f2bdbd" stroke="#d6516b" stroke-linecap="round" stroke-linejoin="round" stroke-miterlimit="10" stroke-width="2" d="M45.2 70.8H11.8C5.9 70.8 1 65.9 1 60V11.8C1 5.9 5.9 1 11.8 1h39.1C53.7 1 56 3.3 56 6.1V60c0 5.9-4.9 10.8-10.8 10.8z"/>
  <path id="path224" fill="none" stroke="#f7dcdc" stroke-linecap="round" stroke-linejoin="round" stroke-miterlimit="10" stroke-width="2" d="M45.4 68.8H11.5c-4.9 0-8.9-4-8.9-8.9V11.6c0-4.9 4-8.9 8.9-8.9H51c1.8 0 3.3 1.5 3.3 3.3v53.9c0 4.9-4 8.9-8.9 8.9z"/>
  <path id="path236" fill="#d6516b" d="M41.8 39.4c-.4-.9-1.5-1.3-3.3-1.3-1 0-2.3.1-3.8.4-2.1-2.2-4.2-5.4-5.7-8.6 1.5-6.4.8-7.3.4-7.7-.4-.5-.9-1.2-1.4-1.2-.2 0-.9.1-1.1.2-.6.2-1 .7-1.3 1.4-.8 1.9.3 5.1 1.4 7.5-1 3.9-2.6 8.5-4.3 12.2-4.3 2-6.5 3.9-6.7 5.8-.1.7.1 1.7 1.3 2.6.3.2.7.4 1.1.4 1 0 2-.8 3.1-2.4.8-1.2 1.7-2.8 2.7-4.8 3-1.3 6.7-2.5 9.9-3.2 1.8 1.7 3.4 2.6 4.7 2.6 1 0 1.9-.5 2.5-1.4.7-1 .9-1.8.5-2.5zm-23.4 9.7c-.5-.4-.5-.7-.5-.8.1-.6 1-1.8 3.5-3.1-1.9 3.4-2.8 3.8-3 3.9zm9.2-26s1.2 1.3.1 3.7c-1.6-1.8-.2-3.7-.1-3.7zm-2.3 18.1c1.1-2.7 2.2-5.8 3-8.6 1.3 2.3 2.8 4.5 4.3 6.3-2.4.6-5 1.4-7.3 2.3zm14.5-.5c-.3.5-1.1.5-1.4.5-.6 0-.8-.4-1.7-1.1.8-.1 1.5-.1 2-.1 1 0 1.2.1 1.3.2.1.1 0 .3-.2.5z"/>
</svg>