<svg xmlns="http://www.w3.org/2000/svg" id="Layer_1" x="0" y="0" version="1.1" xml:space="preserve" viewBox="0 0 57 71.8">
  <path id="path262" fill="#f7c38b" stroke="#e57e5e" stroke-linecap="round" stroke-linejoin="round" stroke-miterlimit="10" stroke-width="2" d="M45.2 70.8H11.8C5.9 70.8 1 65.9 1 60V11.8C1 5.9 5.9 1 11.8 1h39.1C53.7 1 56 3.3 56 6.1V60c0 5.9-4.9 10.8-10.8 10.8z"/>
  <path id="path264" fill="none" stroke="#f4e5d9" stroke-linecap="round" stroke-linejoin="round" stroke-miterlimit="10" stroke-width="2" d="M45.4 68.8H11.5c-4.9 0-8.9-4-8.9-8.9V11.6c0-4.9 4-8.9 8.9-8.9H51c1.8 0 3.3 1.5 3.3 3.3v53.9c0 4.9-4 8.9-8.9 8.9z"/>
  <path id="path266" fill="none" stroke="#e57e5e" stroke-linecap="round" stroke-linejoin="round" stroke-miterlimit="10" stroke-width="2" d="M32.5 23h-.3v9h9.7c-.3-5-4.4-9-9.4-9z" class="st45"/>
  <path id="path268" fill="none" stroke="#e57e5e" stroke-linecap="round" stroke-linejoin="round" stroke-miterlimit="10" stroke-width="2" d="M28 36V23c-7.2.3-13 6.2-13 13.5C15 44 21 50 28.5 50S42 44 42 36.5V36z" class="st45"/>
</svg>