<svg xmlns="http://www.w3.org/2000/svg" id="Layer_1" x="0" y="0" version="1.1" xml:space="preserve" viewBox="0 0 57 71.8">
  <path id="path238" fill="#bae8ca" stroke="#57c178" stroke-linecap="round" stroke-linejoin="round" stroke-miterlimit="10" stroke-width="2" d="M45.2 70.8H11.8C5.9 70.8 1 65.9 1 60V11.8C1 5.9 5.9 1 11.8 1h39.1C53.7 1 56 3.3 56 6.1V60c0 5.9-4.9 10.8-10.8 10.8z" class="st37"/>
  <path id="path240" fill="none" stroke="#dcf4e5" stroke-linecap="round" stroke-linejoin="round" stroke-miterlimit="10" stroke-width="2" d="M45.4 68.8H11.5c-4.9 0-8.9-4-8.9-8.9V11.6c0-4.9 4-8.9 8.9-8.9H51c1.8 0 3.3 1.5 3.3 3.3v53.9c0 4.9-4 8.9-8.9 8.9z"/>
  <path id="line242" fill="#bae8ca" stroke="#57c178" stroke-linecap="round" stroke-linejoin="round" stroke-miterlimit="10" stroke-width="2" d="M43 26H15" class="st37"/>
  <path id="line244" fill="#bae8ca" stroke="#57c178" stroke-linecap="round" stroke-linejoin="round" stroke-miterlimit="10" stroke-width="2" d="M15 36h28" class="st37"/>
  <path id="line246" fill="#bae8ca" stroke="#57c178" stroke-linecap="round" stroke-linejoin="round" stroke-miterlimit="10" stroke-width="2" d="M15 46h28" class="st37"/>
  <path id="line248" fill="#bae8ca" stroke="#57c178" stroke-linecap="round" stroke-linejoin="round" stroke-miterlimit="10" stroke-width="2" d="M15 26v20" class="st37"/>
  <path id="line250" fill="#bae8ca" stroke="#57c178" stroke-linecap="round" stroke-linejoin="round" stroke-miterlimit="10" stroke-width="2" d="M43 26v20" class="st37"/>
  <path id="line252" fill="#bae8ca" stroke="#57c178" stroke-linecap="round" stroke-linejoin="round" stroke-miterlimit="10" stroke-width="2" d="M29 26v20" class="st37"/>
</svg>