<svg xmlns="http://www.w3.org/2000/svg" id="Layer_1" x="0" y="0" version="1.1" xml:space="preserve" viewBox="0 0 61 61">
  <circle id="circle188" cx="30.5" cy="30.5" r="29.5" fill="#d6e2b3" fill-rule="evenodd" stroke="#2e3842" stroke-linecap="round" stroke-linejoin="round" stroke-miterlimit="10" stroke-width="2" clip-rule="evenodd"/>
  <path id="path190" fill="#fff" fill-rule="evenodd" d="M25.3 45.7c2.7.3 7.2.4 13.6-.6 4.9-1.3 9.1-4.4 9.1-13 0-3-1.1-5.5-2.8-7.4.3-.7 1.2-3.5-.3-7.3 0 0-2.3-.7-7.6 2.8-2.2-.6-4.6-.9-6.9-.9-2.4 0-4.7.3-6.9.9-5.3-3.6-7.6-2.8-7.6-2.8-1.5 3.8-.6 6.6-.3 7.3-1.8 1.9-2.9 4.4-2.9 7.4 0 10.5 6.4 12.9 12.6 13.6z" clip-rule="evenodd"/>
  <path id="path192" fill="#77ba61" d="M41 31.6c-2.3-2.1-6.1-1-10.5-1h-.1c-4.4 0-8.2-1.1-10.5 1-1.4 1.3-1.9 2.8-1.9 4.4 0 6.8 5.4 7.6 12.4 7.6h.1c7 0 12.4-.8 12.4-7.6 0-1.7-.6-3.2-1.9-4.4zm-16.5 8.3c-1.3 0-2.4-1.5-2.4-3.3 0-1.8 1.1-3.3 2.4-3.3 1.3 0 2.4 1.5 2.4 3.3 0 1.8-1.1 3.3-2.4 3.3zm11.8 0c-1.3 0-2.4-1.5-2.4-3.3 0-1.8 1.1-3.3 2.4-3.3 1.3 0 2.4 1.5 2.4 3.3 0 1.8-1.1 3.3-2.4 3.3z"/>
  <circle id="circle194" cx="30.5" cy="30.5" r="27.5" fill="none" fill-rule="evenodd" stroke="#e7f7dc" stroke-linecap="round" stroke-linejoin="round" stroke-miterlimit="10" stroke-width="2" clip-rule="evenodd"/>
</svg>