<svg xmlns="http://www.w3.org/2000/svg" id="Layer_1" x="0" y="0" version="1.1" xml:space="preserve" viewBox="0 0 57 62">
  <path id="path38" fill="#f2bdbd" stroke="#2e3842" stroke-linecap="round" stroke-linejoin="round" stroke-miterlimit="10" stroke-width="2" d="M38.2 53H18.8C12.9 53 8 48.1 8 42.2V11.8C8 5.9 12.9 1 18.8 1h25.1C46.7 1 49 3.3 49 6.1v36.1C49 48.1 44.1 53 38.2 53z"/>
  <path id="path40" fill="none" stroke="#f7dcdc" stroke-linecap="round" stroke-linejoin="round" stroke-miterlimit="10" stroke-width="2" d="M38.1 53H18.9C14 53 10 49 10 44.1V11.9C10 7 14 3 18.9 3h24.9c1.8 0 3.3 1.5 3.3 3.3v37.9C47 49 43 53 38.1 53z"/>
  <path id="line90" fill="none" stroke="#e29393" stroke-linecap="round" stroke-linejoin="round" stroke-miterlimit="10" stroke-width="2" d="M17.1 13H40" class="st13"/>
  <path id="line92" fill="none" stroke="#e29393" stroke-linecap="round" stroke-linejoin="round" stroke-miterlimit="10" stroke-width="2" d="M17.1 20H40" class="st13"/>
  <path id="line94" fill="none" stroke="#e29393" stroke-linecap="round" stroke-linejoin="round" stroke-miterlimit="10" stroke-width="2" d="M17.1 27H26" class="st13"/>
  <g id="g100" transform="translate(-364 -444)">
    <path id="path96" fill="#fff" d="M369 484h12.3c1.6 0 3.1 1 3.7 2.5.6 1.5 2.1 2.5 3.7 2.5H416c2.2 0 4 1.8 4 4v8c0 2.2-1.8 4-4 4h-47c-2.2 0-4-1.8-4-4v-13c0-2.2 1.8-4 4-4z"/>
    <path id="path98" fill="#2e3842" d="M366 495v-7c0-1.6 1.3-3 3-3h12.3c1.2 0 2.3.7 2.8 1.9.8 1.9 2.6 3.1 4.6 3.1H416c1.6 0 3 1.3 3 3v4h2v-4c0-2.7-2.2-5-5-5h-27.3c-1.2 0-2.3-.7-2.8-1.9-.8-1.9-2.6-3.1-4.6-3.1H369c-2.7 0-5 2.2-5 5v7z"/>
  </g>
  <path id="path102" fill="#b4bcc1" d="M55 57c0 1.6-1.3 3-3 3H5c-1.6 0-3-1.3-3-3v-4H0v4c0 2.7 2.2 5 5 5h47c2.7 0 5-2.2 5-5z"/>
</svg>