<svg xmlns="http://www.w3.org/2000/svg" id="Layer_1" x="0" y="0" version="1.1" xml:space="preserve" viewBox="0 0 38 29">
  <path id="path382" fill="#c7e0ff" stroke="#5587c4" stroke-linecap="round" stroke-linejoin="round" stroke-miterlimit="10" stroke-width="2" d="M1 7.1V4.6C1 2.6 2.6 1 4.6 1h8.9c1 0 1.9.4 2.6 1.1l4.1 4.1c.7.7 1.6 1.1 2.6 1.1h5.5c4.8 0 8.7 3.9 8.7 8.7v8.4c0 2-1.6 3.6-3.6 3.6H4.6c-2 0-3.6-1.6-3.6-3.6z"/>
  <path id="path384" fill="none" stroke="#eef6ff" stroke-linecap="round" stroke-linejoin="round" stroke-miterlimit="10" stroke-width="2" d="M2 7.6V5c0-1.7 1.4-3.1 3.1-3.1h8.5c.9 0 1.4.4 2.1 1l3.8 3.8c.6.6 2.1 1.3 3 1.3h5.2c4.5 0 8.1 3.3 8.1 7.8v8c0 1.7-1.4 3.1-3.1 3.1H5.2c-1.7 0-3.1-1.4-3.1-3.1V7.6z" class="st11"/>
  <path id="line386" fill="none" stroke="#eef6ff" stroke-linecap="round" stroke-linejoin="round" stroke-miterlimit="10" stroke-width="2" d="M22 7.9H11" class="st11"/>
</svg>