<svg xmlns="http://www.w3.org/2000/svg" viewBox="0 0 494 111">
  <path fill="#2d3964" d="M90.902 65.898h15.952c1.21 4.842 4.841 8.143 14.632 8.143 6.931 0 10.232-1.65 10.232-4.951 0-4.07-4.731-4.4-13.862-6.602-17.163-4.07-24.204-7.92-24.204-18.371 0-12.764 10.562-20.135 26.514-20.135 16.832 0 25.083 8.143 27.174 19.363h-15.952c-1.21-3.85-4.511-6.16-11.772-6.16-6.271 0-10.122 1.76-10.122 5.061 0 2.859 2.75 3.41 11.552 5.391C138.318 51.598 148 54.898 148 67c0 13.531-11.992 20.133-26.954 20.133-16.172 0-27.944-7.922-30.144-21.235zM213.235 25.303v75.439h-15.731v-23.07c-4.181 5.721-10.562 9.461-19.033 9.461-15.842 0-27.614-12.982-27.614-31.574 0-18.703 11.992-31.576 27.503-31.576 8.582 0 14.963 3.961 19.144 9.793v-8.473h15.731zm-15.731 30.256c0-9.902-6.711-16.613-15.513-16.613-8.801 0-15.292 6.711-15.292 16.613 0 10.01 6.601 16.611 15.292 16.611 8.802 0 15.513-6.602 15.513-16.611zM274.281 25.303v60.51h-15.732v-8.361c-4.4 6.16-10.342 9.682-18.703 9.682-13.312 0-21.562-9.131-21.562-23.873V25.303h15.732v34.545c0 7.922 2.971 12.322 11.111 12.322 8.691 0 13.422-5.17 13.422-15.072V25.303h15.732zM279.767 42.927H295.5v42.886h-15.732V42.927zM363.037 8.506v77.307h-15.733v-8.141c-4.18 5.721-10.561 9.461-19.031 9.461-15.732 0-27.615-12.982-27.615-31.574 0-18.703 11.992-31.576 27.504-31.576 8.582 0 14.963 3.961 19.143 9.793V8.506h15.732zm-15.733 47.053c0-9.902-6.711-16.613-15.512-16.613s-15.291 6.711-15.291 16.613c0 10.01 6.6 16.611 15.291 16.611 8.801 0 15.512-6.602 15.512-16.611zM430.254 58.309h-51.818c.881 12.541 9.791 20.133 22.004 20.133 8.361 0 15.291-3.521 18.922-10.562h9.461c-5.061 12.873-16.061 19.143-28.713 19.143-17.934 0-31.025-12.762-31.025-31.244 0-18.373 12.873-31.684 30.916-31.684 18.811-.001 31.022 14.3 30.253 34.214zm-51.377-8.582h41.475c-1.98-10.121-9.461-17.053-20.352-17.053-11.113 0-19.033 7.152-21.123 17.053z"/>
  <path fill="#2d3964" d="M469.848 85.812l-16.723-24.094-16.502 24.094h-11.002l22.004-31.135-20.793-29.375h11.002l15.512 22.555 15.293-22.555h11.111l-20.904 29.484 22.004 31.025h-11.002z"/>
  <path fill="#3389FF" d="M290.666 30.575h2.198a2.637 2.637 0 000-5.273h-10.461a2.637 2.637 0 00-2.636 2.637c0 .805.368 1.516.938 2l-.018.013a2.936 2.936 0 011.071 2.259c0 .9-.411 1.696-1.046 2.237l.018.031a2.622 2.622 0 00-.963 2.022 2.637 2.637 0 002.636 2.636h8.23a2.637 2.637 0 000-5.273h.21a1.65 1.65 0 01-.177-3.289zM21.267 80.827c-.473 0-.971-.031-1.494-.096-3.67-.459-6.484-2.862-7.531-6.428-1.109-3.789.053-8.048 2.826-10.359a2.696 2.696 0 113.451 4.142c-1.138.948-1.611 2.968-1.104 4.7.309 1.051 1.083 2.353 3.025 2.596 1.399.175 2.459-.063 3.246-.724 1.435-1.209 1.869-3.684 1.922-4.596V53.077a2.695 2.695 0 115.392 0v17.051l-.001.098c-.02.558-.297 5.538-3.803 8.525-1.165.991-3.089 2.076-5.929 2.076z"/>
  <path fill="#3389FF" d="M31.435 99.967c-.473 0-.971-.031-1.494-.096-3.67-.46-6.486-2.862-7.531-6.428-1.109-3.789.051-8.048 2.826-10.358a2.696 2.696 0 113.451 4.141c-1.138.947-1.612 2.968-1.104 4.701.308 1.049 1.082 2.351 3.025 2.594 1.404.177 2.473-.065 3.259-.735 1.638-1.394 1.887-4.275 1.909-4.586V52.238a2.696 2.696 0 115.39 0v37.031c0 .032 0 .062-.002.097-.019.558-.296 5.538-3.803 8.525-1.162.991-3.086 2.076-5.926 2.076zM65.941 80.827c-2.84 0-4.764-1.085-5.928-2.076-3.507-2.987-3.784-7.968-3.803-8.525-.002-.032-.002-.064-.002-.098V53.077a2.694 2.694 0 115.39 0v16.991c.05.889.482 3.377 1.923 4.591.786.66 1.849.899 3.245.723 1.942-.242 2.718-1.544 3.025-2.595.509-1.732.034-3.752-1.104-4.7a2.695 2.695 0 113.451-4.142c2.774 2.312 3.936 6.57 2.826 10.359-1.045 3.565-3.861 5.969-7.53 6.428-.522.064-1.02.095-1.493.095z"/>
  <path fill="#3389FF" d="M55.773 99.967c-2.84 0-4.764-1.085-5.928-2.076-3.507-2.987-3.783-7.968-3.803-8.525-.002-.034-.002-.064-.002-.097V52.238a2.696 2.696 0 115.39 0v36.967c.051.891.482 3.379 1.923 4.592.786.661 1.847.9 3.245.724 1.942-.243 2.718-1.545 3.025-2.594.509-1.733.034-3.754-1.104-4.701a2.696 2.696 0 113.452-4.141c2.774 2.311 3.935 6.569 2.825 10.358-1.045 3.565-3.861 5.968-7.53 6.428-.522.065-1.019.096-1.493.096z"/>
  <path fill="#3389FF" d="M64.793 38.868c-.178-1.947 3.787-1.169 3.311-2.94C63.147 17.484 43.646 8.512 43.632 8.506c-.015.006-19.516 8.978-24.472 27.422-.478 1.771 3.487.993 3.31 2.94-.217 2.364-4.765 3.333-4.172 10.121.641 7.341 7.182 14.765 7.418 18.873h5.295v-.153a2.388 2.388 0 014.777 0v.153l5.39-2.695v-.107a2.435 2.435 0 114.87 0v.107l5.375 2.695v-.153c0-1.319 1.069-2.388 2.389-2.388s2.389 1.068 2.389 2.388v.153h5.391c.542-5.791 6.735-11.532 7.376-18.873.59-6.788-3.959-7.757-4.175-10.121z"/>
</svg>