<svg width="48" height="48" viewBox="0 0 48 48" fill="none" xmlns="http://www.w3.org/2000/svg">
<path d="M36.2237 18.6711C36.3533 17.6484 38.4691 18.5637 38.419 17.5869C38.3519 16.4729 38.1725 15.3767 37.8978 14.315C37.63 13.2737 37.2744 12.2674 36.8501 11.2998C35.2671 7.68489 32.7907 4.498 29.8985 1.84248C29.2973 1.28834 28.7141 0.655763 27.8882 0.452968C27.0548 0.249692 26.2203 0.354404 25.4231 0.606316C19.3279 2.27948 15.3775 5.79748 13.3957 7.99943C13.3524 8.0464 13.312 8.09414 13.2705 8.14006C13.1731 8.25116 13.0802 8.35727 12.9927 8.46022C12.9478 8.51295 12.9005 8.56346 12.8553 8.61762C12.7504 8.74521 12.6466 8.87463 12.5442 9.00442C12.0961 9.57029 11.8754 9.91809 11.8754 9.91809C11.5902 10.3349 11.3227 10.7657 11.0758 11.2113C10.6 12.0581 12.8994 12.1794 12.5786 13.1586C12.1828 14.355 9.5289 14.2497 9.06781 17.8394C8.56112 21.7083 11.3541 26.3796 10.9939 28.5382L13.9008 29.442L13.9794 29.1486C14.1407 28.472 14.8535 28.0649 15.5872 28.2276C16.3199 28.4054 16.8036 29.0884 16.6427 29.7636L16.623 29.8369L19.9438 29.156L19.9625 29.0978C20.1248 28.406 20.8537 27.9847 21.6029 28.1639C22.3522 28.3431 22.8352 29.0398 22.6729 29.7316L22.6543 29.7898L25.3445 31.8748L25.3642 31.8014C25.5255 31.1248 26.2383 30.7177 26.972 30.8804C27.7047 31.0582 28.1718 31.7399 28.0274 32.4164L28.0078 32.4898L31.0209 33.1923C31.9979 30.2741 36.1304 28.129 37.3542 24.4214C38.4825 21.0074 36.0682 19.9165 36.2237 18.6711Z" fill="#4593FF"/>
<path d="M33.1671 43.1588C33.0591 41.1198 32.0433 39.4187 30.7518 37.6915C30.2717 37.0465 30.0536 36.2898 30.2671 35.5732C30.4977 34.8273 31.1702 34.3185 31.7061 33.7515C32.3128 33.1156 32.6319 32.3487 32.8822 31.5294C33.1681 30.6688 33.3179 29.7656 33.4333 28.8593C33.7109 26.6308 33.6638 24.3415 33.4936 22.087C33.3144 19.5912 32.9446 17.1075 32.4375 14.6256C31.974 12.3881 31.4057 10.158 30.5948 7.97847C30.0553 6.50058 29.4331 4.89569 28.3159 3.63603C27.9989 3.27673 27.5978 2.89333 27.0827 2.78614C26.1061 2.56144 24.9323 3.6111 24.3135 4.08035C22.7741 5.26173 21.4176 6.65547 20.1465 8.05671C18.518 9.84618 17.0258 11.723 15.6346 13.6532C14.2243 15.6429 12.9164 17.6863 11.829 19.8412C10.9079 21.6506 10.1041 23.5609 9.79935 25.5756C9.58094 26.9984 9.74636 28.336 10.3051 29.725C10.8344 31.0059 10.4126 32.3049 9.08056 32.9191C7.13502 33.822 5.46149 34.8565 4.42185 36.6095C3.47355 38.2051 3.34175 40.1475 4.46109 41.8578C5.0537 42.7534 5.88597 42.124 5.30989 41.2297C4.15757 39.4705 5.19835 37.6731 6.59949 36.5086C8.53195 34.8977 11.7721 34.5636 13.2356 32.5187C13.6867 31.8843 14.0052 31.1311 14.0819 30.3578C17.7272 31.3839 23.187 32.833 27.3455 33.4401C27.1706 34.0699 27.1317 34.7424 27.2311 35.3979C27.5654 37.8936 30.3041 39.7234 31.2651 42.0649C31.9702 43.7676 32.0587 45.8506 30.232 46.8548C29.3013 47.37 29.7542 48.3283 30.6849 47.8132C32.499 46.8102 33.263 45.0311 33.1671 43.1588Z" fill="#3370FF"/>
<path d="M16.9941 29.0052C16.5978 27.9618 13.5818 28.8354 13.9785 29.8774C15.4343 33.7202 13.91 36.3531 12.0302 39.1033C10.5526 41.2585 10.321 43.7737 11.4993 46.3075C11.9699 47.32 12.8335 46.608 12.3633 45.5941C10.6261 41.884 14.2262 39.4498 15.7055 36.6692C16.8684 34.439 17.963 31.5523 16.9941 29.0052ZM23.908 27.7147C24.5362 26.6144 27.3064 27.9594 26.6628 29.0602C24.3171 33.1191 25.1967 36.2173 26.3863 39.494C26.4603 39.688 28.6311 42.3414 25.1997 47.4998C24.4975 48.5556 23.8188 47.6601 24.5207 46.6057C27.1026 42.7257 24.1612 39.5945 23.3569 36.347C22.7288 33.7263 22.3557 30.4063 23.908 27.7147Z" fill="#3370FF"/>
<path d="M20.636 40.3886C20.6031 38.8198 20.1978 37.512 20.105 35.955C20.0036 34.0688 20.7829 32.3586 21.7613 30.7941C22.3737 29.8329 19.6018 28.7634 18.9908 29.708C17.5648 31.9741 17.948 34.8036 18.373 37.4254C18.6378 39.0686 19.2512 40.6433 18.5895 42.362C17.9654 43.9628 16.7582 45.3781 15.6972 46.609C14.9734 47.4586 15.7986 48.2716 16.5375 47.423C18.2247 45.472 20.688 43.2557 20.636 40.3886Z" fill="#3370FF"/>
<path d="M15.0419 22.1484C16.1696 22.408 17.222 22.0189 17.3924 21.2793C17.5629 20.5397 16.7868 19.7297 15.6591 19.4701C14.5314 19.2105 13.479 19.5996 13.3086 20.3391C13.1381 21.0787 13.9141 21.8887 15.0419 22.1484Z" fill="#63A5FF" fill-opacity="0.5"/>
<path d="M30.1525 25.3194C31.3414 25.5931 32.451 25.1829 32.6307 24.4031C32.8104 23.6234 31.9922 22.7693 30.8032 22.4956C29.6143 22.2219 28.5047 22.6321 28.325 23.4119C28.1453 24.1916 28.9635 25.0457 30.1525 25.3194Z" fill="#63A5FF" fill-opacity="0.5"/>
<path d="M26.461 23.3919C25.7954 26.2787 23.4465 28.1954 21.2057 27.6683C18.9667 27.1418 17.7076 24.3977 18.3472 21.5333C19.0128 18.6465 20.1629 21.9611 22.4032 22.4624C24.644 22.9894 27.1237 20.53 26.461 23.3919Z" fill="#253256"/>
<path d="M22.4013 22.4639C21.4354 22.2345 20.6919 21.5161 20.0808 20.9727C20.5983 21.8451 21.2678 22.9692 22.2341 23.1969C23.2 23.4264 24.277 22.7024 25.1263 22.132C24.371 22.3717 23.3693 22.6921 22.4013 22.4639Z" fill="white"/>
<path d="M42.9895 11.1613C43.6807 11.205 44.2774 10.6785 44.3222 9.98517C44.367 9.29186 43.8431 8.69433 43.1519 8.65055C42.4607 8.60678 41.864 9.13333 41.8192 9.82665C41.7744 10.52 42.2983 11.1175 42.9895 11.1613Z" fill="#414E7C"/>
<path d="M37.7525 7.45387C37.9635 7.46724 38.1457 7.30647 38.1594 7.09478C38.1731 6.88309 38.0131 6.70065 37.802 6.68729C37.591 6.67392 37.4088 6.83469 37.3951 7.04638C37.3814 7.25807 37.5414 7.44051 37.7525 7.45387Z" fill="#3389FF"/>
<path d="M42.4483 16.5572C42.8704 16.5839 43.2347 16.2623 43.2621 15.839C43.2895 15.4156 42.9695 15.0507 42.5474 15.024C42.1254 14.9973 41.761 15.3188 41.7336 15.7422C41.7063 16.1655 42.0262 16.5304 42.4483 16.5572Z" fill="#3389FF"/>
<path d="M27.5826 19.3326C28.8014 19.6592 30.0551 18.9325 30.3828 17.7095C30.7105 16.4866 29.9881 15.2304 28.7693 14.9038C27.5505 14.5772 26.2968 15.3039 25.9691 16.5269C25.6415 17.7499 26.3638 19.0061 27.5826 19.3326Z" fill="white"/>
<path d="M19.7252 16.7272C20.944 17.0537 22.1977 16.3271 22.5254 15.1041C22.8531 13.8811 22.1307 12.6249 20.9119 12.2983C19.6931 11.9718 18.4394 12.6985 18.1117 13.9214C17.784 15.1444 18.5064 16.4006 19.7252 16.7272Z" fill="white"/>
<path d="M20.2665 12.4812C18.4713 12.0861 17.8384 14.8572 19.6318 15.2492C21.3882 15.6795 22.0248 12.8746 20.2665 12.4812Z" fill="#253256"/>
<path d="M28.1728 15.1023C26.3775 14.7072 25.7447 17.4783 27.5381 17.8703C29.2945 18.3006 29.9311 15.4957 28.1728 15.1023Z" fill="#253256"/>
</svg>
